<?xml version="1.0" encoding="utf-8"?>
<!-- Generator: Adobe Illustrator 24.2.3, SVG Export Plug-In . SVG Version: 6.00 Build 0)  -->
<svg version="1.1" id="Layer_1" xmlns="http://www.w3.org/2000/svg" xmlns:xlink="http://www.w3.org/1999/xlink" x="0px" y="0px"
	 viewBox="0 0 1000 1000" style="enable-background:new 0 0 1000 1000;" xml:space="preserve">
<style type="text/css">
	.st0{fill:#225869;}
</style>
<g>
	<g>
		<path class="st0" d="M821,397.1c-11.7-35.9-29.8-69.6-52.2-99.9c-22.2-28.9-48.6-54.6-78.7-75.3c-26.8-18.4-56.1-33.3-87-43.3
			c-19-6-38.5-10.7-58.2-13.3c-24.7-3.3-49.8-3.5-74.7-1.6c-63.3,5.6-124.9,29.8-175.1,68.9c-39.6,30.5-72.4,69.8-95.1,114.4
			c-12.5,24.3-22.3,50.1-28.5,76.8c-11.2,48.5-11.9,99.4-1.2,148c8.6,37.8,23.3,74.2,44.2,106.8c17.3,27.3,38.5,52.2,62.7,73.7
			c52,45.9,118.2,76.1,187.4,83.3c35.6,3.5,71.8,2,106.8-5.8C642,814.1,707.2,775,754.5,720.3c14.6-16.5,27.1-34.7,38.3-53.7
			c28.8-49.3,44.4-106.2,44.5-163.4C837.5,467.3,832.4,431.3,821,397.1z M816.8,595.3c-14.6,47.1-40,90.8-73.3,127.3
			c-14.6,15.5-30.3,30-47.4,42.7c-46.5,34.5-101.9,57.2-159.6,63.5c-37.1,4.2-74.9,1.8-111.2-6.7c-66.8-15.9-128.1-53.2-173.5-104.7
			c-23.3-26.6-42.6-56.7-56.3-89.3c-7.5-16.6-12.8-34.1-17.4-51.7c-12.1-50-11.8-102.9,0.1-152.9c13.1-53.1,39.2-103,75.7-143.7
			c26.4-29.4,57.9-54.2,92.8-72.7c40.4-21.5,85.4-34.3,131.1-37.3c43.9-2.9,88.5,2.8,130,17.4c31.5,10.9,61.1,27,87.9,46.9
			c53.8,39.5,94.8,95.7,116.7,158.6c13.6,38.7,19.6,79.9,18.1,120.8C829.2,541.2,824.9,568.8,816.8,595.3z"/>
		<path class="st0" d="M246.2,674.5c-2.3,1.7-4.5,3.4-7,4.6c0.7,0.3,1.3,0.7,2,1.1l-1.7,0.4c0.7,0.5,5.4-1.8,7.6-3.5l0.4-0.3
			L246.2,674.5z"/>
		<path class="st0" d="M824,495.7c-1-73.7-28.5-146.7-76-203.1c-21.7-26.3-48-48.6-76.6-67.1c-14.7-8.9-29.7-17.4-45.6-23.9
			c-9.8-4.5-19.9-8.2-30.2-11.2c-40.6-12.9-83.8-17.1-126.2-13.2c-28.3,2.7-56.2,9.5-82.9,19.2c-14.6,5.9-29.1,12.1-42.7,20.2
			c-26.6,14.4-50.6,33.4-72.2,54.5c-22.2,22.5-41.7,47.8-56.5,75.8c-27.7,50.7-41.2,108.9-38.7,166.5c0.7,19.6,3.2,39.1,7.9,58.2
			c8.2,35.4,22.4,69.4,42,100.1c9.9,15.2,20.6,29.9,32.7,43.4c42.2,47,98.1,81.7,159.2,98c36.3,9.8,74.5,12.7,111.9,9.3
			c55.5-4.9,109.3-25.5,154.8-57.4c37.5-26.5,69.8-60.6,93.3-100.1C808.9,614.5,825,555,824,495.7z M818.6,493.6c0,0.7,0,2.2,0,2.9
			c-3.2-0.1-6.4,0-9.6,0.2c0-0.7-0.1-2.1-0.1-2.8C812.1,493.8,815.4,493.7,818.6,493.6z M808.7,491.5c0.1-0.7,0.2-2.1,0.2-2.8
			c3.2-0.1,6.5-0.2,9.7-0.2c0,0.9-0.1,1.8-0.1,2.7C815.2,491.2,811.9,491.3,808.7,491.5z M808.4,486.3c0-0.6,0.1-1.7,0.2-2.3
			c3.1-0.2,6.3-0.4,9.4-0.7c0.2,0.9,0.5,1.8,0.7,2.7C815.2,486.3,811.8,486.4,808.4,486.3z M817.9,480.9c-3.2,0.5-6.5,0.5-9.8,0.7
			c0-0.6-0.1-1.9-0.1-2.5c3.4-0.3,6.8-0.6,10.2-0.7C818.2,479,818,480.3,817.9,480.9z M817.7,476c-3.4,0.2-6.7,0.5-10.1,0.8
			c0.1-0.7,0.2-2,0.3-2.7c3.2-0.6,6.4-0.6,9.7-0.8C817.6,473.9,817.7,475.3,817.7,476z M817.2,470.8c-3.3,0.3-6.6,0.7-9.8,1.1
			c0-0.6-0.1-1.8-0.2-2.5c3.2-0.6,6.5-1,9.8-1.3C817,469,817.1,470,817.2,470.8z M816.8,465.9c-3.3,0.3-6.5,1-9.8,1.2
			c-0.2-0.6-0.4-1.9-0.6-2.6c3.3-0.5,6.7-0.9,10-1.4C816.5,464,816.7,464.9,816.8,465.9z M816.2,460.7c-3.3,0.4-6.6,0.9-9.9,1.3
			c-0.1-0.6-0.1-1.9-0.2-2.6c3.3-0.5,6.5-1.1,9.9-1.2C816,458.9,816.1,460.1,816.2,460.7z M815.4,455.5c-3.3,0.6-6.7,1.3-10,1.8
			c-0.1-0.7-0.2-2-0.3-2.7c3.3-0.5,6.5-1.1,9.8-1.7C815,453.6,815.3,454.8,815.4,455.5z M814.5,450.5c-3.2,0.6-6.4,1.2-9.6,1.9
			c-0.2-0.9-0.5-1.8-0.7-2.7c3.3-0.7,6.6-1.3,9.9-1.8C814.3,448.6,814.4,449.9,814.5,450.5z M813.5,445.5c-3.1,0.5-6.2,1.3-9.3,1.8
			c-0.2-0.6-0.6-1.8-0.8-2.4c3.3-0.8,6.7-1.5,10-2.1C813.4,443.5,813.4,444.9,813.5,445.5z M812.6,440.4c-3.1,0.7-6.2,1.5-9.3,2.1
			c-0.3-0.6-0.8-1.8-1-2.4c3.2-0.8,6.5-1.5,9.7-2.3C812.2,438.4,812.5,439.7,812.6,440.4z M811.8,435.5c-3.2,0.7-6.4,1.7-9.6,2.1
			c-0.5-0.7-0.8-1.5-1-2.4c3.2-0.8,6.5-1.5,9.7-2.5C811.2,433.6,811.5,434.5,811.8,435.5z M810.6,430.5c-3.2,0.6-6.5,1.3-9.6,2.1
			c-0.2-0.6-0.5-1.9-0.6-2.5c3.2-0.8,6.4-1.7,9.6-2.5C810.1,428.6,810.4,429.6,810.6,430.5z M809.3,425.3c-3.2,0.7-6.3,1.9-9.5,2.3
			c-0.2-0.6-0.4-1.7-0.6-2.3c3.1-0.9,6.2-1.8,9.3-2.7C808.7,423.3,809.1,424.7,809.3,425.3z M808,420.5c-3.2,0.8-6.4,1.7-9.7,2.5
			c0-0.6-0.1-1.8-0.2-2.4c3-1.3,6.2-1.9,9.3-2.7C807.6,418.5,807.9,419.8,808,420.5z M806.9,415.4c-3.2,0.7-6.3,1.6-9.4,2.4
			c-0.4-0.7-0.7-1.5-1-2.3c3.1-0.9,6.2-1.8,9.3-2.8C806.1,413.6,806.5,414.5,806.9,415.4z M805.3,410.3c-3.2,0.9-6.4,1.9-9.6,2.9
			c-0.1-0.5-0.3-1.6-0.4-2.2c2.7-1.7,6.1-2.1,9.1-3.3C804.6,408.4,805,409.7,805.3,410.3z M803.7,405.4c-2.9,0.8-5.7,1.9-8.5,2.8
			c-1.3,0.6-1.3-1.5-1.7-2.2c3.2-1,6.4-2.1,9.6-3.1C803.2,403.5,803.6,404.8,803.7,405.4z M802.3,400.6c-3.2,0.9-6.3,2-9.5,3.1
			c-0.3-0.8-0.7-1.6-1-2.4c3.1-1.1,6.3-2.2,9.5-3.3C801.6,398.9,802,399.7,802.3,400.6z M800.5,395.9c-3.1,1-6.2,2.1-9.3,3.1
			c-0.2-0.7-0.7-2-0.9-2.7c3.1-0.9,6.2-2,9.3-3.2C799.9,394,800.2,395,800.5,395.9z M799,390.9c-3.1,1.1-6.1,2.5-9.3,3.3
			c-0.3-0.5-1-1.4-1.3-1.9c3-1.5,6.2-2.6,9.3-3.8C798,389.1,798.7,390.3,799,390.9z M797.1,386.1c-3.1,1.1-6.1,2.3-9.1,3.6
			c-0.3-0.8-0.7-1.6-1-2.4c3-1.1,6-2.4,8.9-3.7C796.2,384.2,796.8,385.5,797.1,386.1z M795.2,381.5c-3,1.2-6,2.4-8.9,3.8
			c-0.3-0.6-1-1.7-1.3-2.3c3-1.4,6-2.7,8.9-4.1C794.2,379.5,794.8,380.8,795.2,381.5z M793,376.6c-2.9,1.2-5.8,2.5-8.6,3.9l-1.2-2.3
			c2.9-1.3,5.9-2.6,8.8-4C792.2,374.9,792.7,376,793,376.6z M790.9,372.1c-2.9,1.1-5.8,2.4-8.7,3.9c-0.3-0.6-1-1.7-1.3-2.3
			c3-1.4,6-2.7,9-4.1C790.3,370.5,790.6,371.3,790.9,372.1z M788.9,367.1c-3,1.4-5.9,2.9-8.9,4.3c-0.3-0.6-0.9-1.8-1.2-2.4
			c3-1.4,6-2.8,9-4.2C788.1,365.4,788.7,366.6,788.9,367.1z M786.9,362.6c-3.1,1.3-6.2,2.9-9.2,4.5c-0.3-0.8-0.6-1.6-0.9-2.4
			c2.9-1.4,5.8-2.8,8.6-4.4C785.8,360.9,786.6,362,786.9,362.6z M784.8,358c-3,1.5-6.1,3-8.9,4.8c-0.4-0.6-1.1-1.8-1.5-2.4
			c2.9-1.7,5.8-3.2,8.8-4.6C783.6,356.3,784.4,357.4,784.8,358z M782.4,353.3c-2.9,1.7-5.9,3.2-8.7,5c-0.5-0.8-1-1.6-1.4-2.3
			c2.9-1.5,5.6-3.2,8.4-4.7C781.1,351.8,781.9,352.8,782.4,353.3z M779.6,349c-2.9,1.6-5.7,3.2-8.5,5c-0.5-0.9-1-1.8-1.6-2.7
			c3-1.3,5.8-3,8.6-4.6C778.7,347.4,779.1,348.2,779.6,349z M777.2,344.4c-2.8,1.7-5.7,3.4-8.6,5c-0.3-0.5-0.9-1.6-1.2-2.1
			c2.8-1.6,5.5-3.3,8.2-5C776.2,343,776.7,343.7,777.2,344.4z M774.8,340c-2.9,1.5-5.8,3.2-8.5,5c-0.4-0.5-1.2-1.5-1.6-2
			c2.9-1.6,5.6-3.6,8.7-4.7C773.8,338.8,774.5,339.6,774.8,340z M772.2,335.5c-2.9,1.6-5.6,3.6-8.4,5.1c-0.5-0.4-1.4-1.3-1.9-1.8
			c2.9-1.8,5.8-3.5,8.6-5.4C770.8,334,771.7,335,772.2,335.5z M769.4,331.4c-3,1.5-5.6,3.7-8.6,5.2c-0.3-0.4-1-1.3-1.3-1.7
			c2.8-1.9,5.5-3.8,8.3-5.7C768.3,329.9,768.8,330.6,769.4,331.4z M766.6,327.1c-2.8,1.8-5.5,3.8-8.2,5.7c-0.4-0.6-1.2-1.8-1.6-2.4
			c2.9-1.7,5.6-3.6,8.4-5.5C765.6,325.6,766.1,326.4,766.6,327.1z M764,322.8c-2.9,1.9-5.8,3.8-8.6,5.7c-0.3-0.8-0.6-1.5-1-2.2
			c2.6-1.8,5.2-3.7,7.7-5.6C762.8,321.4,763.4,322.1,764,322.8z M761,318.6c-2.8,1.9-5.4,3.9-8.1,6c-0.5-0.8-1-1.5-1.5-2.2
			c2.7-1.9,5.3-3.9,7.8-6C759.8,317.1,760.4,317.9,761,318.6z M758,314.3c-2.8,1.9-5.5,4.1-8,6.4c-0.4-0.6-1.2-1.7-1.6-2.3
			c2.7-2,5.3-4,7.8-6.1C756.8,312.9,757.4,313.6,758,314.3z M754.7,310.1c-2.5,2.2-5.2,4.1-7.6,6.3c-0.7-0.7-1.3-1.3-1.9-2
			c2.7-2.1,5.5-4.1,8.2-6.3C753.7,308.6,754.4,309.6,754.7,310.1z M751.8,306.2c-2.7,2-5.3,4.1-7.8,6.4c-0.6-0.8-1.2-1.5-1.8-2.3
			c2.7-2,5.3-4.1,7.9-6.3C750.6,304.5,751.4,305.6,751.8,306.2z M748.4,301.6c-2.6,2.2-5.2,4.4-7.7,6.5c-0.4-0.5-1.3-1.6-1.8-2.2
			c2.5-2.1,5.1-4.2,7.4-6.5C747,300.2,747.7,300.9,748.4,301.6z M745.1,297.6c-2.9,1.7-5.1,4.3-7.6,6.5c-0.5-0.4-1.4-1.3-1.9-1.7
			c2.5-2.2,5.1-4.3,7.6-6.6C743.8,296.4,744.4,297,745.1,297.6z M741.7,293.9c-2.7,2.1-5.1,4.5-7.6,6.9c-0.4-0.5-1.2-1.6-1.6-2.1
			c2.6-2.2,5.1-4.4,7.5-6.8C740.4,292.4,741.3,293.4,741.7,293.9z M738.2,289.3c-2,2.8-4.8,4.9-7.4,7c-0.9-0.7-1.6-1.5-2.3-2.3
			c2.9-2.1,5.2-4.9,8.2-7L738.2,289.3z M731.4,282.3L731.4,282.3c0.4,0.5,1.2,1.4,1.6,1.9c-2.5,2.2-5.3,4.1-8,5.9
			c-0.3-0.5-0.7-0.9-1.1-1.4L731.4,282.3L731.4,282.3z M729.1,279.7l-6.9,6.5l-2.2-2l6.8-6.8L729.1,279.7z M725.1,275.6
			c-2.4,2.1-4.7,4.5-7.1,6.7c-0.5-0.4-1.5-1.2-2-1.6c2.4-2.4,4.8-4.8,7.2-7.2C723.8,274.3,724.4,274.9,725.1,275.6z M721.3,271.8
			c-2.4,2.3-4.6,4.8-6.6,7.5c-0.8-0.8-1.6-1.6-2.4-2.3c2.5-2,4.8-4.3,7-6.6C719.9,270.8,720.6,271.3,721.3,271.8z M717.6,268.8
			c-2.4,2.1-4.8,4.3-7.1,6.7c-0.5-0.4-1.4-1.3-1.9-1.7c2.4-2.3,4.7-4.7,7-7.1C716.3,267.4,716.9,268.1,717.6,268.8z M713.8,265
			c-2.4,2.2-4.6,4.6-6.8,7.1c-0.5-0.5-1.5-1.4-2-1.9c2.3-2.3,4.5-4.6,6.7-7C712.3,263.8,713,264.4,713.8,265z M709.7,261.4
			c-2.2,2.4-4.3,4.9-6.4,7.4c-0.6-0.7-1.3-1.3-1.9-2c2.2-2.4,4.3-4.8,6.4-7.2C708.4,260.2,709,260.8,709.7,261.4z M706,258.1
			c-2.3,2.4-4.3,4.9-6.4,7.5c-0.8-0.5-1.6-1.1-2.4-1.7c2.2-2.5,4.4-5,6.5-7.6C704.6,256.9,705.3,257.5,706,258.1z M702.1,254.8
			c-2.3,2.4-4.4,4.9-6.4,7.5c-0.8-0.5-1.6-1-2.4-1.6c2.2-2.6,4.4-5.2,6.7-7.8C700.6,253.5,701.3,254.1,702.1,254.8z M697.8,251.4
			c-2.1,2.5-4.1,5.1-6.1,7.7c-0.8-0.6-1.5-1.1-2.3-1.7c2.1-2.5,4.1-5.1,6.1-7.7C696.3,250.2,697.1,250.8,697.8,251.4z M693.7,248
			c-2,2.6-4.1,5.3-6,8c-0.7-0.6-1.4-1.2-2-1.7c2.1-2.5,4-5.1,6-7.7C692.2,246.8,693.2,247.6,693.7,248z M689.7,245
			c-2.1,2.6-4,5.3-5.9,8.1c-0.5-0.4-1.4-1.3-1.8-1.7c1.3-3.1,3.9-5.5,5.6-8.4C688.3,243.7,689,244.3,689.7,245z M685.4,241.7
			c-1.9,2.7-3.8,5.5-5.5,8.3c-0.8-0.5-1.5-1-2.3-1.5c2-2.7,3.9-5.5,5.8-8.3C684.1,240.7,684.8,241.2,685.4,241.7z M681.4,239
			c-2,2.6-4,5.4-5.6,8.3c-0.8-0.5-1.5-1-2.3-1.5c1.8-2.9,3.7-5.6,5.6-8.4C679.7,237.8,680.9,238.5,681.4,239z M677.1,236.1
			c-1.9,2.8-3.8,5.6-5.7,8.4c-0.7-0.5-1.3-1.1-2-1.6c1.9-2.8,3.7-5.6,5.5-8.4C675.6,235,676.3,235.5,677.1,236.1z M672.9,233.2
			c-2,2.7-3.8,5.5-5.7,8.4c-0.5-0.4-1.6-1.1-2.1-1.4c1.8-2.8,3.7-5.6,5.4-8.5C671.2,232.1,672.3,232.8,672.9,233.2z M668.8,230.6
			c-2,2.7-3.7,5.5-5.3,8.4c-0.6-0.4-1.8-1.1-2.4-1.5c1.8-2.8,3.6-5.7,5.3-8.6C667.1,229.5,667.9,230,668.8,230.6z M664.3,227.6
			c-1.8,2.9-3.6,5.9-5.4,8.8c-0.5-0.4-1.5-1.1-2-1.5c1.7-2.8,3.4-5.7,5-8.6C662.7,226.8,663.5,227.2,664.3,227.6z M659.9,225.2
			c-1.8,2.8-3.5,5.8-5,8.8c-0.8-0.6-1.6-1.1-2.4-1.7c1.9-2.8,3.4-5.8,4.9-8.8C658,224,659.3,224.8,659.9,225.2z M655.5,222.6
			c-1.8,2.8-3.4,5.8-4.8,8.8c-0.9-0.4-1.8-0.8-2.6-1.2c1.7-3,3.4-6,5.1-9C653.9,221.7,654.7,222.1,655.5,222.6z M651.3,220.2
			c-1.8,2.9-3.5,5.9-5.4,8.8c-0.4-0.3-1.3-1.1-1.8-1.4c1.6-2.9,3.2-5.8,4.7-8.8C649.6,219.3,650.4,219.8,651.3,220.2z M646.6,217.8
			c-1.7,2.9-3.2,5.9-4.7,8.9c-0.5-0.3-1.7-1-2.2-1.4c1.7-2.9,3.2-5.8,4.7-8.9C644.9,216.8,646.1,217.5,646.6,217.8z M642,215.6
			c-1.5,2.9-3,5.8-4.3,8.8c-0.8-0.4-1.6-0.8-2.4-1.2c1.5-3.1,3-6.1,4.5-9.1C640.6,214.6,641.3,215.1,642,215.6z M637.7,213.2
			c-1.5,3-3,6-4.3,9.1c-0.8-0.3-1.5-0.7-2.3-1c1.4-3.1,2.8-6.2,4.2-9.4C636.1,212.3,636.9,212.8,637.7,213.2z M633.2,211.2
			c-1.7,2.8-3,5.9-4.1,9c-0.6-0.2-1.9-0.7-2.5-0.9c1.4-3.2,2.8-6.4,4.3-9.5C631.4,210.1,632.6,210.9,633.2,211.2z M628.4,208.8
			c-1.4,3.1-2.7,6.2-3.8,9.4c-0.6-0.2-1.9-0.7-2.5-1c1.3-3.2,2.6-6.4,3.7-9.6C626.7,208,627.5,208.4,628.4,208.8z M623.6,206.7
			c-1.2,3.2-2.4,6.3-3.6,9.5c-0.7-0.3-2-0.7-2.7-1c1.4-3.1,2.6-6.3,3.7-9.5C621.8,205.9,623,206.4,623.6,206.7z M619,204.8
			c-1.3,3.1-2.5,6.3-3.7,9.5c-0.6-0.3-1.7-0.8-2.3-1c1.2-3.1,2.3-6.3,3.6-9.5C617.4,204.1,618.2,204.5,619,204.8z M614.4,203.1
			c-1.4,3.1-2.6,6.2-3.7,9.4c-0.9-0.4-1.8-0.7-2.6-1.1c1.4-3.1,2.6-6.2,3.6-9.5C612.6,202.3,613.5,202.7,614.4,203.1z M609.6,201.3
			c-1.3,3.1-2.4,6.3-3.5,9.5c-0.6-0.3-1.8-0.8-2.5-1.1c1.3-3,2.3-6.2,3.2-9.4C607.5,200.5,608.9,201,609.6,201.3z M604.8,199.5
			c-1.3,3.1-2.4,6.4-3.3,9.6c-0.5-0.3-1.6-0.8-2.1-1.1c0.7-3.3,2-6.5,3-9.7C603.1,198.8,604,199.1,604.8,199.5z M597.4,196.8
			c0.6,0.2,1.8,0.8,2.4,1c-1.2,3.2-2.2,6.4-3.1,9.6c-0.8-0.3-1.7-0.7-2.5-1C595.5,203.3,596.5,200,597.4,196.8z M595.2,196.2
			c-1.3,3.2-2.2,6.5-3.1,9.9c-0.6-0.3-1.8-0.8-2.4-1c1.1-3.2,2-6.5,2.8-9.8C593.4,195.5,594.3,195.8,595.2,196.2z M590.4,195
			c-1.1,3.1-2,6.3-2.8,9.6c-0.8-0.3-1.7-0.5-2.5-0.8c0.9-3.3,1.7-6.6,2.6-9.9C588.4,194.1,589.7,194.7,590.4,195z M585.4,193.3
			c-1,3.3-1.8,6.6-2.7,10c-0.6-0.2-1.7-0.7-2.3-0.9c0.5-3.4,1.5-6.7,2.2-10C583.5,192.7,584.4,193,585.4,193.3z M580.6,191.8
			c-1,3.4-1.8,6.8-2.6,10.2c-0.6-0.3-1.8-0.8-2.3-1.1c0.5-3.3,1.6-6.5,2.3-9.7C578.6,191.4,579.9,191.7,580.6,191.8z M573.1,190
			c0.9,0.3,1.8,0.5,2.7,0.8c-1,3.3-1.8,6.6-2.6,9.9c-0.6-0.2-1.7-0.6-2.3-0.7C571.3,196.5,572.4,193.3,573.1,190z M568.1,188.6
			c0.8,0.3,1.5,0.7,2.2,1.1c-0.3,3.3-1.3,6.5-1.8,9.8c-0.6-0.2-1.9-0.5-2.5-0.6C566.8,195.4,567.4,192,568.1,188.6z M563.1,187.7
			c0.8,0.3,1.7,0.5,2.6,0.8c-0.8,3.2-1.4,6.4-1.9,9.7c-0.7-0.1-2-0.3-2.6-0.4C561.8,194.5,562.4,191.1,563.1,187.7z M558.1,186.9
			c0.7,0.1,2,0.3,2.7,0.5c-0.8,3.3-1.5,6.5-2.1,9.8c-0.6-0.1-1.8-0.3-2.4-0.4C556.9,193.5,557.6,190.2,558.1,186.9z M552.9,185.9
			c0.9,0.2,1.8,0.4,2.8,0.6c-0.7,3.2-1.3,6.5-1.7,9.7c-0.6-0.1-1.8-0.2-2.4-0.2C551.9,192.6,552.5,189.2,552.9,185.9z M548,185
			c0.9,0.2,1.8,0.5,2.7,0.7c-0.6,3.2-1.2,6.4-1.5,9.7c-0.7,0-2-0.1-2.6-0.2C547.1,191.8,547.6,188.4,548,185z M543,184.3
			c0.7,0.2,2.1,0.4,2.8,0.6c-0.7,3.3-1.2,6.5-1.7,9.8c-0.6-0.1-1.9-0.2-2.5-0.3C542.2,191,542.7,187.7,543,184.3z M537.9,183.6
			c0.7,0.1,2,0.3,2.7,0.4c-0.5,3.4-1,6.8-1.2,10.2c-0.7-0.1-2.1-0.3-2.8-0.4C537.1,190.3,537.6,187,537.9,183.6z M532.9,183
			c0.6,0.1,1.9,0.3,2.5,0.4c-0.3,3.3-0.6,6.7-0.9,10c-0.7,0-2,0-2.6,0C532.2,189.9,532.6,186.4,532.9,183z M527.6,182.6
			c0.9,0.1,1.9,0.1,2.9,0.2c-0.4,3.4-0.7,6.7-1.1,10.1c-0.6-0.1-1.9-0.2-2.6-0.3C527.2,189.2,527.5,185.9,527.6,182.6z M522.4,182.3
			c0.7,0,2.1,0.1,2.9,0.1c-0.3,3.3-0.6,6.6-0.7,9.9c-0.7,0-2,0-2.7,0C522.1,189,522.3,185.6,522.4,182.3z M517.5,181.8
			c0.7,0.1,2.1,0.2,2.8,0.2c-0.2,3.3-0.4,6.7-0.5,10c-0.7,0-2.2-0.1-2.9-0.2C517.2,188.5,517.3,185.2,517.5,181.8z M512.2,181.6
			c0.7,0,2.1,0.1,2.8,0.2c-0.3,3.3-0.4,6.7-0.4,10c-0.9-0.1-1.8-0.3-2.8-0.4C512.1,188.1,512.3,184.9,512.2,181.6z M507,181.4
			c0.7,0.1,2.1,0.2,2.8,0.2c-0.1,3.3-0.2,6.6-0.2,9.9c-0.7,0-2,0-2.6,0C507,188.1,507,184.8,507,181.4z M502.1,181.4
			c0.7,0,2,0.1,2.7,0.1c-0.1,3.4-0.1,6.7-0.1,10.1c-0.6,0-1.9-0.1-2.5-0.1C501.9,188,502.1,184.7,502.1,181.4z M499.5,181.5
			c-0.1,3.3,0,6.6,0.1,9.9c-0.7,0-2,0-2.7,0c0-3.4,0-6.7-0.1-10.1C497.4,181.3,498.8,181.4,499.5,181.5z M494.4,181.6
			c0,3.3,0,6.6,0.2,9.8c-0.7,0-2,0-2.7,0.1c0-3.3-0.1-6.7-0.2-10C492.3,181.5,493.7,181.5,494.4,181.6z M489.3,181.6
			c0,3.3,0.1,6.7,0.2,10c-0.7,0-2,0.1-2.6,0.1c0-3.4-0.2-6.7-0.4-10.1C487.2,181.6,488.6,181.6,489.3,181.6z M484,181.9
			c0.1,3.3,0.3,6.6,0.5,9.9c-0.7,0-2,0.1-2.7,0.1c-0.1-3.3-0.3-6.6-0.6-9.9C481.9,182,483.3,181.9,484,181.9z M479,182.3
			c0.2,3.3,0.4,6.5,0.6,9.8c-0.7,0-2.1,0.1-2.8,0.2c-0.1-3.3-0.4-6.7-0.6-10C476.9,182.2,478.3,182.2,479,182.3z M473.9,182.5
			c0.2,3.3,0.5,6.7,0.6,10c-0.6,0-1.9,0.1-2.5,0.1c-0.2-3.4-0.5-6.7-0.8-10C472.1,182.6,473,182.5,473.9,182.5z M468.6,183
			c0.3,3.3,0.6,6.6,1,9.9c-0.7,0-2,0.2-2.6,0.2c-0.3-3.3-0.7-6.7-0.9-10C466.7,183.1,468,183,468.6,183z M463.5,183.6
			c0.3,3.3,0.7,6.6,1.1,9.9c-0.7,0.1-2,0.2-2.7,0.3c-0.3-3.3-0.7-6.7-1.2-10C461.7,183.7,462.6,183.6,463.5,183.6z M458.6,184.2
			c0.3,3.3,0.8,6.5,1.3,9.8c-0.9,0.1-1.8,0.3-2.7,0.4c-0.3-2.3-1.1-9.2-1.1-10C456.7,184.3,458,184.2,458.6,184.2z M452.4,185
			c0.3,3.5,0.7,6.9,1.1,10.3c-0.6-0.1-1.9-0.2-2.6-0.2c-0.7-3.2-0.9-6.5-1.6-9.7C450.4,185.3,451.4,185.1,452.4,185z M447,185.9
			c0.5,3.3,1,6.5,1.7,9.8c-0.9,0.1-1.7,0.2-2.6,0.4c-0.5-3.3-1.1-6.5-1.7-9.8C445.1,186.2,446.4,186,447,185.9z M441.8,186.9
			c0.8,3.2,1.3,6.5,2.1,9.6c-0.9,0.2-1.8,0.4-2.7,0.6c-0.4-3.4-1.2-6.8-1.9-10.1C440,187,441.2,187,441.8,186.9z M437,187.7
			c0.6,3.3,1.3,6.7,1.8,10c-0.6,0.1-1.8,0.2-2.4,0.3c-0.6-3.3-1.2-6.5-2-9.8C435,188.1,436.3,187.9,437,187.7z M431.9,188.7
			c0.7,3.4,1.3,6.8,2.1,10.1c-0.6,0.1-1.9,0.4-2.5,0.5c-0.6-3.3-1.2-6.6-2.2-9.8C430.2,189.2,431.1,188.9,431.9,188.7z M427,189.9
			c0.7,3.3,1.6,6.7,2.4,10c-0.7,0.1-2,0.4-2.6,0.5c-0.8-3.2-1.5-6.5-2.3-9.7C425.3,190.4,426.1,190.1,427,189.9z M422.1,191.1
			c0.7,3.3,1.6,6.6,2.5,9.9c-0.8,0.2-1.7,0.4-2.5,0.7c-1-3.2-1.8-6.4-2.8-9.6C420,191.8,421.4,191.4,422.1,191.1z M417.3,192.5
			c0.8,3.3,1.7,6.5,2.6,9.7c-0.7,0.2-2,0.6-2.6,0.9c-0.8-3.3-1.7-6.6-2.7-9.8C415.4,193,416.3,192.7,417.3,192.5z M412.3,193.9
			c0.9,3.2,1.8,6.4,2.8,9.6c-0.6,0.2-1.9,0.7-2.5,0.9c-0.9-3.3-2-6.5-2.9-9.8C410.3,194.4,411.7,194,412.3,193.9z M407.4,195.2
			c0.8,3.3,1.8,6.5,2.8,9.7c-0.6,0.2-1.9,0.7-2.5,0.9c-0.9-3.2-1.8-6.3-3.1-9.4C405.6,196,406.5,195.6,407.4,195.2z M402.6,197.2
			c0.9,3.1,1.9,6.1,2.7,9.2c-0.6,0.2-1.7,0.7-2.2,0.9c-1-3.2-2.1-6.4-3.2-9.6C400.8,197.5,401.7,197.3,402.6,197.2z M397.6,198.3
			c1,3.2,2.3,6.4,3,9.7c-0.6,0.3-1.7,0.8-2.3,1.1c-0.9-3.3-1.9-6.6-3-9.8C395.8,199.1,397,198.6,397.6,198.3z M392.8,200.3
			c1,3.2,2.2,6.3,3.5,9.4c-0.6,0.2-1.9,0.7-2.6,1c-1-3.2-2.4-6.2-3.3-9.4C391.1,201,392.3,200.5,392.8,200.3z M388.1,202.2
			c1.3,3,2.2,6.2,3.4,9.2c-0.6,0.2-1.8,0.7-2.4,1c-1-3.2-2.2-6.3-3.6-9.3C386.4,202.8,387.3,202.5,388.1,202.2z M383.5,203.8
			c1.1,3.2,2.2,6.4,3.5,9.5c-0.6,0.2-1.8,0.7-2.4,1c-1.2-3.1-2.4-6.3-3.6-9.3C381.8,204.6,382.6,204.2,383.5,203.8z M378.7,205.6
			c1.1,3.3,2.4,6.6,3.9,9.7c-1,0.2-2.5,1.4-2.9-0.2c-1.3-2.7-2.2-5.5-3.5-8.1C377.1,206.5,377.9,206,378.7,205.6z M374,207.7
			c1.4,3.1,2.6,6.2,3.9,9.4c-0.8,0.3-1.6,0.6-2.4,0.9c-1.3-3.1-2.8-6.2-4.2-9.2C372.2,208.4,373.1,208.1,374,207.7z M369.3,209.9
			c1.3,3.1,2.6,6.1,4.1,9.1c-0.6,0.3-1.8,1-2.5,1.3c-1.2-3.1-2.6-6.2-4.2-9.2C367.4,210.8,368.7,210.2,369.3,209.9z M364.8,212
			c1.2,3.1,2.9,6,3.8,9.2c-0.5,0.3-1.6,0.8-2.1,1c-1.2-3.1-2.6-6.1-4-9.1C363.2,212.8,364.3,212.3,364.8,212z M360.2,214.2
			c1.5,3,2.9,6,4.3,9.1c-0.8,0.4-1.6,0.7-2.4,1.1c-1.3-3-2.8-6.1-4.2-9.1C358.8,214.9,359.5,214.6,360.2,214.2z M355.8,216.5
			c1.4,3,2.9,5.9,4.4,8.8c-0.6,0.4-1.7,1.1-2.3,1.5c-1.3-3-2.8-6-4.5-8.8C354.2,217.5,355,217,355.8,216.5z M351.3,218.8
			c1.5,2.9,3,5.9,4.6,8.9c-0.8,0.5-1.6,0.9-2.3,1.4c-1.5-3.1-3-6.1-4.7-9.1C349.7,219.7,350.5,219.2,351.3,218.8z M347,221.2
			c1.5,3,3.1,5.8,4.5,8.9c-0.5,0.4-1.4,1.2-1.9,1.5c-1.7-3-3.4-5.9-5-8.9C345.2,222.3,346.4,221.6,347,221.2z M342.5,223.6
			c1.6,2.9,3.1,5.8,4.8,8.7c-0.8,0.5-1.6,1.1-2.4,1.6c-1.4-3-3.1-5.9-4.9-8.7C340.7,224.8,341.9,224,342.5,223.6z M338,226.5
			c1.6,2.8,3.2,5.7,5,8.4c-0.8,0.5-1.6,1-2.4,1.6c-1.5-3-3.2-5.9-5-8.8C336.2,227.4,337.4,226.8,338,226.5z M333.8,229.2
			c1.6,2.8,3.3,5.6,5,8.5c-0.5,0.3-1.6,1-2.1,1.3c-1.7-2.9-3.4-5.7-5-8.5C332.1,230.1,333.2,229.5,333.8,229.2z M329.5,231.9
			c1.6,2.8,3.3,5.6,5.2,8.3c-0.6,0.3-1.7,1-2.2,1.4c-1.7-2.8-3.5-5.6-5.3-8.3C328,232.8,328.7,232.4,329.5,231.9z M325.2,234.5
			c1.9,2.8,3.7,5.7,5.4,8.6c-0.6,0.3-1.8,1-2.3,1.3c-1.7-2.9-3.4-5.7-5.3-8.3C323.7,235.5,324.4,235,325.2,234.5z M321,237.5
			c1.7,2.8,3.6,5.6,5.3,8.4c-0.5,0.4-1.6,1.1-2.1,1.5c-1.9-2.8-3.9-5.5-5.8-8.3C319.3,238.4,320.2,237.9,321,237.5z M316.9,240.2
			c1.9,2.8,3.7,5.6,5.6,8.3c-0.6,0.4-1.7,1.2-2.3,1.6c-1.8-2.9-3.7-5.7-5.7-8.5C315.2,241.3,316.3,240.6,316.9,240.2z M312.7,243.1
			c2,2.8,3.9,5.6,5.8,8.5c-0.6,0.3-1.7,0.9-2.2,1.2c-1.8-2.7-3.7-5.3-5.8-7.8C311.2,244.3,311.9,243.7,312.7,243.1z M308.8,246.6
			c1.9,2.6,3.8,5.2,5.8,7.8c-0.6,0.4-1.8,1.3-2.4,1.7c-1.7-2.8-3.6-5.5-5.8-8C307.1,247.6,307.9,247.1,308.8,246.6z M304.6,249.6
			c1.8,2.6,3.8,5.2,6,7.6c-0.6,0.5-1.7,1.5-2.2,1.9c-1.9-2.8-3.9-5.5-6-8C302.9,250.7,304,250,304.6,249.6z M300.2,252.9
			c2.3,2.5,4.4,5.2,6.5,7.9c-0.6,0.4-1.6,1.3-2.2,1.7c-2-2.7-4.2-5.2-6.4-7.8C298.7,254.2,299.7,253.3,300.2,252.9z M296.6,256.1
			c1.9,2.7,4,5.3,6.2,7.7c-0.6,0.5-1.7,1.4-2.2,1.8c-2.1-2.7-4.3-5.3-6.5-7.9C294.9,257.2,295.7,256.7,296.6,256.1z M292.4,259.5
			c2.1,2.5,4.2,5,6.5,7.4c-0.7,0.7-1.5,1.3-2.2,2c-2-2.7-4.2-5.2-6.3-7.8C290.9,260.7,291.9,259.9,292.4,259.5z M288.5,262.9
			c2.2,2.5,4.4,5,6.7,7.3c-0.7,0.7-1.5,1.4-2.2,2c-1.9-2.7-4.1-5.3-6.6-7.6C287.1,264.1,287.8,263.5,288.5,262.9z M284.8,266.5
			c2.1,2.4,4.3,4.8,6.7,7c-0.6,0.7-1.3,1.4-2,2.1c-2.2-2.6-4.6-5-6.9-7.5C283.2,267.7,284.3,266.9,284.8,266.5z M281.1,269.8
			c2.1,2.5,4.4,5,6.8,7.3c-0.7,0.6-1.4,1.2-2.1,1.7c-2.5-2.2-4.6-4.8-6.9-7.2C279.4,271.2,280.5,270.3,281.1,269.8z M277,273.4
			c2.2,2.4,4.5,4.8,7,7c-0.7,0.7-1.3,1.5-2,2.2c-2.1-2.6-4.4-5-6.9-7.3C275.8,274.7,276.4,274.1,277,273.4z M273.7,277.1
			c2.2,2.4,4.5,4.7,6.9,6.9c-0.6,0.6-1.2,1.3-1.8,1.9c-2.3-2.4-4.7-4.7-7.3-6.8C272.3,278.4,273,277.8,273.7,277.1z M269.9,280.7
			c2.2,2.6,4.8,4.8,7.6,6.7c-0.7,0.8-1.3,1.6-2,2.4c-2.1-2.7-4.8-4.8-7.6-6.8C268.5,282.3,269.2,281.5,269.9,280.7z M266.6,284.5
			c2.2,2.4,4.9,4.5,7.1,6.9c-0.3,0.5-1,1.4-1.4,1.9c-2.6-2.2-5-4.6-7.5-6.9C265.4,285.8,266,285.1,266.6,284.5z M262.9,288.3
			c2.5,2.3,5,4.5,7.7,6.6c-0.6,0.8-1.1,1.5-1.7,2.2c-2.4-2.3-4.8-4.7-7.5-6.6C261.9,289.7,262.4,289,262.9,288.3z M259.7,292
			c2.4,2.4,5,4.7,7.8,6.7c-0.6,0.6-1.3,1.3-1.9,2c-2.4-2.4-5.1-4.7-7.8-6.8C258.4,293.2,259.1,292.6,259.7,292z M256.4,296.1
			c2.5,2.3,5,4.5,7.8,6.5c-0.7,0.8-1.4,1.5-2.1,2.3c-2.3-2.5-4.7-4.9-7.7-6.6C255.1,297.5,255.8,296.8,256.4,296.1z M252.9,299.8
			c2.6,2.4,5.4,4.6,8.1,7c-0.7,0.6-1.4,1.3-2,1.9c-2.3-2.3-5-4.2-7.6-6.2C251.5,301.5,252.4,300.7,252.9,299.8z M249.8,304.8
			c2.5,2.1,5,4.1,7.7,5.9c-0.7,0.7-1.3,1.4-2,2.2c-2.4-2.1-4.9-4.1-7.5-6.1C248.6,306.1,249.2,305.4,249.8,304.8z M246.8,308.7
			c2.5,2.1,5,4.2,7.8,5.9c-0.4,0.6-1.3,1.8-1.7,2.4c-2.6-2.3-5.3-4.4-8.1-6.4C245.4,310,246.1,309.3,246.8,308.7z M243.5,313
			c2.7,1.9,5.3,3.9,8,5.8c-0.6,0.8-1.1,1.5-1.6,2.3c-2.6-2.1-5.3-4.2-8-6.2C242.3,314.4,243.1,313.5,243.5,313z M240.6,316.8
			c2.4,2.2,5,4.2,7.6,6.2c-0.3,0.5-0.8,1.5-1,2c-2.7-2.1-5.5-4.2-8.5-5.8C239.3,318.3,239.9,317.6,240.6,316.8z M237.1,321.1
			c2.8,1.9,5.7,3.8,8.5,5.6c-0.4,0.5-1.1,1.4-1.5,1.9c-2.8-1.9-5.7-3.7-8.5-5.6C236.1,322.6,236.8,321.6,237.1,321.1z M234.5,325.2
			c2.7,2,5.5,3.9,8.3,5.7c-0.5,0.7-1.1,1.4-1.7,2.1c-2.6-2-5.3-3.8-8.2-5.5C233.5,326.7,234,325.9,234.5,325.2z M231.7,329.4
			c2.9,1.8,5.6,3.8,8.6,5.6c-0.4,0.5-1.1,1.6-1.5,2.2c-2.8-1.9-5.6-3.7-8.5-5.3C230.7,331,231.2,330.2,231.7,329.4z M229.3,333.8
			c2.7,1.8,5.4,3.5,8.2,5.2c-0.4,0.6-1.1,1.7-1.4,2.2c-2.7-1.9-5.5-3.6-8.4-5.3C228.2,335.2,228.8,334.5,229.3,333.8z M226.5,338
			c2.7,1.9,5.6,3.4,8.3,5.4c-0.3,0.5-0.9,1.5-1.2,2c-2.7-1.8-5.5-3.5-8.4-5C225.7,339.5,226.1,338.7,226.5,338z M223.7,342.4
			c3,1.6,5.9,3.3,8.9,4.9c-0.3,0.6-1,1.8-1.3,2.4c-2.8-1.8-5.8-3.2-8.6-5C223,344.1,223.4,343,223.7,342.4z M221.3,346.8
			c2.9,1.6,5.7,3.4,8.7,4.8c-0.3,0.6-0.8,1.8-1,2.4c-2.9-1.6-5.9-3.2-8.9-4.7C220.5,348.4,220.9,347.6,221.3,346.8z M219,351.3
			c2.8,1.8,5.7,3.4,8.8,4.5c-0.6,0.8-1.1,1.7-1.7,2.5c-2.8-1.6-5.8-3.2-8.6-4.8C217.9,352.9,218.6,351.8,219,351.3z M216.6,355.7
			c2.9,1.6,5.9,3.2,8.9,4.6c-0.4,0.6-1.2,1.9-1.5,2.6c-2.7-1.8-5.7-3.3-8.6-4.7C215.8,357.4,216.2,356.5,216.6,355.7z M214.2,360.3
			c2.9,1.7,5.9,3.1,8.9,4.4c-0.4,0.9-0.8,1.7-1.2,2.6c-2.9-1.6-5.9-3.1-8.9-4.5C213.3,362.1,213.9,360.9,214.2,360.3z M213.9,365.9
			c2.4,1.1,4.8,2.2,7.3,3.2c-0.4,0.8-0.8,1.7-1.3,2.5c-3.1-1.5-6.1-2.9-9.2-4.4C211.4,366.1,212.4,364.8,213.9,365.9z M209.9,369.8
			c3,1.3,5.9,2.6,8.9,3.9c-0.3,0.6-0.9,1.9-1.3,2.5c-2.8-1.5-5.7-2.9-8.7-4C209.2,371.3,209.6,370.6,209.9,369.8z M207.9,374.5
			c3,1.4,5.9,2.8,9,3.7c-0.3,0.7-1,2.1-1.3,2.8c-2.8-1.5-5.8-2.8-8.8-3.8C207.1,376.2,207.5,375.3,207.9,374.5z M205.9,379.2
			c3,1.5,6.1,2.7,9.2,3.9c-0.4,0.5-1.1,1.5-1.5,2c-3-0.9-5.8-2.3-8.8-3.4C205.1,380.9,205.5,380,205.9,379.2z M204,383.8
			c2.9,1.4,5.9,2.6,9,3.8c-0.3,0.6-1,1.8-1.3,2.3c-3-1.3-6.1-2.5-9-3.9C203,385.5,203.7,384.4,204,383.8z M202.1,388.5
			c3,1.4,6.1,2.5,9.2,3.6c-0.3,0.6-1,1.9-1.3,2.5c-2.9-1.3-5.8-2.4-8.8-3.5C201.4,390.3,201.7,389.4,202.1,388.5z M200.2,393.2
			c2.9,1.4,6.1,2.2,9.1,3.6c-0.2,0.6-0.5,1.8-0.6,2.4c-3.1-1.1-6.2-2.2-9.4-3.3C199.6,395,199.9,394.1,200.2,393.2z M198.5,398.1
			c3.1,1.2,6.2,2.3,9.3,3.3c-0.3,0.9-0.6,1.7-0.9,2.6c-3.1-1.2-6.2-2.3-9.3-3.3C197.9,399.8,198.2,399,198.5,398.1z M196.6,403.4
			c3.4,0.4,6.5,1.8,9.8,2.7c-0.5,0.8-0.5,2.9-2,2.1c-2.8-0.8-5.4-1.7-8.1-2.7C196.3,405,196.5,403.9,196.6,403.4z M195.5,407.9
			c3.2,1.1,6.4,2.1,9.6,3.1c-0.5,0.8-0.9,1.7-1.4,2.5c-3-1.2-6.1-2.2-9.2-3C194.8,409.8,195.3,408.5,195.5,407.9z M194.1,413
			c3.1,0.7,6.1,1.8,9.3,2.6c-0.3,0.9-0.6,1.8-0.8,2.7c-3.1-1.2-6.4-2.1-9.6-2.9C193.2,414.8,193.8,413.6,194.1,413z M192.6,417.8
			c3.1,1,6.3,1.8,9.5,2.6c-0.2,0.9-0.5,1.8-0.7,2.8c-3.2-1-6.4-1.9-9.7-2.6C192,419.6,192.3,418.7,192.6,417.8z M191.1,422.7
			c3.2,1,6.5,1.9,9.7,2.7c-0.2,0.6-0.6,1.9-0.8,2.5c-3.2-1-6.4-1.8-9.7-2.5C190.6,424.8,190.9,423.4,191.1,422.7z M190.3,427.8
			c3.2,0.9,6.4,1.7,9.6,2.5c-0.3,0.5-1,1.6-1.3,2.1c-3.2-0.5-6.3-1.3-9.4-1.9C189.5,429.6,189.9,428.7,190.3,427.8z M188.9,432.7
			c3.1,0.8,6.3,1.5,9.5,2.2c-0.1,0.6-0.2,1.9-0.3,2.5c-3.3-0.5-6.6-1.3-9.9-2C188.4,434.5,188.6,433.6,188.9,432.7z M187.6,437.7
			c3.3,0.9,6.6,1.6,9.9,2.3c-0.3,0.8-0.6,1.6-0.9,2.3c-3.3-0.4-6.4-1.3-9.7-1.9C187.1,439.7,187.5,438.3,187.6,437.7z M186.8,442.8
			c3.3,0.7,6.5,1.3,9.8,2.1c-0.2,0.6-0.6,1.8-0.8,2.4c-3.3-0.8-6.6-1.3-9.9-2C186.2,444.7,186.6,443.4,186.8,442.8z M185.7,447.9
			c3.3,0.5,6.5,1.1,9.8,1.6c-0.1,0.9-0.2,1.9-0.3,2.8c-3.3-0.6-6.5-1.2-9.8-1.7C185.4,449.9,185.6,448.6,185.7,447.9z M185.2,452.9
			c3.2,0.4,6.3,1.1,9.4,1.6c0,0.7-0.2,2-0.2,2.7c-3.3-0.6-6.6-1.2-10-1.8C184.6,454.8,185,453.6,185.2,452.9z M184.3,458.1
			c3.2,0.3,6.4,0.8,9.6,1.3c-0.1,0.6-0.2,1.9-0.3,2.6c-3.2-0.4-6.4-0.9-9.7-1.2C184,460.1,184.2,458.8,184.3,458.1z M183.7,463.2
			c3.3,0.4,6.5,0.8,9.8,1.1c-0.4,0.8-0.1,2.4-1.2,2.6c-3-0.2-6-0.7-9.1-0.9C183.4,465.2,183.6,463.9,183.7,463.2z M183.1,468.1
			c3.2,0.4,6.4,0.7,9.6,1c0,0.7,0.1,2.1,0.1,2.8c-3.4-0.4-6.7-0.8-10.1-1C182.8,469.9,183,469,183.1,468.1z M182.4,473.2
			c3.2,0.3,6.5,0.3,9.6,0.8c0,0.7,0.1,2,0.1,2.6c-3.3-0.3-6.6-0.5-9.9-0.8C182.3,475.2,182.4,473.9,182.4,473.2z M182,478.5
			c3.2,0.2,6.5,0.3,9.7,0.4c0,0.7,0,2,0,2.7c-3.3-0.1-6.7-0.3-10-0.4C181.9,480.3,182,479.4,182,478.5z M181.8,483.4
			c3.3,0.2,6.5,0.4,9.8,0.5c0,0.6,0.1,1.9,0.1,2.5c-3.4-0.1-6.8-0.2-10.1-0.2C181.6,485.2,181.7,484.3,181.8,483.4z M181.4,488.5
			c3.3,0.2,6.5,0,9.8,0.5c0.1,0.6,0.2,1.9,0.2,2.5c-3.4-0.1-6.7-0.2-10.1-0.3C181.4,490.2,181.4,489.3,181.4,488.5z M181.3,493.8
			c3.3,0,6.6,0,9.9,0.1c0,0.9-0.1,1.9-0.1,2.8c-3.3-0.1-6.6-0.1-9.9-0.1C181.3,495.6,181.3,494.7,181.3,493.8z M191.2,501.6
			c-3.3-0.1-6.5,0.1-9.8-0.2c-0.1-0.9-0.1-1.8-0.1-2.7c3.3,0,6.5,0,9.8,0C191.1,499.7,191.1,500.6,191.2,501.6z M181.5,504.1
			c3.2-0.3,6.4-0.2,9.6-0.3c0,0.7,0.1,2,0.1,2.7c-3.3,0-6.7,0.1-10,0.1C181.3,505.9,181.4,504.7,181.5,504.1z M181.3,509.1
			c3.3-0.2,6.6-0.3,9.8-0.4c0.1,0.9,0.1,1.9,0.2,2.8c-3.3,0.1-6.6,0.2-10,0.3C181.4,511.1,181.3,509.7,181.3,509.1z M181.8,514.2
			c3.2-0.2,6.5-0.4,9.7-0.5c0,0.7,0.1,2,0.1,2.7c-3.3,0.2-6.6,0.3-10,0.5C181.7,516.1,181.7,514.8,181.8,514.2z M182.1,519.3
			c3.1-0.2,6.4-1,9.5-0.4c0.1,0.6,0.2,1.8,0.3,2.3c-3.4,0.1-6.7,0.4-10,0.7C181.9,521.2,182,519.9,182.1,519.3z M182.2,524.3
			c3.3-0.4,6.5-0.7,9.8-0.9c0.1,0.7,0.2,2.1,0.2,2.8c-3.3,0.3-6.6,0.6-9.8,0.9C182.3,526.2,182.2,525.2,182.2,524.3z M182.8,529.3
			c3.2-0.4,6.4-0.7,9.6-1.1c0.1,0.9,0.2,1.9,0.3,2.8c-3.3,0.3-6.6,0.7-9.9,1C182.8,531.4,182.8,530,182.8,529.3z M183.3,534.3
			c3.2-0.3,6.3-0.7,9.5-1c0.1,0.7,0.2,1.9,0.3,2.6c-3.2,0.3-6.4,0.8-9.7,1.2C183.4,536.4,183.3,535,183.3,534.3z M184.1,542.2
			c-0.1-0.9-0.3-1.9-0.4-2.8c3.3-0.3,6.5-0.8,9.8-1.2c0.1,0.7,0.2,2,0.3,2.6C190.5,541.2,187.3,541.7,184.1,542.2z M184.3,544.5
			c3.2-0.4,6.3-1.1,9.5-1.5c0.3,0.8,0.6,1.7,0.9,2.5c-3.3,0.5-6.5,1-9.8,1.6C184.7,546.4,184.5,545.2,184.3,544.5z M185.4,549.5
			c3.2-0.6,6.3-1.2,9.5-1.7c0.2,0.9,0.4,1.8,0.6,2.7c-3.3,0.5-6.5,1.2-9.7,1.6C185.6,551.5,185.4,550.1,185.4,549.5z M186.3,554.8
			c3-1.2,6.3-1.4,9.5-2.2c0.2,0.9,0.4,1.8,0.6,2.7c-3.2,0.6-6.4,1.2-9.6,2.1C186.6,556.8,186.4,555.5,186.3,554.8z M187.1,559.6
			c3.2-0.8,6.5-1.5,9.7-2.2v2.8c-3.1,0.8-6.1,1.3-9.2,2.2C187.5,561.7,187.3,560.3,187.1,559.6z M188.1,564.4c3.2-0.6,6.3-1.3,9.5-2
			c0.3,0.8,0.5,1.7,0.8,2.5c-3.3,0.7-6.5,1.5-9.6,2.4C188.6,566.3,188.3,565.3,188.1,564.4z M189.3,569.6c3.1-1.1,6.4-1.7,9.6-2.4
			c0.1,0.6,0.3,1.9,0.4,2.5c-3.2,0.8-6.4,1.7-9.7,2.5C189.7,571.6,189.4,570.3,189.3,569.6z M190.3,574.5c3.3-0.8,6.5-1.6,9.8-2.5
			c0.1,0.6,0.2,1.9,0.3,2.5c-3.1,0.8-6.2,1.8-9.2,2.8C190.9,576.5,190.5,575.2,190.3,574.5z M191.8,579.5c3.1-0.8,6.2-1.7,9.3-2.7
			c0.3,0.8,0.6,1.7,0.8,2.6c-3.1,0.9-6.2,1.8-9.3,2.8C192.3,581.2,192.1,580.3,191.8,579.5z M193,584.6c3.2-0.9,6.4-1.9,9.6-2.8
			c-0.2,0.8,1,2.5-0.4,2.7c-2.8,1-5.6,1.7-8.4,2.6C193.6,586.2,193.3,585.4,193,584.6z M194.4,589.7c3-1.1,6.1-2.1,9.1-3.2
			c0.3,0.9,0.6,1.8,0.9,2.7c-2.9,0.7-5.8,1.8-8.7,2.5C195.4,591.2,194.7,590.2,194.4,589.7z M196,594.3c3.1-1,6.2-2,9.2-3.2
			c0.3,0.9,0.5,1.9,0.8,2.8c-3.1,0.8-6,2.3-9.1,2.6C196.7,596,196.2,594.9,196,594.3z M197.6,599.2c3-1.1,6.1-2.2,9.2-3.2
			c0.2,0.6,0.5,1.9,0.7,2.5c-3,1.1-6.1,2.1-9,3.4C198.2,601,197.9,600.1,197.6,599.2z M199.1,604c3-1,6-2.1,9-3.4
			c0.3,0.7,0.9,2,1.3,2.6c-3.1,1.1-6.1,2.2-9.1,3.3C199.9,605.9,199.4,604.6,199.1,604z M200.9,608.6c3-1,6-2.1,9-3.3
			c0.3,0.6,0.9,1.9,1.2,2.5c-3,1.2-6,2.3-9,3.6C201.7,610.5,201.3,609.5,200.9,608.6z M202.8,613.4c3-1.1,6-2.3,9-3.5
			c0.2,0.6,0.7,1.8,0.9,2.4c-3,1.2-5.9,2.4-8.8,3.8C203.6,615.2,203.2,614.3,202.8,613.4z M204.6,618.6c3-1.4,6.1-2.8,9.1-4.2
			c0.3,0.6,0.9,1.9,1.2,2.5c-3.1,1.1-6,2.5-8.9,4C205.6,620.3,204.9,619.2,204.6,618.6z M206.8,623.1c2.9-1.2,5.9-2.4,8.6-3.9
			c0.3,0.6,0.9,1.8,1.3,2.4c-3,1.2-6,2.6-8.9,4C207.5,624.8,207.1,623.9,206.8,623.1z M208.9,627.9c2.9-1.3,5.8-2.6,8.7-4
			c0.4,0.8,0.8,1.7,1.1,2.5c-3,1.1-5.9,2.5-8.8,4C209.6,629.6,209.2,628.7,208.9,627.9z M210.9,632.8c3-1.4,5.9-3,8.8-4.5
			c0.3,0.7,0.8,2,1.1,2.7c-2.9,1.3-5.7,2.7-8.4,4.3C212,634.6,211.3,633.4,210.9,632.8z M213.2,637.4c2.9-1.5,5.7-3,8.5-4.6
			c0.4,0.9,0.8,1.8,1.3,2.7c-2.9,1.3-5.7,2.7-8.4,4.3C214.2,639.3,213.5,638.1,213.2,637.4z M215.4,642c2.9-1.4,5.6-3,8.5-4.4
			c0.4,0.5,1.2,1.5,1.6,2c-2.9,1.6-5.8,3.1-8.5,4.8C216.4,643.6,215.9,642.8,215.4,642z M217.7,646.7c2.8-1.7,5.7-3.3,8.7-4.7
			c0.3,0.8,0.7,1.5,1,2.3c-2.8,1.4-5.5,3-8.2,4.7C218.9,648.5,218.1,647.3,217.7,646.7z M220.1,651.3c2.9-1.5,5.9-3.1,8.6-5
			c0.3,0.6,0.9,1.8,1.2,2.4c-2.8,1.4-5.5,3.1-8.1,4.9C221.4,653,220.5,651.9,220.1,651.3z M222.8,655.6c2.9-1.5,5.7-3.1,8.4-4.8
			c0.4,0.8,0.9,1.5,1.3,2.3c-2.8,1.5-5.5,3.1-8.2,4.8C223.9,657.1,223.3,656.3,222.8,655.6z M225.5,660.1c2.6-1.4,5.1-3.2,7.8-4.6
			c0.5,0.5,1.4,1.4,1.9,1.9c-2.8,1.6-5.5,3.3-8.3,4.9C226.5,661.8,225.8,660.7,225.5,660.1z M228,664.6c2.7-1.7,5.5-3.3,8.1-5.2
			c0.4,0.7,1.1,1.9,1.5,2.6c-2.8,1.5-5.4,3.2-8,5C229.2,666.5,228.4,665.3,228,664.6z M230.7,669.1c2.7-1.6,5.4-3.3,8-5.2
			c0.4,0.5,1.3,1.6,1.7,2.1c-2.7,1.9-5.3,3.7-8.1,5.4C231.8,670.6,231.2,669.8,230.7,669.1z M233.6,673.6c2.5-1.8,5.1-3.6,7.6-5.4
			c0.6,0.6,1.2,1.2,1.8,1.8c-2.5,2-5.1,4-7.7,5.9C234.8,675.1,234.2,674.3,233.6,673.6z M240.2,682.7l-0.4-0.5
			c-0.7-0.8-1.3-1.6-1.9-2.5l0,0c-0.4-0.6-0.8-1.1-1.2-1.7c2.6-1.8,5.1-3.8,7.6-5.8c0.6,0.8,1.3,1.5,1.9,2.3l1.2,2.3
			c0.4,0.5,1.3,1.6,1.7,2.2c-2.4,2.1-4.9,4-7.4,5.8C241.2,684,240.7,683.3,240.2,682.7z M243.2,686.9c2.6-1.8,5-3.8,7.4-5.8
			c0.6,0.7,1.2,1.5,1.8,2.2c-2.6,2-5.2,3.9-7.7,5.9C244.2,688.5,243.7,687.7,243.2,686.9z M246.1,691.4c2.6-2,5.2-4.1,7.8-6.1
			c0.4,0.5,1.2,1.6,1.6,2.2c-2.6,2-5,4.1-7.4,6.4C247.4,693,246.7,692.2,246.1,691.4z M249.6,695.6c2.4-2.1,4.8-4.2,7.2-6.4
			c0.6,0.6,1.2,1.3,1.9,1.9c-2.5,2.1-5,4.4-7.4,6.6C250.8,697.2,250,696.2,249.6,695.6z M252.8,699.6c2.6-2.1,5-4.3,7.6-6.5
			c0.3,0.5,0.9,1.5,1.2,2c-2,2.4-4.6,4.3-6.9,6.5C254.2,701.1,253.3,700.1,252.8,699.6z M257.5,705.6c-0.2-0.6-0.6-1.7-0.8-2.3
			c2.1-2.2,4.5-4,6.8-6.1c0.6,0.6,1.2,1.2,1.8,1.9C262.7,701.4,260.2,703.7,257.5,705.6z M259.5,707.6c2.5-2.2,5-4.4,7.5-6.6
			c0.3,0.6,0.9,1.6,1.3,2.2c-2.3,2.3-4.8,4.5-7.4,6.4C260.4,708.9,259.9,708.2,259.5,707.6z M262.9,711.6c2.5-2.3,4.9-4.6,7.4-6.7
			c0.4,0.5,1.1,1.5,1.5,2c-2.4,2.1-4.7,4.4-6.8,6.9C264.3,713,263.6,712.3,262.9,711.6z M266.6,715.4c2.4-2.3,4.9-4.5,7-7
			c0.4,0.6,1.3,1.7,1.7,2.2c-2.3,2.3-4.6,4.5-6.8,6.8C267.9,716.8,267.3,716.1,266.6,715.4z M270.2,719.1c2.4-2.1,4.8-4.3,7.1-6.6
			c0.4,0.5,1.3,1.5,1.8,1.9c-2.3,2.2-4.7,4.4-7,6.7C271.6,720.6,270.7,719.6,270.2,719.1z M273.8,723.2c2.4-2.3,4.7-4.6,7-7
			c0.6,0.6,1.2,1.3,1.8,2c-2.3,2.3-4.6,4.6-6.9,6.9C275.1,724.4,274.5,723.8,273.8,723.2z M277.5,726.7c2.1-1.9,3.9-4.1,6-6
			c0.8-1.2,1.9,0.2,2.7,0.6c-2.4,2.3-4.7,4.6-6.7,7.3C278.8,728,278.1,727.3,277.5,726.7z M281.4,730.3c2-2.5,3.9-4.9,5.9-7.4
			c0.8,0.6,1.6,1.3,2.4,1.9c-2.3,2.3-4.6,4.6-6.7,7.1C282.6,731.5,281.8,730.7,281.4,730.3z M285,733.3c2.1-2.2,4.2-4.3,6.2-6.5
			c0.7,0.5,1.4,1.1,2.1,1.7c-2.4,2-4.7,4.2-6.8,6.6C286.1,734.6,285.3,733.7,285,733.3z M287.6,735.8c2.1-2.2,4-4.4,6-6.6
			c0.4,0.1,1.2,0.2,1.6,0.2c-2.1,2.6-4.2,5.2-6.2,7.8C288.5,736.8,288.1,736.3,287.6,735.8z M290.8,738.6c2.1-2.3,4.1-4.7,6-7.2
			c0.8,0.7,1.5,1.4,2.3,2.1c-2.3,2.3-4.5,4.8-6.6,7.3C291.9,740.1,291.3,739.4,290.8,738.6z M294.6,742.5c2.1-2.4,4.2-4.9,6.3-7.4
			c0.7,0.6,1.3,1.1,2,1.8c-2.3,2.3-4.4,4.7-6.3,7.3C296.1,743.7,295.1,742.9,294.6,742.5z M298.4,745.5c2.2-2.4,4.2-4.9,6.1-7.5
			c0.8,0.6,1.5,1.3,2.3,1.9c-2.3,2.4-4.4,5-6.6,7.5C299.8,746.9,298.8,746,298.4,745.5z M302.5,748.9c2.1-2.4,4.2-5,6.1-7.5
			c0.7,0.6,1.4,1.2,2.1,1.8c-2.2,2.4-4.4,5-6.1,7.8C303.9,750.3,303.2,749.6,302.5,748.9z M306.4,752.2c2.2-2.4,4.2-5,6.1-7.6
			c0.7,0.4,1.5,0.9,2.2,1.4c-2,2.7-4,5.4-6,8.1C308,753.4,307.2,752.8,306.4,752.2z M310.8,755.6c2-2.7,4-5.4,5.9-8.2
			c0.4,0.4,1.3,1.2,1.7,1.5c-1.4,2.9-3.8,5.2-5.3,8.1C312.5,756.7,311.3,755.9,310.8,755.6z M315,758.5c1.9-2.7,3.8-5.5,5.6-8.3
			c0.8,0.6,1.6,1.2,2.3,1.8c-2,2.5-3.9,5.1-5.6,7.8C316.5,759.4,315.7,759,315,758.5z M319.3,761.2c2-2.6,3.8-5.2,5.5-8
			c0.8,0.6,1.6,1.1,2.4,1.7c-2,2.6-3.9,5.3-5.7,8C320.8,762.4,320.1,761.8,319.3,761.2z M323.5,764.3c2-2.6,3.7-5.4,5.9-7.9
			c0.5,0.3,1.4,1,1.9,1.3c-1.9,2.7-3.7,5.4-5.5,8.2C325.1,765.3,324.3,764.8,323.5,764.3z M328.1,767.2c1.5-2.8,3.6-5.3,5.2-8
			c0.5,0.3,1.6,0.8,2.2,1.1c-1.8,2.9-3.6,5.7-5.5,8.5C329.5,768.4,328.6,767.6,328.1,767.2z M332.2,770.1c1.9-2.7,3.6-5.5,5.2-8.4
			l2.3,1.5c-1.8,2.7-3.4,5.5-5,8.4C334.1,771.2,332.9,770.4,332.2,770.1z M336.7,772.9c1.8-2.8,3.4-5.6,4.9-8.6
			c0.8,0.4,1.6,0.9,2.5,1.3c-1.6,2.9-3.3,5.7-4.8,8.6C338.7,773.9,337.4,773.3,336.7,772.9z M341.2,775.5c1.7-2.8,3.4-5.7,5.1-8.5
			c0.8,0.4,1.6,0.9,2.4,1.3c-1.7,2.8-3.4,5.7-5,8.6C342.9,776.4,342.1,775.9,341.2,775.5z M345.8,778.1c1.7-2.9,3.4-5.7,4.8-8.8
			c0.7,0.4,2,1.1,2.6,1.5c-1.8,2.8-3.4,5.7-4.9,8.6C347.5,778.9,346.6,778.5,345.8,778.1z M350.4,780.5c1.6-2.9,3.2-5.8,4.8-8.7
			c0.8,0.5,1.6,1,2.4,1.5c-1.7,2.9-3.5,5.8-5,8.7C352,781.6,350.9,780.8,350.4,780.5z M355,783.1c1.6-3.1,3.3-6.1,4.9-9.2
			c0.4,0.4,1.3,1.2,1.8,1.6c-1.2,2.9-2.8,5.6-4.1,8.5C356.7,783.8,355.8,783.4,355,783.1z M359.6,785.6c1.6-3,3.1-6,4.6-9
			c0.8,0.4,1.6,0.8,2.4,1.3c-1.6,2.9-3.1,5.8-4.5,8.8C361.2,786.3,360.4,786,359.6,785.6z M364.4,787.7c1.5-2.9,2.9-5.8,4.4-8.8
			c0.6,0.2,1.8,0.7,2.4,0.9c-1.5,3-3,5.9-4.3,9C366.1,788.4,365.2,788.1,364.4,787.7z M369.1,789.9c1.5-2.9,2.9-6,4.3-9
			c0.8,0.4,1.6,0.8,2.4,1.3c-1.4,3-2.8,6.1-4.2,9.1C370.9,791,369.7,790.3,369.1,789.9z M374.1,792.1c1.1-3.1,2.7-6.1,3.9-9.1
			c0.8,0.4,1.7,0.7,2.5,1.1c-1.5,3.1-2.8,6.2-4.2,9.4C375.8,793.1,374.7,792.4,374.1,792.1z M378.7,794c1.3-3,2.7-6,3.9-9.1
			c0.8,0.4,1.7,0.9,2.5,1.4c-1.4,2.8-2.7,5.7-3.7,8.7C380.7,794.8,379.4,794.3,378.7,794z M383.4,796c1.4-3,2.6-6,3.7-9.1
			c0.6,0.3,1.9,0.9,2.6,1.2c-1.3,2.9-2.6,5.9-3.9,8.9C385,796.7,384.2,796.3,383.4,796z M388.6,797.9c1.2-3,2.3-6,3.4-9.1
			c0.8,0.3,1.6,0.6,2.3,0.9c-1.2,2.9-2.3,5.9-3.4,8.9C390.4,798.5,389.2,798.1,388.6,797.9z M393.3,799.9c1.2-3.1,2.3-6.2,3.3-9.3
			c0.8,0.3,1.7,0.7,2.5,1c-1.1,3-2.2,6-3.2,9.1C395,800.4,394.2,800.1,393.3,799.9z M398.5,801.5c0.7-3.1,2-6,2.9-9
			c0.6,0.2,1.8,0.6,2.4,0.7c-1.1,3.2-2.1,6.4-3.1,9.6C400.2,802.4,399.1,801.8,398.5,801.5z M403.3,803.4c1-3.1,2-6.3,2.9-9.4
			c0.6,0.2,1.9,0.6,2.5,0.8c-1,3.1-2,6.2-2.8,9.3C405.2,804,403.9,803.6,403.3,803.4z M408.1,804.9c1-3.2,2.1-6.4,3-9.6
			c0.8,0.3,1.7,0.6,2.5,0.9c-1.1,3.2-2.1,6.3-2.9,9.6C410,805.6,408.7,805.2,408.1,804.9z M415.7,807.3c-0.9-0.3-1.8-0.6-2.8-0.9
			c1.1-3.2,2-6.3,2.8-9.6c0.9,0.3,1.9,0.7,2.8,1C417.4,800.9,416.5,804.1,415.7,807.3z M420.9,808.5c-0.9-0.3-1.8-0.5-2.7-0.8
			c0.9-3.2,1.8-6.4,2.7-9.6c0.6,0.2,1.9,0.6,2.5,0.8C422.4,802.1,421.6,805.3,420.9,808.5z M423.4,809.4c0.7-3.4,1.6-6.7,2.4-10.1
			c0.7,0.2,1.9,0.6,2.6,0.8c-1,3-1.5,6.1-2.5,9.1C425.2,809.3,424,809.4,423.4,809.4z M430.9,811c-0.7-0.2-2-0.5-2.7-0.7
			c0.9-3.1,1.6-6.3,2.3-9.5c0.6,0.2,1.9,0.5,2.5,0.7C432.3,804.6,431.6,807.8,430.9,811z M436.2,812.1c-0.9-0.2-1.8-0.4-2.7-0.5
			c0.8-3.2,1.5-6.4,2.1-9.7c0.8,0.2,1.6,0.5,2.4,0.8C437.4,805.8,436.8,808.9,436.2,812.1z M441.4,813.2c-0.9-0.3-1.8-0.5-2.8-0.7
			c0.8-3.2,1.4-6.4,2-9.6c0.6,0.2,1.9,0.6,2.5,0.7C442.5,806.8,441.9,810,441.4,813.2z M446.5,814.1c-0.7-0.1-2-0.4-2.7-0.5
			c0.6-3.3,1.2-6.5,1.8-9.8c0.9,0.2,1.8,0.4,2.7,0.7C447.5,807.7,447,810.8,446.5,814.1z M451.7,815c-0.9-0.2-1.8-0.5-2.7-0.7
			c0.6-3.2,1.1-6.3,1.6-9.5c0.6,0.1,1.7,0.2,2.3,0.3C452.7,808.4,452.2,811.7,451.7,815z M456.9,815.9c-0.7-0.2-2-0.5-2.6-0.7
			c0.3-3.3,1-6.5,1.4-9.8c0.7,0.2,2,0.5,2.6,0.6C457.8,809.3,457.3,812.6,456.9,815.9z M462.1,816.4c-0.7-0.1-2-0.2-2.7-0.3
			c0.5-3.3,0.8-6.6,1.2-9.9c0.7,0.1,2,0.4,2.6,0.5C462.9,809.9,462.5,813.1,462.1,816.4z M467.3,816.9c-0.7,0-1.9-0.1-2.6-0.1
			c0.1-3.3,0.7-6.6,1-9.8c0.9,0.1,1.8,0.2,2.6,0.4C468,810.5,467.6,813.7,467.3,816.9z M472.5,817.4c-0.6,0-1.9-0.2-2.6-0.2
			c0.4-3.2,0.7-6.4,0.9-9.7c0.7,0,2.1,0.1,2.7,0.2C473.1,810.9,472.7,814.2,472.5,817.4z M477.7,817.7c-0.7,0-2.1,0.1-2.8,0.1
			c0.3-3.3,0.6-6.6,0.9-9.9c0.8,0.1,1.7,0.2,2.5,0.4C478.1,811.4,477.9,814.6,477.7,817.7z M482.9,818.2c-0.7,0-2-0.1-2.7-0.2
			c0.3-3.2,0.3-6.4,0.8-9.6c0.6-0.1,1.9-0.1,2.5-0.2C483.3,811.6,483.1,814.9,482.9,818.2z M488.2,818.6c-0.9-0.1-1.8-0.2-2.7-0.2
			c0.2-3.3,0.4-6.6,0.5-9.8c0.7,0,1.9,0.1,2.6,0.1C488.4,812,488.3,815.3,488.2,818.6z M493.4,818.7h-2.8c0.1-3.3,0.2-6.6,0.3-9.9
			c0.9,0.1,1.8,0.1,2.7,0.2C493.5,812.1,493.4,815.4,493.4,818.7z M498.6,818.9c-0.7,0-2.1,0-2.8,0c0-3.3,0.1-6.6,0.1-9.9
			c0.7,0,2.1,0.1,2.8,0.1C498.6,812.3,498.6,815.6,498.6,818.9z M501.1,818.8c0-3.3,0-6.6-0.1-9.9c0.9,0,1.9,0,2.8,0
			c-0.1,3.2-0.1,6.5,0,9.7C503,818.7,502.1,818.7,501.1,818.8z M506.3,818.5c0-3.2,0-6.5-0.2-9.7c0.9,0,1.9,0,2.9,0
			c0,3.3,0.1,6.6,0.2,9.8C508.2,818.6,507.2,818.6,506.3,818.5z M511.6,818.5c-0.1-3.3-0.2-6.6-0.5-9.8c0.7,0,2.2,0,2.9,0
			c0,3.3,0.1,6.5,0.3,9.8C513.6,818.5,512.3,818.5,511.6,818.5z M516.8,818.3c-0.1-3.3-0.3-6.6-0.4-9.9c0.9,0,1.8,0,2.7,0
			c0.2,3.3,0.4,6.5,0.8,9.8C519.1,818.1,517.6,818.2,516.8,818.3z M522.3,817.8c-0.5-3.2-0.5-6.5-0.8-9.7c0.7,0,2-0.1,2.6-0.1
			c0.2,3.3,0.5,6.6,0.8,10C524.2,817.9,522.9,817.9,522.3,817.8z M527.7,817.4c-1-3.2-0.8-6.7-1.2-10c0.6,0.1,1.9,0.2,2.6,0.2
			c0.5,3.2,0.5,6.5,0.8,9.7C529.4,817.4,528.3,817.4,527.7,817.4z M467.6,801.1c-38.3-4.4-75.9-16-109.8-34.5
			c-26.6-14.2-50.9-32.4-72.1-53.8c-37.2-37.2-64.6-84.2-78.1-135.1c-5.4-20-8.9-40.5-10.2-61.2c-1.4-25.8,0.8-51.6,6.1-76.9
			c4.8-22,11.4-43.7,21.2-64c12.2-26.6,28.3-51.4,47.7-73.4c52-60.9,129.2-99.5,209.2-104.2c42.7-2.8,85.9,4.2,125.8,19.5
			c33.3,13.3,64.8,31.6,91.5,55.6c49.2,43.5,84.4,102.8,97.5,167.2c4.7,22.8,7,46,6.4,69.3c-1.7,47.6-14.8,94.8-38.1,136.4
			c-24.8,44.6-61.2,82.6-104.3,109.8C603.8,792.2,534.6,808.8,467.6,801.1z M532.6,816.8c-0.5-3.2-0.7-6.5-1.1-9.7
			c0.9-0.1,1.9-0.2,2.8-0.3c0.3,3.4,0.7,6.8,1,10.3C534.7,817,533.3,816.9,532.6,816.8z M537.8,816.4c-0.4-3.3-0.8-6.7-1.1-10
			c0.8,0,1.7,0,2.5,0.1c0.6,3.2,0.8,6.4,1.4,9.6C539.9,816.2,538.5,816.4,537.8,816.4z M543.2,815.8c-0.5-3.3-0.9-6.7-1.3-10
			c0.7,0,2-0.1,2.6-0.1c0.4,3.2,0.9,6.4,1.5,9.5C545,815.4,544.1,815.6,543.2,815.8z M548.4,814.9c-0.5-3.3-1.1-6.6-1.5-10
			c0.7,0,2-0.1,2.6-0.2c0.5,3.3,1,6.5,1.6,9.8C550.2,814.7,549.3,814.8,548.4,814.9z M553.6,814c-0.5-3.2-1.1-6.5-1.7-9.7
			c0.6-0.1,1.9-0.4,2.6-0.5c0.6,3.3,1.3,6.6,1.8,9.9C555.5,813.8,554.2,813.9,553.6,814z M558.6,813.1c-0.5-3.2-1-6.4-1.7-9.5
			c0.9-0.2,1.7-0.5,2.6-0.7c0.6,3.3,1.3,6.5,2.1,9.7C560.6,812.8,559.6,813,558.6,813.1z M563.9,812.1c-0.6-3.2-1.2-6.4-2-9.5
			c0.9-0.3,1.8-0.5,2.7-0.8c0.6,3.2,1.3,6.4,2.1,9.6C565.7,811.7,564.8,811.9,563.9,812.1z M569.1,811.1c-0.6-3.2-1.4-6.4-2.1-9.6
			c0.6-0.1,1.9-0.3,2.5-0.4c1,3.1,1.5,6.2,2.3,9.3C570.9,810.6,570,810.8,569.1,811.1z M574.3,809.8c-0.7-3.3-1.4-6.5-2.3-9.7
			c0.8-0.2,1.6-0.5,2.5-0.7c0.8,3.3,1.6,6.5,2.5,9.8C576.2,809.3,574.9,809.6,574.3,809.8z M579.3,808.5c-0.8-3.3-1.7-6.5-2.6-9.7
			c0.9-0.3,1.8-0.5,2.7-0.8c0.9,3.2,1.7,6.5,2.6,9.7C581,808,580.2,808.3,579.3,808.5z M584.3,807.1c-0.9-3.2-1.8-6.4-2.7-9.6
			c0.7-0.2,2-0.5,2.7-0.7c0.9,3.2,1.8,6.4,2.7,9.6C586.4,806.6,585,806.9,584.3,807.1z M589.4,805.8c-0.7-3.3-1.7-6.5-2.9-9.6
			c0.9-0.4,1.8-0.7,2.7-1.1c0.8,3.3,1.8,6.6,3,9.9C591.3,805.3,590.3,805.5,589.4,805.8z M594.5,804.4c-0.9-3.2-2.4-6.3-2.8-9.7
			c0.6-0.3,1.7-0.8,2.3-1c0.9,3.2,2.1,6.4,3,9.7C596.3,803.6,595.1,804.1,594.5,804.4z M599.4,802.5c-1.1-3.1-2.1-6.2-3.2-9.3
			c0.9-0.3,1.8-0.6,2.6-0.9c0.8,3.1,2,6.1,3,9.1C601.3,801.7,600.1,802.2,599.4,802.5z M604.5,800.5c-1.3-2.9-2.3-5.9-3.2-8.9
			c0.5-0.4,1.5-1.2,2-1.6c1.2,3.3,2.3,6.6,3.6,9.9C606.3,800.1,605.1,800.4,604.5,800.5z M609.2,798.9c-1-3.1-2.2-6.1-3-9.3
			c0.7-0.4,1.4-0.8,2.1-1.1c1.1,3.1,2.3,6.3,3.3,9.5C610.8,798.3,610,798.6,609.2,798.9z M614.1,797.1c-1-3.1-2.2-6.2-3.5-9.2
			c0.8-0.3,1.7-0.7,2.5-1c1.1,3.1,2.3,6.1,3.6,9.1C615.9,796.3,615,796.7,614.1,797.1z M619,795.1c-1.2-3.1-2.4-6.2-3.6-9.3
			c0.8-0.3,1.7-0.7,2.5-1c1.2,3,2.5,6.1,3.8,9C621,794.2,619.7,794.8,619,795.1z M623.8,793.3c-1.2-3.3-2.6-6.5-3.8-9.8
			c0.6-0.2,1.9-0.5,2.5-0.7c1.2,3,2.5,6.1,3.9,9.1C625.6,792.4,624.7,792.8,623.8,793.3z M628.6,791.1c-1.1-3-2.6-5.9-3.8-9
			c0.5-0.4,1.5-1.2,2-1.6c1.5,3.1,2.9,6.3,4.5,9.4C630.4,790.3,629.5,790.7,628.6,791.1z M633.5,788.8c-1.2-3-2.9-5.9-3.9-9
			c0.5-0.3,1.4-1,1.9-1.3c1.5,3.1,2.9,6.3,4.5,9.3C635.2,788.1,634.3,788.5,633.5,788.8z M638.1,786.6c-1.4-3.1-2.7-6.2-4.2-9.3
			c0.6-0.2,1.7-0.7,2.2-0.9c1.7,2.9,2.8,6,4.4,8.9C639.7,785.8,638.9,786.2,638.1,786.6z M642.8,784.1c-1.3-3.1-2.8-6-4.1-9
			c0.5-0.3,1.6-0.9,2.2-1.2c1.5,3,2.9,6.1,4.3,9.1C644.3,783.4,643.5,783.8,642.8,784.1z M647.5,781.6c-1.5-2.9-3-5.9-4.4-8.9
			c0.5-0.3,1.6-0.8,2.1-1.1c1.5,3,3,6,4.7,8.9C649.3,780.8,648.1,781.4,647.5,781.6z M652,779.2c-1.4-2.9-2.9-5.6-4.2-8.5
			c0.4-0.4,1.2-1.3,1.6-1.7c1.7,3,3.3,6.1,4.9,9.1C653.7,778.4,652.6,778.9,652,779.2z M656.3,776.9c-1.4-3-3-6-4.8-8.8
			c0.6-0.3,1.8-1,2.4-1.4c1.6,2.9,3.2,5.8,4.9,8.6C658.3,775.8,657,776.5,656.3,776.9z M661.1,774.2c-1.7-3-3.4-5.9-5.2-8.8
			c0.8-0.5,1.7-0.9,2.5-1.3c1.6,2.9,3.2,5.8,4.9,8.7C662.8,773.1,661.6,773.8,661.1,774.2z M665.4,771.5c-1.6-2.9-3.3-5.8-4.9-8.7
			c0.8-0.4,1.5-0.8,2.3-1.2c1.5,2.9,3.1,5.7,5,8.3C667,770.4,666.2,770.9,665.4,771.5z M669.7,768.8c-1.5-2.9-3.2-5.8-5-8.5
			c0.7-0.5,1.4-1.1,2.1-1.6c1.8,2.8,3.6,5.6,5.3,8.5C671.4,767.6,670.3,768.4,669.7,768.8z M674,765.9c-1.5-2.9-3.6-5.5-4.9-8.5
			c0.4-0.3,1.3-1,1.7-1.4c1.8,2.7,3.6,5.5,5.6,8.2C675.6,764.8,674.8,765.4,674,765.9z M678.3,762.8c-1.6-2.9-3.5-5.6-5.3-8.3
			c0.7-0.4,1.4-0.8,2.2-1.2c2.1,2.5,3.6,5.3,5.6,7.9C680,761.8,679.1,762.3,678.3,762.8z M682.9,760.1c-1.8-2.9-3.8-5.7-5.7-8.5
			c0.8-0.4,1.6-0.9,2.4-1.3c1.7,2.8,3.6,5.4,5.5,8.1C684.4,759,683.7,759.5,682.9,760.1z M687,756.9c-1.8-2.8-3.8-5.5-5.7-8.3
			c0.7-0.5,1.5-0.9,2.2-1.4c1.9,2.7,3.7,5.4,5.7,8.1C688.5,755.8,687.7,756.3,687,756.9z M691.2,753.9c-1.8-2.9-3.8-5.6-5.9-8.3
			c0.6-0.3,1.7-1,2.2-1.3c2,2.6,4,5.3,6,7.9C692.7,752.8,691.9,753.4,691.2,753.9z M695.4,750.6c-1.9-2.6-3.9-5.2-6.1-7.6
			c0.7-0.6,1.4-1.2,2.1-1.8c2.1,2.6,4.1,5.1,6.2,7.7C696.8,749.4,696.1,750.1,695.4,750.6z M699.6,747.3c-1.9-2.7-3.9-5.4-5.8-8.1
			c0.7-0.4,1.3-0.8,2-1.1c1.8,2.6,3.8,5.2,6,7.5C701,746.1,700.3,746.7,699.6,747.3z M703.3,744.2c-1.9-2.8-4-5.4-6.2-8
			c0.6-0.2,1.7-0.7,2.3-0.9c2.2,2.3,4,4.9,6.1,7.3C704.8,743.1,704.1,743.6,703.3,744.2z M707.1,740.7c-2-2.6-4-5.2-6.3-7.6
			c0.4-0.3,1.1-1,1.5-1.4c2.4,2.3,4.2,5.1,6.4,7.6C708.2,739.9,707.7,740.3,707.1,740.7z M710.1,737.9c-2.4-2-4-4.8-6-7.1
			c0.3-0.3,0.9-0.8,1.3-1c1.9,2.7,4.1,5.2,6.4,7.5C711.4,737.4,710.5,737.8,710.1,737.9z M713.2,735.6c-2-2.6-4-5.3-6.7-7.3
			c0.6-0.7,1.3-1.4,1.9-2.1c2.2,2.5,4.7,4.8,6.4,7.6C714.5,734.2,713.6,735.1,713.2,735.6z M716.8,732.2c-2.1-2.7-4.5-5.3-6.8-7.8
			c0.5-0.3,1.6-1.1,2.1-1.4c2.2,2.5,4.4,5,6.7,7.4C718.3,730.8,717.3,731.7,716.8,732.2z M720.8,728.6c-2.3-2.4-4.4-4.9-6.7-7.3
			c0.5-0.5,1.1-1,1.7-1.5c2.3,2.2,4.4,4.7,6.7,6.9C722.1,727.2,721.2,728.1,720.8,728.6z M724.4,725.1c-2.2-2.4-4.5-4.8-6.8-7.1
			c0.6-0.6,1.2-1.2,1.9-1.8c2.3,2.3,4.5,4.8,6.9,7C725.7,723.7,725,724.4,724.4,725.1z M727.8,721.1c-2.2-2.4-4.4-4.7-6.7-7
			c0.6-0.6,1.3-1.3,1.9-1.9c2.2,2.4,4.4,4.8,6.8,7C729.2,719.9,728.5,720.5,727.8,721.1z M731.6,717.5c-2.3-2.4-4.6-4.8-6.9-7.1
			c0.7-0.6,1.4-1.3,2.1-1.9c2.1,2.4,4.3,4.8,6.7,6.8C732.9,716.1,732.2,716.8,731.6,717.5z M735,713.6c-2.2-2.3-4.6-4.4-6.6-6.8
			c0.5-0.7,1.2-1.4,1.8-2c2.2,2.4,4.5,4.8,7,6.9C736.4,712.3,735.7,713,735,713.6z M738.5,709.6c-2.2-2.2-4.7-4.3-6.7-6.7
			c0.3-0.5,0.8-1.5,1.1-1.9c2.6,2.1,5,4.5,7.6,6.7C739.9,708.2,739.2,708.9,738.5,709.6z M742.3,706c-2.2-2.5-5.2-4.4-7.1-7
			c0.3-0.5,1-1.4,1.3-1.9c0.5,0.5,1.6,1.4,2.1,1.9c0.8,0.7,1.6,1.4,2.4,2.1C742.5,702.5,744.7,704.1,742.3,706z M745.6,701.7
			c-1-0.9-1.9-1.8-2.9-2.6c-1.4-1.3-2.8-2.5-4.2-3.7c0.5-0.7,1.1-1.5,1.7-2.2c2,2.5,4.5,4.5,7.1,6.3
			C746.7,700.2,746.1,701,745.6,701.7z M748.7,697.6c-2.6-2-4.9-4.3-7.4-6.4c0.7-0.7,1.4-1.3,2.1-1.9c2.2,2.3,4.7,4.4,7.3,6.3
			C750,696.2,749.4,696.9,748.7,697.6z M752,693.5c-2.4-2.3-5-4.3-7.6-6.2c0.6-0.7,1.2-1.4,1.8-2.1c2.4,2.2,5,4.2,7.7,5.9
			C753.2,691.9,752.6,692.7,752,693.5z M755.4,689c-2.5-2.1-5-4.1-7.7-6c0.6-0.8,1.3-1.6,1.9-2.3c2.4,2.1,4.7,4.4,7.8,5.4
			C756.7,687,756,688,755.4,689z M759.1,684.3c-2.4-2-5-3.9-7.6-5.7c0.4-0.8,0.9-1.7,1.4-2.5c2.6,1.9,5.3,3.9,7.9,5.8
			C760.1,682.7,759.6,683.5,759.1,684.3z M761.9,679.7c-2.3-2.1-4.8-4-7.4-5.8c0.5-0.7,1-1.3,1.5-2c2.5,1.9,5,3.7,7.8,5.2
			C763.2,678,762.5,678.8,761.9,679.7z M765,675.5c-2.6-2-5.2-3.9-7.9-5.8c0.5-0.4,1.5-1.3,1.9-1.8c2.5,1.7,4.9,3.6,7.4,5.3
			C766,674,765.5,674.8,765,675.5z M767.7,671.1c-2.6-1.9-5.2-3.6-7.9-5.3c0.6-0.8,1.2-1.6,1.8-2.4c2.4,2,5.1,3.8,7.8,5.4
			C768.8,669.6,768.3,670.3,767.7,671.1z M770.6,666.6c-2.6-1.8-5.3-3.4-8.1-4.9c0.4-0.8,0.9-1.5,1.4-2.3c2.7,1.7,5.4,3.4,8.2,5.1
			C771.6,665.1,771.1,665.8,770.6,666.6z M773.3,662.4c-2.5-2-5.2-3.7-8.1-5.2c0.4-0.6,1.1-1.7,1.5-2.3c2.7,1.7,5.4,3.4,8,5.1
			C774.3,660.6,773.6,661.8,773.3,662.4z M775.9,657.7c-2.7-1.7-5.4-3.3-8.3-4.8c0.5-0.8,1-1.5,1.5-2.3c2.6,1.8,5.4,3.4,8.2,4.8
			C777,655.9,776.3,657.1,775.9,657.7z M778.5,653.3c-2.8-1.5-5.5-3.1-8.3-4.7c0.4-0.8,0.8-1.5,1.3-2.3c2.7,1.6,5.4,3.1,8.3,4.5
			C779.4,651.6,778.9,652.5,778.5,653.3z M781,648.7c-2.7-1.6-5.5-3.1-8.3-4.6c0.3-0.6,1-1.7,1.4-2.3c2.6,1.7,5.4,3.1,8.2,4.6
			C781.9,647.1,781.4,647.9,781,648.7z M783.4,644c-2.7-1.5-5.5-2.9-8.3-4.2c0.3-0.8,0.7-1.6,1.1-2.4c2.8,1.5,5.6,3,8.6,4
			C784.3,642.3,783.8,643.2,783.4,644z M786.1,639.6c-3-1.5-5.9-3-8.9-4.4c0.4-0.6,1.1-1.8,1.5-2.3c2.6,1.6,5.4,2.8,8,4.4
			C786.5,637.8,786.2,639,786.1,639.6z M788,635.1c-2.7-1.6-5.6-3-8.5-4.2c0.4-0.8,0.8-1.7,1.2-2.5c2.8,1.4,5.6,2.8,8.5,4
			C788.7,633.2,788.3,634.1,788,635.1z M789.9,630.4c-2.7-1.6-5.5-3.1-8.3-4.5c0.4-0.8,0.8-1.6,1.2-2.3c2.8,1.4,5.5,2.8,8.4,4.1
			C790.8,628.6,790.4,629.5,789.9,630.4z M792.3,625.3c-2.9-1.3-5.7-2.5-8.6-3.7c0.3-0.8,0.6-1.7,0.9-2.5c2.8,1.4,5.7,2.6,8.7,3.7
			C793.1,623.4,792.6,624.7,792.3,625.3z M794,620.9c-2.8-1.5-5.7-2.9-8.6-4.1c0.4-0.7,0.9-1.4,1.3-2.1c2.8,1.4,5.7,2.7,8.6,3.9
			C795,619.1,794.3,620.3,794,620.9z M796.1,615.8c-2.9-0.9-5.7-2.4-8.5-3.4c0.4-0.9,0.7-1.7,1.1-2.5c2.9,1.4,5.8,2.7,8.8,4
			C797.1,614.3,796.4,615.3,796.1,615.8z M798.2,611.3c-3-1.2-6-2.4-9-3.5c0.3-0.8,0.6-1.7,0.9-2.5c3,1,5.9,2.2,8.9,3.3
			C798.8,609.3,798.4,610.7,798.2,611.3z M799.9,606.4c-2.9-1.3-5.9-2.3-9-3.3c0.3-0.9,0.6-1.8,0.9-2.7c2.9,1.2,5.9,2.3,9,3.3
			C800.6,604.5,800.1,605.8,799.9,606.4z M801.5,601.6c-3-1.3-6.2-2.3-9.3-3.2c0.3-0.6,0.8-1.8,1-2.4c3.1,0.9,6.2,2.1,9.4,3
			C802.3,599.7,801.8,601,801.5,601.6z M803.3,596.9c-3.1-1-6.3-2-9.4-2.9c0.3-0.9,0.7-1.7,1-2.6c3.1,0.9,6.2,1.9,9.3,2.8
			C803.9,595,803.5,596.3,803.3,596.9z M804.7,591.8c-3.1-0.8-6-1.9-9.1-2.7c0.3-0.9,0.6-1.7,0.8-2.6c3.1,1,6.2,1.8,9.3,2.8
			C805.5,590,805,591.2,804.7,591.8z M806.1,587c-3-1-6.1-1.9-9.2-2.7c0.2-0.6,0.5-1.8,0.6-2.3c3.1,0.8,6.2,1.7,9.4,2.4
			C806.7,585.3,806.4,586.2,806.1,587z M807.6,582.1c-3.1-0.9-6.2-1.8-9.3-2.6c0.2-0.6,0.6-1.8,0.8-2.5c3,0.9,6.1,1.6,9.2,2.3
			C808.1,580,807.8,581.4,807.6,582.1z M808.7,577.2c-3-1-6-1.8-9-2.7c0.2-0.6,0.5-1.8,0.7-2.4c3.1,0.9,6.2,1.6,9.4,2.3
			C809.3,575.3,809,576.3,808.7,577.2z M810.1,572.3c-3.1-1-6.2-1.8-9.3-2.5c0.1-0.7,0.4-2,0.5-2.6c3.1,0.8,6.3,1.6,9.4,2.2
			C810.5,570.3,810.3,571.3,810.1,572.3z M811.4,567.1c-3.2-0.7-6.3-1.5-9.5-2.2c0.1-0.6,0.3-1.9,0.4-2.6c3.1,0.6,6.3,1.4,9.4,2.1
			C811.7,565.1,811.5,566.5,811.4,567.1z M812.2,562.3c-3.1-0.7-6.2-1.3-9.3-2.3c0.1-0.7,0.2-2,0.3-2.6c3.2,0.7,6.4,1.5,9.6,2.1
			C812.6,560.2,812.3,561.6,812.2,562.3z M813.3,557.1c-3.2-0.6-6.4-1.3-9.6-1.8c0.2-0.6,0.5-1.9,0.7-2.5c3.1,0.4,6.2,1.1,9.4,1.6
			C813.7,555,813.4,556.4,813.3,557.1z M814.3,552c-3.2-0.5-6.5-1-9.7-1.6c0.2-0.9,0.3-1.8,0.5-2.6c2.8,0.5,5.5,0.8,8.3,1.3
			C815.1,549.1,814.5,550.9,814.3,552z M815.1,546.8c-3.2-0.2-6.4-0.9-9.6-1.2c0.1-0.7,0.2-2,0.3-2.6c3.2,0.6,6.4,1.1,9.7,1.6
			C815.4,545.1,815.2,546.3,815.1,546.8z M815.9,542.1c-3.2-0.5-6.5-0.9-9.7-1.3c0.1-0.6,0.3-1.9,0.4-2.5c3.3,0.4,6.5,0.8,9.8,1
			C816.1,540.2,816,541.2,815.9,542.1z M816.6,537.1c-3.2-0.6-6.5-0.9-9.7-1.2c0-0.6,0.1-1.9,0.1-2.5c3.2,0.5,7-0.1,9.8,1.4
			C816.8,535.4,816.7,536.6,816.6,537.1z M817.3,531.9c-3.4-0.1-6.8-0.6-10.1-0.8c0.2-0.8,0.4-1.6,0.7-2.4c3.2,0.2,6.3,0.4,9.5,0.9
			C817.3,530.1,817.3,531.3,817.3,531.9z M817.6,527.1c-3.2-0.4-6.4-0.7-9.6-0.8c0-0.7,0-2,0.1-2.6c3.2,0.1,6.5,0.3,9.7,0.5
			C817.7,524.9,817.6,526.4,817.6,527.1z M818,522c-3.3-0.4-6.6-0.6-9.9-0.6c0.1-0.7,0.4-2,0.6-2.7c3.2,0,6.3,0.4,9.5,0.6
			C818.1,519.9,818,521.3,818,522z M808.6,516.5c0-0.7,0.1-2.1,0.1-2.8c3.2,0.2,6.4,0.2,9.6,0.7c0.1,0.6,0.2,1.9,0.2,2.5
			C815.2,516.7,811.9,516.5,808.6,516.5z M808.8,508.7c3.2,0.1,6.5,0.2,9.8,0.2c0,0.7,0,2.1-0.1,2.8c-3.2-0.2-6.4-0.3-9.6-0.3
			C808.8,510.8,808.8,509.4,808.8,508.7z M809,506.5c0-0.7-0.1-2.1-0.1-2.8c3.3,0,6.5,0.2,9.8,0.2c0,0.9,0.1,1.8,0.1,2.7
			C815.5,506.5,812.2,506.4,809,506.5z M809.1,501.6c-0.1-0.9-0.1-1.8-0.1-2.8c3.3,0,6.5,0,9.7,0c0,0.9,0.1,1.8,0.1,2.8
			C815.6,501.5,812.3,501.5,809.1,501.6z"/>
		<path class="st0" d="M623.8,355c-6.2-14.3-16.8-26.6-29.9-35c-15.3-9.9-33.3-15.3-51.3-17.4c-24.8-2.9-49.8-1.1-74.7-0.9
			c-24,0.1-48,0-72-0.1c0,3.3,0,6.6,0.1,9.9c8.1,0.1,16.6,1.8,23.2,6.8c3.9,2.8,6.9,6.9,8.5,11.4c3.2,8,3.2,16.8,3.5,25.3
			c0,68.2,0.1,136.5,0,204.7c-0.3,10.8-0.3,22.6-6.5,31.9c-6.4,8.8-17.8,10.9-28,11.5c0,3.3,0,6.6,0.1,9.9
			c40.4,0.1,80.8-0.1,121.2,0.1c0-3.4,0-6.8,0-10.2c-10.1-0.3-21.5-2.5-28.3-10.6c-6.5-9.1-6.8-20.8-7.2-31.5
			c-0.1-27.1-0.1-54.3-0.1-81.4c26.3,3.6,53.6,4.7,79.3-2.7c14.9-4,29-11.1,40.7-21.2c12-10,20.7-23.8,25-38.7
			C633.6,396.6,631.9,374.4,623.8,355z M575.3,405.8c-2.2,17.4-9.6,34.9-23.4,46.2c-10.8,9-25.1,12.8-38.9,13.2
			c-10.2,0.4-20.4-0.4-30.5-2c-0.2-48.1-0.4-96.1,0.3-144.2c17.2-2.3,35.3-3.1,51.9,2.6c14,4.9,25.9,15.6,32.3,29
			C575.6,367.5,577.5,387.1,575.3,405.8z"/>
		<path class="st0" d="M721.5,578.6c6.4-3.4,13.1-6.2,19.2-10c12.6-7.7,23.5-19.2,28.1-33.5c-2.1-1.2-4.4-2.1-6.7-2.8
			c8.9-10.3,12.8-23.9,13.6-37.3c-11.4,3.2-21.3,10.4-28.4,19.7c-0.4-0.7-1.1-2.1-1.5-2.8c-3.7,1.2-7.2,3-9.9,5.8
			c-6.2,5.9-9.6,13.8-13.3,21.3c1.3-7.6,1.8-15.4,4.6-22.7c2.5-7.6,6.7-14.6,12.2-20.4c4.8-5,9.7-9.8,13.6-15.6
			c9.2-13,12.7-29.5,10.9-45.2c-3.6,1.7-6.6,4.3-10.1,6.2c2.4-11.9,1.7-24.3-2.4-35.7c-8.7,7.1-15.2,16.6-20.1,26.6
			c-3.7,7.3-4.9,15.5-5.8,23.5c-2-10.7-4-21.4-3.1-32.3c0-13,7.9-24.1,9.4-36.7c2-13.4-1.9-27-8.3-38.7c-1.8-3-3-6.4-5.4-8.9
			c-6.6,9.8-10.8,21.7-10.3,33.6c0.8,11,4.4,21.9,10,31.4c-0.7-14.2-0.3-28.5,0.3-42.7c1.2,16.9,1.8,33.8,1,50.7
			c-0.2,2.7-0.5,5.3-1,8c-2.7-12.4-8-24-13.3-35.5c-3.3-7.2-8-14.1-8.5-22.2c-1.2-11.3-2.9-23.3-9.8-32.7
			c-8.9-12.9-23.4-20.4-37.9-25.1c2.3,11,4.1,22.3,9,32.4c4.9,9.9,12.9,17.9,22,24c6.4,4.7,13.2,9.7,16.9,17
			c6.6,12.9,12.4,26.4,15.9,40.6c-2-2.5-3.8-5.1-5.7-7.6c-3.4-4.4-4.5-9.9-6.8-14.9c-4.1-10-11.1-19.5-21.3-23.8
			c-7.5-3.2-15.6-5.5-23.8-5.3c5.2,12.7,12.5,25.5,24.6,32.8c7.2,4.6,16,6.5,22.1,12.6c4.3,4.2,8.3,8.9,11.2,14.2
			c4.3,7.6,5.6,16.5,7,25c1,8.8,2.3,17.6,2.2,26.5c-4-8-4-17.1-6-25.6c-1.8-8-4.7-15.9-9.1-22.9c-3.5-5.5-8.6-9.8-14.2-13.1
			c0,0.7,0,2.1-0.1,2.8c-8-6.3-18.1-9.4-28.1-10.5c2.4,9.5,5.9,18.9,11.8,26.9c-0.2,0.4-0.7,1.1-0.9,1.5c3.3,6.6,8.1,12.3,13.6,17
			c7,6,15.9,9.5,22.7,15.8c6.2,6.7,8.5,16,9.9,24.7c0.5,7.6-0.7,15.1-1.4,22.7c-2.4,17.2-5.7,34.3-12,50.5
			c2.1-19.4,8.8-38.4,7.8-58.1c-0.7-9.3-2.7-19.1-8.9-26.3c-1.1,0.9-2.2,1.9-3.2,2.8c-2.5-5-5.8-9.6-10-13.4
			c-4.8-4.4-10-8.6-16.1-11.1c-0.9,11,0,22.3,3.7,32.7c-1.8,0.1-3.6,0.2-5.4,0.3c-0.3,15.1,8.6,28,17.2,39.7
			c6.6,9.1,11.6,20.2,10.5,31.8c-0.8,7.1-1,14.6-4,21.2c-3.7,8.5-8.5,16.5-13.1,24.5c-5,8.9-11.5,16.8-17.5,24.9
			c5-11.2,12.5-21,18.1-31.9c6-11.8,9.3-25.4,7.3-38.7c-0.3-2.4-1.3-4.7-3.3-6c-0.6,0.3-1.8,1-2.4,1.3c-1.7-11.5-6.5-22.7-15-30.8
			c-4.4,9.8-7.4,20.3-7.2,31.1c-1.9-1.5-3.8-2.9-6-4c-2.4,7.5-3.5,15.5-2.6,23.3c1.2,13.1,6.6,25.4,7.6,38.6c1,7.5-0.9,15.1-3.7,22
			c-2.5,6.5-7.7,11.5-12.5,16.5c-4,3.9-7.7,8.1-12.3,11.4c6.1-16.1,18.7-30.2,19.3-48.1c0.4-12.4-4.1-24.8-12.1-34.2
			c-4.2,9-9.7,17.8-11.2,27.8c-1.9,9.7,0,19.5,2.4,28.9c1.2,4.7,1.8,9.8,0.4,14.5c-2.3,8.2-6.1,16.5-12.7,22.1
			c-6.2,5.3-13,9.8-20,13.9c-5.8,3.6-11.5,7.1-17.6,10.2c2.4-2.8,4.9-5.6,8.1-7.4c11.5-7.6,23.4-16.2,29.3-29.1
			c1.9-4.7,4.2-9.8,3.3-14.9c-0.8,0-2.5,0-3.4,0c3.9-11.5,2.7-24.3-1.9-35.5c-6.4,7.1-12.2,14.8-16.6,23.3c-1.4-1.3-2.9-2.5-4.6-3.5
			c-5.4,6.4-8.6,14.3-10.4,22.4c-1.9,9.6-0.7,19.5-2.1,29.2c-1,7.9-6.2,14.6-12.2,19.5c-7.2,4.6-15.4,7.3-23.4,10.2
			c2.9-3.3,5.6-6.8,9.2-9.3c8.3-5.5,16.2-12.7,19.6-22.3c3.2-9.7,2.5-20.3-0.2-30c-1.5,0.2-2.5,1.5-3.6,2.3
			c-7.5,6.4-15,13.4-18.4,22.9c-2.8,7.2-2,15.1-4,22.4c-1.6,5.7-5.6,10.5-10,14.3c-3.4,3.1-8.1,3.8-12.3,5c-10.9,3-21.6,6.9-32,11.3
			c-3.1-0.8-5.9-2.5-8.8-3.6c-8.5-3.7-17.5-6.2-26.4-8.7c-3.2-0.9-6.4-2-8.9-4.3c-4.9-4.3-9.3-9.8-10.3-16.4c-1.1-7-1-14.3-3.8-20.9
			c-4.1-10.6-13-18.3-21.7-25.2c-3,11.3-4.2,24.1,1.7,34.7c4.2,7.1,10.1,13.3,17,17.8c3.6,2.3,6.3,5.7,9.3,8.8c0,0.2,0.2,0.7,0.2,1
			c-7.4-2.9-15-5.5-21.9-9.3c-7.3-5.1-12.3-13.2-13.4-22.1c-1.1-8.9,0-18-1.9-26.9c-1.5-8.3-5.1-16.4-10.5-22.8
			c-1.6,1.1-3.1,2.3-4.5,3.6c-4.3-8.6-10.6-16-16.8-23.3c-4.5,11.2-5.6,23.9-1.6,35.4c-1.3-0.1-2.5-0.2-3.7-0.3
			c-0.5,4.6,1.1,9,2.7,13.1c4.6,10.8,13.2,19.4,22.7,26c5.2,3.9,11.4,6.7,15.4,12.1c-8.9-4.2-17.2-9.7-25.6-14.9
			c-7.3-5.1-15.1-10.2-19.4-18.3c-4.3-7.7-7.3-16.8-5-25.6c2.4-9.9,4.6-20.2,2.6-30.4c-1.7-10.1-7.2-18.8-11.4-28
			c-9.4,11.9-14.5,28-10.6,43c3.3,14.3,13.1,25.7,17.9,39.4c-7.9-6.5-15.2-13.9-21.7-21.8c-2.9-4.5-4.6-9.6-5.9-14.8
			c-2.8-11.8,0.7-23.9,3.7-35.4c3.4-12,5.1-24.9,1.3-37c-0.4-0.8-0.4-2.3-1.6-2.4c-1.8,1-3.4,2.3-5.1,3.5
			c0.2-10.7-3.2-20.9-6.9-30.8c-8.5,7.8-13.8,19.1-15.1,30.6c-1.5-0.3-3.4-1.9-4.5-0.1c-1.4,2.6-1.7,5.7-2,8.7
			c-1,14.1,3.6,28.1,10.7,40.2c4.8,8.9,11.5,16.8,15,26.3c-5.8-7.7-11.8-15.2-16.7-23.6c-6.8-12.5-15.5-24.7-17-39.2
			c-1.3-8.7-1.2-17.8,2.3-26c4.5-11.6,13.8-20.4,19.3-31.5c3.5-6.6,5.4-14.1,5.7-21.6c-1.9-0.2-3.9-0.3-5.8-0.4
			c3.9-10.4,4.7-21.7,3.9-32.7c-10.9,5.3-20.6,13.7-26.3,24.5c-1-0.9-1.9-1.7-2.9-2.6c-3,4-5.5,8.4-6.7,13.3
			c-3.5,11.5-2.8,23.8-0.8,35.6c1.6,12,5.5,23.6,6,35.7c-7.6-22.8-12.7-46.5-13.3-70.5c0.5-8.7,2.9-17.5,7.9-24.8
			c4.1-5.8,10.6-8.9,16.4-12.6c8.5-5.3,16.5-12.2,21-21.3c0.7-1.2,0.8-2.6,0.8-4c5.4-7.8,8.6-16.9,11.1-26
			c-10.1,0.8-20.1,4.3-28.3,10.2c0-0.6,0-1.8,0-2.4c-4.7,2.6-9.2,5.9-12.4,10.3c-7.9,10.6-11.1,23.8-13,36.6c-0.6,5.2-2,10.2-4.2,15
			c0.1-6.6,0.8-13.1,1.4-19.7c1-9.6,2.3-19.3,6-28.2c3.2-6.8,7.6-13.1,13-18.4c6-5.9,14.4-8.1,21.5-12.3c12.3-7.3,20.2-20,25.1-33.1
			c-8.5-0.2-16.9,2-24.5,5.6c-7.4,3.4-13.1,9.5-17.3,16.4c-3.3,5.6-5.1,11.9-7.8,17.8c-2,4.4-5.3,8-8.3,11.8
			c3.1-10.9,6.8-21.6,11.8-31.8c2.9-5.9,5.6-12.2,10.4-17c5.8-5.9,13.2-9.8,19.2-15.3c5.9-5.3,11-11.5,14.3-18.7
			c4.5-9.9,6.5-20.7,8.4-31.3c-14.3,4.9-28.7,12.1-37.6,24.8c-7.1,9.6-8.7,21.8-9.9,33.3c-0.4,5.5-2.8,10.5-5.3,15.3
			c-7,13.5-13,27.6-17,42.3c-1.8-19.6-0.9-39.3,0-58.9c1.1,14.4,1.3,28.8,0.8,43.3c4-8,7.3-16.5,9-25.3c2.6-14-1.7-28.7-9.6-40.4
			c-9.5,14.2-16.4,31.5-13.5,48.9c1.4,11,8,20.6,9,31.7c0.7,7.5,1,15.1-0.6,22.5c-0.9,4.5-1.4,9.1-2.4,13.6
			c-1-8.2-2.4-16.4-6.1-23.8c-5-9.9-11.2-19.4-20-26.2c-3.5,11.6-4.8,24-2.2,36c-3.3-2.3-6.5-4.9-10.2-6.5
			c-1.2,11.6,0.5,23.5,5.1,34.2c4,9.1,10.1,17.2,17.3,24.1c7.6,7.3,13.3,16.5,15.9,26.8c1.5,6.3,2.5,12.6,3.3,19
			c-2.8-7-6.7-13.7-11.6-19.5c-3.1-3.6-7.1-6.4-11.7-7.7c-0.4,0.6-1.1,1.9-1.5,2.5c-2.8-3.3-5.5-6.7-8.9-9.5
			c-5.6-4.7-12.4-7.8-19.3-9.9c0.7,13.4,5.2,26.7,13.6,37.2c-2.3,0.7-4.6,1.5-6.8,2.6c5.5,15.4,17.5,27.8,31.7,35.6
			c8.3,4.9,17.8,7.8,25,14.5c5.2,4.5,9.4,10.1,12.3,16.4c-10.2-6.6-21.6-11.1-33.5-13.8c-0.6-3-1.6-6.9-5.1-7.7
			c-1.9-0.8-3.7,0.3-5,1.5c-2.5-1.2-5.3-2.3-8.1-1.5c-3.2,0.7-5.4,4.6-3.6,7.6c1.3,3.3,5,4.3,8.2,5c1,1.9,2.3,4.1,4.8,4.2
			c3.5,0.5,6.1-2.3,8-4.9c14.5,3.7,29.4,9.2,39.7,20.5c4.2,5.3,7.8,11.1,11.2,17.1c-9.1-9.8-19.4-20.6-33.6-21.7
			c0.1,2.3,0.3,4.5,0.5,6.8c-3.8-1.9-7.6-3.9-11.8-4.9c-6.6-1.9-13.6-1.3-20.3-1.1c4.3,11.2,12.8,20.7,22.9,27.1
			c-2.3,1.7-4.6,3.4-6.7,5.3c10,12.2,24.4,20.6,39.7,24c8.6,2,17.5,0.8,26.2,1.6c9.6,1.1,19.4,4.1,26.8,10.6
			c-12.3-2.6-25-1.2-37.3,1.3c-1.9-2.6-4.6-5.3-8.1-4.8c-1.9,0.2-2.9,2.1-4,3.5c-3.1,0.1-6.7,0.6-8.7,3.4c-1.8,2.2-1.4,5.7,0.8,7.4
			c2.8,2.1,6.5,1.6,9.8,1.2c1.7,1.1,3.5,2.5,5.6,1.7c3.5-0.8,4.6-4.6,5.5-7.5c14-3.1,29.1-4.7,42.9,0.2c8.3,4,15.9,9.4,23.2,15.2
			c-5-2-9.5-5.1-14.5-7.2c-9.3-4.3-19.6-7.1-29.8-4.8c0.8,1.9,1.6,3.7,2.6,5.5c-12.1,0.3-24,5.5-32.6,14.1
			c9.8,5.4,20.3,9.4,31.3,11.1c-1.3,1.9-2.5,3.9-3.6,6c4,3,8.9,4.6,13.7,5.9c12.5,2.6,25.2-0.8,36.7-5.7c9.5-3.6,19.7-8.1,30-5.5
			c6.8,2.2,13.4,5.2,20.1,7.7c-8.9,1.8-17.9,3.5-26.7,6.2c-6.4,1.9-12.5,4.6-18.7,7.1c10.3-6.7,21.9-10.9,33.8-13.6
			c-8.2-2.2-17-3.5-25.3-1c-11.6,3.9-20.7,13.3-25.9,24.2c7,0.4,14,1.2,21,0.6c10.3-0.5,20-4.9,27.7-11.6c8.7-7.7,21.7-8.8,32.3-5
			c8.3,3,16.6,6.3,24.5,10.2c-13.4,6.8-26.1,15.2-36.7,25.8c6.5,1.3,12.8,3.5,18.9,6.2c8.4-10.9,19.5-19.4,31.4-26.1
			c11.4,7,22.3,15.1,30.7,25.7c6.2-2.2,12.4-4.5,18.8-5.8c-10.5-10.9-23.8-18.7-37.1-25.9c7.5-3.2,15-6.4,22.7-9.2
			c8-3.2,17.2-4,25.5-1.3c6.5,2.2,10.9,7.8,16.9,10.9c12.2,7.6,27.2,6.8,40.9,5.5c-5.7-12.6-17.4-23.4-31.5-25.4
			c-6.4-0.6-13.1,0-19.2,2.2c11.6,2.8,23.2,6.8,33.2,13.5c-14.3-6.4-29.6-10.6-45.1-13.1c5.1-2,10.2-4.2,15.3-6.3
			c4.1-1.7,8.5-3,13-2.4c14.2,1.4,26.4,10,40.5,12c10.7,2,22.5,0.7,31.4-5.8c-0.9-2.2-2.1-4.3-3.3-6.3c11.2-1.1,21.5-6,31.5-10.9
			c-8.7-8.6-20.6-13.9-32.9-14c0.9-1.7,1.9-3.3,2.8-5c-1.9-1-4-1.1-6-1.2c-9.4-0.7-18.4,2.8-26.7,6.7c-4,1.9-7.6,4.6-11.8,6.1
			c8.3-6,16.3-12.8,26.1-16.1c13.1-3.4,27-2.5,40,0.7c0.9,3,2.2,6.7,5.7,7.5c2.2,1,4-0.6,5.6-1.8c2.7,0.4,5.7,1.1,8.3-0.2
			c2.6-1.2,4.4-4.5,2.9-7.2c-1.7-3.7-6.1-4.5-9.7-4.6c-0.8-1.2-1.5-2.8-3.1-3.1c-3.5-0.9-6.6,1.8-8.4,4.6
			c-12.4-2.4-25.1-3.6-37.6-1.2c7.2-5.5,15.7-9.4,24.8-10.4c9.2-1.1,18.5,0.2,27.6-1.7c15.6-3.2,30.2-11.7,40.5-23.8
			c-2.1-2.2-4.4-4.1-6.9-5.8c10.4-5.9,18.8-15.5,23-26.8c-10.9-0.9-22.6-0.4-32,5.9c0.2-2.2,0.4-4.5,0.5-6.7
			c-4.3,0.3-8.6,1.4-12.5,3.4c-8.7,4.4-15,11.9-21.5,18.9c4.3-7.3,8.7-14.8,14.7-20.8c10.3-9.1,23.6-14,36.7-17.3
			c1.9,2.8,5,5.4,8.6,4.7c2.3-0.2,3.3-2.4,4.2-4.1c3-0.8,6.5-1.7,8-4.8c1.9-3-0.5-6.9-3.7-7.6c-2.8-0.9-5.5,0.3-8,1.4
			c-2.2-3-6.9-1.8-8.6,1.1c-0.9,1.6-1.1,3.3-1.6,5.1c-11.8,2.5-23,7.3-33.3,13.4C704.6,591.5,712.3,583.7,721.5,578.6z M734.9,463.8
			c-0.3-5.9-2.2-11.8-1.2-17.7c0.1-0.3,0.2-1,0.3-1.3c0.4,5.3,1.3,10.5,2.1,15.7c2.1-6.8,3.9-13.8,5.8-20.7
			c1.6-6.1,3.8-12.1,5.5-18.2l0.1,0.3c-1.7,10.3-4.5,20.3-6.8,30.5c-2.4,10.6-4.7,21.3-6.7,32c7.4-10,15.3-19.8,21.2-30.8
			c-3.9,12.1-11.8,22.1-19.2,32.3c-4,5.2-5.8,11.6-8.6,17.5C728.7,490.1,732.4,477,734.9,463.8z M682.7,349.6
			c-5.9-9.9-12.8-19.1-19.5-28.4c11.3,11.8,21.4,25.2,27.3,40.5C687.4,358,685.3,353.6,682.7,349.6z M685.8,390.7
			c-4.5-4-9.6-7.3-14-11.4c10.8,6.5,21.8,14.2,28.3,25.4C695.1,400.3,690.8,395.1,685.8,390.7z M706.7,455.2
			c-5-4.5-11.3-7.1-17.2-10c5.5,1.1,10.7,3.2,15.6,5.7c-4.9-7.4-11.2-13.6-17.1-20.2c-3.5-3.9-7.5-7.4-11.4-10.9
			c10.7,6.1,18.7,15.6,26.9,24.6c-1.2-4.5-2-9.1-3.3-13.5c3.2,5,4,10.9,6.1,16.3c2.6,5.6,5.9,10.8,7.6,16.8
			C711.7,460.9,709.6,457.7,706.7,455.2z M642.7,641.6c2-12,3.1-24.1,3.1-36.3c0.3,2.3,0.5,4.7,0.8,7.1c0.4,12-0.1,24.5-4.5,35.8
			C642.1,646,642.3,643.8,642.7,641.6z M598.4,677.1c1-4.1,0.5-8.3,1.3-12.4c0.4,2.9,0.6,5.8,0.7,8.7c4.5-11.3,9-22.6,13.9-33.8
			c1-2.3,1.9-4.7,2.8-7c-0.3,1.5-0.5,3.1-0.9,4.7c-4.1,12.9-8.7,25.6-13.7,38.1c5.6-3.8,11.2-7.4,16.5-11.6
			c-3.6,4.4-7.8,8.4-12.6,11.7c-2.1,1.6-4.6,2.8-5.8,5.3c-2,3.6-4,7.3-6.6,10.4C595.7,686.6,597.3,681.9,598.4,677.1z M573.9,676.9
			c-2.5,10.9-7,21.8-14.9,30.1C564.4,697.2,569.8,687.3,573.9,676.9z M425.1,675.1c4.6,11,9.9,21.6,15.6,32
			C432.4,698.3,428.4,686.5,425.1,675.1z M398.3,679.1c-2.2-2.3-4.9-3.8-7.4-5.7c-3.8-2.7-6.8-6.2-10-9.6c5.3,4.3,11,7.9,16.7,11.6
			c-5.3-12.5-9.6-25.4-14-38.2c-0.4-1.2-0.8-2.4-1.1-3.6c0.5,0.7,0.9,1.4,1.4,2.2c5.9,12.6,10.8,25.7,16,38.6
			c-0.3-3.4-0.1-6.8,0.8-10.1c0.3,3.3,0.1,6.6,0.4,9.9c0.7,5.9,2.7,11.5,4.6,17C402.9,687.5,401.1,682.9,398.3,679.1z M353.2,623.4
			c-0.2-6-0.1-12,0.6-18c0,14.4,2.6,28.6,4.1,42.9C354.6,640.4,353.9,631.8,353.2,623.4z M292.1,450.5c3.6-6.1,3.7-13.5,7.3-19.6
			c-0.9,4.4-2,8.8-2.8,13.3c7.8-9.2,16-18.5,26.6-24.5c-10.6,9.1-19.9,19.7-28.3,30.9c4.7-2.3,9.6-4.2,14.7-5.3
			c-3.3,2.3-7.3,3.4-10.6,5.7c-5.8,3.6-10.4,8.9-14,14.6C287.1,460.3,289.4,455.3,292.1,450.5z M319,385.3c2.9-2.1,5.9-4.2,9.1-5.9
			c-2.9,2.9-6.3,5-9.5,7.6c-6.8,5.4-12.6,11.8-18.7,17.9C304.2,396.7,311.7,390.7,319,385.3z M322.6,338c4.4-6,8.8-12.1,14.5-16.9
			c-10.7,12.7-19.2,27-27.7,41.3C312.3,353.5,317.4,345.6,322.6,338z M266.6,489.8c-3.3-5.4-7.1-10.5-10.8-15.6
			c-4.6-6.3-8.2-13.3-11-20.6c6.1,11,14.1,20.7,21.3,31c-1.4-9.2-3.8-18.3-5.7-27.4c-2.2-10.8-5.3-21.3-7.3-32.1
			c-0.2-0.9-0.3-1.7-0.4-2.6c1.4,4.2,2.5,8.4,4,12.5c2.6,8.5,4.6,17.1,7.4,25.5c0.7-5,1.3-10.1,1.7-15.2c0.2,0,0.5,0,0.7,0
			c0,4,0,8.1-0.7,12c-0.4,2.8-1.3,5.7-0.5,8.5c3,12.5,5.7,25,7.6,37.7C270.2,499.2,269.2,494.1,266.6,489.8z M278.8,568.6
			c-7.8-5.7-17-9.1-25.1-14.3c7.4,2.5,14.4,5.8,21.4,9.1c-8.9-11.9-19.2-22.7-27.7-34.9c-4.2-6.1-8.7-12.2-12.2-18.7
			c6.9,8.2,13,17,20.2,25c4.5,5,8.9,10.2,13.3,15.3c-1.8-6.8-3-13.8-4.1-20.7c3.1,6.2,4.3,13.1,5.9,19.8c1.2,4.9,4.7,8.6,7.6,12.6
			c4.7,6.2,9.7,12.2,13.2,19.2C286.7,577.2,283.2,572.4,278.8,568.6z M294.4,522.9c0.4-3.2-0.7-6.2-1.1-9.3c-1.2-5.9-1.1-12-0.6-18
			c0.8,6.8,1.7,13.6,3.1,20.3c1.1-2.1,1.6-4.5,2.3-6.8c2.9-9.6,7.4-18.7,12.6-27.2c0.7-1.1,1.3-2.2,2-3.3c-0.1,0.3-0.1,1.1-0.2,1.4
			c-7.5,14.1-12.7,29.4-15.6,45.1c4.7-5.3,9.6-10.5,15.3-14.7c-4.3,5.6-9.4,10.5-13.5,16.2c-4.9,6.8-4.7,15.6-6.3,23.4
			C291.3,541,293.2,531.9,294.4,522.9z M328.7,625.7c-4.8-9.8-4.9-21-7.3-31.5c-3.6-7.4-8.4-14.3-10.1-22.5
			c3.2,6.1,6.6,12.1,10.5,17.9c-0.6-13.5-0.4-27.2,1.5-40.6c0.2,0.4,0.5,1.2,0.6,1.6c-0.8,14.9-0.6,29.9,0.9,44.8
			c2.5-5.4,4.3-11.2,8.1-15.9l0.4-0.1c-3.4,6.7-6.2,13.9-7.1,21.4C326,609.2,327.9,617.5,328.7,625.7z M331.7,657.9
			c-9-1.8-18.2-1.7-27.3-2.1c7.5-1.8,15.4-1.6,23-0.9c-6-3.9-12.2-7.6-19-9.8c-7.8-1.7-15.9-1.2-23.9-1.5c6.9-1.6,14-1.7,21.1-1.4
			c-13.1-8.1-26-16.4-38.7-25.1c7.6,3.4,14.7,7.8,22,11.8c7.2,4,14.3,8.2,21.3,12.5c-3.9-6.6-6.8-13.7-11.3-19.9
			c4.5,3.6,7.4,8.6,10.3,13.4c2.2,3.6,4,7.8,7.8,10.1c7.3,4.2,14.6,8.6,21.8,12.9c2.8,1.7,5.6,3.4,8.1,5.6
			C341.8,661.5,337,659,331.7,657.9z M391,714.1c-8.1,1.9-15.7,5.2-23.8,7c6.9-3.4,14.1-6.1,21.2-8.8c-17.7-0.9-34.7-6.1-52.3-7.8
			c15.6-1.7,31,2.7,46.4,4.3c-6.4-4.6-12.5-9.6-18.5-14.7c7.1,3.2,12.6,8.8,19.4,12.3c8.7,4.7,19,3.8,28.4,6.2
			C404.9,713.3,397.8,712.5,391,714.1z M612.6,708.1c8.5-3.2,14.8-10.4,23.1-14c-6,5-12,10.2-18.5,14.6c16.5-1.7,33-6.2,49.7-4
			c-14.2,0.1-27.8,4.3-41.8,6.2c-4.5,0.6-9.2,0.8-13.7,1.4c7.2,2.5,14.3,5.2,21.1,8.8c-7.8-1.9-15.4-4.8-23.2-6.9
			c-7-1.8-14.3-0.7-21.4-1.5C596,710.3,604.7,711,612.6,708.1z M669.3,582.7c2.3,4.1,3.9,8.5,5.4,12.9c1.8-13.3,1.5-26.8,1.4-40.3
			c0-2.4-0.1-4.8-0.1-7.2c2.3,10.3,2.4,20.8,2.4,31.3c-0.2,3.4-0.3,6.8-0.4,10.2c2.5-4.1,5.2-8.1,7.5-12.2c1.1-1.9,2-3.9,3.1-5.9
			c-0.6,2.1-1.2,4.3-1.9,6.3c-2.4,7.7-8.8,13.8-9.3,22.1c-1.3,9.2-2.2,18.8-6.7,27.1c1.5-8,2.8-16.1,3.1-24.3
			c-0.3-6.5-2.6-12.7-4.9-18.7c-0.9-2.2-1.8-4.4-2.7-6.7C667.2,579.2,668.3,580.9,669.3,582.7z M685.6,642.9
			c5.5-6.8,8.5-15.6,15.3-21.3c-4.3,6.5-7.3,13.8-11.8,20.1c5.7-2.9,10.9-6.6,16.5-9.7c9.7-5.3,19.1-11,29-15.7
			c-13.2,8.8-26.7,17.2-40,26c7.1-0.4,14.4-0.3,21.4,1.5c-10.6,0.3-22.2-1-31.8,4.5c-4,2.2-8.1,4.1-11.9,6.7
			c7.7-0.4,15.6-0.8,23.2,0.9c-7.3,0.4-14.6,0.2-21.9,1.3c-7.4,0.5-14,4.3-20.8,6.6c5.4-4.5,11.8-7.6,17.6-11.4
			C675.4,649,681,646.7,685.6,642.9z M707.5,550.2c-1.1-6.3-1.3-12.9-3.6-19c-1.7-4.2-4.8-7.5-7.6-10.9c-2.7-3.4-5.9-6.4-8.7-9.7
			c3.8,2.5,7.1,5.7,10.3,8.9c2,2,3.7,4.2,5.4,6.4c-2.8-13.9-7.1-27.6-13.2-40.4c-1.3-2.9-2.8-5.6-4.2-8.4c0.8,1.1,1.5,2.1,2.3,3.2
			c7.3,11.2,12.5,23.6,15.9,36.5c1.5-7,2.4-14.2,3.1-21.3c1.5,8.9-0.7,17.8-1.6,26.6C706.8,531.4,708.5,540.8,707.5,550.2z
			 M709.2,580.9c2.8-6.2,7.3-11.4,11.1-16.9c2.8-4,6.4-7.5,8.6-11.9c1.9-5.9,2.5-12.1,4.5-17.9c0.4-1.1,0.8-2.1,1.3-3.2
			c0.2-0.4,0.6-1.3,0.8-1.8c-1.5,6.7-2.4,13.6-3.6,20.3c6.9-8.6,14.5-16.5,21.2-25.1c4.2-5.1,7.9-10.5,12.4-15.4
			c-11.4,19.9-26.9,36.9-41.1,54.8c7.3-3.7,14.7-7.4,22.5-9.7c-7.4,4.2-15.1,7.9-22.6,12.1C718.1,569.8,714.4,576.2,709.2,580.9z"/>
	</g>
	<polygon class="st0" points="247.4,676.7 247,677.1 240.2,682.7 239.8,682.2 237.9,679.7 237.8,679.7 246.2,674.5 	"/>
</g>
</svg>
