<svg xmlns="http://www.w3.org/2000/svg" xmlns:xlink="http://www.w3.org/1999/xlink" width="800" zoomAndPan="magnify" viewBox="0 0 600 570.75" height="761" preserveAspectRatio="xMidYMid meet" version="1.0"><defs><clipPath id="f267e69144"><path d="M 0.132812 200 L 224 200 L 224 546 L 0.132812 546 Z M 0.132812 200 " clip-rule="nonzero"/></clipPath><clipPath id="7592ffc93f"><path d="M 376 200 L 599.867188 200 L 599.867188 546 L 376 546 Z M 376 200 " clip-rule="nonzero"/></clipPath><clipPath id="a138024557"><path d="M 251 484 L 342 484 L 342 569.75 L 251 569.75 Z M 251 484 " clip-rule="nonzero"/></clipPath></defs><path fill="#ffe05c" d="M 430.476562 133.664062 C 432.664062 135.851562 434.796875 138.089844 436.875 140.382812 C 438.949219 142.671875 440.972656 145.011719 442.933594 147.402344 C 444.894531 149.792969 446.796875 152.230469 448.640625 154.714844 C 450.484375 157.199219 452.265625 159.726562 453.984375 162.296875 C 455.703125 164.867188 457.355469 167.480469 458.945312 170.132812 C 460.539062 172.785156 462.0625 175.472656 463.519531 178.199219 C 464.980469 180.929688 466.367188 183.6875 467.691406 186.484375 C 469.015625 189.28125 470.265625 192.105469 471.453125 194.960938 C 472.636719 197.820312 473.75 200.703125 474.789062 203.613281 C 475.832031 206.527344 476.800781 209.460938 477.699219 212.421875 C 478.597656 215.378906 479.421875 218.359375 480.175781 221.359375 C 480.925781 224.359375 481.605469 227.375 482.207031 230.40625 C 482.8125 233.441406 483.339844 236.484375 483.792969 239.542969 C 484.246094 242.601562 484.625 245.671875 484.929688 248.75 C 485.234375 251.824219 485.460938 254.90625 485.613281 257.996094 C 485.765625 261.085938 485.839844 264.175781 485.839844 267.269531 C 485.839844 270.359375 485.765625 273.449219 485.613281 276.539062 C 485.460938 279.628906 485.234375 282.710938 484.929688 285.789062 C 484.625 288.863281 484.25 291.933594 483.792969 294.992188 C 483.339844 298.050781 482.8125 301.097656 482.207031 304.128906 C 481.605469 307.160156 480.925781 310.175781 480.175781 313.175781 C 479.421875 316.175781 478.597656 319.15625 477.699219 322.113281 C 476.800781 325.074219 475.832031 328.007812 474.789062 330.921875 C 473.75 333.832031 472.636719 336.714844 471.453125 339.574219 C 470.265625 342.429688 469.015625 345.253906 467.691406 348.050781 C 466.367188 350.847656 464.980469 353.609375 463.519531 356.335938 C 462.0625 359.0625 460.539062 361.75 458.945312 364.402344 C 457.355469 367.054688 455.703125 369.667969 453.984375 372.238281 C 452.265625 374.808594 450.484375 377.335938 448.640625 379.820312 C 446.796875 382.304688 444.894531 384.742188 442.933594 387.132812 C 440.972656 389.523438 438.949219 391.863281 436.875 394.152344 C 434.796875 396.445312 432.664062 398.683594 430.476562 400.871094 C 428.289062 403.058594 426.050781 405.1875 423.757812 407.265625 C 421.464844 409.339844 419.121094 411.359375 416.730469 413.324219 C 414.339844 415.285156 411.902344 417.1875 409.417969 419.027344 C 406.933594 420.871094 404.402344 422.648438 401.832031 424.367188 C 399.261719 426.085938 396.648438 427.738281 393.992188 429.328125 C 391.339844 430.917969 388.648438 432.441406 385.921875 433.898438 C 383.191406 435.359375 380.429688 436.746094 377.632812 438.070312 C 374.835938 439.390625 372.011719 440.644531 369.152344 441.828125 C 366.292969 443.011719 363.410156 444.125 360.496094 445.164062 C 357.582031 446.207031 354.648438 447.175781 351.6875 448.074219 C 348.726562 448.972656 345.746094 449.796875 342.746094 450.546875 C 339.742188 451.300781 336.726562 451.976562 333.691406 452.578125 C 330.660156 453.183594 327.613281 453.710938 324.550781 454.164062 C 321.492188 454.617188 318.421875 454.996094 315.34375 455.300781 C 312.265625 455.605469 309.179688 455.832031 306.089844 455.984375 C 303 456.132812 299.910156 456.210938 296.816406 456.210938 C 293.722656 456.210938 290.628906 456.132812 287.539062 455.984375 C 284.449219 455.832031 281.367188 455.605469 278.289062 455.300781 C 275.210938 454.996094 272.140625 454.617188 269.082031 454.164062 C 266.019531 453.710938 262.972656 453.183594 259.9375 452.578125 C 256.90625 451.976562 253.886719 451.300781 250.886719 450.546875 C 247.886719 449.796875 244.90625 448.972656 241.945312 448.074219 C 238.984375 447.175781 236.046875 446.207031 233.136719 445.164062 C 230.222656 444.125 227.335938 443.011719 224.480469 441.828125 C 221.621094 440.644531 218.792969 439.390625 215.996094 438.070312 C 213.199219 436.746094 210.4375 435.359375 207.710938 433.898438 C 204.980469 432.441406 202.292969 430.917969 199.636719 429.328125 C 196.984375 427.738281 194.371094 426.085938 191.800781 424.367188 C 189.226562 422.648438 186.699219 420.871094 184.214844 419.027344 C 181.730469 417.1875 179.292969 415.285156 176.898438 413.324219 C 174.507812 411.359375 172.167969 409.339844 169.875 407.265625 C 167.582031 405.1875 165.34375 403.058594 163.15625 400.871094 C 160.96875 398.683594 158.835938 396.445312 156.757812 394.152344 C 154.679688 391.863281 152.660156 389.523438 150.699219 387.132812 C 148.734375 384.742188 146.832031 382.304688 144.988281 379.820312 C 143.148438 377.335938 141.367188 374.808594 139.648438 372.238281 C 137.929688 369.667969 136.273438 367.054688 134.683594 364.402344 C 133.09375 361.75 131.570312 359.0625 130.109375 356.335938 C 128.652344 353.609375 127.261719 350.847656 125.941406 348.050781 C 124.617188 345.253906 123.363281 342.429688 122.179688 339.574219 C 120.996094 336.714844 119.882812 333.832031 118.839844 330.921875 C 117.800781 328.007812 116.828125 325.074219 115.929688 322.113281 C 115.03125 319.15625 114.207031 316.175781 113.457031 313.175781 C 112.703125 310.175781 112.027344 307.160156 111.421875 304.128906 C 110.820312 301.097656 110.292969 298.050781 109.835938 294.992188 C 109.382812 291.933594 109.003906 288.863281 108.703125 285.789062 C 108.398438 282.710938 108.171875 279.628906 108.019531 276.539062 C 107.867188 273.449219 107.792969 270.359375 107.792969 267.269531 C 107.792969 264.175781 107.867188 261.085938 108.019531 257.996094 C 108.171875 254.910156 108.398438 251.824219 108.703125 248.75 C 109.003906 245.671875 109.382812 242.601562 109.835938 239.542969 C 110.292969 236.484375 110.820312 233.441406 111.421875 230.40625 C 112.027344 227.375 112.703125 224.359375 113.457031 221.359375 C 114.207031 218.359375 115.03125 215.378906 115.929688 212.421875 C 116.828125 209.460938 117.800781 206.527344 118.839844 203.613281 C 119.882812 200.703125 120.996094 197.820312 122.179688 194.960938 C 123.363281 192.105469 124.617188 189.28125 125.941406 186.484375 C 127.261719 183.6875 128.652344 180.929688 130.109375 178.199219 C 131.570312 175.472656 133.09375 172.785156 134.683594 170.132812 C 136.273438 167.480469 137.929688 164.867188 139.648438 162.296875 C 141.367188 159.726562 143.148438 157.199219 144.988281 154.714844 C 146.832031 152.230469 148.734375 149.792969 150.699219 147.402344 C 152.660156 145.011719 154.679688 142.671875 156.757812 140.382812 C 158.835938 138.089844 160.96875 135.851562 163.15625 133.664062 C 165.34375 131.476562 167.582031 129.347656 169.875 127.269531 C 172.167969 125.195312 174.507812 123.175781 176.898438 121.214844 C 179.292969 119.25 181.730469 117.347656 184.214844 115.507812 C 186.699219 113.664062 189.226562 111.886719 191.800781 110.167969 C 194.371094 108.449219 196.984375 106.796875 199.636719 105.207031 C 202.292969 103.617188 204.980469 102.09375 207.710938 100.636719 C 210.4375 99.175781 213.199219 97.789062 215.996094 96.464844 C 218.792969 95.144531 221.621094 93.890625 224.480469 92.707031 C 227.335938 91.523438 230.222656 90.410156 233.136719 89.371094 C 236.046875 88.328125 238.984375 87.359375 241.945312 86.460938 C 244.90625 85.5625 247.886719 84.738281 250.886719 83.988281 C 253.886719 83.234375 256.90625 82.558594 259.9375 81.957031 C 262.972656 81.351562 266.019531 80.824219 269.082031 80.371094 C 272.140625 79.917969 275.210938 79.539062 278.289062 79.234375 C 281.367188 78.933594 284.449219 78.703125 287.539062 78.550781 C 290.628906 78.402344 293.722656 78.324219 296.816406 78.324219 C 299.910156 78.324219 303 78.402344 306.089844 78.550781 C 309.179688 78.703125 312.265625 78.933594 315.34375 79.234375 C 318.421875 79.539062 321.492188 79.917969 324.550781 80.371094 C 327.613281 80.824219 330.660156 81.351562 333.691406 81.957031 C 336.726562 82.558594 339.746094 83.234375 342.746094 83.988281 C 345.746094 84.738281 348.726562 85.5625 351.6875 86.460938 C 354.648438 87.359375 357.582031 88.328125 360.496094 89.371094 C 363.410156 90.410156 366.292969 91.523438 369.152344 92.707031 C 372.011719 93.890625 374.835938 95.144531 377.632812 96.464844 C 380.429688 97.789062 383.191406 99.175781 385.921875 100.636719 C 388.648438 102.09375 391.339844 103.617188 393.992188 105.207031 C 396.648438 106.796875 399.261719 108.449219 401.832031 110.167969 C 404.402344 111.886719 406.933594 113.664062 409.417969 115.507812 C 411.902344 117.347656 414.339844 119.25 416.730469 121.214844 C 419.121094 123.175781 421.464844 125.195312 423.757812 127.269531 C 426.050781 129.347656 428.289062 131.476562 430.476562 133.664062 Z M 430.476562 133.664062 " fill-opacity="1" fill-rule="nonzero"/><path fill="#ffe05c" d="M 296.820312 456.410156 C 271.273438 456.410156 246.492188 451.410156 223.164062 441.546875 C 200.632812 432.019531 180.398438 418.382812 163.019531 401.011719 C 145.640625 383.644531 131.996094 363.414062 122.464844 340.890625 C 112.597656 317.574219 107.59375 292.800781 107.59375 267.269531 C 107.59375 241.734375 112.597656 216.964844 122.464844 193.644531 C 131.996094 171.121094 145.640625 150.894531 163.019531 133.523438 C 180.398438 116.15625 200.632812 102.515625 223.164062 92.988281 C 246.496094 83.128906 271.273438 78.125 296.820312 78.125 C 322.363281 78.125 347.148438 83.128906 370.472656 92.988281 C 393.007812 102.515625 413.242188 116.15625 430.621094 133.523438 C 448 150.894531 461.644531 171.121094 471.171875 193.644531 C 481.042969 216.964844 486.042969 241.734375 486.042969 267.269531 C 486.042969 292.800781 481.042969 317.574219 471.171875 340.890625 C 461.644531 363.414062 448 383.644531 430.621094 401.011719 C 413.242188 418.382812 393.003906 432.023438 370.472656 441.546875 C 347.148438 451.410156 322.363281 456.410156 296.820312 456.410156 Z M 296.820312 78.523438 C 192.699219 78.523438 107.996094 163.191406 107.996094 267.265625 C 107.996094 371.34375 192.699219 456.011719 296.820312 456.011719 C 400.9375 456.011719 485.644531 371.34375 485.644531 267.265625 C 485.644531 163.191406 400.9375 78.523438 296.820312 78.523438 Z M 296.820312 78.523438 " fill-opacity="1" fill-rule="nonzero"/><path fill="#f8aa03" d="M 404.851562 159.277344 C 406.621094 161.046875 408.34375 162.855469 410.023438 164.707031 C 411.703125 166.558594 413.335938 168.453125 414.921875 170.382812 C 416.507812 172.316406 418.042969 174.285156 419.535156 176.292969 C 421.023438 178.300781 422.464844 180.34375 423.851562 182.421875 C 425.242188 184.5 426.578125 186.609375 427.863281 188.753906 C 429.148438 190.898438 430.382812 193.070312 431.5625 195.277344 C 432.738281 197.480469 433.863281 199.710938 434.933594 201.972656 C 436 204.230469 437.015625 206.515625 437.972656 208.824219 C 438.929688 211.132812 439.828125 213.464844 440.671875 215.816406 C 441.511719 218.171875 442.296875 220.542969 443.023438 222.933594 C 443.75 225.328125 444.414062 227.734375 445.023438 230.160156 C 445.628906 232.585938 446.179688 235.023438 446.664062 237.472656 C 447.152344 239.925781 447.582031 242.386719 447.949219 244.859375 C 448.316406 247.332031 448.621094 249.8125 448.867188 252.296875 C 449.109375 254.785156 449.292969 257.277344 449.417969 259.773438 C 449.539062 262.269531 449.601562 264.769531 449.601562 267.269531 C 449.601562 269.765625 449.539062 272.265625 449.417969 274.761719 C 449.292969 277.257812 449.109375 279.75 448.867188 282.238281 C 448.621094 284.722656 448.316406 287.203125 447.949219 289.675781 C 447.582031 292.148438 447.152344 294.609375 446.664062 297.0625 C 446.179688 299.511719 445.628906 301.949219 445.023438 304.375 C 444.414062 306.800781 443.75 309.207031 443.023438 311.601562 C 442.296875 313.992188 441.511719 316.363281 440.671875 318.71875 C 439.828125 321.070312 438.929688 323.402344 437.972656 325.710938 C 437.015625 328.019531 436 330.304688 434.933594 332.5625 C 433.863281 334.824219 432.738281 337.054688 431.5625 339.257812 C 430.382812 341.464844 429.148438 343.636719 427.863281 345.78125 C 426.578125 347.925781 425.242188 350.035156 423.851562 352.113281 C 422.464844 354.191406 421.023438 356.234375 419.535156 358.242188 C 418.046875 360.25 416.507812 362.21875 414.921875 364.152344 C 413.335938 366.085938 411.703125 367.976562 410.023438 369.828125 C 408.34375 371.679688 406.621094 373.488281 404.851562 375.257812 C 403.082031 377.023438 401.273438 378.746094 399.421875 380.425781 C 397.566406 382.105469 395.675781 383.734375 393.742188 385.320312 C 391.808594 386.90625 389.839844 388.445312 387.832031 389.933594 C 385.820312 391.421875 383.777344 392.859375 381.699219 394.25 C 379.621094 395.636719 377.507812 396.976562 375.363281 398.261719 C 373.21875 399.542969 371.042969 400.777344 368.839844 401.953125 C 366.632812 403.132812 364.402344 404.257812 362.140625 405.324219 C 359.878906 406.394531 357.59375 407.40625 355.285156 408.363281 C 352.972656 409.320312 350.640625 410.21875 348.289062 411.058594 C 345.933594 411.902344 343.558594 412.6875 341.167969 413.410156 C 338.773438 414.136719 336.363281 414.804688 333.941406 415.410156 C 331.515625 416.019531 329.074219 416.566406 326.621094 417.054688 C 324.171875 417.539062 321.707031 417.96875 319.234375 418.335938 C 316.761719 418.703125 314.28125 419.007812 311.792969 419.253906 C 309.304688 419.496094 306.808594 419.679688 304.3125 419.804688 C 301.816406 419.925781 299.316406 419.988281 296.816406 419.988281 C 294.316406 419.988281 291.816406 419.925781 289.320312 419.804688 C 286.820312 419.679688 284.328125 419.496094 281.839844 419.253906 C 279.351562 419.007812 276.871094 418.703125 274.398438 418.335938 C 271.925781 417.96875 269.460938 417.539062 267.007812 417.054688 C 264.554688 416.566406 262.117188 416.019531 259.691406 415.410156 C 257.265625 414.804688 254.855469 414.136719 252.464844 413.410156 C 250.070312 412.6875 247.699219 411.902344 245.34375 411.058594 C 242.988281 410.21875 240.65625 409.320312 238.347656 408.363281 C 236.035156 407.40625 233.75 406.394531 231.492188 405.324219 C 229.230469 404.257812 227 403.132812 224.792969 401.953125 C 222.585938 400.777344 220.414062 399.542969 218.269531 398.261719 C 216.125 396.976562 214.011719 395.636719 211.933594 394.25 C 209.851562 392.859375 207.808594 391.421875 205.800781 389.933594 C 203.792969 388.445312 201.824219 386.90625 199.890625 385.320312 C 197.957031 383.734375 196.0625 382.105469 194.210938 380.425781 C 192.359375 378.746094 190.546875 377.023438 188.78125 375.257812 C 187.011719 373.488281 185.289062 371.679688 183.609375 369.828125 C 181.929688 367.976562 180.296875 366.085938 178.710938 364.152344 C 177.125 362.21875 175.585938 360.25 174.097656 358.242188 C 172.609375 356.234375 171.167969 354.191406 169.777344 352.113281 C 168.390625 350.035156 167.050781 347.925781 165.765625 345.78125 C 164.480469 343.636719 163.25 341.464844 162.070312 339.257812 C 160.890625 337.054688 159.769531 334.824219 158.699219 332.5625 C 157.628906 330.304688 156.617188 328.019531 155.660156 325.710938 C 154.703125 323.402344 153.804688 321.070312 152.960938 318.71875 C 152.117188 316.363281 151.335938 313.992188 150.609375 311.601562 C 149.882812 309.207031 149.214844 306.800781 148.609375 304.375 C 148 301.949219 147.453125 299.511719 146.964844 297.0625 C 146.476562 294.609375 146.050781 292.148438 145.683594 289.675781 C 145.316406 287.203125 145.011719 284.722656 144.765625 282.238281 C 144.519531 279.75 144.335938 277.257812 144.214844 274.761719 C 144.089844 272.265625 144.03125 269.765625 144.03125 267.269531 C 144.03125 264.769531 144.089844 262.269531 144.214844 259.773438 C 144.335938 257.277344 144.519531 254.785156 144.765625 252.296875 C 145.011719 249.8125 145.316406 247.332031 145.683594 244.859375 C 146.050781 242.386719 146.476562 239.925781 146.964844 237.472656 C 147.453125 235.023438 148 232.585938 148.609375 230.160156 C 149.214844 227.734375 149.882812 225.328125 150.609375 222.933594 C 151.335938 220.542969 152.117188 218.171875 152.960938 215.816406 C 153.804688 213.464844 154.703125 211.132812 155.660156 208.824219 C 156.617188 206.515625 157.628906 204.230469 158.699219 201.972656 C 159.769531 199.710938 160.890625 197.480469 162.070312 195.277344 C 163.25 193.070312 164.480469 190.898438 165.765625 188.753906 C 167.050781 186.609375 168.390625 184.5 169.777344 182.421875 C 171.167969 180.34375 172.609375 178.300781 174.097656 176.292969 C 175.585938 174.285156 177.125 172.316406 178.710938 170.382812 C 180.296875 168.453125 181.929688 166.558594 183.609375 164.707031 C 185.289062 162.855469 187.011719 161.046875 188.78125 159.277344 C 190.546875 157.511719 192.359375 155.789062 194.210938 154.109375 C 196.0625 152.429688 197.957031 150.800781 199.890625 149.214844 C 201.824219 147.628906 203.792969 146.089844 205.800781 144.601562 C 207.808594 143.113281 209.855469 141.675781 211.933594 140.285156 C 214.011719 138.898438 216.125 137.558594 218.269531 136.277344 C 220.414062 134.992188 222.585938 133.757812 224.792969 132.582031 C 227 131.402344 229.230469 130.277344 231.492188 129.210938 C 233.75 128.140625 236.035156 127.128906 238.347656 126.171875 C 240.65625 125.214844 242.988281 124.316406 245.34375 123.476562 C 247.699219 122.632812 250.070312 121.847656 252.464844 121.125 C 254.855469 120.398438 257.265625 119.730469 259.691406 119.125 C 262.117188 118.515625 264.554688 117.96875 267.007812 117.480469 C 269.460938 116.996094 271.925781 116.566406 274.398438 116.199219 C 276.871094 115.835938 279.351562 115.527344 281.839844 115.285156 C 284.328125 115.039062 286.820312 114.855469 289.320312 114.730469 C 291.816406 114.609375 294.316406 114.546875 296.816406 114.546875 C 299.316406 114.546875 301.816406 114.609375 304.3125 114.730469 C 306.808594 114.855469 309.304688 115.039062 311.792969 115.285156 C 314.28125 115.527344 316.761719 115.835938 319.234375 116.199219 C 321.707031 116.566406 324.171875 116.996094 326.621094 117.480469 C 329.074219 117.96875 331.515625 118.515625 333.941406 119.125 C 336.363281 119.730469 338.773438 120.398438 341.167969 121.125 C 343.558594 121.847656 345.933594 122.632812 348.289062 123.476562 C 350.640625 124.316406 352.972656 125.214844 355.285156 126.171875 C 357.59375 127.128906 359.878906 128.140625 362.140625 129.210938 C 364.402344 130.277344 366.632812 131.402344 368.839844 132.582031 C 371.042969 133.757812 373.21875 134.992188 375.363281 136.277344 C 377.507812 137.558594 379.621094 138.898438 381.699219 140.285156 C 383.777344 141.675781 385.820312 143.113281 387.832031 144.601562 C 389.839844 146.089844 391.808594 147.628906 393.742188 149.214844 C 395.675781 150.800781 397.566406 152.429688 399.421875 154.109375 C 401.273438 155.789062 403.082031 157.511719 404.851562 159.277344 Z M 404.851562 159.277344 " fill-opacity="1" fill-rule="nonzero"/><path fill="#f8aa03" d="M 296.820312 420.1875 C 212.460938 420.1875 143.832031 351.589844 143.832031 267.265625 C 143.832031 182.945312 212.460938 114.347656 296.820312 114.347656 C 381.175781 114.347656 449.808594 182.945312 449.808594 267.265625 C 449.808594 351.589844 381.175781 420.1875 296.820312 420.1875 Z M 296.820312 114.746094 C 212.683594 114.746094 144.234375 183.167969 144.234375 267.265625 C 144.234375 351.367188 212.683594 419.789062 296.820312 419.789062 C 380.957031 419.789062 449.40625 351.367188 449.40625 267.265625 C 449.40625 183.167969 380.957031 114.746094 296.820312 114.746094 Z M 296.820312 114.746094 " fill-opacity="1" fill-rule="nonzero"/><path fill="#ffea85" d="M 305.953125 138.945312 C 308.050781 139.09375 310.148438 139.292969 312.238281 139.546875 C 314.332031 139.796875 316.414062 140.101562 318.492188 140.457031 C 320.566406 140.8125 322.632812 141.214844 324.6875 141.671875 C 326.746094 142.128906 328.789062 142.632812 330.820312 143.191406 C 332.851562 143.746094 334.867188 144.351562 336.871094 145.007812 C 338.871094 145.660156 340.855469 146.363281 342.824219 147.117188 C 344.792969 147.871094 346.738281 148.671875 348.667969 149.519531 C 350.59375 150.367188 352.5 151.261719 354.382812 152.203125 C 356.269531 153.144531 358.128906 154.132812 359.964844 155.164062 C 361.796875 156.199219 363.609375 157.273438 365.390625 158.394531 C 367.171875 159.519531 368.925781 160.683594 370.652344 161.890625 C 372.375 163.097656 374.070312 164.347656 375.734375 165.636719 C 377.398438 166.929688 379.03125 168.257812 380.628906 169.628906 C 382.226562 171 383.792969 172.410156 385.320312 173.859375 C 386.851562 175.304688 388.34375 176.789062 389.800781 178.3125 C 391.257812 179.832031 392.675781 181.386719 394.054688 182.976562 C 395.433594 184.570312 396.773438 186.191406 398.074219 187.847656 C 399.375 189.503906 400.632812 191.191406 401.851562 192.910156 C 403.070312 194.628906 404.242188 196.375 405.375 198.152344 C 406.507812 199.925781 407.59375 201.730469 408.636719 203.558594 C 409.679688 205.386719 410.675781 207.242188 411.628906 209.117188 C 412.582031 210.996094 413.488281 212.898438 414.34375 214.820312 C 415.203125 216.742188 416.015625 218.683594 416.777344 220.644531 C 417.542969 222.609375 418.257812 224.589844 418.921875 226.585938 C 419.589844 228.582031 420.207031 230.59375 420.773438 232.625 C 421.339844 234.652344 421.855469 236.691406 422.324219 238.742188 C 422.789062 240.796875 423.207031 242.859375 423.574219 244.933594 C 423.9375 247.007812 424.253906 249.089844 424.515625 251.175781 C 424.78125 253.265625 424.992188 255.359375 425.152344 257.457031 C 425.3125 259.558594 425.421875 261.660156 425.480469 263.765625 C 425.535156 265.871094 425.542969 267.972656 425.496094 270.078125 C 425.449219 272.183594 425.351562 274.285156 425.203125 276.386719 C 425.054688 278.484375 424.851562 280.582031 424.601562 282.671875 C 424.347656 284.761719 424.042969 286.84375 423.691406 288.921875 C 423.335938 290.996094 422.929688 293.0625 422.472656 295.117188 C 422.019531 297.171875 421.511719 299.214844 420.957031 301.246094 C 420.398438 303.277344 419.792969 305.292969 419.136719 307.292969 C 418.484375 309.292969 417.777344 311.277344 417.027344 313.242188 C 416.273438 315.210938 415.472656 317.15625 414.625 319.082031 C 413.777344 321.011719 412.878906 322.914062 411.9375 324.796875 C 410.996094 326.679688 410.007812 328.539062 408.976562 330.375 C 407.941406 332.210938 406.863281 334.019531 405.742188 335.800781 C 404.621094 337.582031 403.457031 339.335938 402.246094 341.058594 C 401.039062 342.785156 399.789062 344.476562 398.5 346.140625 C 397.207031 347.804688 395.875 349.433594 394.503906 351.03125 C 393.132812 352.628906 391.722656 354.191406 390.273438 355.722656 C 388.824219 357.25 387.339844 358.742188 385.820312 360.199219 C 384.296875 361.65625 382.742188 363.070312 381.148438 364.453125 C 379.558594 365.832031 377.933594 367.171875 376.277344 368.46875 C 374.621094 369.769531 372.933594 371.027344 371.214844 372.246094 C 369.496094 373.460938 367.746094 374.636719 365.972656 375.765625 C 364.195312 376.898438 362.390625 377.984375 360.5625 379.027344 C 358.730469 380.070312 356.878906 381.066406 355 382.019531 C 353.121094 382.96875 351.21875 383.875 349.296875 384.734375 C 347.371094 385.59375 345.429688 386.402344 343.464844 387.164062 C 341.503906 387.929688 339.523438 388.644531 337.523438 389.308594 C 335.527344 389.976562 333.511719 390.589844 331.484375 391.15625 C 329.457031 391.726562 327.414062 392.242188 325.359375 392.707031 C 323.304688 393.175781 321.242188 393.589844 319.167969 393.957031 C 317.09375 394.324219 315.011719 394.636719 312.921875 394.898438 C 310.832031 395.164062 308.738281 395.375 306.636719 395.535156 C 304.539062 395.695312 302.433594 395.804688 300.328125 395.863281 C 298.222656 395.917969 296.117188 395.925781 294.011719 395.878906 C 291.90625 395.832031 289.804688 395.734375 287.703125 395.585938 C 285.601562 395.4375 283.503906 395.238281 281.414062 394.984375 C 279.324219 394.730469 277.238281 394.429688 275.164062 394.074219 C 273.085938 393.71875 271.019531 393.316406 268.964844 392.859375 C 266.90625 392.402344 264.863281 391.898438 262.832031 391.339844 C 260.800781 390.785156 258.785156 390.179688 256.78125 389.523438 C 254.78125 388.871094 252.796875 388.164062 250.828125 387.414062 C 248.863281 386.660156 246.914062 385.859375 244.988281 385.011719 C 243.058594 384.164062 241.152344 383.269531 239.269531 382.328125 C 237.386719 381.386719 235.523438 380.398438 233.691406 379.367188 C 231.855469 378.332031 230.046875 377.257812 228.261719 376.136719 C 226.480469 375.011719 224.726562 373.847656 223 372.640625 C 221.277344 371.433594 219.582031 370.183594 217.917969 368.894531 C 216.253906 367.601562 214.621094 366.269531 213.023438 364.902344 C 211.425781 363.53125 209.863281 362.121094 208.332031 360.671875 C 206.800781 359.226562 205.308594 357.742188 203.851562 356.21875 C 202.398438 354.699219 200.980469 353.144531 199.597656 351.550781 C 198.21875 349.960938 196.878906 348.339844 195.578125 346.683594 C 194.277344 345.027344 193.019531 343.339844 191.800781 341.621094 C 190.585938 339.902344 189.410156 338.15625 188.277344 336.378906 C 187.148438 334.605469 186.058594 332.800781 185.015625 330.972656 C 183.972656 329.144531 182.976562 327.289062 182.023438 325.414062 C 181.070312 323.535156 180.167969 321.632812 179.308594 319.710938 C 178.449219 317.789062 177.636719 315.847656 176.875 313.882812 C 176.109375 311.921875 175.398438 309.941406 174.730469 307.945312 C 174.0625 305.949219 173.449219 303.933594 172.878906 301.90625 C 172.3125 299.878906 171.796875 297.839844 171.328125 295.785156 C 170.863281 293.734375 170.445312 291.671875 170.082031 289.597656 C 169.714844 287.523438 169.398438 285.441406 169.136719 283.355469 C 168.875 281.265625 168.660156 279.171875 168.5 277.070312 C 168.339844 274.972656 168.230469 272.871094 168.175781 270.765625 C 168.117188 268.660156 168.109375 266.558594 168.15625 264.453125 C 168.203125 262.347656 168.300781 260.246094 168.449219 258.144531 C 168.601562 256.042969 168.800781 253.949219 169.050781 251.859375 C 169.304688 249.769531 169.609375 247.6875 169.960938 245.609375 C 170.316406 243.535156 170.722656 241.46875 171.179688 239.414062 C 171.632812 237.359375 172.140625 235.316406 172.695312 233.285156 C 173.253906 231.253906 173.859375 229.238281 174.515625 227.238281 C 175.171875 225.238281 175.875 223.253906 176.625 221.289062 C 177.378906 219.320312 178.179688 217.375 179.027344 215.449219 C 179.878906 213.519531 180.773438 211.617188 181.714844 209.734375 C 182.65625 207.851562 183.644531 205.992188 184.675781 204.15625 C 185.710938 202.320312 186.789062 200.511719 187.910156 198.730469 C 189.03125 196.949219 190.199219 195.195312 191.40625 193.472656 C 192.613281 191.746094 193.863281 190.054688 195.15625 188.390625 C 196.445312 186.726562 197.777344 185.097656 199.148438 183.5 C 200.519531 181.902344 201.929688 180.335938 203.378906 178.808594 C 204.828125 177.28125 206.3125 175.789062 207.832031 174.332031 C 209.355469 172.875 210.910156 171.460938 212.503906 170.078125 C 214.09375 168.699219 215.71875 167.359375 217.375 166.0625 C 219.03125 164.761719 220.71875 163.503906 222.4375 162.285156 C 224.15625 161.070312 225.90625 159.894531 227.683594 158.765625 C 229.457031 157.632812 231.261719 156.546875 233.089844 155.503906 C 234.921875 154.460938 236.777344 153.464844 238.65625 152.511719 C 240.535156 151.558594 242.433594 150.65625 244.359375 149.796875 C 246.28125 148.9375 248.222656 148.128906 250.1875 147.363281 C 252.148438 146.601562 254.132812 145.886719 256.128906 145.222656 C 258.128906 144.554688 260.140625 143.941406 262.167969 143.375 C 264.199219 142.804688 266.238281 142.289062 268.292969 141.824219 C 270.347656 141.355469 272.410156 140.941406 274.484375 140.574219 C 276.558594 140.207031 278.640625 139.894531 280.730469 139.632812 C 282.820312 139.367188 284.914062 139.15625 287.015625 138.996094 C 289.117188 138.835938 291.21875 138.726562 293.324219 138.667969 C 295.429688 138.609375 297.535156 138.605469 299.640625 138.652344 C 301.746094 138.699219 303.851562 138.796875 305.953125 138.945312 Z M 305.953125 138.945312 " fill-opacity="1" fill-rule="nonzero"/><path fill="#ffea85" d="M 296.820312 396.109375 C 262.390625 396.109375 230.019531 382.707031 205.675781 358.371094 C 181.332031 334.039062 167.921875 301.683594 167.921875 267.265625 C 167.921875 232.851562 181.332031 200.496094 205.675781 176.160156 C 230.019531 151.828125 262.390625 138.425781 296.820312 138.425781 C 331.25 138.425781 363.617188 151.828125 387.964844 176.160156 C 412.308594 200.496094 425.71875 232.851562 425.71875 267.265625 C 425.71875 301.683594 412.308594 334.039062 387.964844 358.371094 C 363.617188 382.707031 331.25 396.109375 296.820312 396.109375 Z M 296.820312 138.824219 C 225.964844 138.824219 168.324219 196.445312 168.324219 267.265625 C 168.324219 338.089844 225.964844 395.710938 296.820312 395.710938 C 367.675781 395.710938 425.316406 338.089844 425.316406 267.265625 C 425.316406 196.445312 367.675781 138.824219 296.820312 138.824219 Z M 296.820312 138.824219 " fill-opacity="1" fill-rule="nonzero"/><path fill="#f3a00c" d="M 321.074219 197.800781 L 272.5625 197.800781 L 272.5625 229.363281 L 286.75 229.363281 L 286.75 336.730469 L 321.074219 336.730469 Z M 321.074219 197.800781 " fill-opacity="1" fill-rule="nonzero"/><path fill="#f3a00c" d="M 321.074219 336.933594 L 286.75 336.933594 C 286.640625 336.933594 286.550781 336.839844 286.550781 336.730469 L 286.550781 229.566406 L 272.5625 229.566406 C 272.453125 229.566406 272.363281 229.476562 272.363281 229.363281 L 272.363281 197.800781 C 272.363281 197.691406 272.453125 197.601562 272.5625 197.601562 L 321.074219 197.601562 C 321.183594 197.601562 321.273438 197.691406 321.273438 197.800781 L 321.273438 336.730469 C 321.273438 336.839844 321.183594 336.933594 321.074219 336.933594 Z M 286.953125 336.53125 L 320.875 336.53125 L 320.875 198.003906 L 272.765625 198.003906 L 272.765625 229.164062 L 286.75 229.164062 C 286.859375 229.164062 286.949219 229.253906 286.949219 229.363281 Z M 286.953125 336.53125 " fill-opacity="1" fill-rule="nonzero"/><g clip-path="url(#f267e69144)"><path fill="#f5a906" d="M 36.683594 309.140625 C 21.296875 295.179688 0.617188 292.894531 0.617188 292.894531 C 0.617188 292.894531 4.894531 313.242188 20.285156 327.203125 C 31.890625 337.730469 46.496094 341.617188 52.980469 342.894531 C 54.808594 351.367188 57.015625 359.761719 59.589844 368.039062 C 56.191406 362.765625 51.609375 357.121094 45.597656 352.441406 C 29.199219 339.683594 8.410156 338.960938 8.410156 338.960938 C 8.410156 338.960938 14.210938 358.929688 30.609375 371.691406 C 43.699219 381.875 59.570312 384.386719 65.453125 384.988281 C 68.453125 392.835938 71.800781 400.550781 75.511719 408.085938 C 70.871094 402.375 64.085938 395.667969 55.171875 391.058594 C 36.710938 381.519531 16.140625 384.617188 16.140625 384.617188 C 16.140625 384.617188 25.503906 403.183594 43.964844 412.726562 C 59.390625 420.699219 76.28125 419.84375 81.417969 419.347656 C 81.847656 420.121094 82.285156 420.886719 82.722656 421.65625 C 83.382812 422.996094 83.8125 423.742188 83.8125 423.742188 L 83.882812 423.660156 C 87.890625 430.550781 92.203125 437.265625 96.796875 443.785156 C 91.230469 439.175781 83.570312 434.132812 74.335938 431.359375 C 54.433594 425.382812 34.789062 432.214844 34.789062 432.214844 C 34.789062 432.214844 47.410156 448.738281 67.3125 454.71875 C 83.308594 459.527344 99.132812 456.058594 104.730469 454.511719 C 109.636719 460.820312 114.816406 466.921875 120.246094 472.796875 C 113.9375 469.21875 105.46875 465.558594 95.8125 464.453125 C 75.167969 462.089844 57.039062 472.289062 57.039062 472.289062 C 57.039062 472.289062 72.386719 486.324219 93.035156 488.6875 C 109.066406 490.523438 123.578125 484.785156 129.261719 482.128906 C 135.085938 487.882812 141.15625 493.386719 147.457031 498.617188 C 141.199219 496.210938 133.441406 494.175781 125.027344 494.132812 C 104.25 494.039062 87.339844 506.152344 87.339844 506.152344 C 87.339844 506.152344 104.132812 518.425781 124.914062 518.523438 C 140.652344 518.597656 154.160156 511.667969 159.792969 508.300781 C 167.085938 513.703125 174.632812 518.75 182.410156 523.410156 C 175.839844 521.519531 167.679688 520.121094 159.023438 520.90625 C 138.328125 522.796875 122.660156 536.472656 122.660156 536.472656 C 122.660156 536.472656 140.542969 547.085938 161.242188 545.195312 C 177.917969 543.675781 191.328125 534.503906 195.90625 530.996094 C 204.585938 535.554688 213.503906 539.648438 222.632812 543.226562 L 223.34375 541.21875 C 213.332031 537.085938 203.605469 532.234375 194.195312 526.808594 C 197.636719 521.730469 205.707031 508.164062 206.363281 491.871094 C 207.203125 471.113281 195.695312 453.792969 195.695312 453.792969 C 195.695312 453.792969 182.824219 470.128906 181.984375 490.886719 C 181.40625 505.195312 186.699219 517.871094 190.039062 524.363281 C 181.210938 519.0625 172.675781 513.257812 164.449219 507.078125 C 168.324219 501.996094 176.878906 489.191406 178.519531 473.300781 C 180.652344 452.636719 170.242188 434.636719 170.242188 434.636719 C 170.242188 434.636719 156.378906 450.136719 154.246094 470.800781 C 152.867188 484.167969 156.738281 496.414062 159.640625 503.402344 C 156.484375 500.9375 153.371094 498.421875 150.3125 495.859375 C 145.785156 492.070312 141.394531 488.121094 137.117188 484.050781 C 140.785156 479.335938 149.863281 466.210938 151.554688 449.796875 C 153.6875 429.132812 143.28125 411.128906 143.28125 411.128906 C 143.28125 411.128906 129.414062 426.632812 127.285156 447.292969 C 125.925781 460.460938 129.660156 472.539062 132.546875 479.578125 C 125.085938 472.148438 118.039062 464.3125 111.457031 456.101562 C 115.105469 450.640625 122.699219 437.507812 123.417969 421.800781 C 124.363281 401.050781 112.945312 383.671875 112.945312 383.671875 C 112.945312 383.671875 99.988281 399.941406 99.042969 420.691406 C 98.625 429.808594 100.597656 438.273438 102.9375 444.898438 C 97.125 436.855469 91.742188 428.507812 86.8125 419.898438 C 91.011719 414.070312 98.304688 402.117188 99.804688 387.578125 C 101.9375 366.914062 91.527344 348.910156 91.527344 348.910156 C 91.527344 348.910156 77.664062 364.410156 75.53125 385.074219 C 75.046875 389.773438 75.21875 394.328125 75.757812 398.570312 C 71.628906 389.664062 67.960938 380.542969 64.808594 371.238281 C 69.820312 366.585938 79.886719 355.839844 84.214844 341.167969 C 90.097656 321.246094 83.167969 301.640625 83.167969 301.640625 C 83.167969 301.640625 66.699219 314.34375 60.8125 334.265625 C 59.265625 339.515625 58.609375 344.738281 58.480469 349.589844 C 57.589844 346.007812 56.296875 340.773438 56.003906 339.660156 C 54.902344 333.632812 53.480469 327.136719 52.546875 321.101562 L 52.511719 320.8125 C 56.683594 317.902344 70.167969 307.570312 76.746094 291.4375 C 84.59375 272.199219 79.660156 252.003906 79.660156 252.003906 C 79.660156 252.003906 62 262.992188 54.152344 282.226562 C 51.867188 287.835938 50.671875 293.523438 50.117188 298.769531 C 49.972656 297.777344 49.78125 296.632812 49.535156 295.375 C 49.035156 289.480469 48.582031 283.34375 48.550781 278.101562 L 48.441406 274.507812 C 51.222656 270.347656 60.074219 255.75 60.296875 238.253906 C 60.570312 217.480469 48.585938 200.484375 48.585938 200.484375 C 48.585938 200.484375 36.167969 217.164062 35.898438 237.9375 C 35.691406 254.117188 42.914062 268.007812 46.117188 273.355469 L 46.140625 278.148438 C 46.101562 279.679688 46.109375 281.425781 46.148438 283.277344 C 44.070312 277.6875 41.035156 271.617188 36.601562 266.078125 C 23.617188 249.863281 3.5625 244.332031 3.5625 244.332031 C 3.5625 244.332031 4.5625 265.101562 17.550781 281.320312 C 27.191406 293.363281 40.722656 299.507812 47.054688 301.875 L 47.257812 305.359375 L 47.867188 310.773438 C 48.417969 316.09375 49.125 321.402344 49.960938 326.695312 C 46.9375 320.921875 42.648438 314.554688 36.683594 309.140625 Z M 36.683594 309.140625 " fill-opacity="1" fill-rule="nonzero"/><path fill="#f5a906" d="M 156.289062 545.617188 C 137.914062 545.617188 122.722656 536.738281 122.558594 536.640625 C 122.503906 536.609375 122.46875 536.550781 122.460938 536.488281 C 122.457031 536.425781 122.480469 536.359375 122.527344 536.320312 C 122.683594 536.183594 138.484375 522.582031 159.007812 520.707031 C 166.011719 520.070312 173.417969 520.78125 181.054688 522.824219 C 173.792969 518.417969 166.644531 513.617188 159.785156 508.539062 C 154.5 511.683594 140.765625 518.78125 124.914062 518.722656 C 104.304688 518.625 87.394531 506.4375 87.222656 506.3125 C 87.171875 506.273438 87.144531 506.214844 87.144531 506.152344 C 87.144531 506.085938 87.171875 506.027344 87.226562 505.988281 C 87.394531 505.867188 104.289062 493.933594 124.785156 493.933594 C 124.871094 493.933594 124.949219 493.933594 125.03125 493.933594 C 131.945312 493.964844 139.136719 495.339844 146.421875 498.015625 C 140.492188 493.050781 134.714844 487.789062 129.222656 482.367188 C 123.582031 484.988281 109.035156 490.71875 93.011719 488.886719 C 72.539062 486.542969 57.058594 472.578125 56.902344 472.4375 C 56.855469 472.394531 56.832031 472.332031 56.839844 472.265625 C 56.847656 472.203125 56.882812 472.148438 56.9375 472.117188 C 57.121094 472.015625 75.34375 461.914062 95.835938 464.257812 C 103.589844 465.144531 111.464844 467.753906 119.257812 472.019531 C 114.164062 466.453125 109.253906 460.648438 104.65625 454.738281 C 98.574219 456.402344 83.039062 459.65625 67.253906 454.910156 C 47.519531 448.980469 34.757812 432.5 34.628906 432.335938 C 34.589844 432.285156 34.578125 432.21875 34.597656 432.15625 C 34.617188 432.09375 34.664062 432.046875 34.722656 432.023438 C 34.921875 431.957031 54.664062 425.242188 74.398438 431.167969 C 81.785156 433.390625 88.980469 437.273438 95.808594 442.726562 C 91.550781 436.613281 87.523438 430.300781 83.8125 423.941406 C 83.808594 423.941406 83.800781 423.941406 83.792969 423.941406 C 83.726562 423.933594 83.671875 423.894531 83.640625 423.839844 C 83.636719 423.832031 83.199219 423.074219 82.542969 421.742188 C 82.132812 421.023438 81.71875 420.292969 81.308594 419.5625 C 76.261719 420.035156 59.277344 420.863281 43.875 412.902344 C 25.566406 403.441406 16.058594 384.894531 15.964844 384.707031 C 15.933594 384.648438 15.933594 384.582031 15.964844 384.527344 C 15.992188 384.46875 16.046875 384.429688 16.113281 384.421875 C 16.316406 384.386719 36.957031 381.421875 55.261719 390.882812 C 62.292969 394.515625 68.792969 399.824219 74.597656 406.671875 C 71.242188 399.742188 68.121094 392.519531 65.308594 385.175781 C 59.0625 384.523438 43.441406 381.929688 30.484375 371.847656 C 14.222656 359.195312 8.273438 339.21875 8.214844 339.019531 C 8.199219 338.957031 8.210938 338.890625 8.25 338.839844 C 8.289062 338.789062 8.339844 338.75 8.414062 338.761719 C 8.625 338.769531 29.457031 339.632812 45.722656 352.285156 C 50.652344 356.121094 55.109375 360.988281 58.984375 366.753906 C 56.605469 358.972656 54.527344 351.007812 52.8125 343.0625 C 46.796875 341.867188 31.863281 337.972656 20.152344 327.351562 C 4.886719 313.507812 0.464844 293.140625 0.421875 292.9375 C 0.40625 292.871094 0.425781 292.808594 0.46875 292.761719 C 0.511719 292.710938 0.578125 292.691406 0.636719 292.695312 C 0.847656 292.71875 21.554688 295.148438 36.816406 308.992188 C 41.738281 313.457031 46.03125 319.023438 49.582031 325.558594 C 48.800781 320.488281 48.15625 315.527344 47.667969 310.796875 L 47.0625 305.382812 L 46.863281 302.015625 C 39.859375 299.382812 26.835938 293.242188 17.394531 281.445312 C 4.515625 265.363281 3.371094 244.550781 3.359375 244.34375 C 3.359375 244.277344 3.386719 244.21875 3.4375 244.175781 C 3.484375 244.136719 3.554688 244.125 3.613281 244.140625 C 3.816406 244.195312 23.878906 249.875 36.757812 265.953125 C 40.464844 270.585938 43.546875 276.027344 45.929688 282.136719 C 45.910156 280.628906 45.910156 279.289062 45.9375 278.144531 L 45.917969 273.410156 C 42.75 268.113281 35.488281 254.152344 35.699219 237.933594 C 35.96875 217.335938 48.304688 200.53125 48.425781 200.363281 C 48.464844 200.3125 48.515625 200.277344 48.589844 200.28125 C 48.65625 200.285156 48.714844 200.316406 48.753906 200.367188 C 48.871094 200.539062 60.765625 217.65625 60.5 238.253906 C 60.273438 255.75 51.414062 270.402344 48.644531 274.566406 L 48.753906 278.09375 C 48.78125 283.414062 49.242188 289.535156 49.734375 295.355469 C 49.859375 296 49.980469 296.648438 50.089844 297.289062 C 50.777344 291.871094 52.078125 286.785156 53.96875 282.148438 C 61.75 263.074219 79.375 251.941406 79.554688 251.832031 C 79.609375 251.796875 79.675781 251.789062 79.734375 251.816406 C 79.792969 251.839844 79.839844 251.890625 79.851562 251.953125 C 79.902344 252.15625 84.714844 272.433594 76.933594 291.511719 C 70.367188 307.605469 56.875 317.996094 52.722656 320.90625 L 52.75 321.070312 C 53.335938 324.894531 54.136719 328.949219 54.90625 332.871094 C 55.34375 335.105469 55.800781 337.417969 56.203125 339.625 C 56.433594 340.503906 57.328125 344.109375 58.117188 347.292969 L 58.332031 348.164062 C 58.566406 343.25 59.335938 338.5625 60.621094 334.207031 C 66.457031 314.453125 82.878906 301.609375 83.046875 301.480469 C 83.097656 301.441406 83.164062 301.429688 83.226562 301.449219 C 83.289062 301.464844 83.335938 301.511719 83.359375 301.574219 C 83.425781 301.769531 90.242188 321.464844 84.410156 341.222656 C 80.15625 355.632812 70.492188 366.214844 65.042969 371.292969 C 68.007812 380.019531 71.492188 388.777344 75.414062 397.339844 C 74.957031 393.113281 74.929688 388.984375 75.339844 385.054688 C 77.453125 364.5625 91.246094 348.929688 91.382812 348.773438 C 91.425781 348.726562 91.488281 348.707031 91.554688 348.707031 C 91.617188 348.714844 91.671875 348.753906 91.707031 348.808594 C 91.8125 348.988281 102.125 367.101562 100.007812 387.59375 C 98.515625 402.066406 91.285156 414.011719 87.054688 419.90625 C 91.730469 428.0625 96.863281 436.050781 102.3125 443.675781 C 99.675781 435.773438 98.511719 428.042969 98.847656 420.675781 C 99.789062 400.101562 112.664062 383.707031 112.792969 383.542969 C 112.835938 383.492188 112.882812 383.472656 112.960938 383.46875 C 113.027344 383.46875 113.082031 383.503906 113.117188 383.558594 C 113.234375 383.730469 124.5625 401.226562 123.621094 421.808594 C 122.902344 437.625 115.121094 450.960938 111.710938 456.082031 C 117.992188 463.914062 124.816406 471.53125 132 478.734375 C 128.964844 471.070312 125.8125 459.660156 127.089844 447.265625 C 129.203125 426.773438 142.996094 411.144531 143.136719 410.988281 C 143.175781 410.941406 143.25 410.917969 143.304688 410.921875 C 143.371094 410.925781 143.425781 410.964844 143.457031 411.019531 C 143.5625 411.199219 153.875 429.316406 151.757812 449.804688 C 150.085938 466.035156 141.242188 479.039062 137.390625 484.023438 C 141.769531 488.183594 146.160156 492.109375 150.441406 495.695312 C 153.191406 498.003906 156.128906 500.378906 159.171875 502.769531 C 156.042969 495.035156 152.746094 483.417969 154.050781 470.769531 C 156.167969 450.277344 169.960938 434.648438 170.097656 434.492188 C 170.140625 434.445312 170.210938 434.417969 170.269531 434.425781 C 170.332031 434.433594 170.386719 434.46875 170.421875 434.523438 C 170.527344 434.703125 180.835938 452.820312 178.722656 473.3125 C 177.085938 489.179688 168.492188 502.066406 164.734375 507.027344 C 172.9375 513.183594 181.28125 518.828125 189.550781 523.820312 C 186.265625 517.285156 181.226562 504.839844 181.789062 490.867188 C 182.621094 470.285156 195.414062 453.824219 195.539062 453.660156 C 195.582031 453.609375 195.625 453.582031 195.707031 453.585938 C 195.773438 453.585938 195.832031 453.621094 195.867188 453.671875 C 195.980469 453.847656 207.402344 471.285156 206.570312 491.867188 C 205.917969 508.015625 198 521.503906 194.484375 526.734375 C 204.054688 532.238281 213.789062 537.046875 223.425781 541.023438 C 223.523438 541.066406 223.574219 541.175781 223.539062 541.277344 L 222.828125 543.28125 C 222.808594 543.332031 222.769531 543.375 222.722656 543.398438 C 222.671875 543.421875 222.617188 543.421875 222.566406 543.402344 C 213.617188 539.894531 204.65625 535.800781 195.933594 531.222656 C 190.917969 535.046875 177.71875 543.886719 161.265625 545.386719 C 159.585938 545.546875 157.921875 545.617188 156.289062 545.617188 Z M 123.007812 536.4375 C 125.230469 537.683594 142.144531 546.746094 161.226562 544.996094 C 177.691406 543.492188 190.878906 534.59375 195.789062 530.835938 C 195.847656 530.789062 195.929688 530.78125 196.003906 530.816406 C 204.683594 535.375 213.605469 539.460938 222.515625 542.960938 L 223.09375 541.328125 C 213.4375 537.332031 203.679688 532.503906 194.097656 526.980469 C 194.046875 526.949219 194.011719 526.90625 194 526.847656 C 193.988281 526.796875 194 526.738281 194.03125 526.691406 C 197.460938 521.625 205.511719 508.089844 206.164062 491.855469 C 206.9375 472.710938 197.039062 456.292969 195.679688 454.136719 C 194.152344 456.179688 182.960938 471.742188 182.1875 490.886719 C 181.605469 505.226562 186.972656 517.953125 190.222656 524.265625 C 190.261719 524.347656 190.246094 524.441406 190.179688 524.503906 C 190.113281 524.566406 190.019531 524.574219 189.9375 524.53125 C 181.410156 519.410156 172.792969 513.589844 164.328125 507.234375 C 164.285156 507.203125 164.257812 507.152344 164.25 507.101562 C 164.246094 507.050781 164.257812 506.996094 164.289062 506.953125 C 167.960938 502.136719 176.679688 489.21875 178.324219 473.277344 C 180.289062 454.214844 171.429688 437.214844 170.207031 434.976562 C 168.554688 436.917969 156.414062 451.753906 154.445312 470.816406 C 153.113281 483.765625 156.636719 495.640625 159.828125 503.320312 C 159.863281 503.402344 159.835938 503.5 159.765625 503.558594 C 159.691406 503.613281 159.589844 503.609375 159.519531 503.554688 C 156.257812 501.007812 153.117188 498.46875 150.1875 496.007812 C 145.851562 492.378906 141.410156 488.40625 136.980469 484.191406 C 136.90625 484.121094 136.898438 484.007812 136.960938 483.925781 C 140.734375 479.078125 149.679688 466.050781 151.359375 449.769531 C 153.328125 430.707031 144.46875 413.707031 143.25 411.472656 C 141.597656 413.414062 129.457031 428.25 127.488281 447.308594 C 126.167969 460.125 129.613281 471.886719 132.738281 479.5 C 132.773438 479.585938 132.742188 479.6875 132.664062 479.742188 C 132.582031 479.792969 132.476562 479.785156 132.410156 479.714844 C 124.925781 472.261719 117.824219 464.355469 111.308594 456.222656 C 111.253906 456.15625 111.25 456.0625 111.296875 455.988281 C 114.644531 450.984375 122.5 437.636719 123.222656 421.792969 C 124.097656 402.648438 114.285156 386.183594 112.933594 384.019531 C 111.398438 386.054688 100.125 401.558594 99.246094 420.699219 C 98.894531 428.414062 100.203125 436.535156 103.136719 444.832031 C 103.167969 444.925781 103.125 445.03125 103.039062 445.074219 C 102.953125 445.121094 102.839844 445.09375 102.78125 445.015625 C 97 437.015625 91.570312 428.597656 86.644531 419.992188 C 86.605469 419.925781 86.609375 419.84375 86.65625 419.777344 C 90.855469 413.953125 98.117188 402.019531 99.613281 387.554688 C 101.578125 368.492188 92.722656 351.492188 91.5 349.257812 C 89.84375 351.195312 77.707031 366.035156 75.738281 385.09375 C 75.292969 389.382812 75.371094 393.910156 75.964844 398.546875 C 75.976562 398.644531 75.914062 398.738281 75.820312 398.761719 C 75.734375 398.792969 75.625 398.746094 75.582031 398.65625 C 71.417969 389.675781 67.734375 380.472656 64.625 371.296875 C 64.601562 371.222656 64.621094 371.140625 64.679688 371.085938 C 70.082031 366.074219 79.777344 355.511719 84.027344 341.109375 C 89.457031 322.726562 83.863281 304.394531 83.074219 301.976562 C 81.089844 303.578125 66.4375 315.941406 61.011719 334.320312 C 59.609375 339.058594 58.828125 344.195312 58.683594 349.59375 C 58.679688 349.691406 58.601562 349.777344 58.503906 349.789062 C 58.390625 349.796875 58.308594 349.730469 58.289062 349.636719 L 57.730469 347.390625 C 56.941406 344.210938 56.046875 340.605469 55.8125 339.710938 C 55.410156 337.496094 54.953125 335.183594 54.515625 332.949219 C 53.742188 329.023438 52.945312 324.964844 52.351562 321.132812 L 52.3125 320.84375 C 52.304688 320.765625 52.335938 320.695312 52.398438 320.652344 C 56.402344 317.855469 69.988281 307.488281 76.5625 291.363281 C 83.800781 273.617188 80.074219 254.816406 79.527344 252.328125 C 77.398438 253.726562 61.578125 264.5625 54.339844 282.304688 C 52.296875 287.316406 50.941406 292.863281 50.316406 298.789062 C 50.308594 298.890625 50.222656 298.964844 50.125 298.96875 C 50.027344 298.988281 49.9375 298.898438 49.921875 298.796875 C 49.761719 297.703125 49.566406 296.566406 49.339844 295.414062 C 48.84375 289.5625 48.382812 283.429688 48.351562 278.101562 L 48.242188 274.515625 C 48.242188 274.476562 48.253906 274.433594 48.277344 274.398438 C 50.992188 270.332031 59.871094 255.707031 60.101562 238.25 C 60.351562 219.085938 50.003906 202.949219 48.585938 200.832031 C 47.113281 202.914062 36.351562 218.777344 36.101562 237.9375 C 35.890625 254.105469 43.15625 268.019531 46.292969 273.253906 C 46.308594 273.28125 46.320312 273.316406 46.320312 273.351562 L 46.34375 278.148438 C 46.308594 279.574219 46.308594 281.296875 46.351562 283.269531 C 46.351562 283.367188 46.28125 283.453125 46.1875 283.472656 C 46.09375 283.496094 46 283.4375 45.964844 283.34375 C 43.546875 276.839844 40.347656 271.070312 36.449219 266.203125 C 24.46875 251.242188 6.222656 245.34375 3.785156 244.605469 C 3.96875 247.148438 5.734375 266.234375 17.714844 281.195312 C 27.148438 292.984375 40.195312 299.09375 47.132812 301.6875 C 47.203125 301.714844 47.257812 301.785156 47.261719 301.863281 L 47.464844 305.347656 L 48.070312 310.753906 C 48.597656 315.84375 49.300781 321.195312 50.164062 326.664062 C 50.179688 326.761719 50.125 326.855469 50.03125 326.882812 C 49.933594 326.917969 49.835938 326.875 49.792969 326.789062 C 46.15625 319.84375 41.699219 313.957031 36.554688 309.285156 C 22.359375 296.410156 3.40625 293.46875 0.878906 293.125 C 1.464844 295.605469 6.226562 314.175781 20.425781 327.050781 C 32.148438 337.683594 47.128906 341.535156 53.023438 342.695312 C 53.101562 342.710938 53.164062 342.773438 53.179688 342.847656 C 55 351.285156 57.222656 359.738281 59.785156 367.980469 C 59.816406 368.074219 59.769531 368.175781 59.679688 368.21875 C 59.59375 368.261719 59.484375 368.230469 59.425781 368.144531 C 55.402344 361.898438 50.710938 356.667969 45.480469 352.597656 C 30.351562 340.828125 11.234375 339.328125 8.6875 339.175781 C 9.460938 341.605469 15.609375 359.761719 30.738281 371.53125 C 43.699219 381.613281 59.351562 384.160156 65.476562 384.785156 C 65.554688 384.792969 65.617188 384.84375 65.644531 384.914062 C 68.667969 392.816406 72.046875 400.582031 75.699219 407.992188 C 75.742188 408.085938 75.714844 408.195312 75.628906 408.25 C 75.542969 408.304688 75.429688 408.289062 75.363281 408.207031 C 69.324219 400.777344 62.503906 395.066406 55.085938 391.234375 C 38.058594 382.433594 18.992188 384.453125 16.457031 384.773438 C 17.660156 387.019531 27.03125 403.742188 44.066406 412.542969 C 59.503906 420.523438 76.546875 419.617188 81.40625 419.144531 C 81.480469 419.136719 81.5625 419.179688 81.601562 419.246094 C 82.03125 420.019531 82.46875 420.785156 82.902344 421.550781 C 83.375 422.503906 83.726562 423.15625 83.890625 423.453125 C 83.894531 423.453125 83.902344 423.453125 83.90625 423.457031 C 83.972656 423.460938 84.03125 423.5 84.0625 423.554688 C 88.03125 430.375 92.371094 437.144531 96.96875 443.667969 C 97.023438 443.75 97.011719 443.863281 96.9375 443.929688 C 96.863281 444 96.753906 444 96.675781 443.9375 C 89.558594 438.042969 82.027344 433.875 74.285156 431.546875 C 55.929688 426.035156 37.554688 431.53125 35.128906 432.308594 C 36.722656 434.296875 49.015625 449.007812 67.375 454.523438 C 83.175781 459.269531 98.726562 455.957031 104.683594 454.3125 C 104.765625 454.292969 104.84375 454.320312 104.894531 454.382812 C 109.765625 460.644531 114.980469 466.792969 120.398438 472.65625 C 120.46875 472.730469 120.46875 472.839844 120.410156 472.917969 C 120.347656 472.996094 120.242188 473.015625 120.15625 472.96875 C 112.054688 468.371094 103.859375 465.574219 95.796875 464.648438 C 76.761719 462.46875 59.644531 471.128906 57.390625 472.324219 C 59.3125 474 74.015625 486.300781 93.066406 488.484375 C 109.101562 490.320312 123.667969 484.523438 129.183594 481.941406 C 129.257812 481.90625 129.347656 481.921875 129.410156 481.980469 C 135.203125 487.707031 141.320312 493.25 147.589844 498.460938 C 147.664062 498.519531 147.683594 498.628906 147.632812 498.714844 C 147.585938 498.796875 147.480469 498.835938 147.390625 498.796875 C 139.769531 495.867188 132.25 494.363281 125.035156 494.328125 C 124.953125 494.328125 124.871094 494.328125 124.789062 494.328125 C 105.726562 494.328125 89.792969 504.71875 87.695312 506.148438 C 89.789062 507.601562 105.75 518.226562 124.921875 518.316406 C 125.003906 518.320312 125.085938 518.320312 125.167969 518.320312 C 140.9375 518.320312 154.554688 511.199219 159.695312 508.125 C 159.765625 508.082031 159.855469 508.089844 159.917969 508.136719 C 167.195312 513.527344 174.800781 518.609375 182.519531 523.234375 C 182.605469 523.285156 182.636719 523.394531 182.597656 523.484375 C 182.558594 523.578125 182.449219 523.628906 182.359375 523.597656 C 174.273438 521.269531 166.421875 520.425781 159.050781 521.101562 C 139.949219 522.847656 124.96875 534.808594 123.007812 536.4375 Z M 123.007812 536.4375 " fill-opacity="1" fill-rule="nonzero"/></g><g clip-path="url(#7592ffc93f)"><path fill="#f5a906" d="M 551.445312 278.101562 C 551.414062 283.34375 550.960938 289.484375 550.460938 295.378906 C 550.21875 296.636719 550.027344 297.777344 549.878906 298.769531 C 549.324219 293.523438 548.132812 287.835938 545.84375 282.230469 C 537.996094 262.996094 520.339844 252.003906 520.339844 252.003906 C 520.339844 252.003906 515.402344 272.203125 523.25 291.4375 C 529.828125 307.574219 543.3125 317.90625 547.488281 320.816406 L 547.449219 321.101562 C 546.515625 327.136719 545.09375 333.632812 543.992188 339.664062 C 543.703125 340.773438 542.410156 346.011719 541.519531 349.589844 C 541.386719 344.738281 540.730469 339.515625 539.183594 334.265625 C 533.300781 314.34375 516.828125 301.644531 516.828125 301.644531 C 516.828125 301.644531 509.898438 321.246094 515.78125 341.171875 C 520.113281 355.839844 530.175781 366.585938 535.1875 371.238281 C 532.035156 380.542969 528.367188 389.667969 524.238281 398.574219 C 524.78125 394.332031 524.949219 389.773438 524.464844 385.074219 C 522.332031 364.414062 508.46875 348.910156 508.46875 348.910156 C 508.46875 348.910156 498.058594 366.914062 500.191406 387.578125 C 501.691406 402.117188 508.984375 414.070312 513.1875 419.898438 C 508.253906 428.507812 502.871094 436.855469 497.058594 444.902344 C 499.398438 438.273438 501.371094 429.808594 500.957031 420.691406 C 500.007812 399.941406 487.054688 383.675781 487.054688 383.675781 C 487.054688 383.675781 475.632812 401.050781 476.582031 421.804688 C 477.296875 437.511719 484.890625 450.640625 488.542969 456.101562 C 481.960938 464.3125 474.910156 472.144531 467.453125 479.578125 C 470.339844 472.539062 474.074219 460.460938 472.714844 447.292969 C 470.582031 426.628906 456.71875 411.128906 456.71875 411.128906 C 456.71875 411.128906 446.3125 429.132812 448.441406 449.796875 C 450.136719 466.210938 459.214844 479.335938 462.882812 484.054688 C 458.605469 488.121094 454.214844 492.070312 449.6875 495.859375 C 446.628906 498.425781 443.511719 500.9375 440.355469 503.402344 C 443.261719 496.414062 447.128906 484.167969 445.75 470.800781 C 443.621094 450.136719 429.753906 434.636719 429.753906 434.636719 C 429.753906 434.636719 419.347656 452.636719 421.480469 473.304688 C 423.117188 489.191406 431.675781 501.996094 435.550781 507.078125 C 427.324219 513.261719 418.785156 519.066406 409.957031 524.363281 C 413.300781 517.871094 418.589844 505.195312 418.015625 490.886719 C 417.175781 470.132812 404.304688 453.792969 404.304688 453.792969 C 404.304688 453.792969 392.792969 471.113281 393.632812 491.871094 C 394.292969 508.164062 402.359375 521.730469 405.800781 526.808594 C 396.390625 532.234375 386.664062 537.085938 376.652344 541.222656 L 377.363281 543.226562 C 386.496094 539.648438 395.414062 535.554688 404.089844 530.996094 C 408.667969 534.503906 422.078125 543.675781 438.753906 545.195312 C 459.453125 547.085938 477.339844 536.472656 477.339844 536.472656 C 477.339844 536.472656 461.667969 522.796875 440.972656 520.910156 C 432.316406 520.121094 424.160156 521.519531 417.589844 523.410156 C 425.367188 518.75 432.914062 513.703125 440.203125 508.300781 C 445.835938 511.667969 459.34375 518.597656 475.082031 518.523438 C 495.867188 518.425781 512.65625 506.152344 512.65625 506.152344 C 512.65625 506.152344 495.75 494.035156 474.96875 494.132812 C 466.554688 494.171875 458.796875 496.210938 452.542969 498.617188 C 458.839844 493.386719 464.910156 487.882812 470.734375 482.128906 C 476.421875 484.785156 490.929688 490.523438 506.964844 488.6875 C 527.609375 486.324219 542.960938 472.289062 542.960938 472.289062 C 542.960938 472.289062 524.832031 462.09375 504.1875 464.453125 C 494.53125 465.5625 486.0625 469.21875 479.753906 472.796875 C 485.179688 466.921875 490.359375 460.820312 495.269531 454.507812 C 500.863281 456.054688 516.6875 459.523438 532.683594 454.71875 C 552.589844 448.738281 565.210938 432.210938 565.210938 432.210938 C 565.210938 432.210938 545.5625 425.378906 525.660156 431.359375 C 516.429688 434.132812 508.769531 439.175781 503.203125 443.785156 C 507.796875 437.261719 512.109375 430.546875 516.117188 423.660156 L 516.1875 423.738281 C 516.1875 423.738281 516.617188 422.996094 517.273438 421.652344 C 517.714844 420.886719 518.148438 420.121094 518.582031 419.347656 C 523.71875 419.84375 540.609375 420.695312 556.035156 412.722656 C 574.496094 403.183594 583.859375 384.617188 583.859375 384.617188 C 583.859375 384.617188 563.289062 381.519531 544.828125 391.058594 C 535.914062 395.664062 529.128906 402.375 524.488281 408.082031 C 528.195312 400.550781 531.546875 392.835938 534.546875 384.984375 C 540.425781 384.386719 556.300781 381.871094 569.386719 371.6875 C 585.789062 358.929688 591.589844 338.960938 591.589844 338.960938 C 591.589844 338.960938 570.800781 339.683594 554.398438 352.441406 C 548.390625 357.117188 543.804688 362.761719 540.40625 368.039062 C 542.984375 359.761719 545.191406 351.363281 547.019531 342.890625 C 553.5 341.617188 568.109375 337.726562 579.710938 327.199219 C 595.101562 313.242188 599.378906 292.894531 599.378906 292.894531 C 599.378906 292.894531 578.703125 295.179688 563.316406 309.140625 C 557.347656 314.550781 553.058594 320.921875 550.035156 326.695312 C 550.871094 321.40625 551.582031 316.09375 552.128906 310.777344 L 552.738281 305.359375 L 552.941406 301.875 C 559.273438 299.507812 572.804688 293.363281 582.445312 281.320312 C 595.433594 265.101562 596.4375 244.332031 596.4375 244.332031 C 596.4375 244.332031 576.382812 249.863281 563.394531 266.078125 C 558.964844 271.617188 555.929688 277.6875 553.851562 283.277344 C 553.890625 281.425781 553.894531 279.679688 553.859375 278.148438 L 553.878906 273.355469 C 557.082031 268.007812 564.308594 254.117188 564.097656 237.9375 C 563.828125 217.167969 551.410156 200.484375 551.410156 200.484375 C 551.410156 200.484375 539.429688 217.480469 539.703125 238.253906 C 539.929688 255.75 548.777344 270.347656 551.558594 274.511719 Z M 551.445312 278.101562 " fill-opacity="1" fill-rule="nonzero"/><path fill="#f5a906" d="M 443.707031 545.617188 C 442.070312 545.617188 440.414062 545.546875 438.734375 545.394531 C 422.28125 543.894531 409.082031 535.054688 404.066406 531.230469 C 395.335938 535.8125 386.375 539.90625 377.433594 543.410156 C 377.386719 543.429688 377.328125 543.429688 377.277344 543.40625 C 377.230469 543.382812 377.191406 543.339844 377.171875 543.289062 L 376.460938 541.285156 C 376.425781 541.183594 376.476562 541.074219 376.574219 541.03125 C 386.214844 537.050781 395.949219 532.246094 405.511719 526.738281 C 401.996094 521.511719 394.082031 508.027344 393.429688 491.875 C 392.597656 471.292969 404.019531 453.855469 404.132812 453.679688 C 404.167969 453.628906 404.226562 453.59375 404.292969 453.59375 C 404.359375 453.59375 404.417969 453.617188 404.457031 453.667969 C 404.585938 453.832031 417.375 470.292969 418.210938 490.875 C 418.773438 504.84375 413.734375 517.292969 410.449219 523.828125 C 418.726562 518.832031 427.070312 513.183594 435.265625 507.035156 C 431.503906 502.070312 422.910156 489.183594 421.277344 473.316406 C 419.160156 452.828125 429.472656 434.710938 429.578125 434.53125 C 429.609375 434.476562 429.664062 434.441406 429.730469 434.433594 C 429.789062 434.425781 429.859375 434.453125 429.898438 434.5 C 430.039062 434.652344 443.832031 450.285156 445.945312 470.777344 C 447.25 483.429688 443.953125 495.046875 440.824219 502.773438 C 443.847656 500.40625 446.78125 498.03125 449.554688 495.703125 C 453.835938 492.121094 458.226562 488.195312 462.609375 484.027344 C 458.753906 479.046875 449.910156 466.039062 448.238281 449.8125 C 446.125 429.320312 456.433594 411.207031 456.539062 411.027344 C 456.570312 410.972656 456.628906 410.933594 456.691406 410.925781 C 456.765625 410.921875 456.820312 410.945312 456.859375 410.992188 C 457 411.148438 470.792969 426.78125 472.910156 447.273438 C 474.1875 459.664062 471.035156 471.074219 468 478.742188 C 475.191406 471.527344 482.011719 463.914062 488.289062 456.089844 C 484.878906 450.96875 477.097656 437.636719 476.375 421.8125 C 475.4375 401.234375 486.765625 383.738281 486.878906 383.5625 C 486.917969 383.511719 486.972656 383.476562 487.039062 383.472656 C 487.105469 383.480469 487.164062 383.5 487.203125 383.550781 C 487.332031 383.710938 500.210938 400.105469 501.148438 420.683594 C 501.488281 428.054688 500.320312 435.785156 497.683594 443.683594 C 503.128906 436.070312 508.257812 428.082031 512.945312 419.914062 C 508.710938 414.019531 501.484375 402.078125 499.992188 387.601562 C 497.875 367.109375 508.1875 348.996094 508.292969 348.8125 C 508.324219 348.757812 508.378906 348.722656 508.445312 348.714844 C 508.515625 348.710938 508.574219 348.734375 508.613281 348.78125 C 508.753906 348.9375 522.546875 364.570312 524.660156 385.058594 C 525.066406 388.988281 525.039062 393.117188 524.585938 397.347656 C 528.503906 388.792969 531.988281 380.035156 534.953125 371.300781 C 529.503906 366.222656 519.839844 355.636719 515.589844 341.230469 C 509.753906 321.472656 516.570312 301.777344 516.640625 301.582031 C 516.664062 301.519531 516.710938 301.476562 516.773438 301.457031 C 516.835938 301.4375 516.902344 301.449219 516.953125 301.492188 C 517.117188 301.617188 533.542969 314.460938 539.375 334.214844 C 540.660156 338.570312 541.429688 343.257812 541.664062 348.175781 L 542.183594 346.089844 C 542.878906 343.296875 543.59375 340.402344 543.800781 339.617188 C 544.199219 337.433594 544.65625 335.125 545.09375 332.890625 C 545.863281 328.964844 546.664062 324.90625 547.25 321.078125 L 547.277344 320.914062 C 543.125 318.007812 529.632812 307.621094 523.0625 291.519531 C 515.28125 272.445312 520.097656 252.167969 520.148438 251.964844 C 520.160156 251.902344 520.207031 251.851562 520.265625 251.824219 C 520.324219 251.800781 520.390625 251.808594 520.445312 251.839844 C 520.625 251.949219 538.25 263.085938 546.03125 282.160156 C 547.921875 286.789062 549.222656 291.878906 549.910156 297.300781 C 550.019531 296.664062 550.136719 296.011719 550.265625 295.34375 C 550.730469 289.839844 551.21875 283.46875 551.246094 278.105469 C 551.246094 278.101562 551.246094 278.101562 551.246094 278.101562 L 551.355469 274.574219 C 548.582031 270.414062 539.726562 255.757812 539.5 238.261719 C 539.230469 217.664062 551.125 200.546875 551.246094 200.375 C 551.285156 200.320312 551.332031 200.285156 551.410156 200.292969 C 551.472656 200.292969 551.535156 200.320312 551.570312 200.371094 C 551.695312 200.539062 564.03125 217.34375 564.300781 237.941406 C 564.507812 254.160156 557.246094 268.121094 554.082031 273.417969 L 554.0625 278.160156 C 554.089844 279.324219 554.089844 280.660156 554.070312 282.144531 C 556.453125 276.03125 559.535156 270.59375 563.242188 265.964844 C 576.121094 249.882812 596.183594 244.203125 596.386719 244.148438 C 596.445312 244.128906 596.515625 244.144531 596.5625 244.1875 C 596.613281 244.226562 596.640625 244.289062 596.636719 244.351562 C 596.625 244.558594 595.484375 265.371094 582.605469 281.453125 C 573.160156 293.25 560.140625 299.390625 553.136719 302.027344 L 552.9375 305.378906 L 552.328125 310.808594 C 551.84375 315.53125 551.199219 320.488281 550.414062 325.566406 C 553.96875 319.035156 558.261719 313.464844 563.179688 309 C 578.441406 295.15625 599.152344 292.726562 599.359375 292.703125 C 599.421875 292.695312 599.488281 292.722656 599.53125 292.769531 C 599.574219 292.816406 599.589844 292.882812 599.578125 292.945312 C 599.535156 293.148438 595.109375 313.515625 579.847656 327.359375 C 568.136719 337.984375 553.203125 341.875 547.183594 343.070312 C 545.46875 351.015625 543.394531 358.980469 541.015625 366.761719 C 544.886719 360.996094 549.34375 356.132812 554.277344 352.292969 C 570.542969 339.640625 591.375 338.777344 591.585938 338.769531 C 591.652344 338.757812 591.710938 338.796875 591.75 338.847656 C 591.789062 338.898438 591.800781 338.964844 591.785156 339.027344 C 591.726562 339.230469 585.773438 359.203125 569.511719 371.855469 C 556.558594 381.9375 540.9375 384.53125 534.691406 385.179688 C 531.878906 392.523438 528.757812 399.75 525.402344 406.679688 C 531.207031 399.832031 537.707031 394.523438 544.738281 390.890625 C 563.046875 381.429688 583.683594 384.394531 583.886719 384.425781 C 583.953125 384.4375 584.007812 384.476562 584.035156 384.53125 C 584.066406 384.589844 584.066406 384.660156 584.035156 384.714844 C 583.941406 384.902344 574.433594 403.449219 556.125 412.910156 C 540.722656 420.867188 523.738281 420.039062 518.691406 419.570312 C 518.28125 420.300781 517.867188 421.03125 517.449219 421.761719 C 516.800781 423.082031 516.367188 423.839844 516.363281 423.847656 C 516.328125 423.902344 516.273438 423.941406 516.207031 423.945312 C 516.199219 423.949219 516.195312 423.949219 516.1875 423.949219 C 512.472656 430.316406 508.441406 436.628906 504.191406 442.734375 C 511.019531 437.28125 518.21875 433.394531 525.605469 431.175781 C 545.34375 425.246094 565.082031 431.960938 565.277344 432.03125 C 565.339844 432.050781 565.386719 432.101562 565.402344 432.164062 C 565.421875 432.222656 565.410156 432.289062 565.371094 432.339844 C 565.246094 432.507812 552.480469 448.988281 532.746094 454.917969 C 516.957031 459.660156 501.429688 456.410156 495.347656 454.746094 C 490.742188 460.660156 485.835938 466.464844 480.746094 472.027344 C 488.535156 467.761719 496.410156 465.152344 504.164062 464.261719 C 524.652344 461.914062 542.878906 472.019531 543.0625 472.121094 C 543.117188 472.152344 543.152344 472.210938 543.164062 472.273438 C 543.171875 472.339844 543.148438 472.402344 543.097656 472.445312 C 542.945312 472.585938 527.464844 486.546875 506.988281 488.890625 C 490.980469 490.734375 476.421875 484.996094 470.777344 482.375 C 465.28125 487.800781 459.5 493.058594 453.582031 498.019531 C 460.863281 495.34375 468.054688 493.972656 474.972656 493.9375 C 475.054688 493.9375 475.136719 493.9375 475.21875 493.9375 C 495.714844 493.9375 512.609375 505.875 512.777344 505.996094 C 512.828125 506.03125 512.859375 506.09375 512.859375 506.15625 C 512.859375 506.222656 512.832031 506.28125 512.777344 506.320312 C 512.609375 506.441406 495.695312 518.632812 475.085938 518.726562 C 475.003906 518.730469 474.917969 518.730469 474.839844 518.730469 C 459.082031 518.730469 445.476562 511.671875 440.21875 508.546875 C 433.375 513.613281 426.226562 518.414062 418.949219 522.828125 C 426.585938 520.785156 433.988281 520.074219 440.996094 520.710938 C 461.515625 522.585938 477.316406 536.1875 477.472656 536.324219 C 477.519531 536.367188 477.546875 536.429688 477.539062 536.492188 C 477.535156 536.558594 477.5 536.613281 477.441406 536.648438 C 477.269531 536.738281 462.082031 545.617188 443.707031 545.617188 Z M 404.085938 530.792969 C 404.132812 530.792969 404.171875 530.808594 404.210938 530.835938 C 409.117188 534.59375 422.308594 543.492188 438.769531 544.992188 C 457.847656 546.742188 474.765625 537.683594 476.984375 536.4375 C 475.027344 534.808594 460.042969 522.847656 440.949219 521.105469 C 433.570312 520.429688 425.726562 521.273438 417.640625 523.601562 C 417.550781 523.628906 417.441406 523.582031 417.402344 523.488281 C 417.363281 523.394531 417.398438 523.289062 417.484375 523.234375 C 425.21875 518.597656 432.820312 513.519531 440.082031 508.136719 C 440.148438 508.089844 440.234375 508.085938 440.304688 508.125 C 445.445312 511.199219 459.0625 518.320312 474.832031 518.320312 C 474.914062 518.320312 474.996094 518.320312 475.078125 518.320312 C 494.25 518.230469 510.210938 507.605469 512.304688 506.148438 C 510.207031 504.722656 494.273438 494.328125 475.210938 494.328125 C 475.128906 494.328125 475.050781 494.328125 474.96875 494.328125 C 467.75 494.363281 460.226562 495.867188 452.613281 498.800781 C 452.523438 498.832031 452.417969 498.800781 452.367188 498.71875 C 452.316406 498.632812 452.335938 498.523438 452.414062 498.460938 C 458.675781 493.257812 464.792969 487.714844 470.589844 481.984375 C 470.652344 481.925781 470.742188 481.910156 470.816406 481.945312 C 476.339844 484.523438 490.894531 490.316406 506.9375 488.484375 C 525.984375 486.304688 540.6875 474 542.609375 472.328125 C 540.359375 471.128906 523.265625 462.472656 504.207031 464.648438 C 496.144531 465.574219 487.949219 468.371094 479.847656 472.96875 C 479.765625 473.015625 479.65625 473 479.59375 472.917969 C 479.53125 472.84375 479.535156 472.730469 479.601562 472.660156 C 485.015625 466.796875 490.234375 460.648438 495.109375 454.382812 C 495.160156 454.320312 495.242188 454.292969 495.320312 454.3125 C 501.269531 455.957031 516.816406 459.273438 532.625 454.523438 C 550.984375 449.007812 563.277344 434.296875 564.875 432.308594 C 562.449219 431.53125 544.078125 426.035156 525.71875 431.550781 C 517.976562 433.875 510.445312 438.042969 503.328125 443.9375 C 503.253906 444 503.140625 444 503.0625 443.929688 C 502.992188 443.863281 502.976562 443.75 503.035156 443.667969 C 507.625 437.152344 511.964844 430.386719 515.941406 423.554688 C 515.972656 423.5 516.03125 423.464844 516.09375 423.457031 C 516.101562 423.457031 516.105469 423.457031 516.113281 423.457031 C 516.273438 423.160156 516.625 422.507812 517.089844 421.5625 C 517.535156 420.785156 517.972656 420.019531 518.402344 419.25 C 518.441406 419.179688 518.507812 419.136719 518.597656 419.148438 C 523.453125 419.613281 540.5 420.523438 555.9375 412.542969 C 572.972656 403.742188 582.34375 387.023438 583.546875 384.773438 C 581.011719 384.457031 561.945312 382.433594 544.917969 391.234375 C 537.5 395.066406 530.679688 400.777344 524.640625 408.207031 C 524.574219 408.289062 524.457031 408.304688 524.378906 408.253906 C 524.289062 408.199219 524.261719 408.085938 524.304688 407.996094 C 527.953125 400.582031 531.335938 392.816406 534.359375 384.914062 C 534.386719 384.84375 534.449219 384.792969 534.527344 384.785156 C 540.652344 384.160156 556.304688 381.613281 569.261719 371.53125 C 584.394531 359.761719 590.542969 341.605469 591.316406 339.175781 C 588.769531 339.328125 569.652344 340.832031 554.523438 352.597656 C 549.292969 356.667969 544.601562 361.898438 540.578125 368.144531 C 540.519531 368.230469 540.414062 368.261719 540.324219 368.21875 C 540.234375 368.175781 540.1875 368.074219 540.21875 367.976562 C 542.78125 359.738281 545.003906 351.28125 546.824219 342.847656 C 546.839844 342.769531 546.902344 342.710938 546.980469 342.695312 C 552.875 341.535156 567.855469 337.6875 579.578125 327.050781 C 593.777344 314.175781 598.539062 295.609375 599.125 293.125 C 596.597656 293.46875 577.644531 296.410156 563.449219 309.285156 C 558.304688 313.953125 553.847656 319.84375 550.210938 326.789062 C 550.167969 326.875 550.066406 326.917969 549.972656 326.882812 C 549.878906 326.855469 549.820312 326.761719 549.839844 326.664062 C 550.703125 321.1875 551.40625 315.835938 551.929688 310.753906 L 552.542969 305.335938 L 552.742188 301.863281 C 552.746094 301.785156 552.800781 301.714844 552.871094 301.6875 C 559.808594 299.09375 572.855469 292.984375 582.292969 281.195312 C 594.273438 266.234375 596.035156 247.148438 596.21875 244.605469 C 593.78125 245.34375 575.535156 251.242188 563.554688 266.203125 C 559.660156 271.066406 556.457031 276.835938 554.039062 283.34375 C 554.007812 283.4375 553.910156 283.492188 553.816406 283.472656 C 553.71875 283.453125 553.648438 283.371094 553.652344 283.269531 C 553.691406 281.328125 553.695312 279.605469 553.660156 278.152344 L 553.679688 273.351562 C 553.679688 273.316406 553.691406 273.28125 553.710938 273.25 C 556.84375 268.019531 564.109375 254.101562 563.902344 237.9375 C 563.648438 218.769531 552.886719 202.910156 551.417969 200.832031 C 549.996094 202.949219 539.652344 219.085938 539.902344 238.25 C 540.128906 255.707031 549.007812 270.332031 551.726562 274.398438 C 551.75 274.429688 551.761719 274.472656 551.757812 274.515625 L 551.648438 278.101562 C 551.617188 283.480469 551.136719 289.859375 550.664062 295.390625 C 550.433594 296.59375 550.238281 297.730469 550.082031 298.796875 C 550.066406 298.894531 549.980469 298.96875 549.882812 298.96875 C 549.882812 298.96875 549.882812 298.96875 549.878906 298.96875 C 549.78125 298.964844 549.695312 298.886719 549.683594 298.789062 C 549.058594 292.859375 547.707031 287.3125 545.660156 282.304688 C 538.425781 264.558594 522.605469 253.722656 520.476562 252.324219 C 519.929688 254.8125 516.199219 273.617188 523.4375 291.359375 C 530.019531 307.492188 543.597656 317.855469 547.605469 320.648438 C 547.667969 320.691406 547.699219 320.765625 547.691406 320.839844 L 547.652344 321.128906 C 547.058594 324.96875 546.261719 329.03125 545.488281 332.960938 C 545.050781 335.191406 544.597656 337.496094 544.195312 339.695312 C 543.984375 340.492188 543.269531 343.382812 542.574219 346.179688 L 541.714844 349.636719 C 541.691406 349.734375 541.59375 349.796875 541.5 349.789062 C 541.398438 349.777344 541.324219 349.691406 541.320312 349.59375 C 541.175781 344.191406 540.394531 339.054688 538.996094 334.320312 C 533.570312 315.941406 518.914062 303.582031 516.933594 301.976562 C 516.140625 304.398438 510.550781 322.730469 515.976562 341.109375 C 520.226562 355.507812 529.925781 366.070312 535.324219 371.085938 C 535.382812 371.140625 535.402344 371.222656 535.378906 371.296875 C 532.269531 380.476562 528.582031 389.679688 524.421875 398.65625 C 524.382812 398.746094 524.277344 398.792969 524.1875 398.761719 C 524.089844 398.738281 524.03125 398.644531 524.042969 398.546875 C 524.632812 393.90625 524.710938 389.382812 524.269531 385.09375 C 522.300781 366.03125 510.160156 351.195312 508.507812 349.257812 C 507.285156 351.492188 498.429688 368.492188 500.394531 387.554688 C 501.886719 402.027344 509.152344 413.953125 513.351562 419.777344 C 513.398438 419.84375 513.402344 419.925781 513.363281 419.992188 C 508.425781 428.609375 502.996094 437.027344 497.222656 445.015625 C 497.164062 445.09375 497.050781 445.121094 496.96875 445.074219 C 496.878906 445.03125 496.839844 444.925781 496.871094 444.832031 C 499.800781 436.535156 501.109375 428.417969 500.757812 420.699219 C 499.882812 401.558594 488.609375 386.050781 487.070312 384.019531 C 485.722656 386.183594 475.910156 402.648438 476.785156 421.792969 C 477.507812 437.644531 485.363281 450.988281 488.707031 455.988281 C 488.757812 456.0625 488.753906 456.15625 488.699219 456.222656 C 482.1875 464.351562 475.085938 472.253906 467.59375 479.714844 C 467.527344 479.785156 467.421875 479.792969 467.339844 479.742188 C 467.261719 479.6875 467.230469 479.585938 467.265625 479.5 C 470.390625 471.886719 473.835938 460.121094 472.519531 447.3125 C 470.550781 428.25 458.40625 413.414062 456.753906 411.472656 C 455.53125 413.710938 446.675781 430.710938 448.640625 449.773438 C 450.320312 466.054688 459.269531 479.082031 463.039062 483.925781 C 463.101562 484.007812 463.09375 484.125 463.019531 484.195312 C 458.589844 488.410156 454.148438 492.386719 449.816406 496.007812 C 446.859375 498.488281 443.714844 501.03125 440.480469 503.554688 C 440.410156 503.613281 440.308594 503.613281 440.234375 503.558594 C 440.164062 503.503906 440.136719 503.40625 440.175781 503.320312 C 443.367188 495.644531 446.890625 483.777344 445.554688 470.816406 C 443.585938 451.757812 431.445312 436.917969 429.792969 434.980469 C 428.570312 437.214844 419.714844 454.214844 421.679688 473.277344 C 423.324219 489.214844 432.039062 502.136719 435.710938 506.953125 C 435.742188 506.996094 435.757812 507.050781 435.753906 507.101562 C 435.742188 507.15625 435.714844 507.203125 435.675781 507.234375 C 427.21875 513.585938 418.605469 519.402344 410.066406 524.53125 C 409.988281 524.578125 409.890625 524.566406 409.824219 524.503906 C 409.757812 524.445312 409.742188 524.347656 409.78125 524.265625 C 413.03125 517.953125 418.394531 505.226562 417.816406 490.886719 C 417.042969 471.742188 405.847656 456.179688 404.320312 454.136719 C 402.960938 456.292969 393.0625 472.710938 393.835938 491.855469 C 394.492188 508.09375 402.539062 521.625 405.972656 526.691406 C 406.003906 526.738281 406.011719 526.792969 406 526.847656 C 405.988281 526.90625 405.953125 526.949219 405.90625 526.980469 C 396.324219 532.503906 386.570312 537.332031 376.90625 541.328125 L 377.488281 542.960938 C 386.386719 539.46875 395.308594 535.382812 404 530.816406 C 404.023438 530.804688 404.054688 530.792969 404.085938 530.792969 Z M 404.085938 530.792969 " fill-opacity="1" fill-rule="nonzero"/></g><g clip-path="url(#a138024557)"><path fill="#f5a906" d="M 269.113281 569.59375 L 296.820312 555.035156 L 324.527344 569.59375 L 319.234375 538.757812 L 341.652344 516.917969 L 310.671875 512.417969 L 296.820312 484.359375 L 282.964844 512.417969 L 251.988281 516.917969 L 274.40625 538.757812 Z M 269.113281 569.59375 " fill-opacity="1" fill-rule="nonzero"/><path fill="#f5a906" d="M 269.113281 569.796875 C 269.070312 569.796875 269.03125 569.785156 268.996094 569.757812 C 268.933594 569.714844 268.90625 569.640625 268.914062 569.5625 L 274.1875 538.828125 L 251.851562 517.058594 C 251.792969 517.003906 251.773438 516.925781 251.796875 516.855469 C 251.820312 516.78125 251.882812 516.730469 251.960938 516.71875 L 282.832031 512.234375 L 296.636719 484.269531 C 296.707031 484.132812 296.929688 484.132812 296.996094 484.269531 L 310.804688 512.234375 L 341.675781 516.71875 C 341.753906 516.730469 341.816406 516.78125 341.839844 516.855469 C 341.859375 516.925781 341.839844 517.007812 341.785156 517.058594 L 319.449219 538.828125 L 324.71875 569.5625 C 324.734375 569.636719 324.703125 569.714844 324.640625 569.757812 C 324.582031 569.804688 324.496094 569.808594 324.429688 569.773438 L 296.816406 555.261719 L 269.203125 569.773438 C 269.175781 569.789062 269.144531 569.796875 269.113281 569.796875 Z M 296.820312 554.835938 C 296.851562 554.835938 296.882812 554.84375 296.914062 554.859375 L 324.261719 569.230469 L 319.039062 538.789062 C 319.027344 538.726562 319.046875 538.660156 319.097656 538.613281 L 341.222656 517.058594 L 310.644531 512.617188 C 310.578125 512.605469 310.523438 512.566406 310.492188 512.507812 L 296.820312 484.808594 L 283.144531 512.507812 C 283.117188 512.566406 283.058594 512.605469 282.992188 512.617188 L 252.417969 517.058594 L 274.542969 538.613281 C 274.589844 538.660156 274.613281 538.726562 274.601562 538.789062 L 269.378906 569.230469 L 296.726562 554.859375 C 296.753906 554.84375 296.789062 554.835938 296.820312 554.835938 Z M 296.820312 554.835938 " fill-opacity="1" fill-rule="nonzero"/></g></svg>