<svg xmlns="http://www.w3.org/2000/svg" xmlns:xlink="http://www.w3.org/1999/xlink" width="800" zoomAndPan="magnify" viewBox="0 0 600 492.749982" height="657" preserveAspectRatio="xMidYMid meet" version="1.0"><defs><clipPath id="f81e808d3b"><path d="M 0.152344 122 L 224 122 L 224 468 L 0.152344 468 Z M 0.152344 122 " clip-rule="nonzero"/></clipPath><clipPath id="c75cea64e7"><path d="M 0.152344 122 L 224 122 L 224 469 L 0.152344 469 Z M 0.152344 122 " clip-rule="nonzero"/></clipPath><clipPath id="8a155280c2"><path d="M 376 122 L 599.847656 122 L 599.847656 468 L 376 468 Z M 376 122 " clip-rule="nonzero"/></clipPath><clipPath id="bd7c7d1dbd"><path d="M 376 122 L 599.847656 122 L 599.847656 469 L 376 469 Z M 376 122 " clip-rule="nonzero"/></clipPath><clipPath id="a1b4dd2024"><path d="M 251 406 L 342 406 L 342 492.5 L 251 492.5 Z M 251 406 " clip-rule="nonzero"/></clipPath></defs><path fill="#dadada" d="M 488.988281 189.449219 C 488.988281 192.542969 488.914062 195.636719 488.761719 198.722656 C 488.609375 201.8125 488.382812 204.898438 488.078125 207.976562 C 487.777344 211.054688 487.398438 214.121094 486.945312 217.183594 C 486.492188 220.242188 485.960938 223.289062 485.359375 226.320312 C 484.753906 229.355469 484.078125 232.371094 483.328125 235.371094 C 482.574219 238.371094 481.75 241.351562 480.851562 244.3125 C 479.953125 247.273438 478.984375 250.207031 477.941406 253.121094 C 476.902344 256.03125 475.789062 258.917969 474.605469 261.773438 C 473.421875 264.632812 472.167969 267.460938 470.84375 270.253906 C 469.523438 273.050781 468.132812 275.8125 466.675781 278.539062 C 465.214844 281.269531 463.691406 283.960938 462.101562 286.613281 C 460.511719 289.265625 458.859375 291.878906 457.140625 294.449219 C 455.421875 297.019531 453.640625 299.550781 451.796875 302.03125 C 449.957031 304.515625 448.054688 306.957031 446.089844 309.347656 C 444.128906 311.738281 442.109375 314.078125 440.03125 316.371094 C 437.953125 318.660156 435.824219 320.902344 433.636719 323.089844 C 431.449219 325.273438 429.210938 327.40625 426.917969 329.484375 C 424.625 331.5625 422.285156 333.582031 419.894531 335.542969 C 417.503906 337.503906 415.066406 339.40625 412.582031 341.25 C 410.097656 343.09375 407.566406 344.875 404.996094 346.589844 C 402.425781 348.308594 399.8125 349.964844 397.160156 351.554688 C 394.507812 353.144531 391.816406 354.667969 389.089844 356.125 C 386.359375 357.585938 383.597656 358.976562 380.804688 360.296875 C 378.007812 361.621094 375.179688 362.871094 372.324219 364.054688 C 369.464844 365.238281 366.578125 366.351562 363.667969 367.394531 C 360.753906 368.4375 357.820312 369.40625 354.859375 370.304688 C 351.898438 371.203125 348.921875 372.027344 345.917969 372.777344 C 342.917969 373.53125 339.902344 374.207031 336.867188 374.8125 C 333.835938 375.414062 330.789062 375.941406 327.730469 376.398438 C 324.667969 376.851562 321.601562 377.230469 318.523438 377.53125 C 315.445312 377.835938 312.359375 378.0625 309.273438 378.214844 C 306.183594 378.367188 303.089844 378.441406 300 378.441406 C 296.90625 378.441406 293.8125 378.367188 290.726562 378.214844 C 287.636719 378.0625 284.550781 377.835938 281.472656 377.53125 C 278.394531 377.230469 275.328125 376.851562 272.269531 376.398438 C 269.207031 375.941406 266.160156 375.414062 263.128906 374.8125 C 260.09375 374.207031 257.078125 373.53125 254.078125 372.777344 C 251.078125 372.027344 248.097656 371.203125 245.136719 370.304688 C 242.175781 369.40625 239.242188 368.4375 236.328125 367.394531 C 233.417969 366.351562 230.53125 365.238281 227.675781 364.054688 C 224.816406 362.871094 221.992188 361.621094 219.195312 360.296875 C 216.398438 358.976562 213.636719 357.585938 210.910156 356.125 C 208.179688 354.667969 205.492188 353.144531 202.835938 351.554688 C 200.183594 349.964844 197.570312 348.308594 195 346.589844 C 192.429688 344.875 189.902344 343.09375 187.417969 341.25 C 184.933594 339.40625 182.496094 337.503906 180.105469 335.542969 C 177.710938 333.582031 175.371094 331.5625 173.078125 329.484375 C 170.789062 327.40625 168.546875 325.273438 166.359375 323.089844 C 164.175781 320.902344 162.042969 318.660156 159.964844 316.371094 C 157.886719 314.078125 155.867188 311.738281 153.90625 309.347656 C 151.945312 306.957031 150.042969 304.515625 148.199219 302.03125 C 146.355469 299.550781 144.574219 297.019531 142.859375 294.449219 C 141.140625 291.878906 139.484375 289.265625 137.894531 286.613281 C 136.304688 283.960938 134.78125 281.269531 133.324219 278.539062 C 131.863281 275.8125 130.472656 273.050781 129.152344 270.253906 C 127.828125 267.460938 126.578125 264.632812 125.394531 261.773438 C 124.210938 258.917969 123.097656 256.03125 122.054688 253.121094 C 121.011719 250.207031 120.042969 247.273438 119.144531 244.3125 C 118.246094 241.351562 117.421875 238.371094 116.671875 235.371094 C 115.917969 232.371094 115.242188 229.355469 114.636719 226.320312 C 114.035156 223.289062 113.507812 220.242188 113.050781 217.183594 C 112.597656 214.121094 112.21875 211.054688 111.917969 207.976562 C 111.613281 204.898438 111.386719 201.8125 111.234375 198.722656 C 111.082031 195.636719 111.007812 192.542969 111.007812 189.449219 C 111.007812 186.359375 111.082031 183.265625 111.234375 180.175781 C 111.386719 177.089844 111.613281 174.003906 111.917969 170.925781 C 112.21875 167.847656 112.597656 164.78125 113.050781 161.71875 C 113.507812 158.660156 114.035156 155.613281 114.636719 152.582031 C 115.242188 149.546875 115.917969 146.53125 116.671875 143.53125 C 117.421875 140.53125 118.246094 137.550781 119.144531 134.589844 C 120.042969 131.628906 121.011719 128.695312 122.054688 125.78125 C 123.097656 122.871094 124.210938 119.984375 125.394531 117.128906 C 126.578125 114.269531 127.828125 111.441406 129.152344 108.648438 C 130.472656 105.851562 131.863281 103.089844 133.324219 100.359375 C 134.78125 97.632812 136.304688 94.941406 137.894531 92.289062 C 139.484375 89.636719 141.140625 87.023438 142.859375 84.453125 C 144.574219 81.882812 146.355469 79.351562 148.199219 76.867188 C 150.042969 74.382812 151.945312 71.945312 153.90625 69.554688 C 155.867188 67.164062 157.886719 64.824219 159.964844 62.53125 C 162.042969 60.242188 164.175781 58 166.359375 55.8125 C 168.546875 53.625 170.789062 51.496094 173.078125 49.417969 C 175.371094 47.339844 177.710938 45.320312 180.105469 43.359375 C 182.496094 41.394531 184.933594 39.492188 187.417969 37.652344 C 189.902344 35.808594 192.429688 34.027344 195 32.308594 C 197.570312 30.59375 200.183594 28.9375 202.835938 27.347656 C 205.492188 25.757812 208.179688 24.234375 210.910156 22.773438 C 213.636719 21.316406 216.398438 19.925781 219.195312 18.605469 C 221.992188 17.28125 224.816406 16.027344 227.675781 14.84375 C 230.53125 13.660156 233.417969 12.550781 236.328125 11.507812 C 239.242188 10.464844 242.175781 9.496094 245.136719 8.597656 C 248.097656 7.699219 251.078125 6.875 254.078125 6.125 C 257.078125 5.371094 260.09375 4.695312 263.128906 4.089844 C 266.160156 3.488281 269.207031 2.957031 272.269531 2.503906 C 275.328125 2.050781 278.394531 1.671875 281.472656 1.371094 C 284.550781 1.066406 287.636719 0.839844 290.726562 0.6875 C 293.8125 0.535156 296.90625 0.460938 300 0.460938 C 303.089844 0.460938 306.183594 0.535156 309.273438 0.6875 C 312.359375 0.839844 315.445312 1.066406 318.523438 1.371094 C 321.601562 1.671875 324.667969 2.050781 327.730469 2.503906 C 330.789062 2.957031 333.835938 3.488281 336.867188 4.089844 C 339.902344 4.695312 342.917969 5.371094 345.917969 6.125 C 348.921875 6.875 351.898438 7.699219 354.859375 8.597656 C 357.820312 9.496094 360.753906 10.464844 363.667969 11.507812 C 366.578125 12.550781 369.464844 13.660156 372.324219 14.84375 C 375.179688 16.027344 378.007812 17.28125 380.804688 18.605469 C 383.597656 19.925781 386.359375 21.316406 389.089844 22.773438 C 391.816406 24.234375 394.507812 25.757812 397.160156 27.347656 C 399.8125 28.9375 402.425781 30.59375 404.996094 32.308594 C 407.566406 34.027344 410.097656 35.808594 412.582031 37.652344 C 415.066406 39.492188 417.503906 41.394531 419.894531 43.359375 C 422.285156 45.320312 424.625 47.339844 426.917969 49.417969 C 429.210938 51.496094 431.449219 53.625 433.636719 55.8125 C 435.824219 58 437.953125 60.242188 440.03125 62.53125 C 442.109375 64.824219 444.128906 67.164062 446.089844 69.554688 C 448.054688 71.945312 449.957031 74.382812 451.796875 76.867188 C 453.640625 79.351562 455.421875 81.882812 457.140625 84.453125 C 458.859375 87.023438 460.511719 89.636719 462.101562 92.289062 C 463.691406 94.941406 465.214844 97.632812 466.675781 100.359375 C 468.132812 103.089844 469.523438 105.851562 470.84375 108.648438 C 472.167969 111.441406 473.421875 114.269531 474.605469 117.128906 C 475.789062 119.984375 476.902344 122.871094 477.941406 125.78125 C 478.984375 128.695312 479.953125 131.628906 480.851562 134.589844 C 481.75 137.550781 482.574219 140.53125 483.328125 143.53125 C 484.078125 146.53125 484.753906 149.546875 485.359375 152.582031 C 485.960938 155.613281 486.492188 158.660156 486.945312 161.71875 C 487.398438 164.78125 487.777344 167.847656 488.082031 170.925781 C 488.382812 174.003906 488.609375 177.089844 488.761719 180.175781 C 488.914062 183.265625 488.988281 186.359375 488.988281 189.449219 Z M 488.988281 189.449219 " fill-opacity="1" fill-rule="nonzero"/><path fill="#dadada" d="M 300 378.644531 C 274.457031 378.644531 249.679688 373.640625 226.355469 363.773438 C 203.828125 354.246094 183.59375 340.605469 166.21875 323.230469 C 148.84375 305.855469 135.203125 285.621094 125.671875 263.09375 C 115.808594 239.769531 110.804688 214.992188 110.804688 189.449219 C 110.804688 163.910156 115.808594 139.132812 125.671875 115.808594 C 135.203125 93.28125 148.84375 73.046875 166.21875 55.671875 C 183.59375 38.296875 203.828125 24.65625 226.355469 15.125 C 249.679688 5.261719 274.457031 0.257812 300 0.257812 C 325.539062 0.257812 350.316406 5.261719 373.640625 15.125 C 396.167969 24.65625 416.402344 38.296875 433.777344 55.671875 C 451.152344 73.046875 464.792969 93.28125 474.320312 115.808594 C 484.1875 139.132812 489.191406 163.910156 489.191406 189.449219 C 489.191406 214.992188 484.1875 239.769531 474.320312 263.09375 C 464.792969 285.621094 451.152344 305.855469 433.777344 323.230469 C 416.402344 340.605469 396.167969 354.246094 373.640625 363.773438 C 350.316406 373.640625 325.539062 378.644531 300 378.644531 Z M 300 0.660156 C 195.898438 0.660156 111.207031 85.351562 111.207031 189.449219 C 111.207031 293.550781 195.898438 378.242188 300 378.242188 C 404.097656 378.242188 488.789062 293.550781 488.789062 189.449219 C 488.789062 85.351562 404.097656 0.660156 300 0.660156 Z M 300 0.660156 " fill-opacity="1" fill-rule="nonzero"/><path fill="#979797" d="M 452.757812 189.449219 C 452.757812 191.949219 452.695312 194.449219 452.574219 196.945312 C 452.449219 199.445312 452.265625 201.9375 452.023438 204.425781 C 451.777344 206.910156 451.472656 209.390625 451.105469 211.867188 C 450.738281 214.339844 450.308594 216.800781 449.820312 219.253906 C 449.335938 221.703125 448.785156 224.144531 448.179688 226.570312 C 447.570312 228.992188 446.90625 231.402344 446.179688 233.792969 C 445.453125 236.1875 444.667969 238.558594 443.828125 240.914062 C 442.984375 243.269531 442.085938 245.597656 441.128906 247.910156 C 440.171875 250.21875 439.160156 252.503906 438.089844 254.765625 C 437.023438 257.023438 435.898438 259.257812 434.71875 261.460938 C 433.542969 263.664062 432.308594 265.839844 431.023438 267.984375 C 429.738281 270.128906 428.402344 272.242188 427.011719 274.320312 C 425.625 276.398438 424.183594 278.441406 422.695312 280.449219 C 421.207031 282.457031 419.667969 284.425781 418.082031 286.359375 C 416.496094 288.292969 414.863281 290.183594 413.183594 292.039062 C 411.507812 293.890625 409.78125 295.699219 408.015625 297.46875 C 406.246094 299.234375 404.4375 300.957031 402.585938 302.636719 C 400.734375 304.316406 398.839844 305.949219 396.90625 307.535156 C 394.976562 309.121094 393.003906 310.660156 390.996094 312.148438 C 388.988281 313.636719 386.945312 315.078125 384.867188 316.464844 C 382.789062 317.855469 380.675781 319.191406 378.53125 320.476562 C 376.386719 321.761719 374.214844 322.992188 372.007812 324.171875 C 369.804688 325.351562 367.570312 326.472656 365.3125 327.542969 C 363.050781 328.613281 360.765625 329.625 358.457031 330.582031 C 356.148438 331.539062 353.816406 332.4375 351.460938 333.28125 C 349.109375 334.121094 346.734375 334.90625 344.34375 335.632812 C 341.949219 336.359375 339.539062 337.023438 337.117188 337.632812 C 334.691406 338.238281 332.253906 338.785156 329.800781 339.273438 C 327.347656 339.761719 324.886719 340.191406 322.414062 340.554688 C 319.941406 340.921875 317.460938 341.230469 314.972656 341.472656 C 312.484375 341.71875 309.992188 341.902344 307.492188 342.027344 C 304.996094 342.148438 302.5 342.210938 300 342.210938 C 297.5 342.210938 295 342.148438 292.503906 342.027344 C 290.007812 341.902344 287.511719 341.71875 285.027344 341.472656 C 282.539062 341.230469 280.058594 340.921875 277.585938 340.554688 C 275.109375 340.191406 272.648438 339.761719 270.195312 339.273438 C 267.746094 338.785156 265.304688 338.238281 262.882812 337.632812 C 260.457031 337.023438 258.046875 336.359375 255.65625 335.632812 C 253.261719 334.90625 250.890625 334.121094 248.535156 333.28125 C 246.183594 332.4375 243.851562 331.539062 241.539062 330.582031 C 239.230469 329.625 236.945312 328.613281 234.6875 327.542969 C 232.425781 326.472656 230.191406 325.351562 227.988281 324.171875 C 225.785156 322.992188 223.609375 321.761719 221.464844 320.476562 C 219.320312 319.191406 217.207031 317.855469 215.128906 316.464844 C 213.050781 315.078125 211.007812 313.636719 209 312.148438 C 206.992188 310.660156 205.023438 309.121094 203.089844 307.535156 C 201.15625 305.949219 199.265625 304.316406 197.410156 302.636719 C 195.558594 300.957031 193.75 299.234375 191.980469 297.46875 C 190.214844 295.699219 188.492188 293.890625 186.8125 292.039062 C 185.132812 290.183594 183.5 288.292969 181.914062 286.359375 C 180.328125 284.425781 178.789062 282.457031 177.300781 280.449219 C 175.8125 278.441406 174.375 276.398438 172.984375 274.320312 C 171.59375 272.242188 170.257812 270.128906 168.972656 267.984375 C 167.6875 265.839844 166.457031 263.664062 165.277344 261.460938 C 164.097656 259.257812 162.976562 257.023438 161.90625 254.765625 C 160.835938 252.503906 159.824219 250.21875 158.867188 247.910156 C 157.910156 245.597656 157.011719 243.269531 156.167969 240.914062 C 155.328125 238.558594 154.542969 236.1875 153.816406 233.792969 C 153.089844 231.402344 152.425781 228.992188 151.816406 226.570312 C 151.210938 224.144531 150.664062 221.703125 150.175781 219.253906 C 149.6875 216.800781 149.261719 214.339844 148.894531 211.867188 C 148.527344 209.390625 148.21875 206.910156 147.976562 204.425781 C 147.730469 201.9375 147.546875 199.445312 147.421875 196.945312 C 147.300781 194.449219 147.238281 191.949219 147.238281 189.449219 C 147.238281 186.949219 147.300781 184.453125 147.421875 181.957031 C 147.546875 179.457031 147.730469 176.964844 147.976562 174.476562 C 148.21875 171.988281 148.527344 169.507812 148.894531 167.035156 C 149.261719 164.5625 149.6875 162.101562 150.175781 159.648438 C 150.664062 157.199219 151.210938 154.757812 151.816406 152.332031 C 152.425781 149.910156 153.089844 147.5 153.816406 145.109375 C 154.542969 142.714844 155.328125 140.34375 156.167969 137.988281 C 157.011719 135.632812 157.910156 133.300781 158.867188 130.992188 C 159.824219 128.683594 160.835938 126.398438 161.90625 124.136719 C 162.976562 121.878906 164.097656 119.644531 165.277344 117.441406 C 166.457031 115.234375 167.6875 113.0625 168.972656 110.917969 C 170.257812 108.773438 171.59375 106.660156 172.984375 104.582031 C 174.375 102.503906 175.8125 100.460938 177.300781 98.453125 C 178.789062 96.445312 180.328125 94.472656 181.914062 92.542969 C 183.5 90.609375 185.132812 88.71875 186.8125 86.863281 C 188.492188 85.011719 190.214844 83.203125 191.980469 81.433594 C 193.75 79.667969 195.558594 77.941406 197.410156 76.265625 C 199.265625 74.585938 201.15625 72.953125 203.089844 71.367188 C 205.023438 69.78125 206.992188 68.242188 209 66.753906 C 211.007812 65.265625 213.050781 63.824219 215.128906 62.4375 C 217.210938 61.046875 219.320312 59.710938 221.464844 58.425781 C 223.609375 57.140625 225.785156 55.910156 227.988281 54.730469 C 230.195312 53.550781 232.425781 52.425781 234.6875 51.359375 C 236.945312 50.289062 239.230469 49.277344 241.539062 48.320312 C 243.851562 47.363281 246.183594 46.464844 248.535156 45.621094 C 250.890625 44.78125 253.261719 43.996094 255.65625 43.269531 C 258.046875 42.542969 260.457031 41.878906 262.882812 41.269531 C 265.304688 40.664062 267.746094 40.113281 270.195312 39.628906 C 272.648438 39.140625 275.109375 38.710938 277.585938 38.34375 C 280.058594 37.980469 282.539062 37.671875 285.027344 37.429688 C 287.511719 37.183594 290.007812 37 292.503906 36.875 C 295 36.753906 297.5 36.691406 300 36.691406 C 302.5 36.691406 304.996094 36.753906 307.492188 36.875 C 309.992188 37 312.484375 37.183594 314.972656 37.429688 C 317.460938 37.671875 319.941406 37.980469 322.414062 38.34375 C 324.886719 38.710938 327.347656 39.140625 329.800781 39.628906 C 332.253906 40.113281 334.691406 40.664062 337.117188 41.269531 C 339.539062 41.878906 341.949219 42.542969 344.34375 43.269531 C 346.734375 43.996094 349.109375 44.78125 351.460938 45.621094 C 353.816406 46.464844 356.148438 47.363281 358.457031 48.320312 C 360.765625 49.277344 363.050781 50.289062 365.3125 51.359375 C 367.570312 52.425781 369.804688 53.550781 372.007812 54.730469 C 374.214844 55.910156 376.386719 57.140625 378.53125 58.425781 C 380.675781 59.710938 382.789062 61.046875 384.867188 62.4375 C 386.945312 63.824219 388.988281 65.265625 390.996094 66.753906 C 393.003906 68.242188 394.976562 69.78125 396.90625 71.367188 C 398.839844 72.953125 400.734375 74.585938 402.585938 76.265625 C 404.4375 77.941406 406.246094 79.667969 408.015625 81.433594 C 409.78125 83.203125 411.507812 85.011719 413.183594 86.863281 C 414.863281 88.71875 416.496094 90.609375 418.082031 92.542969 C 419.667969 94.472656 421.207031 96.445312 422.695312 98.453125 C 424.183594 100.460938 425.625 102.503906 427.011719 104.582031 C 428.402344 106.660156 429.738281 108.773438 431.023438 110.917969 C 432.308594 113.0625 433.542969 115.234375 434.71875 117.441406 C 435.898438 119.644531 437.023438 121.878906 438.089844 124.136719 C 439.160156 126.398438 440.171875 128.683594 441.128906 130.992188 C 442.085938 133.300781 442.984375 135.632812 443.828125 137.988281 C 444.667969 140.34375 445.453125 142.714844 446.179688 145.109375 C 446.90625 147.5 447.570312 149.910156 448.179688 152.332031 C 448.785156 154.757812 449.335938 157.199219 449.820312 159.648438 C 450.308594 162.101562 450.738281 164.5625 451.105469 167.035156 C 451.472656 169.507812 451.777344 171.988281 452.023438 174.476562 C 452.265625 176.964844 452.449219 179.457031 452.574219 181.957031 C 452.695312 184.453125 452.757812 186.949219 452.757812 189.449219 Z M 452.757812 189.449219 " fill-opacity="1" fill-rule="nonzero"/><path fill="#979797" d="M 300 342.410156 C 215.65625 342.410156 147.039062 273.792969 147.039062 189.449219 C 147.039062 105.109375 215.65625 36.492188 300 36.492188 C 384.339844 36.492188 452.957031 105.109375 452.957031 189.449219 C 452.957031 273.792969 384.339844 342.410156 300 342.410156 Z M 300 36.890625 C 215.875 36.890625 147.441406 105.328125 147.441406 189.449219 C 147.441406 273.570312 215.878906 342.007812 300 342.007812 C 384.121094 342.007812 452.558594 273.570312 452.558594 189.449219 C 452.558594 105.328125 384.121094 36.890625 300 36.890625 Z M 300 36.890625 " fill-opacity="1" fill-rule="nonzero"/><path fill="#e8e7e7" d="M 390.980469 98.464844 C 392.46875 99.953125 393.921875 101.476562 395.335938 103.039062 C 396.75 104.597656 398.125 106.191406 399.460938 107.820312 C 400.796875 109.449219 402.09375 111.109375 403.347656 112.800781 C 404.601562 114.492188 405.8125 116.210938 406.984375 117.964844 C 408.152344 119.714844 409.28125 121.492188 410.363281 123.300781 C 411.445312 125.105469 412.484375 126.9375 413.476562 128.792969 C 414.46875 130.652344 415.414062 132.53125 416.316406 134.4375 C 417.214844 136.339844 418.066406 138.265625 418.875 140.210938 C 419.679688 142.15625 420.4375 144.117188 421.148438 146.101562 C 421.855469 148.085938 422.515625 150.082031 423.128906 152.097656 C 423.738281 154.113281 424.300781 156.144531 424.8125 158.1875 C 425.324219 160.226562 425.785156 162.28125 426.195312 164.347656 C 426.605469 166.414062 426.96875 168.488281 427.277344 170.570312 C 427.585938 172.652344 427.84375 174.742188 428.050781 176.839844 C 428.253906 178.933594 428.410156 181.035156 428.515625 183.136719 C 428.617188 185.242188 428.667969 187.34375 428.667969 189.449219 C 428.667969 191.554688 428.617188 193.660156 428.515625 195.765625 C 428.410156 197.867188 428.253906 199.96875 428.050781 202.0625 C 427.84375 204.160156 427.585938 206.25 427.277344 208.332031 C 426.96875 210.414062 426.605469 212.488281 426.195312 214.554688 C 425.785156 216.621094 425.324219 218.671875 424.8125 220.714844 C 424.300781 222.757812 423.738281 224.789062 423.128906 226.804688 C 422.515625 228.816406 421.855469 230.816406 421.148438 232.800781 C 420.4375 234.78125 419.679688 236.746094 418.875 238.691406 C 418.066406 240.636719 417.214844 242.5625 416.316406 244.464844 C 415.414062 246.371094 414.46875 248.25 413.476562 250.105469 C 412.484375 251.964844 411.445312 253.796875 410.363281 255.601562 C 409.28125 257.410156 408.152344 259.1875 406.984375 260.9375 C 405.8125 262.6875 404.601562 264.410156 403.347656 266.101562 C 402.09375 267.792969 400.796875 269.453125 399.460938 271.082031 C 398.125 272.707031 396.75 274.300781 395.335938 275.863281 C 393.921875 277.421875 392.46875 278.949219 390.980469 280.4375 C 389.492188 281.925781 387.96875 283.378906 386.40625 284.792969 C 384.847656 286.207031 383.253906 287.582031 381.625 288.917969 C 379.996094 290.253906 378.335938 291.546875 376.644531 292.800781 C 374.953125 294.058594 373.234375 295.269531 371.480469 296.4375 C 369.730469 297.609375 367.953125 298.734375 366.144531 299.816406 C 364.339844 300.902344 362.507812 301.9375 360.652344 302.929688 C 358.792969 303.921875 356.914062 304.871094 355.011719 305.769531 C 353.105469 306.671875 351.183594 307.523438 349.234375 308.328125 C 347.289062 309.136719 345.328125 309.894531 343.34375 310.601562 C 341.359375 311.3125 339.363281 311.972656 337.347656 312.582031 C 335.332031 313.195312 333.304688 313.757812 331.261719 314.269531 C 329.21875 314.78125 327.164062 315.242188 325.097656 315.652344 C 323.03125 316.0625 320.957031 316.421875 318.875 316.730469 C 316.792969 317.039062 314.703125 317.296875 312.605469 317.503906 C 310.511719 317.710938 308.410156 317.867188 306.308594 317.96875 C 304.207031 318.074219 302.101562 318.125 299.996094 318.125 C 297.890625 318.125 295.785156 318.074219 293.679688 317.96875 C 291.578125 317.867188 289.476562 317.710938 287.382812 317.503906 C 285.285156 317.296875 283.199219 317.039062 281.113281 316.730469 C 279.03125 316.421875 276.957031 316.0625 274.890625 315.652344 C 272.828125 315.242188 270.773438 314.78125 268.730469 314.269531 C 266.6875 313.757812 264.65625 313.195312 262.644531 312.582031 C 260.628906 311.972656 258.628906 311.3125 256.644531 310.601562 C 254.664062 309.894531 252.699219 309.136719 250.753906 308.328125 C 248.808594 307.523438 246.882812 306.671875 244.980469 305.769531 C 243.074219 304.871094 241.195312 303.921875 239.339844 302.929688 C 237.480469 301.9375 235.648438 300.902344 233.84375 299.816406 C 232.039062 298.734375 230.257812 297.609375 228.507812 296.4375 C 226.757812 295.269531 225.035156 294.058594 223.34375 292.800781 C 221.652344 291.546875 219.992188 290.253906 218.363281 288.917969 C 216.738281 287.582031 215.144531 286.207031 213.582031 284.792969 C 212.023438 283.378906 210.496094 281.925781 209.007812 280.4375 C 207.519531 278.949219 206.066406 277.421875 204.652344 275.863281 C 203.238281 274.300781 201.863281 272.707031 200.527344 271.082031 C 199.191406 269.453125 197.898438 267.792969 196.644531 266.101562 C 195.390625 264.410156 194.175781 262.6875 193.007812 260.9375 C 191.835938 259.1875 190.710938 257.410156 189.628906 255.601562 C 188.546875 253.796875 187.507812 251.964844 186.515625 250.105469 C 185.523438 248.25 184.574219 246.371094 183.675781 244.464844 C 182.773438 242.5625 181.921875 240.636719 181.117188 238.691406 C 180.308594 236.746094 179.550781 234.78125 178.84375 232.800781 C 178.132812 230.816406 177.472656 228.816406 176.863281 226.804688 C 176.25 224.789062 175.6875 222.757812 175.175781 220.714844 C 174.664062 218.671875 174.203125 216.621094 173.792969 214.554688 C 173.382812 212.488281 173.023438 210.414062 172.714844 208.332031 C 172.40625 206.25 172.148438 204.160156 171.941406 202.0625 C 171.734375 199.96875 171.578125 197.867188 171.476562 195.765625 C 171.371094 193.660156 171.320312 191.554688 171.320312 189.449219 C 171.320312 187.34375 171.371094 185.242188 171.476562 183.136719 C 171.578125 181.035156 171.734375 178.933594 171.941406 176.839844 C 172.148438 174.742188 172.40625 172.652344 172.714844 170.570312 C 173.023438 168.488281 173.382812 166.414062 173.792969 164.347656 C 174.203125 162.28125 174.664062 160.226562 175.175781 158.1875 C 175.6875 156.144531 176.25 154.113281 176.863281 152.097656 C 177.472656 150.082031 178.132812 148.085938 178.84375 146.101562 C 179.550781 144.121094 180.308594 142.15625 181.117188 140.210938 C 181.921875 138.265625 182.773438 136.339844 183.675781 134.4375 C 184.574219 132.53125 185.523438 130.652344 186.515625 128.792969 C 187.507812 126.9375 188.546875 125.105469 189.628906 123.300781 C 190.710938 121.492188 191.835938 119.714844 193.007812 117.964844 C 194.175781 116.210938 195.386719 114.492188 196.644531 112.800781 C 197.898438 111.109375 199.191406 109.449219 200.527344 107.820312 C 201.863281 106.191406 203.238281 104.597656 204.652344 103.039062 C 206.066406 101.476562 207.519531 99.953125 209.007812 98.464844 C 210.496094 96.976562 212.023438 95.523438 213.582031 94.109375 C 215.144531 92.695312 216.738281 91.320312 218.363281 89.984375 C 219.992188 88.648438 221.652344 87.351562 223.34375 86.097656 C 225.035156 84.84375 226.757812 83.632812 228.507812 82.460938 C 230.257812 81.292969 232.035156 80.167969 233.84375 79.082031 C 235.648438 78 237.480469 76.964844 239.339844 75.96875 C 241.195312 74.976562 243.074219 74.03125 244.980469 73.132812 C 246.882812 72.230469 248.808594 71.378906 250.753906 70.570312 C 252.699219 69.765625 254.664062 69.007812 256.644531 68.296875 C 258.628906 67.589844 260.628906 66.929688 262.644531 66.316406 C 264.65625 65.707031 266.6875 65.144531 268.730469 64.632812 C 270.773438 64.121094 272.828125 63.660156 274.890625 63.25 C 276.957031 62.839844 279.03125 62.480469 281.113281 62.167969 C 283.199219 61.859375 285.285156 61.601562 287.382812 61.398438 C 289.476562 61.191406 291.578125 61.035156 293.679688 60.933594 C 295.785156 60.828125 297.890625 60.777344 299.996094 60.777344 C 302.101562 60.777344 304.207031 60.828125 306.308594 60.933594 C 308.410156 61.035156 310.511719 61.191406 312.605469 61.398438 C 314.703125 61.601562 316.792969 61.859375 318.875 62.167969 C 320.957031 62.480469 323.03125 62.839844 325.097656 63.25 C 327.164062 63.660156 329.21875 64.121094 331.261719 64.632812 C 333.304688 65.144531 335.332031 65.707031 337.347656 66.316406 C 339.363281 66.929688 341.359375 67.589844 343.34375 68.296875 C 345.328125 69.007812 347.289062 69.765625 349.234375 70.570312 C 351.183594 71.378906 353.105469 72.230469 355.011719 73.132812 C 356.914062 74.03125 358.792969 74.976562 360.652344 75.96875 C 362.507812 76.964844 364.339844 78 366.148438 79.082031 C 367.953125 80.167969 369.730469 81.292969 371.480469 82.460938 C 373.234375 83.632812 374.953125 84.84375 376.644531 86.097656 C 378.335938 87.351562 379.996094 88.648438 381.625 89.984375 C 383.253906 91.320312 384.847656 92.695312 386.40625 94.109375 C 387.96875 95.523438 389.492188 96.976562 390.980469 98.464844 Z M 390.980469 98.464844 " fill-opacity="1" fill-rule="nonzero"/><path fill="#e8e7e7" d="M 300 318.324219 C 265.574219 318.324219 233.210938 304.917969 208.871094 280.578125 C 184.527344 256.238281 171.125 223.875 171.125 189.449219 C 171.125 155.027344 184.53125 122.664062 208.871094 98.324219 C 233.210938 73.980469 265.574219 60.578125 300 60.578125 C 334.421875 60.578125 366.785156 73.984375 391.125 98.324219 C 415.46875 122.664062 428.871094 155.027344 428.871094 189.449219 C 428.871094 223.875 415.464844 256.238281 391.125 280.578125 C 366.785156 304.921875 334.421875 318.324219 300 318.324219 Z M 300 60.976562 C 229.15625 60.976562 171.523438 118.609375 171.523438 189.449219 C 171.523438 260.292969 229.15625 317.925781 300 317.925781 C 370.839844 317.925781 428.472656 260.292969 428.472656 189.449219 C 428.472656 118.609375 370.839844 60.976562 300 60.976562 Z M 300 60.976562 " fill-opacity="1" fill-rule="nonzero"/><path fill="#8c8c8c" d="M 337.109375 147.007812 C 331.710938 131.847656 319.515625 123.316406 303.691406 123.648438 C 294.316406 123.835938 286.15625 127.394531 280.09375 133.929688 C 271.96875 142.6875 269.597656 154.609375 269.039062 163.066406 L 268.851562 165.941406 L 297.773438 165.941406 L 298.175781 163.722656 C 298.640625 161.148438 299.1875 158.222656 299.277344 157.855469 C 299.929688 155.730469 300.726562 154.300781 301.710938 153.488281 C 302.808594 152.578125 304.570312 152.335938 306.199219 152.867188 C 309.273438 153.875 310.1875 157.78125 310.457031 160.015625 C 310.9375 163.980469 309.84375 168.25 307.460938 171.730469 L 269.011719 227.835938 L 269.011719 255.261719 L 338.496094 255.261719 L 338.496094 226.160156 L 305.433594 226.160156 L 331.464844 188.175781 C 339.828125 175.96875 341.9375 160.578125 337.109375 147.007812 Z M 337.109375 147.007812 " fill-opacity="1" fill-rule="nonzero"/><path fill="#8c8c8c" d="M 338.492188 255.460938 L 269.007812 255.460938 C 268.898438 255.460938 268.808594 255.371094 268.808594 255.261719 L 268.808594 227.832031 C 268.808594 227.792969 268.820312 227.753906 268.84375 227.71875 L 307.292969 171.617188 C 309.648438 168.175781 310.730469 163.957031 310.257812 160.042969 C 309.992188 157.851562 309.101562 154.035156 306.132812 153.058594 C 304.570312 152.550781 302.882812 152.777344 301.835938 153.644531 C 300.882812 154.429688 300.109375 155.828125 299.46875 157.914062 C 299.386719 158.242188 298.863281 161.03125 298.371094 163.761719 L 297.96875 165.976562 C 297.949219 166.074219 297.867188 166.144531 297.769531 166.144531 L 268.847656 166.144531 C 268.792969 166.144531 268.738281 166.121094 268.703125 166.078125 C 268.664062 166.039062 268.644531 165.984375 268.648438 165.929688 L 268.835938 163.054688 C 269.398438 154.566406 271.777344 142.597656 279.941406 133.796875 C 286.046875 127.21875 294.253906 123.640625 303.683594 123.453125 C 319.613281 123.109375 331.859375 131.679688 337.292969 146.945312 C 342.148438 160.574219 340.027344 176.03125 331.625 188.292969 L 305.808594 225.964844 L 338.492188 225.964844 C 338.601562 225.964844 338.691406 226.054688 338.691406 226.164062 L 338.691406 255.265625 C 338.695312 255.371094 338.605469 255.460938 338.492188 255.460938 Z M 269.210938 255.0625 L 338.292969 255.0625 L 338.292969 226.363281 L 305.429688 226.363281 C 305.355469 226.363281 305.289062 226.320312 305.253906 226.253906 C 305.21875 226.1875 305.222656 226.109375 305.265625 226.050781 L 331.296875 188.066406 C 339.625 175.910156 341.726562 160.585938 336.917969 147.074219 C 331.542969 131.984375 319.453125 123.511719 303.695312 123.851562 C 294.375 124.039062 286.265625 127.570312 280.238281 134.070312 C 272.152344 142.785156 269.792969 154.65625 269.238281 163.078125 L 269.0625 165.742188 L 297.601562 165.742188 L 297.976562 163.6875 C 298.421875 161.21875 298.984375 158.195312 299.082031 157.808594 C 299.75 155.632812 300.566406 154.175781 301.582031 153.335938 C 302.726562 152.382812 304.566406 152.125 306.257812 152.679688 C 309.441406 153.722656 310.378906 157.710938 310.652344 159.992188 C 311.140625 164.003906 310.035156 168.324219 307.621094 171.84375 L 269.210938 227.898438 Z M 269.210938 255.0625 " fill-opacity="1" fill-rule="nonzero"/><g clip-path="url(#f81e808d3b)"><path fill="#8c8c8c" d="M 56.824219 394.742188 C 56.824219 394.742188 72.1875 408.792969 92.855469 411.160156 C 108.902344 413 123.421875 407.253906 129.113281 404.59375 C 134.941406 410.355469 141.019531 415.867188 147.324219 421.105469 C 141.0625 418.695312 133.296875 416.65625 124.875 416.613281 C 104.078125 416.519531 87.15625 428.648438 87.15625 428.648438 C 87.15625 428.648438 103.960938 440.941406 124.761719 441.035156 C 140.515625 441.113281 154.035156 434.175781 159.671875 430.800781 C 166.96875 436.210938 174.523438 441.261719 182.308594 445.929688 C 175.730469 444.035156 167.566406 442.632812 158.902344 443.421875 C 138.191406 445.316406 122.503906 459.007812 122.503906 459.007812 C 122.503906 459.007812 140.40625 469.636719 161.125 467.742188 C 177.816406 466.21875 191.234375 457.035156 195.820312 453.527344 C 204.503906 458.089844 213.429688 462.191406 222.570312 465.769531 L 223.28125 463.761719 C 213.261719 459.621094 203.527344 454.765625 194.105469 449.332031 C 197.546875 444.242188 205.625 430.660156 206.285156 414.34375 C 207.125 393.558594 195.605469 376.21875 195.605469 376.21875 C 195.605469 376.21875 182.726562 392.578125 181.882812 413.359375 C 181.304688 427.6875 186.601562 440.378906 189.949219 446.882812 C 181.113281 441.574219 172.566406 435.761719 164.332031 429.574219 C 168.210938 424.484375 176.777344 411.664062 178.417969 395.753906 C 180.550781 375.0625 170.132812 357.035156 170.132812 357.035156 C 170.132812 357.035156 156.257812 372.558594 154.121094 393.25 C 152.742188 406.636719 156.613281 418.898438 159.519531 425.894531 C 156.363281 423.425781 153.246094 420.910156 150.183594 418.339844 C 145.648438 414.546875 141.257812 410.59375 136.976562 406.519531 C 140.648438 401.796875 149.734375 388.652344 151.429688 372.21875 C 153.5625 351.527344 143.144531 333.5 143.144531 333.5 C 143.144531 333.5 129.269531 349.023438 127.132812 369.710938 C 125.777344 382.898438 129.511719 394.992188 132.402344 402.039062 C 124.9375 394.601562 117.882812 386.753906 111.292969 378.53125 C 114.949219 373.066406 122.546875 359.914062 123.265625 344.1875 C 124.214844 323.410156 112.785156 306.007812 112.785156 306.007812 C 112.785156 306.007812 99.816406 322.296875 98.867188 343.074219 C 98.453125 352.207031 100.425781 360.679688 102.769531 367.316406 C 96.949219 359.261719 91.5625 350.902344 86.628906 342.28125 C 90.832031 336.449219 98.132812 324.476562 99.632812 309.917969 C 101.765625 289.226562 91.347656 271.203125 91.347656 271.203125 C 91.347656 271.203125 77.472656 286.722656 75.339844 307.414062 C 74.851562 312.117188 75.019531 316.679688 75.5625 320.929688 C 71.429688 312.011719 67.761719 302.878906 64.605469 293.558594 C 69.621094 288.898438 79.695312 278.140625 84.027344 263.453125 C 89.917969 243.5 82.976562 223.871094 82.976562 223.871094 C 82.976562 223.871094 66.492188 236.589844 60.605469 256.539062 C 59.050781 261.792969 58.398438 267.023438 58.265625 271.882812 C 57.375 268.296875 56.078125 263.054688 55.789062 261.941406 C 54.6875 255.902344 53.261719 249.398438 52.328125 243.355469 L 52.289062 243.066406 C 56.46875 240.15625 69.964844 229.808594 76.550781 213.652344 C 84.40625 194.390625 79.464844 174.167969 79.464844 174.167969 C 79.464844 174.167969 61.789062 185.171875 53.9375 204.433594 C 51.648438 210.046875 50.449219 215.742188 49.894531 220.996094 C 49.75 220 49.558594 218.855469 49.3125 217.597656 C 48.8125 211.691406 48.359375 205.546875 48.328125 200.296875 L 48.21875 196.703125 C 51.003906 192.535156 59.859375 177.921875 60.085938 160.398438 C 60.355469 139.601562 48.367188 122.582031 48.367188 122.582031 C 48.367188 122.582031 35.9375 139.285156 35.667969 160.082031 C 35.457031 176.285156 42.6875 190.195312 45.894531 195.546875 L 45.917969 200.347656 C 45.878906 201.882812 45.886719 203.628906 45.925781 205.480469 C 43.847656 199.882812 40.808594 193.808594 36.371094 188.261719 C 23.371094 172.023438 3.300781 166.488281 3.300781 166.488281 C 3.300781 166.488281 4.304688 187.28125 17.300781 203.523438 C 26.953125 215.578125 40.496094 221.734375 46.835938 224.105469 L 47.039062 227.59375 L 47.648438 233.015625 C 48.195312 238.34375 48.90625 243.65625 49.742188 248.957031 C 46.714844 243.175781 42.421875 236.796875 36.453125 231.378906 C 21.046875 217.402344 0.355469 215.109375 0.355469 215.109375 C 0.355469 215.109375 4.632812 235.484375 20.039062 249.464844 C 31.652344 260.003906 46.273438 263.898438 52.761719 265.175781 C 54.589844 273.660156 56.796875 282.066406 59.378906 290.355469 C 55.976562 285.074219 51.390625 279.421875 45.375 274.738281 C 28.960938 261.964844 8.152344 261.242188 8.152344 261.242188 C 8.152344 261.242188 13.957031 281.234375 30.371094 294.011719 C 43.46875 304.207031 59.359375 306.722656 65.246094 307.324219 C 68.25 315.1875 71.601562 322.910156 75.3125 330.453125 C 70.667969 324.738281 63.875 318.019531 54.953125 313.40625 C 36.476562 303.851562 15.890625 306.953125 15.890625 306.953125 C 15.890625 306.953125 25.261719 325.546875 43.738281 335.097656 C 59.175781 343.082031 76.082031 342.226562 81.222656 341.730469 C 81.652344 342.503906 82.09375 343.273438 82.53125 344.039062 C 83.191406 345.382812 83.621094 346.128906 83.621094 346.128906 L 83.691406 346.046875 C 87.703125 352.945312 92.019531 359.667969 96.617188 366.199219 C 91.042969 361.585938 83.378906 356.535156 74.136719 353.757812 C 54.21875 347.773438 34.554688 354.613281 34.554688 354.613281 C 34.554688 354.613281 47.1875 371.160156 67.105469 377.148438 C 83.117188 381.960938 98.957031 378.488281 104.558594 376.9375 C 109.46875 383.257812 114.652344 389.367188 120.085938 395.25 C 113.769531 391.664062 105.296875 388.003906 95.632812 386.894531 C 74.96875 384.53125 56.824219 394.742188 56.824219 394.742188 Z M 56.824219 394.742188 " fill-opacity="1" fill-rule="nonzero"/></g><g clip-path="url(#c75cea64e7)"><path fill="#8c8c8c" d="M 156.164062 468.167969 C 137.773438 468.167969 122.566406 459.277344 122.402344 459.179688 C 122.347656 459.148438 122.3125 459.089844 122.304688 459.027344 C 122.300781 458.960938 122.324219 458.898438 122.375 458.855469 C 122.53125 458.71875 138.34375 445.101562 158.882812 443.222656 C 165.890625 442.585938 173.308594 443.296875 180.945312 445.34375 C 173.679688 440.933594 166.523438 436.125 159.660156 431.042969 C 154.398438 434.171875 140.777344 441.238281 125.011719 441.238281 C 124.925781 441.238281 124.84375 441.238281 124.757812 441.234375 C 104.132812 441.140625 87.207031 428.933594 87.035156 428.8125 C 86.984375 428.773438 86.953125 428.710938 86.953125 428.648438 C 86.953125 428.585938 86.984375 428.523438 87.039062 428.488281 C 87.207031 428.367188 104.117188 416.414062 124.632812 416.414062 C 124.714844 416.414062 124.792969 416.414062 124.875 416.414062 C 131.800781 416.449219 138.996094 417.820312 146.285156 420.5 C 140.355469 415.53125 134.570312 410.265625 129.070312 404.835938 C 123.421875 407.460938 108.863281 413.203125 92.828125 411.359375 C 72.335938 409.015625 56.839844 395.03125 56.6875 394.890625 C 56.640625 394.847656 56.617188 394.785156 56.625 394.71875 C 56.632812 394.65625 56.667969 394.601562 56.722656 394.566406 C 56.90625 394.464844 75.167969 384.347656 95.652344 386.699219 C 103.417969 387.589844 111.296875 390.203125 119.09375 394.472656 C 113.996094 388.894531 109.082031 383.082031 104.480469 377.167969 C 98.398438 378.835938 82.855469 382.09375 67.046875 377.34375 C 47.292969 371.40625 34.515625 354.902344 34.390625 354.734375 C 34.355469 354.683594 34.339844 354.617188 34.359375 354.554688 C 34.378906 354.496094 34.425781 354.445312 34.484375 354.425781 C 34.683594 354.355469 54.4375 347.632812 74.191406 353.570312 C 81.585938 355.792969 88.792969 359.683594 95.625 365.144531 C 91.371094 359.03125 87.335938 352.710938 83.617188 346.332031 C 83.613281 346.332031 83.605469 346.332031 83.597656 346.332031 C 83.53125 346.324219 83.476562 346.289062 83.445312 346.230469 C 83.441406 346.222656 83.003906 345.464844 82.347656 344.132812 L 82.304688 344.054688 C 81.902344 343.351562 81.503906 342.652344 81.109375 341.949219 C 76.054688 342.421875 59.058594 343.25 43.644531 335.28125 C 25.320312 325.808594 15.800781 307.234375 15.707031 307.046875 C 15.675781 306.992188 15.679688 306.921875 15.707031 306.867188 C 15.738281 306.808594 15.792969 306.769531 15.855469 306.757812 C 16.0625 306.730469 36.71875 303.757812 55.042969 313.230469 C 62.078125 316.871094 68.585938 322.183594 74.398438 329.042969 C 71.035156 322.101562 67.910156 314.867188 65.097656 307.515625 C 58.847656 306.863281 43.214844 304.269531 30.246094 294.171875 C 13.96875 281.503906 8.011719 261.5 7.957031 261.300781 C 7.9375 261.238281 7.953125 261.171875 7.988281 261.121094 C 8.027344 261.070312 8.105469 261.042969 8.15625 261.042969 C 8.363281 261.050781 29.214844 261.914062 45.492188 274.582031 C 50.429688 278.425781 54.890625 283.296875 58.769531 289.070312 C 56.386719 281.277344 54.308594 273.304688 52.589844 265.347656 C 46.570312 264.152344 31.625 260.253906 19.902344 249.613281 C 4.625 235.753906 0.195312 215.359375 0.152344 215.15625 C 0.140625 215.089844 0.15625 215.027344 0.203125 214.980469 C 0.246094 214.929688 0.3125 214.910156 0.371094 214.914062 C 0.578125 214.9375 21.308594 217.371094 36.582031 231.230469 C 41.507812 235.703125 45.804688 241.28125 49.359375 247.820312 C 48.578125 242.742188 47.933594 237.777344 47.445312 233.039062 L 46.835938 227.617188 L 46.636719 224.25 C 39.625 221.609375 26.589844 215.457031 17.140625 203.652344 C 4.25 187.546875 3.105469 166.707031 3.09375 166.5 C 3.09375 166.433594 3.121094 166.375 3.171875 166.332031 C 3.222656 166.292969 3.289062 166.28125 3.347656 166.296875 C 3.550781 166.351562 23.632812 172.035156 36.523438 188.140625 C 40.230469 192.773438 43.316406 198.222656 45.699219 204.339844 C 45.679688 202.847656 45.683594 201.503906 45.710938 200.34375 L 45.6875 195.605469 C 42.519531 190.296875 35.25 176.320312 35.460938 160.078125 C 35.730469 139.457031 48.078125 122.628906 48.199219 122.460938 C 48.238281 122.410156 48.296875 122.378906 48.363281 122.378906 C 48.429688 122.382812 48.488281 122.414062 48.527344 122.464844 C 48.644531 122.636719 60.550781 139.777344 60.28125 160.402344 C 60.058594 177.917969 51.191406 192.59375 48.417969 196.761719 L 48.527344 200.292969 C 48.554688 205.640625 49.039062 212.03125 49.507812 217.578125 C 49.632812 218.226562 49.753906 218.875 49.859375 219.515625 C 50.550781 214.089844 51.855469 208.996094 53.746094 204.355469 C 61.535156 185.257812 79.175781 174.105469 79.355469 173.996094 C 79.410156 173.964844 79.476562 173.960938 79.535156 173.980469 C 79.59375 174.003906 79.636719 174.058594 79.652344 174.121094 C 79.703125 174.324219 84.519531 194.628906 76.730469 213.730469 C 70.160156 229.851562 56.652344 240.253906 52.5 243.164062 L 52.523438 243.332031 C 53.113281 247.15625 53.910156 251.21875 54.683594 255.140625 C 55.121094 257.382812 55.578125 259.699219 55.980469 261.90625 C 56.199219 262.734375 56.984375 265.910156 57.746094 268.984375 L 58.113281 270.460938 C 58.351562 265.535156 59.121094 260.839844 60.40625 256.484375 C 66.246094 236.703125 82.683594 223.839844 82.851562 223.714844 C 82.902344 223.675781 82.96875 223.664062 83.027344 223.679688 C 83.089844 223.699219 83.140625 223.746094 83.160156 223.804688 C 83.230469 224.003906 90.054688 243.722656 84.214844 263.507812 C 79.957031 277.9375 70.285156 288.535156 64.832031 293.617188 C 67.800781 302.371094 71.289062 311.136719 75.210938 319.695312 C 74.753906 315.464844 74.726562 311.332031 75.132812 307.394531 C 77.25 286.875 91.054688 271.226562 91.195312 271.070312 C 91.238281 271.019531 91.296875 270.992188 91.363281 271.003906 C 91.429688 271.007812 91.484375 271.046875 91.515625 271.101562 C 91.621094 271.28125 101.941406 289.421875 99.824219 309.9375 C 98.332031 324.433594 91.097656 336.390625 86.859375 342.292969 C 91.542969 350.460938 96.675781 358.460938 102.132812 366.09375 C 99.492188 358.183594 98.328125 350.445312 98.664062 343.0625 C 99.605469 322.460938 112.492188 306.042969 112.625 305.882812 C 112.664062 305.832031 112.71875 305.804688 112.789062 305.804688 C 112.855469 305.808594 112.914062 305.84375 112.949219 305.898438 C 113.0625 306.070312 124.402344 323.589844 123.460938 344.195312 C 122.738281 360.039062 114.949219 373.390625 111.539062 378.519531 C 117.824219 386.359375 124.652344 393.984375 131.84375 401.199219 C 128.804688 393.523438 125.652344 382.097656 126.929688 369.691406 C 129.046875 349.171875 142.851562 333.519531 142.992188 333.363281 C 143.035156 333.316406 143.097656 333.292969 143.160156 333.296875 C 143.226562 333.304688 143.28125 333.339844 143.316406 333.394531 C 143.417969 333.578125 153.738281 351.714844 151.625 372.234375 C 149.949219 388.484375 141.097656 401.507812 137.238281 406.496094 C 141.617188 410.660156 146.011719 414.589844 150.304688 418.1875 C 153.09375 420.523438 156.027344 422.90625 159.042969 425.269531 C 155.914062 417.527344 152.613281 405.894531 153.917969 393.226562 C 156.035156 372.710938 169.839844 357.058594 169.976562 356.902344 C 170.019531 356.855469 170.085938 356.832031 170.144531 356.835938 C 170.210938 356.84375 170.265625 356.878906 170.300781 356.933594 C 170.402344 357.113281 180.726562 375.253906 178.609375 395.773438 C 176.96875 411.660156 168.367188 424.5625 164.605469 429.535156 C 172.8125 435.695312 181.164062 441.347656 189.445312 446.347656 C 186.15625 439.800781 181.113281 427.34375 181.675781 413.351562 C 182.507812 392.742188 195.3125 376.257812 195.441406 376.09375 C 195.480469 376.042969 195.542969 376.027344 195.605469 376.019531 C 195.671875 376.023438 195.730469 376.054688 195.765625 376.109375 C 195.882812 376.28125 207.3125 393.742188 206.480469 414.351562 C 205.824219 430.523438 197.902344 444.027344 194.382812 449.261719 C 203.953125 454.773438 213.695312 459.585938 223.351562 463.574219 C 223.449219 463.617188 223.496094 463.726562 223.460938 463.828125 L 222.75 465.835938 C 222.730469 465.886719 222.691406 465.925781 222.644531 465.949219 C 222.59375 465.972656 222.539062 465.976562 222.488281 465.957031 C 213.535156 462.445312 204.566406 458.34375 195.832031 453.761719 C 190.8125 457.585938 177.597656 466.4375 161.136719 467.941406 C 159.460938 468.097656 157.800781 468.167969 156.164062 468.167969 Z M 122.851562 458.976562 C 125.078125 460.226562 141.984375 469.289062 161.105469 467.542969 C 177.574219 466.042969 190.78125 457.128906 195.695312 453.367188 C 195.757812 453.320312 195.839844 453.3125 195.910156 453.347656 C 204.605469 457.914062 213.53125 462.003906 222.445312 465.507812 L 223.027344 463.875 C 213.355469 459.867188 203.589844 455.035156 194.003906 449.503906 C 193.957031 449.476562 193.921875 449.429688 193.910156 449.375 C 193.898438 449.320312 193.90625 449.261719 193.9375 449.21875 C 197.371094 444.144531 205.429688 430.589844 206.082031 414.335938 C 206.859375 395.164062 196.949219 378.726562 195.589844 376.570312 C 194.058594 378.613281 182.859375 394.195312 182.082031 413.367188 C 181.503906 427.726562 186.871094 440.46875 190.125 446.789062 C 190.164062 446.871094 190.148438 446.964844 190.082031 447.027344 C 190.015625 447.089844 189.917969 447.097656 189.84375 447.054688 C 181.304688 441.925781 172.679688 436.097656 164.210938 429.734375 C 164.167969 429.703125 164.140625 429.65625 164.132812 429.601562 C 164.125 429.550781 164.140625 429.496094 164.171875 429.453125 C 167.847656 424.632812 176.570312 411.695312 178.214844 395.734375 C 180.183594 376.644531 171.320312 359.625 170.097656 357.382812 C 168.441406 359.328125 156.289062 374.183594 154.320312 393.269531 C 152.984375 406.238281 156.511719 418.125 159.707031 425.816406 C 159.742188 425.898438 159.714844 425.996094 159.644531 426.054688 C 159.570312 426.109375 159.46875 426.105469 159.398438 426.050781 C 156.171875 423.53125 153.027344 420.988281 150.054688 418.492188 C 145.710938 414.855469 141.265625 410.878906 136.839844 406.664062 C 136.761719 406.59375 136.753906 406.476562 136.820312 406.394531 C 140.589844 401.542969 149.546875 388.5 151.230469 372.195312 C 153.199219 353.109375 144.332031 336.085938 143.109375 333.847656 C 141.457031 335.789062 129.304688 350.648438 127.335938 369.730469 C 126.011719 382.5625 129.460938 394.339844 132.589844 401.960938 C 132.625 402.050781 132.59375 402.152344 132.515625 402.203125 C 132.433594 402.257812 132.328125 402.25 132.261719 402.179688 C 124.769531 394.714844 117.660156 386.800781 111.136719 378.65625 C 111.082031 378.589844 111.078125 378.492188 111.128906 378.421875 C 114.476562 373.410156 122.34375 360.046875 123.066406 344.179688 C 123.941406 325.007812 114.117188 308.523438 112.769531 306.355469 C 111.226562 308.390625 99.945312 323.917969 99.070312 343.085938 C 98.71875 350.8125 100.027344 358.941406 102.960938 367.25 C 102.992188 367.34375 102.953125 367.445312 102.863281 367.492188 C 102.773438 367.539062 102.664062 367.511719 102.609375 367.433594 C 96.824219 359.421875 91.386719 350.992188 86.453125 342.378906 C 86.414062 342.3125 86.421875 342.226562 86.464844 342.160156 C 90.667969 336.332031 97.941406 324.382812 99.433594 309.894531 C 101.402344 290.808594 92.539062 273.785156 91.316406 271.546875 C 89.660156 273.488281 77.507812 288.347656 75.539062 307.433594 C 75.097656 311.730469 75.171875 316.261719 75.765625 320.902344 C 75.777344 321 75.71875 321.09375 75.621094 321.121094 C 75.523438 321.148438 75.425781 321.101562 75.386719 321.011719 C 71.222656 312.03125 67.535156 302.816406 64.417969 293.621094 C 64.390625 293.546875 64.414062 293.460938 64.472656 293.410156 C 69.878906 288.386719 79.582031 277.8125 83.839844 263.394531 C 89.269531 244.988281 83.671875 226.632812 82.882812 224.207031 C 80.898438 225.8125 66.230469 238.191406 60.800781 256.59375 C 59.398438 261.335938 58.617188 266.480469 58.46875 271.886719 C 58.46875 271.988281 58.390625 272.070312 58.289062 272.078125 C 58.183594 272.113281 58.097656 272.027344 58.074219 271.929688 L 57.367188 269.074219 C 56.605469 266.003906 55.816406 262.828125 55.597656 261.988281 C 55.191406 259.769531 54.738281 257.453125 54.296875 255.214844 C 53.523438 251.285156 52.726562 247.222656 52.132812 243.386719 L 52.09375 243.09375 C 52.085938 243.019531 52.117188 242.945312 52.179688 242.90625 C 56.191406 240.109375 69.785156 229.726562 76.367188 213.578125 C 83.613281 195.808594 79.878906 176.984375 79.335938 174.492188 C 77.203125 175.890625 61.371094 186.742188 54.125 204.507812 C 52.078125 209.523438 50.726562 215.078125 50.097656 221.015625 C 50.089844 221.117188 50.003906 221.191406 49.902344 221.195312 C 49.789062 221.175781 49.714844 221.125 49.703125 221.023438 C 49.539062 219.925781 49.34375 218.785156 49.121094 217.632812 C 48.648438 212.058594 48.160156 205.65625 48.132812 200.296875 L 48.023438 196.707031 C 48.019531 196.667969 48.035156 196.625 48.054688 196.589844 C 50.773438 192.519531 59.664062 177.878906 59.890625 160.394531 C 60.136719 141.207031 49.785156 125.046875 48.363281 122.929688 C 46.890625 125.011719 36.121094 140.898438 35.871094 160.082031 C 35.660156 176.269531 42.933594 190.203125 46.070312 195.445312 C 46.085938 195.476562 46.097656 195.511719 46.097656 195.546875 L 46.117188 200.347656 C 46.085938 201.796875 46.085938 203.519531 46.125 205.476562 C 46.128906 205.574219 46.058594 205.65625 45.964844 205.675781 C 45.871094 205.695312 45.773438 205.640625 45.738281 205.550781 C 43.320312 199.03125 40.117188 193.257812 36.21875 188.386719 C 24.222656 173.40625 5.964844 167.5 3.523438 166.761719 C 3.707031 169.304688 5.472656 188.414062 17.464844 203.398438 C 26.90625 215.199219 39.964844 221.320312 46.90625 223.917969 C 46.984375 223.945312 47.035156 224.015625 47.039062 224.09375 L 47.242188 227.582031 L 47.847656 232.996094 C 48.375 238.089844 49.078125 243.449219 49.945312 248.925781 C 49.960938 249.023438 49.902344 249.117188 49.808594 249.148438 C 49.71875 249.183594 49.613281 249.136719 49.570312 249.050781 C 45.929688 242.097656 41.472656 236.203125 36.320312 231.527344 C 22.109375 218.632812 3.144531 215.6875 0.617188 215.34375 C 1.203125 217.828125 5.96875 236.421875 20.175781 249.316406 C 31.910156 259.964844 46.902344 263.816406 52.804688 264.980469 C 52.882812 264.996094 52.945312 265.054688 52.960938 265.132812 C 54.78125 273.578125 57.007812 282.046875 59.574219 290.296875 C 59.601562 290.390625 59.558594 290.496094 59.46875 290.539062 C 59.378906 290.578125 59.269531 290.546875 59.214844 290.464844 C 55.183594 284.207031 50.488281 278.972656 45.253906 274.894531 C 30.113281 263.109375 10.980469 261.605469 8.429688 261.457031 C 9.199219 263.886719 15.359375 282.066406 30.5 293.851562 C 43.472656 303.953125 59.136719 306.496094 65.269531 307.125 C 65.34375 307.132812 65.40625 307.179688 65.433594 307.253906 C 68.457031 315.164062 71.84375 322.9375 75.496094 330.363281 C 75.542969 330.453125 75.511719 330.5625 75.425781 330.621094 C 75.339844 330.675781 75.226562 330.65625 75.160156 330.578125 C 69.113281 323.136719 62.289062 317.417969 54.867188 313.582031 C 37.820312 304.769531 18.734375 306.792969 16.203125 307.113281 C 17.40625 309.363281 26.789062 326.105469 43.832031 334.917969 C 59.285156 342.90625 76.34375 342 81.207031 341.53125 C 81.296875 341.519531 81.363281 341.5625 81.402344 341.632812 C 81.816406 342.375 82.238281 343.109375 82.65625 343.851562 L 82.707031 343.941406 C 83.175781 344.894531 83.53125 345.550781 83.695312 345.847656 C 83.699219 345.847656 83.703125 345.847656 83.710938 345.847656 C 83.773438 345.855469 83.832031 345.890625 83.863281 345.949219 C 87.84375 352.785156 92.1875 359.5625 96.78125 366.085938 C 96.839844 366.167969 96.828125 366.28125 96.753906 366.347656 C 96.679688 366.417969 96.566406 366.417969 96.488281 366.355469 C 89.367188 360.453125 81.828125 356.28125 74.082031 353.949219 C 55.710938 348.429688 37.320312 353.933594 34.890625 354.710938 C 36.488281 356.703125 48.789062 371.433594 67.167969 376.953125 C 82.988281 381.710938 98.550781 378.390625 104.507812 376.742188 C 104.582031 376.71875 104.667969 376.75 104.71875 376.8125 C 109.589844 383.078125 114.8125 389.234375 120.238281 395.113281 C 120.304688 395.1875 120.308594 395.296875 120.246094 395.375 C 120.183594 395.453125 120.074219 395.472656 119.992188 395.425781 C 111.886719 390.824219 103.683594 388.019531 95.613281 387.09375 C 76.550781 384.914062 59.429688 393.582031 57.175781 394.78125 C 59.097656 396.457031 73.816406 408.777344 92.878906 410.960938 C 108.929688 412.800781 123.507812 406.992188 129.03125 404.410156 C 129.105469 404.375 129.195312 404.390625 129.257812 404.449219 C 135.058594 410.183594 141.179688 415.734375 147.453125 420.949219 C 147.527344 421.011719 147.546875 421.121094 147.496094 421.207031 C 147.445312 421.289062 147.34375 421.324219 147.253906 421.289062 C 139.628906 418.355469 132.105469 416.847656 124.878906 416.8125 C 124.796875 416.8125 124.714844 416.8125 124.636719 416.8125 C 105.554688 416.8125 89.605469 427.21875 87.507812 428.648438 C 89.601562 430.105469 105.574219 440.742188 124.765625 440.832031 C 124.847656 440.832031 124.933594 440.832031 125.011719 440.832031 C 140.800781 440.832031 154.425781 433.703125 159.570312 430.625 C 159.636719 430.585938 159.726562 430.589844 159.792969 430.636719 C 167.074219 436.035156 174.6875 441.121094 182.410156 445.753906 C 182.496094 445.808594 182.53125 445.914062 182.492188 446.007812 C 182.453125 446.097656 182.351562 446.148438 182.253906 446.121094 C 174.160156 443.789062 166.3125 442.949219 158.921875 443.621094 C 139.808594 445.367188 124.8125 457.34375 122.851562 458.976562 Z M 122.851562 458.976562 " fill-opacity="1" fill-rule="nonzero"/></g><g clip-path="url(#8a155280c2)"><path fill="#8c8c8c" d="M 579.957031 249.464844 C 595.363281 235.484375 599.644531 215.113281 599.644531 215.113281 C 599.644531 215.113281 578.949219 217.402344 563.546875 231.378906 C 557.574219 236.796875 553.28125 243.175781 550.253906 248.957031 C 551.089844 243.660156 551.800781 238.34375 552.351562 233.019531 L 552.960938 227.59375 L 553.164062 224.105469 C 559.5 221.734375 573.042969 215.582031 582.695312 203.523438 C 595.691406 187.285156 596.695312 166.488281 596.695312 166.488281 C 596.695312 166.488281 576.625 172.023438 563.625 188.261719 C 559.1875 193.808594 556.152344 199.882812 554.074219 205.484375 C 554.109375 203.628906 554.117188 201.882812 554.082031 200.351562 L 554.101562 195.550781 C 557.308594 190.195312 564.539062 176.289062 564.332031 160.085938 C 564.058594 139.289062 551.632812 122.582031 551.632812 122.582031 C 551.632812 122.582031 539.640625 139.601562 539.910156 160.402344 C 540.136719 177.925781 548.992188 192.535156 551.777344 196.707031 L 551.667969 200.300781 C 551.636719 205.554688 551.183594 211.699219 550.683594 217.601562 C 550.4375 218.863281 550.246094 220.003906 550.101562 221 C 549.546875 215.746094 548.351562 210.050781 546.0625 204.4375 C 538.207031 185.175781 520.535156 174.171875 520.535156 174.171875 C 520.535156 174.171875 515.59375 194.394531 523.445312 213.65625 C 530.03125 229.816406 543.527344 240.160156 547.707031 243.074219 L 547.667969 243.359375 C 546.734375 249.402344 545.308594 255.90625 544.207031 261.945312 C 543.917969 263.058594 542.621094 268.300781 541.730469 271.886719 C 541.597656 267.027344 540.941406 261.796875 539.390625 256.542969 C 533.503906 236.59375 517.019531 223.875 517.019531 223.875 C 517.019531 223.875 510.078125 243.503906 515.96875 263.457031 C 520.300781 278.144531 530.375 288.90625 535.390625 293.5625 C 532.234375 302.878906 528.566406 312.015625 524.433594 320.933594 C 524.976562 316.683594 525.144531 312.121094 524.65625 307.417969 C 522.523438 286.726562 508.648438 271.207031 508.648438 271.207031 C 508.648438 271.207031 498.230469 289.230469 500.363281 309.921875 C 501.863281 324.480469 509.164062 336.453125 513.367188 342.285156 C 508.429688 350.90625 503.042969 359.265625 497.226562 367.320312 C 499.570312 360.6875 501.542969 352.210938 501.128906 343.082031 C 500.179688 322.304688 487.210938 306.015625 487.210938 306.015625 C 487.210938 306.015625 475.78125 323.414062 476.730469 344.195312 C 477.445312 359.921875 485.046875 373.070312 488.699219 378.539062 C 482.113281 386.761719 475.058594 394.605469 467.59375 402.042969 C 470.484375 394.996094 474.21875 382.902344 472.859375 369.714844 C 470.726562 349.027344 456.851562 333.503906 456.851562 333.503906 C 456.851562 333.503906 446.433594 351.53125 448.566406 372.222656 C 450.261719 388.65625 459.347656 401.800781 463.019531 406.523438 C 458.742188 410.597656 454.34375 414.550781 449.8125 418.34375 C 446.75 420.914062 443.636719 423.429688 440.472656 425.898438 C 443.382812 418.902344 447.253906 406.640625 445.875 393.253906 C 443.738281 372.5625 429.863281 357.039062 429.863281 357.039062 C 429.863281 357.039062 419.445312 375.066406 421.578125 395.757812 C 423.21875 411.667969 431.785156 424.492188 435.664062 429.578125 C 427.429688 435.769531 418.882812 441.578125 410.046875 446.886719 C 413.394531 440.382812 418.691406 427.691406 418.113281 413.363281 C 417.269531 392.582031 404.390625 376.222656 404.390625 376.222656 C 404.390625 376.222656 392.871094 393.566406 393.707031 414.351562 C 394.367188 430.664062 402.445312 444.25 405.890625 449.335938 C 396.46875 454.769531 386.734375 459.625 376.714844 463.765625 L 377.425781 465.773438 C 386.5625 462.195312 395.488281 458.09375 404.175781 453.53125 C 408.757812 457.039062 422.175781 466.226562 438.871094 467.75 C 459.585938 469.640625 477.488281 459.011719 477.488281 459.011719 C 477.488281 459.011719 461.804688 445.320312 441.089844 443.425781 C 432.425781 442.636719 424.261719 444.039062 417.6875 445.933594 C 425.472656 441.265625 433.027344 436.214844 440.320312 430.804688 C 445.960938 434.179688 459.480469 441.117188 475.230469 441.042969 C 496.035156 440.945312 512.839844 428.652344 512.839844 428.652344 C 512.839844 428.652344 495.917969 416.523438 475.117188 416.617188 C 466.699219 416.660156 458.933594 418.699219 452.671875 421.109375 C 458.972656 415.871094 465.050781 410.359375 470.882812 404.597656 C 476.570312 407.257812 491.09375 413.003906 507.140625 411.164062 C 527.808594 408.796875 543.167969 394.746094 543.167969 394.746094 C 543.167969 394.746094 525.023438 384.535156 504.359375 386.902344 C 494.695312 388.007812 486.21875 391.671875 479.90625 395.257812 C 485.335938 389.375 490.523438 383.261719 495.433594 376.945312 C 501.035156 378.492188 516.875 381.96875 532.882812 377.152344 C 552.804688 371.167969 565.4375 354.617188 565.4375 354.617188 C 565.4375 354.617188 545.773438 347.78125 525.855469 353.765625 C 516.613281 356.542969 508.945312 361.589844 503.375 366.207031 C 507.972656 359.675781 512.289062 352.953125 516.300781 346.054688 L 516.371094 346.136719 C 516.371094 346.136719 516.800781 345.390625 517.460938 344.046875 C 517.898438 343.277344 518.335938 342.511719 518.769531 341.738281 C 523.910156 342.234375 540.816406 343.089844 556.253906 335.105469 C 574.730469 325.550781 584.101562 306.960938 584.101562 306.960938 C 584.101562 306.960938 563.515625 303.859375 545.039062 313.414062 C 536.117188 318.027344 529.324219 324.742188 524.679688 330.460938 C 528.390625 322.914062 531.742188 315.191406 534.746094 307.332031 C 540.632812 306.730469 556.519531 304.214844 569.621094 294.019531 C 586.035156 281.242188 591.839844 261.25 591.839844 261.25 C 591.839844 261.25 571.035156 261.96875 554.617188 274.746094 C 548.601562 279.429688 544.015625 285.082031 540.613281 290.363281 C 543.191406 282.074219 545.402344 273.667969 547.230469 265.183594 C 553.722656 263.898438 568.34375 260.003906 579.957031 249.464844 Z M 579.957031 249.464844 " fill-opacity="1" fill-rule="nonzero"/></g><g clip-path="url(#bd7c7d1dbd)"><path fill="#8c8c8c" d="M 443.832031 468.167969 C 442.195312 468.167969 440.535156 468.097656 438.855469 467.941406 C 422.390625 466.441406 409.179688 457.589844 404.160156 453.761719 C 395.429688 458.34375 386.460938 462.445312 377.503906 465.957031 C 377.453125 465.976562 377.394531 465.976562 377.347656 465.953125 C 377.296875 465.929688 377.257812 465.886719 377.242188 465.835938 L 376.53125 463.828125 C 376.492188 463.730469 376.542969 463.617188 376.640625 463.578125 C 386.292969 459.589844 396.039062 454.777344 405.605469 449.265625 C 402.089844 444.03125 394.164062 430.523438 393.511719 414.355469 C 392.679688 393.742188 404.109375 376.285156 404.226562 376.109375 C 404.261719 376.054688 404.320312 376.023438 404.386719 376.019531 C 404.445312 376.007812 404.511719 376.046875 404.550781 376.097656 C 404.679688 376.261719 417.480469 392.742188 418.316406 413.351562 C 418.878906 427.34375 413.835938 439.804688 410.546875 446.347656 C 418.828125 441.347656 427.179688 435.691406 435.386719 429.535156 C 431.625 424.5625 423.023438 411.65625 421.382812 395.773438 C 419.269531 375.253906 429.585938 357.117188 429.691406 356.9375 C 429.722656 356.878906 429.78125 356.84375 429.84375 356.835938 C 429.910156 356.828125 429.972656 356.855469 430.015625 356.902344 C 430.15625 357.058594 443.957031 372.710938 446.074219 393.230469 C 447.382812 405.894531 444.082031 417.527344 440.949219 425.269531 C 443.972656 422.898438 446.910156 420.515625 449.6875 418.1875 C 453.972656 414.597656 458.367188 410.664062 462.75 406.5 C 458.894531 401.507812 450.042969 388.484375 448.367188 372.238281 C 446.25 351.71875 456.574219 333.578125 456.675781 333.398438 C 456.710938 333.34375 456.765625 333.304688 456.832031 333.300781 C 456.890625 333.292969 456.957031 333.316406 457 333.367188 C 457.140625 333.519531 470.941406 349.175781 473.0625 369.691406 C 474.339844 382.101562 471.183594 393.527344 468.144531 401.203125 C 475.34375 393.984375 482.167969 386.359375 488.453125 378.523438 C 485.042969 373.394531 477.25 360.042969 476.53125 344.199219 C 475.589844 323.59375 486.929688 306.074219 487.042969 305.898438 C 487.078125 305.847656 487.136719 305.8125 487.203125 305.808594 C 487.269531 305.8125 487.328125 305.835938 487.367188 305.886719 C 487.496094 306.046875 500.386719 322.464844 501.328125 343.066406 C 501.664062 350.449219 500.496094 358.191406 497.859375 366.09375 C 503.3125 358.46875 508.445312 350.46875 513.132812 342.292969 C 508.894531 336.394531 501.660156 324.4375 500.167969 309.941406 C 498.050781 289.421875 508.371094 271.28125 508.476562 271.101562 C 508.507812 271.046875 508.5625 271.011719 508.628906 271.003906 C 508.6875 270.992188 508.753906 271.023438 508.796875 271.070312 C 508.9375 271.226562 522.742188 286.878906 524.859375 307.394531 C 525.265625 311.335938 525.238281 315.46875 524.78125 319.699219 C 528.707031 311.128906 532.195312 302.363281 535.160156 293.621094 C 529.707031 288.535156 520.03125 277.933594 515.777344 263.511719 C 509.9375 243.726562 516.761719 224.003906 516.832031 223.808594 C 516.851562 223.746094 516.902344 223.699219 516.964844 223.683594 C 517.023438 223.664062 517.089844 223.675781 517.140625 223.714844 C 517.308594 223.84375 533.746094 236.703125 539.585938 256.484375 C 540.871094 260.847656 541.644531 265.542969 541.878906 270.460938 L 542.265625 268.90625 C 543.019531 265.867188 543.796875 262.726562 544.015625 261.894531 C 544.414062 259.703125 544.871094 257.386719 545.308594 255.152344 C 546.078125 251.222656 546.878906 247.164062 547.46875 243.332031 L 547.492188 243.167969 C 543.335938 240.253906 529.832031 229.851562 523.261719 213.734375 C 515.472656 194.632812 520.289062 174.324219 520.339844 174.125 C 520.355469 174.0625 520.398438 174.011719 520.457031 173.984375 C 520.519531 173.960938 520.585938 173.964844 520.640625 174 C 520.816406 174.109375 538.457031 185.261719 546.246094 204.359375 C 548.140625 209 549.445312 214.09375 550.132812 219.523438 C 550.242188 218.882812 550.359375 218.226562 550.488281 217.5625 C 550.953125 212.046875 551.4375 205.660156 551.46875 200.300781 L 551.574219 196.765625 C 548.800781 192.597656 539.9375 177.921875 539.710938 160.40625 C 539.441406 139.777344 551.347656 122.640625 551.46875 122.46875 C 551.503906 122.414062 551.566406 122.382812 551.628906 122.382812 C 551.703125 122.40625 551.753906 122.414062 551.789062 122.464844 C 551.914062 122.632812 564.261719 139.460938 564.53125 160.085938 C 564.742188 176.328125 557.472656 190.304688 554.300781 195.609375 L 554.28125 200.355469 C 554.308594 201.511719 554.3125 202.851562 554.292969 204.347656 C 556.675781 198.226562 559.761719 192.777344 563.46875 188.144531 C 576.359375 172.042969 596.441406 166.355469 596.640625 166.300781 C 596.703125 166.285156 596.769531 166.296875 596.820312 166.335938 C 596.871094 166.378906 596.898438 166.4375 596.894531 166.503906 C 596.886719 166.710938 595.742188 187.550781 582.851562 203.65625 C 573.402344 215.460938 560.367188 221.613281 553.355469 224.253906 L 553.160156 227.609375 L 552.550781 233.046875 C 552.0625 237.78125 551.417969 242.746094 550.632812 247.824219 C 554.1875 241.28125 558.484375 235.707031 563.410156 231.234375 C 578.683594 217.375 599.414062 214.941406 599.621094 214.917969 C 599.683594 214.910156 599.746094 214.933594 599.792969 214.980469 C 599.835938 215.03125 599.851562 215.09375 599.839844 215.160156 C 599.796875 215.363281 595.367188 235.757812 580.089844 249.617188 L 579.957031 249.46875 L 580.089844 249.617188 C 568.371094 260.257812 553.421875 264.152344 547.402344 265.351562 C 545.683594 273.308594 543.605469 281.28125 541.222656 289.074219 C 545.101562 283.296875 549.5625 278.429688 554.5 274.585938 C 570.777344 261.917969 591.628906 261.054688 591.839844 261.046875 C 591.921875 261.046875 591.964844 261.074219 592.003906 261.125 C 592.042969 261.175781 592.054688 261.242188 592.035156 261.304688 C 591.976562 261.503906 586.023438 281.503906 569.746094 294.175781 C 556.777344 304.273438 541.144531 306.867188 534.894531 307.519531 C 532.082031 314.871094 528.953125 322.101562 525.59375 329.046875 C 531.40625 322.1875 537.910156 316.875 544.945312 313.234375 C 563.269531 303.761719 583.925781 306.730469 584.132812 306.761719 C 584.195312 306.773438 584.25 306.8125 584.28125 306.867188 C 584.3125 306.925781 584.3125 306.992188 584.28125 307.050781 C 584.1875 307.238281 574.671875 325.808594 556.347656 335.285156 C 540.933594 343.253906 523.9375 342.421875 518.878906 341.949219 C 518.488281 342.652344 518.089844 343.351562 517.691406 344.050781 L 517.636719 344.148438 C 516.988281 345.46875 516.550781 346.226562 516.546875 346.234375 C 516.515625 346.289062 516.457031 346.328125 516.394531 346.332031 C 516.386719 346.335938 516.382812 346.335938 516.375 346.335938 L 516.371094 346.335938 C 512.660156 352.707031 508.625 359.027344 504.367188 365.144531 C 511.199219 359.6875 518.40625 355.796875 525.796875 353.574219 C 545.550781 347.636719 565.308594 354.359375 565.507812 354.429688 C 565.570312 354.449219 565.617188 354.5 565.632812 354.558594 C 565.652344 354.621094 565.640625 354.6875 565.601562 354.738281 C 565.472656 354.90625 552.699219 371.40625 532.945312 377.34375 C 517.136719 382.09375 501.597656 378.84375 495.511719 377.171875 C 490.90625 383.089844 485.996094 388.902344 480.898438 394.472656 C 488.695312 390.207031 496.574219 387.59375 504.339844 386.703125 C 524.828125 384.355469 543.085938 394.46875 543.269531 394.570312 C 543.324219 394.601562 543.363281 394.65625 543.367188 394.722656 C 543.378906 394.785156 543.351562 394.851562 543.304688 394.894531 C 543.152344 395.035156 527.660156 409.015625 507.164062 411.363281 C 491.128906 413.207031 476.570312 407.464844 470.925781 404.839844 C 465.425781 410.269531 459.636719 415.535156 453.710938 420.503906 C 461 417.828125 468.195312 416.453125 475.121094 416.417969 C 475.199219 416.417969 475.285156 416.414062 475.363281 416.414062 C 495.882812 416.414062 512.789062 428.367188 512.957031 428.492188 C 513.011719 428.527344 513.042969 428.585938 513.042969 428.652344 C 513.042969 428.71875 513.011719 428.777344 512.960938 428.816406 C 512.792969 428.9375 495.863281 441.144531 475.234375 441.238281 C 459.359375 441.324219 445.625 434.191406 440.335938 431.042969 C 433.476562 436.125 426.320312 440.929688 419.050781 445.347656 C 426.6875 443.296875 434.105469 442.585938 441.113281 443.226562 C 461.652344 445.101562 477.46875 458.722656 477.625 458.859375 C 477.671875 458.902344 477.695312 458.964844 477.691406 459.027344 C 477.6875 459.089844 477.648438 459.148438 477.59375 459.183594 C 477.429688 459.277344 462.222656 468.164062 443.832031 468.167969 Z M 404.179688 453.324219 C 404.222656 453.324219 404.265625 453.339844 404.300781 453.367188 C 409.214844 457.128906 422.421875 466.039062 438.894531 467.542969 C 458.003906 469.296875 474.921875 460.226562 477.144531 458.976562 C 475.183594 457.34375 460.183594 445.367188 441.078125 443.621094 C 433.683594 442.949219 425.835938 443.789062 417.746094 446.121094 C 417.648438 446.148438 417.546875 446.101562 417.507812 446.007812 C 417.464844 445.917969 417.5 445.808594 417.585938 445.757812 C 425.316406 441.121094 432.929688 436.035156 440.207031 430.640625 C 440.269531 430.589844 440.359375 430.585938 440.429688 430.628906 C 445.574219 433.707031 459.203125 440.835938 474.984375 440.835938 C 475.066406 440.835938 475.152344 440.835938 475.234375 440.832031 C 494.421875 440.746094 510.398438 430.105469 512.492188 428.648438 C 510.390625 427.21875 494.445312 416.8125 475.363281 416.8125 C 475.28125 416.8125 475.203125 416.8125 475.121094 416.8125 C 467.894531 416.847656 460.367188 418.355469 452.746094 421.292969 C 452.65625 421.324219 452.550781 421.289062 452.5 421.207031 C 452.453125 421.121094 452.46875 421.015625 452.546875 420.953125 C 458.820312 415.738281 464.941406 410.1875 470.742188 404.453125 C 470.804688 404.394531 470.894531 404.378906 470.96875 404.410156 C 476.488281 406.996094 491.0625 412.804688 507.121094 410.960938 C 526.183594 408.777344 540.902344 396.457031 542.824219 394.78125 C 540.570312 393.585938 523.449219 384.917969 504.386719 387.09375 C 496.3125 388.019531 488.113281 390.824219 480.007812 395.425781 C 479.921875 395.472656 479.8125 395.453125 479.753906 395.375 C 479.691406 395.296875 479.695312 395.1875 479.761719 395.113281 C 485.183594 389.242188 490.40625 383.085938 495.28125 376.816406 C 495.332031 376.75 495.417969 376.722656 495.492188 376.746094 C 501.449219 378.390625 517.011719 381.710938 532.832031 376.957031 C 551.207031 371.433594 563.511719 356.703125 565.109375 354.714844 C 562.679688 353.933594 544.289062 348.429688 525.917969 353.953125 C 518.171875 356.28125 510.632812 360.453125 503.507812 366.355469 C 503.433594 366.421875 503.320312 366.417969 503.246094 366.351562 C 503.171875 366.28125 503.160156 366.167969 503.21875 366.085938 C 507.816406 359.558594 512.160156 352.78125 516.132812 345.949219 C 516.167969 345.894531 516.222656 345.855469 516.289062 345.851562 C 516.292969 345.851562 516.296875 345.847656 516.304688 345.847656 C 516.46875 345.550781 516.820312 344.898438 517.285156 343.953125 L 517.347656 343.84375 C 517.765625 343.109375 518.183594 342.375 518.597656 341.632812 C 518.636719 341.5625 518.707031 341.523438 518.792969 341.53125 C 523.648438 342 540.714844 342.910156 556.164062 334.921875 C 573.210938 326.109375 582.59375 309.363281 583.792969 307.113281 C 581.265625 306.796875 562.175781 304.769531 545.132812 313.582031 C 537.710938 317.421875 530.882812 323.136719 524.835938 330.578125 C 524.773438 330.65625 524.660156 330.675781 524.574219 330.621094 C 524.488281 330.566406 524.457031 330.457031 524.503906 330.363281 C 528.15625 322.941406 531.539062 315.164062 534.5625 307.253906 C 534.589844 307.183594 534.65625 307.132812 534.730469 307.125 C 540.863281 306.5 556.523438 303.953125 569.5 293.851562 C 584.640625 282.066406 590.796875 263.886719 591.570312 261.457031 C 589.023438 261.605469 569.886719 263.113281 554.746094 274.898438 C 549.515625 278.972656 544.816406 284.207031 540.785156 290.464844 C 540.730469 290.550781 540.621094 290.578125 540.53125 290.539062 C 540.441406 290.496094 540.394531 290.394531 540.425781 290.296875 C 542.992188 282.046875 545.21875 273.582031 547.039062 265.136719 C 547.054688 265.058594 547.117188 264.996094 547.195312 264.980469 C 553.097656 263.820312 568.089844 259.964844 579.824219 249.316406 C 594.035156 236.421875 598.800781 217.832031 599.382812 215.347656 C 596.855469 215.6875 577.886719 218.632812 563.679688 231.527344 C 558.527344 236.203125 554.070312 242.097656 550.429688 249.050781 C 550.386719 249.140625 550.28125 249.183594 550.191406 249.148438 C 550.097656 249.117188 550.039062 249.027344 550.054688 248.929688 C 550.921875 243.449219 551.625 238.089844 552.148438 233 L 552.761719 227.570312 L 552.960938 224.09375 C 552.964844 224.015625 553.015625 223.949219 553.09375 223.917969 C 560.035156 221.320312 573.09375 215.203125 582.539062 203.398438 C 594.53125 188.414062 596.292969 169.304688 596.476562 166.761719 C 594.035156 167.5 575.773438 173.410156 563.78125 188.390625 C 559.882812 193.257812 556.679688 199.035156 554.261719 205.550781 C 554.226562 205.644531 554.132812 205.695312 554.035156 205.679688 C 553.9375 205.660156 553.867188 205.574219 553.871094 205.476562 C 553.910156 203.519531 553.914062 201.796875 553.878906 200.351562 L 553.902344 195.546875 C 553.902344 195.511719 553.910156 195.476562 553.929688 195.445312 C 557.066406 190.207031 564.339844 176.273438 564.128906 160.082031 C 563.878906 140.898438 553.109375 125.011719 551.636719 122.929688 C 550.214844 125.050781 539.859375 141.207031 540.109375 160.394531 C 540.335938 177.878906 549.226562 192.519531 551.945312 196.589844 C 551.96875 196.625 551.980469 196.667969 551.976562 196.707031 L 551.867188 200.304688 C 551.839844 205.675781 551.351562 212.066406 550.882812 217.613281 C 550.652344 218.800781 550.457031 219.941406 550.296875 221.023438 C 550.285156 221.121094 550.199219 221.195312 550.101562 221.195312 C 550.097656 221.195312 550.097656 221.195312 550.097656 221.195312 C 549.996094 221.191406 549.910156 221.117188 549.898438 221.015625 C 549.277344 215.082031 547.921875 209.527344 545.875 204.507812 C 538.628906 186.738281 522.796875 175.890625 520.664062 174.492188 C 520.117188 176.984375 516.386719 195.808594 523.628906 213.578125 C 530.210938 229.722656 543.808594 240.109375 547.820312 242.90625 C 547.878906 242.949219 547.914062 243.023438 547.902344 243.097656 L 547.863281 243.382812 C 547.269531 247.230469 546.472656 251.292969 545.703125 255.222656 C 545.261719 257.460938 544.808594 259.773438 544.40625 261.980469 C 544.183594 262.824219 543.402344 265.964844 542.652344 269 L 541.925781 271.933594 C 541.902344 272.027344 541.820312 272.113281 541.707031 272.082031 C 541.609375 272.074219 541.535156 271.988281 541.53125 271.890625 C 541.382812 266.488281 540.601562 261.339844 539.199219 256.597656 C 533.765625 238.191406 519.097656 225.816406 517.117188 224.207031 C 516.324219 226.632812 510.726562 244.992188 516.160156 263.394531 C 520.414062 277.8125 530.121094 288.390625 535.527344 293.410156 C 535.585938 293.464844 535.605469 293.546875 535.582031 293.625 C 532.46875 302.8125 528.777344 312.027344 524.613281 321.015625 C 524.574219 321.105469 524.472656 321.152344 524.375 321.121094 C 524.28125 321.097656 524.222656 321.003906 524.234375 320.90625 C 524.824219 316.265625 524.902344 311.734375 524.457031 307.433594 C 522.488281 288.347656 510.335938 273.492188 508.683594 271.550781 C 507.460938 273.789062 498.59375 290.8125 500.566406 309.902344 C 502.058594 324.390625 509.332031 336.335938 513.535156 342.167969 C 513.578125 342.230469 513.582031 342.3125 513.542969 342.382812 C 508.609375 351.003906 503.171875 359.433594 497.390625 367.4375 C 497.332031 367.515625 497.222656 367.542969 497.136719 367.496094 C 497.046875 367.449219 497.003906 367.34375 497.039062 367.253906 C 499.972656 358.949219 501.28125 350.820312 500.929688 343.089844 C 500.054688 323.921875 488.769531 308.394531 487.230469 306.359375 C 485.882812 308.527344 476.058594 325.015625 476.933594 344.183594 C 477.65625 360.050781 485.523438 373.414062 488.871094 378.425781 C 488.917969 378.496094 488.914062 378.59375 488.859375 378.660156 C 482.339844 386.800781 475.234375 394.714844 467.738281 402.183594 C 467.667969 402.253906 467.5625 402.261719 467.484375 402.207031 C 467.40625 402.15625 467.375 402.054688 467.410156 401.964844 C 470.535156 394.34375 473.984375 382.566406 472.664062 369.734375 C 470.695312 350.652344 458.542969 335.792969 456.890625 333.851562 C 455.667969 336.089844 446.800781 353.113281 448.769531 372.199219 C 450.449219 388.5 459.410156 401.546875 463.183594 406.398438 C 463.246094 406.480469 463.238281 406.597656 463.164062 406.667969 C 458.730469 410.886719 454.28125 414.867188 449.949219 418.496094 C 446.984375 420.984375 443.84375 423.527344 440.605469 426.054688 C 440.53125 426.109375 440.433594 426.113281 440.359375 426.058594 C 440.285156 426.003906 440.261719 425.90625 440.296875 425.820312 C 443.492188 418.132812 447.015625 406.246094 445.679688 393.273438 C 443.710938 374.1875 431.558594 359.332031 429.90625 357.386719 C 428.683594 359.628906 419.816406 376.648438 421.785156 395.738281 C 423.429688 411.695312 432.152344 424.636719 435.828125 429.460938 C 435.859375 429.5 435.875 429.554688 435.867188 429.605469 C 435.859375 429.660156 435.832031 429.707031 435.789062 429.738281 C 427.328125 436.101562 418.703125 441.925781 410.15625 447.058594 C 410.082031 447.105469 409.984375 447.09375 409.917969 447.03125 C 409.851562 446.972656 409.835938 446.875 409.878906 446.792969 C 413.128906 440.476562 418.5 427.730469 417.917969 413.371094 C 417.144531 394.199219 405.941406 378.617188 404.410156 376.574219 C 403.050781 378.730469 393.144531 395.167969 393.917969 414.339844 C 394.574219 430.597656 402.628906 444.148438 406.0625 449.222656 C 406.09375 449.269531 406.105469 449.324219 406.09375 449.378906 C 406.082031 449.433594 406.046875 449.480469 406 449.507812 C 396.414062 455.039062 386.648438 459.871094 376.976562 463.878906 L 377.554688 465.511719 C 386.472656 462.007812 395.402344 457.917969 404.089844 453.351562 C 404.113281 453.335938 404.148438 453.324219 404.179688 453.324219 Z M 404.179688 453.324219 " fill-opacity="1" fill-rule="nonzero"/></g><g clip-path="url(#a1b4dd2024)"><path fill="#8c8c8c" d="M 310.683594 434.921875 L 296.816406 406.828125 L 282.953125 434.921875 L 251.945312 439.429688 L 274.382812 461.296875 L 269.085938 492.175781 L 296.816406 477.597656 L 324.550781 492.175781 L 319.253906 461.296875 L 341.6875 439.429688 Z M 310.683594 434.921875 " fill-opacity="1" fill-rule="nonzero"/><path fill="#8c8c8c" d="M 324.550781 492.378906 C 324.515625 492.378906 324.484375 492.371094 324.457031 492.355469 L 296.816406 477.824219 L 269.179688 492.355469 C 269.113281 492.390625 269.03125 492.386719 268.96875 492.339844 C 268.90625 492.292969 268.878906 492.21875 268.890625 492.144531 L 274.167969 461.367188 L 251.808594 439.570312 C 251.753906 439.515625 251.730469 439.4375 251.757812 439.367188 C 251.78125 439.292969 251.84375 439.238281 251.917969 439.230469 L 282.820312 434.738281 L 296.636719 406.738281 C 296.707031 406.601562 296.929688 406.601562 296.996094 406.738281 L 310.816406 434.738281 L 341.714844 439.230469 C 341.792969 439.238281 341.855469 439.292969 341.878906 439.367188 C 341.902344 439.4375 341.882812 439.519531 341.828125 439.570312 L 319.464844 461.367188 L 324.742188 492.144531 C 324.757812 492.21875 324.726562 492.292969 324.664062 492.339844 C 324.632812 492.363281 324.589844 492.378906 324.550781 492.378906 Z M 296.816406 477.398438 C 296.847656 477.398438 296.882812 477.40625 296.910156 477.417969 L 324.28125 491.8125 L 319.054688 461.332031 C 319.042969 461.265625 319.066406 461.199219 319.113281 461.15625 L 341.257812 439.570312 L 310.652344 435.121094 C 310.589844 435.113281 310.53125 435.070312 310.503906 435.011719 L 296.816406 407.28125 L 283.132812 435.011719 C 283.101562 435.070312 283.046875 435.113281 282.980469 435.121094 L 252.375 439.570312 L 274.519531 461.15625 C 274.566406 461.199219 274.589844 461.265625 274.578125 461.332031 L 269.351562 491.8125 L 296.726562 477.417969 C 296.753906 477.40625 296.785156 477.398438 296.816406 477.398438 Z M 296.816406 477.398438 " fill-opacity="1" fill-rule="nonzero"/></g></svg>