<svg xmlns="http://www.w3.org/2000/svg" xmlns:xlink="http://www.w3.org/1999/xlink" width="800" zoomAndPan="magnify" viewBox="0 0 600 516.750002" height="689" preserveAspectRatio="xMidYMid meet" version="1.0"><defs><clipPath id="8751ca79a6"><path d="M 0.144531 146 L 224 146 L 224 493 L 0.144531 493 Z M 0.144531 146 " clip-rule="nonzero"/></clipPath><clipPath id="1a623144e4"><path d="M 376 146 L 599.855469 146 L 599.855469 493 L 376 493 Z M 376 146 " clip-rule="nonzero"/></clipPath><clipPath id="23dc38d2a9"><path d="M 251 430 L 342 430 L 342 516.5 L 251 516.5 Z M 251 430 " clip-rule="nonzero"/></clipPath></defs><path fill="#f6ac69" d="M 489.195312 213.539062 C 489.195312 216.632812 489.117188 219.730469 488.96875 222.820312 C 488.816406 225.914062 488.585938 229 488.285156 232.082031 C 487.980469 235.164062 487.601562 238.238281 487.148438 241.300781 C 486.691406 244.363281 486.164062 247.414062 485.558594 250.449219 C 484.957031 253.484375 484.277344 256.507812 483.523438 259.507812 C 482.773438 262.511719 481.945312 265.496094 481.046875 268.460938 C 480.148438 271.421875 479.179688 274.363281 478.136719 277.277344 C 477.09375 280.191406 475.976562 283.082031 474.792969 285.941406 C 473.609375 288.800781 472.355469 291.632812 471.03125 294.429688 C 469.707031 297.230469 468.3125 299.996094 466.855469 302.726562 C 465.394531 305.457031 463.871094 308.148438 462.277344 310.804688 C 460.6875 313.460938 459.03125 316.078125 457.308594 318.652344 C 455.589844 321.226562 453.808594 323.757812 451.960938 326.242188 C 450.117188 328.730469 448.214844 331.171875 446.25 333.5625 C 444.285156 335.957031 442.261719 338.300781 440.183594 340.597656 C 438.105469 342.890625 435.96875 345.132812 433.78125 347.320312 C 431.589844 349.511719 429.347656 351.644531 427.054688 353.726562 C 424.761719 355.804688 422.417969 357.824219 420.023438 359.789062 C 417.628906 361.753906 415.1875 363.660156 412.703125 365.503906 C 410.214844 367.347656 407.683594 369.128906 405.109375 370.851562 C 402.535156 372.570312 399.921875 374.226562 397.265625 375.820312 C 394.609375 377.410156 391.914062 378.9375 389.183594 380.394531 C 386.453125 381.855469 383.6875 383.246094 380.890625 384.570312 C 378.089844 385.894531 375.261719 387.148438 372.398438 388.335938 C 369.539062 389.519531 366.652344 390.632812 363.734375 391.675781 C 360.820312 392.71875 357.882812 393.691406 354.917969 394.589844 C 351.957031 395.488281 348.972656 396.3125 345.96875 397.066406 C 342.964844 397.820312 339.945312 398.496094 336.90625 399.101562 C 333.871094 399.703125 330.820312 400.234375 327.757812 400.6875 C 324.695312 401.144531 321.625 401.523438 318.542969 401.824219 C 315.460938 402.128906 312.375 402.355469 309.28125 402.507812 C 306.1875 402.660156 303.09375 402.734375 299.996094 402.734375 C 296.902344 402.734375 293.804688 402.660156 290.714844 402.507812 C 287.621094 402.355469 284.535156 402.128906 281.453125 401.824219 C 278.371094 401.523438 275.300781 401.144531 272.234375 400.6875 C 269.171875 400.234375 266.125 399.703125 263.085938 399.101562 C 260.050781 398.496094 257.03125 397.820312 254.027344 397.066406 C 251.023438 396.3125 248.039062 395.488281 245.074219 394.589844 C 242.113281 393.691406 239.171875 392.71875 236.257812 391.675781 C 233.34375 390.632812 230.453125 389.519531 227.59375 388.335938 C 224.734375 387.148438 221.902344 385.894531 219.105469 384.570312 C 216.304688 383.246094 213.539062 381.855469 210.808594 380.394531 C 208.078125 378.9375 205.386719 377.410156 202.730469 375.820312 C 200.074219 374.226562 197.460938 372.570312 194.882812 370.851562 C 192.308594 369.128906 189.777344 367.347656 187.292969 365.503906 C 184.804688 363.660156 182.363281 361.753906 179.972656 359.789062 C 177.578125 357.824219 175.234375 355.804688 172.941406 353.726562 C 170.644531 351.644531 168.402344 349.511719 166.214844 347.320312 C 164.023438 345.132812 161.890625 342.890625 159.8125 340.597656 C 157.730469 338.300781 155.710938 335.957031 153.746094 333.5625 C 151.78125 331.171875 149.875 328.730469 148.03125 326.242188 C 146.1875 323.757812 144.40625 321.226562 142.683594 318.652344 C 140.964844 316.078125 139.308594 313.460938 137.71875 310.804688 C 136.125 308.148438 134.597656 305.457031 133.140625 302.726562 C 131.679688 299.996094 130.289062 297.230469 128.964844 294.429688 C 127.640625 291.632812 126.386719 288.800781 125.203125 285.941406 C 124.015625 283.082031 122.902344 280.191406 121.859375 277.277344 C 120.816406 274.363281 119.84375 271.421875 118.945312 268.460938 C 118.046875 265.496094 117.222656 262.511719 116.46875 259.507812 C 115.71875 256.507812 115.039062 253.484375 114.433594 250.449219 C 113.832031 247.414062 113.300781 244.363281 112.847656 241.300781 C 112.394531 238.238281 112.015625 235.164062 111.710938 232.082031 C 111.40625 229 111.179688 225.914062 111.027344 222.820312 C 110.875 219.730469 110.800781 216.632812 110.800781 213.539062 C 110.800781 210.441406 110.875 207.347656 111.027344 204.253906 C 111.179688 201.164062 111.40625 198.074219 111.710938 194.992188 C 112.015625 191.914062 112.394531 188.839844 112.847656 185.777344 C 113.300781 182.714844 113.832031 179.664062 114.433594 176.628906 C 115.039062 173.589844 115.71875 170.570312 116.46875 167.566406 C 117.222656 164.5625 118.046875 161.582031 118.945312 158.617188 C 119.84375 155.652344 120.816406 152.714844 121.859375 149.800781 C 122.902344 146.882812 124.015625 143.996094 125.203125 141.136719 C 126.386719 138.273438 127.640625 135.445312 128.964844 132.644531 C 130.289062 129.847656 131.679688 127.082031 133.140625 124.351562 C 134.597656 121.621094 136.125 118.925781 137.71875 116.269531 C 139.308594 113.617188 140.964844 111 142.683594 108.425781 C 144.40625 105.851562 146.1875 103.320312 148.03125 100.832031 C 149.875 98.347656 151.78125 95.90625 153.746094 93.511719 C 155.710938 91.117188 157.730469 88.773438 159.8125 86.480469 C 161.890625 84.1875 164.023438 81.945312 166.214844 79.753906 C 168.402344 77.566406 170.644531 75.429688 172.941406 73.351562 C 175.234375 71.273438 177.578125 69.25 179.972656 67.285156 C 182.363281 65.320312 184.804688 63.417969 187.292969 61.574219 C 189.777344 59.730469 192.308594 57.945312 194.882812 56.226562 C 197.460938 54.507812 200.074219 52.851562 202.730469 51.257812 C 205.386719 49.667969 208.078125 48.140625 210.808594 46.679688 C 213.539062 45.222656 216.304688 43.828125 219.105469 42.503906 C 221.902344 41.183594 224.734375 39.925781 227.59375 38.742188 C 230.453125 37.558594 233.34375 36.445312 236.257812 35.398438 C 239.171875 34.355469 242.113281 33.386719 245.074219 32.488281 C 248.039062 31.589844 251.023438 30.761719 254.027344 30.011719 C 257.03125 29.257812 260.050781 28.582031 263.085938 27.976562 C 266.125 27.371094 269.171875 26.84375 272.234375 26.386719 C 275.300781 25.933594 278.371094 25.554688 281.453125 25.25 C 284.535156 24.949219 287.621094 24.71875 290.714844 24.570312 C 293.804688 24.417969 296.902344 24.339844 299.996094 24.339844 C 303.09375 24.339844 306.1875 24.417969 309.28125 24.570312 C 312.375 24.71875 315.460938 24.949219 318.542969 25.25 C 321.625 25.554688 324.695312 25.933594 327.757812 26.386719 C 330.820312 26.84375 333.871094 27.371094 336.90625 27.976562 C 339.945312 28.582031 342.964844 29.257812 345.96875 30.011719 C 348.972656 30.761719 351.957031 31.589844 354.917969 32.488281 C 357.882812 33.386719 360.820312 34.355469 363.734375 35.398438 C 366.652344 36.445312 369.539062 37.558594 372.398438 38.742188 C 375.261719 39.925781 378.089844 41.183594 380.890625 42.503906 C 383.6875 43.828125 386.453125 45.222656 389.183594 46.679688 C 391.914062 48.140625 394.609375 49.667969 397.265625 51.257812 C 399.921875 52.851562 402.535156 54.507812 405.109375 56.226562 C 407.683594 57.945312 410.214844 59.730469 412.703125 61.574219 C 415.1875 63.417969 417.628906 65.320312 420.023438 67.285156 C 422.417969 69.25 424.761719 71.273438 427.054688 73.351562 C 429.347656 75.429688 431.589844 77.566406 433.78125 79.753906 C 435.96875 81.945312 438.105469 84.1875 440.183594 86.480469 C 442.261719 88.773438 444.285156 91.117188 446.25 93.511719 C 448.214844 95.90625 450.117188 98.347656 451.960938 100.832031 C 453.808594 103.320312 455.589844 105.851562 457.308594 108.425781 C 459.03125 111 460.6875 113.617188 462.277344 116.269531 C 463.871094 118.925781 465.394531 121.621094 466.855469 124.351562 C 468.3125 127.082031 469.707031 129.847656 471.03125 132.644531 C 472.355469 135.445312 473.609375 138.273438 474.792969 141.136719 C 475.976562 143.996094 477.09375 146.882812 478.136719 149.800781 C 479.179688 152.714844 480.148438 155.652344 481.046875 158.617188 C 481.945312 161.582031 482.773438 164.5625 483.523438 167.566406 C 484.277344 170.570312 484.957031 173.589844 485.558594 176.628906 C 486.164062 179.664062 486.691406 182.714844 487.148438 185.777344 C 487.601562 188.839844 487.980469 191.914062 488.285156 194.992188 C 488.585938 198.074219 488.816406 201.164062 488.96875 204.253906 C 489.117188 207.347656 489.195312 210.441406 489.195312 213.539062 Z M 489.195312 213.539062 " fill-opacity="1" fill-rule="nonzero"/><path fill="#f6ac69" d="M 299.996094 402.9375 C 274.429688 402.9375 249.625 397.929688 226.273438 388.050781 C 203.71875 378.511719 183.464844 364.855469 166.074219 347.464844 C 148.679688 330.070312 135.023438 309.8125 125.484375 287.261719 C 115.609375 263.910156 110.597656 239.109375 110.597656 213.539062 C 110.597656 187.96875 115.609375 163.167969 125.484375 139.816406 C 135.023438 117.261719 148.679688 97.007812 166.074219 79.613281 C 183.464844 62.21875 203.722656 48.5625 226.273438 39.023438 C 249.625 29.148438 274.425781 24.140625 299.996094 24.140625 C 325.566406 24.140625 350.367188 29.148438 373.71875 39.023438 C 396.273438 48.5625 416.527344 62.21875 433.921875 79.613281 C 451.316406 97.007812 464.972656 117.261719 474.511719 139.816406 C 484.386719 163.164062 489.394531 187.96875 489.394531 213.539062 C 489.394531 239.109375 484.386719 263.910156 474.511719 287.261719 C 464.972656 309.816406 451.316406 330.070312 433.921875 347.464844 C 416.527344 364.855469 396.273438 378.511719 373.71875 388.050781 C 350.371094 397.929688 325.566406 402.9375 299.996094 402.9375 Z M 299.996094 24.539062 C 195.78125 24.539062 111 109.324219 111 213.535156 C 111 317.75 195.78125 402.535156 299.996094 402.535156 C 404.210938 402.535156 488.996094 317.75 488.996094 213.535156 C 488.996094 109.324219 404.210938 24.539062 299.996094 24.539062 Z M 299.996094 24.539062 " fill-opacity="1" fill-rule="nonzero"/><path fill="#e37123" d="M 406.714844 106.820312 C 408.460938 108.566406 410.164062 110.355469 411.820312 112.183594 C 413.480469 114.015625 415.09375 115.882812 416.660156 117.792969 C 418.226562 119.703125 419.746094 121.648438 421.21875 123.632812 C 422.6875 125.617188 424.109375 127.636719 425.484375 129.691406 C 426.855469 131.742188 428.175781 133.828125 429.445312 135.949219 C 430.714844 138.066406 431.933594 140.214844 433.097656 142.394531 C 434.261719 144.570312 435.371094 146.777344 436.429688 149.011719 C 437.484375 151.242188 438.484375 153.5 439.429688 155.78125 C 440.375 158.066406 441.265625 160.367188 442.097656 162.695312 C 442.929688 165.019531 443.703125 167.363281 444.417969 169.726562 C 445.136719 172.089844 445.796875 174.472656 446.394531 176.867188 C 446.996094 179.261719 447.535156 181.671875 448.019531 184.09375 C 448.5 186.519531 448.921875 188.949219 449.285156 191.394531 C 449.648438 193.835938 449.949219 196.289062 450.191406 198.746094 C 450.433594 201.203125 450.617188 203.667969 450.738281 206.132812 C 450.859375 208.601562 450.917969 211.070312 450.917969 213.539062 C 450.917969 216.007812 450.859375 218.476562 450.738281 220.945312 C 450.617188 223.410156 450.433594 225.875 450.191406 228.332031 C 449.949219 230.789062 449.648438 233.242188 449.285156 235.683594 C 448.921875 238.128906 448.5 240.558594 448.019531 242.984375 C 447.535156 245.40625 446.996094 247.816406 446.394531 250.210938 C 445.796875 252.605469 445.136719 254.988281 444.417969 257.351562 C 443.703125 259.714844 442.929688 262.058594 442.097656 264.382812 C 441.265625 266.710938 440.375 269.011719 439.429688 271.296875 C 438.484375 273.578125 437.484375 275.835938 436.429688 278.066406 C 435.371094 280.300781 434.261719 282.507812 433.097656 284.683594 C 431.933594 286.863281 430.714844 289.011719 429.445312 291.128906 C 428.175781 293.25 426.855469 295.335938 425.484375 297.386719 C 424.109375 299.441406 422.6875 301.460938 421.21875 303.445312 C 419.746094 305.429688 418.226562 307.375 416.660156 309.285156 C 415.09375 311.195312 413.480469 313.0625 411.820312 314.894531 C 410.164062 316.722656 408.460938 318.511719 406.714844 320.257812 C 404.96875 322.003906 403.179688 323.707031 401.347656 325.367188 C 399.519531 327.027344 397.648438 328.636719 395.738281 330.207031 C 393.828125 331.773438 391.882812 333.292969 389.898438 334.761719 C 387.914062 336.234375 385.898438 337.65625 383.84375 339.027344 C 381.789062 340.402344 379.703125 341.722656 377.585938 342.992188 C 375.464844 344.261719 373.316406 345.476562 371.140625 346.644531 C 368.960938 347.808594 366.753906 348.917969 364.523438 349.972656 C 362.289062 351.03125 360.03125 352.03125 357.75 352.976562 C 355.46875 353.921875 353.164062 354.808594 350.839844 355.640625 C 348.511719 356.472656 346.167969 357.246094 343.804688 357.964844 C 341.441406 358.683594 339.0625 359.339844 336.664062 359.941406 C 334.269531 360.539062 331.859375 361.082031 329.4375 361.5625 C 327.015625 362.046875 324.582031 362.46875 322.140625 362.832031 C 319.695312 363.191406 317.246094 363.496094 314.785156 363.738281 C 312.328125 363.980469 309.867188 364.160156 307.398438 364.28125 C 304.933594 364.402344 302.464844 364.464844 299.992188 364.464844 C 297.523438 364.464844 295.054688 364.402344 292.589844 364.28125 C 290.121094 364.160156 287.660156 363.980469 285.199219 363.738281 C 282.742188 363.496094 280.292969 363.191406 277.847656 362.832031 C 275.40625 362.46875 272.972656 362.046875 270.550781 361.5625 C 268.128906 361.082031 265.71875 360.539062 263.320312 359.941406 C 260.925781 359.339844 258.546875 358.683594 256.183594 357.964844 C 253.820312 357.246094 251.472656 356.472656 249.148438 355.640625 C 246.824219 354.808594 244.519531 353.921875 242.238281 352.976562 C 239.957031 352.03125 237.699219 351.03125 235.464844 349.972656 C 233.230469 348.917969 231.027344 347.808594 228.847656 346.644531 C 226.671875 345.476562 224.523438 344.261719 222.402344 342.992188 C 220.285156 341.722656 218.199219 340.402344 216.144531 339.027344 C 214.089844 337.65625 212.070312 336.234375 210.089844 334.761719 C 208.105469 333.292969 206.15625 331.773438 204.25 330.207031 C 202.339844 328.636719 200.46875 327.027344 198.640625 325.367188 C 196.808594 323.707031 195.019531 322.003906 193.273438 320.257812 C 191.527344 318.511719 189.824219 316.722656 188.167969 314.894531 C 186.507812 313.0625 184.894531 311.195312 183.328125 309.285156 C 181.761719 307.375 180.242188 305.429688 178.769531 303.445312 C 177.296875 301.460938 175.875 299.441406 174.503906 297.386719 C 173.132812 295.335938 171.8125 293.25 170.542969 291.128906 C 169.273438 289.011719 168.054688 286.863281 166.890625 284.683594 C 165.726562 282.507812 164.617188 280.300781 163.558594 278.066406 C 162.503906 275.835938 161.503906 273.578125 160.558594 271.296875 C 159.613281 269.011719 158.722656 266.710938 157.890625 264.382812 C 157.058594 262.058594 156.285156 259.714844 155.566406 257.351562 C 154.851562 254.988281 154.191406 252.605469 153.59375 250.210938 C 152.992188 247.816406 152.449219 245.40625 151.96875 242.984375 C 151.488281 240.558594 151.066406 238.128906 150.703125 235.683594 C 150.339844 233.242188 150.039062 230.789062 149.796875 228.332031 C 149.554688 225.875 149.371094 223.410156 149.25 220.945312 C 149.128906 218.476562 149.070312 216.007812 149.070312 213.539062 C 149.070312 211.070312 149.128906 208.601562 149.25 206.132812 C 149.371094 203.667969 149.554688 201.203125 149.796875 198.746094 C 150.039062 196.289062 150.339844 193.835938 150.703125 191.394531 C 151.066406 188.949219 151.488281 186.519531 151.96875 184.09375 C 152.449219 181.671875 152.992188 179.261719 153.59375 176.867188 C 154.191406 174.472656 154.851562 172.089844 155.566406 169.726562 C 156.285156 167.363281 157.058594 165.019531 157.890625 162.695312 C 158.722656 160.367188 159.613281 158.066406 160.558594 155.78125 C 161.503906 153.5 162.503906 151.242188 163.558594 149.011719 C 164.617188 146.777344 165.726562 144.570312 166.890625 142.394531 C 168.054688 140.214844 169.273438 138.066406 170.542969 135.949219 C 171.8125 133.828125 173.132812 131.742188 174.503906 129.691406 C 175.875 127.636719 177.296875 125.617188 178.769531 123.632812 C 180.242188 121.648438 181.761719 119.703125 183.328125 117.792969 C 184.894531 115.882812 186.507812 114.015625 188.167969 112.183594 C 189.824219 110.355469 191.527344 108.566406 193.273438 106.820312 C 195.019531 105.074219 196.808594 103.371094 198.640625 101.710938 C 200.46875 100.050781 202.339844 98.441406 204.25 96.871094 C 206.15625 95.304688 208.105469 93.785156 210.089844 92.316406 C 212.070312 90.84375 214.089844 89.421875 216.144531 88.050781 C 218.199219 86.675781 220.285156 85.355469 222.402344 84.085938 C 224.523438 82.816406 226.671875 81.601562 228.847656 80.433594 C 231.027344 79.269531 233.230469 78.160156 235.464844 77.105469 C 237.699219 76.050781 239.957031 75.046875 242.238281 74.101562 C 244.519531 73.15625 246.824219 72.269531 249.148438 71.4375 C 251.472656 70.605469 253.820312 69.832031 256.183594 69.113281 C 258.546875 68.394531 260.925781 67.738281 263.320312 67.136719 C 265.71875 66.539062 268.128906 65.996094 270.550781 65.515625 C 272.972656 65.03125 275.40625 64.609375 277.847656 64.25 C 280.292969 63.886719 282.742188 63.582031 285.199219 63.339844 C 287.660156 63.097656 290.121094 62.917969 292.589844 62.796875 C 295.054688 62.675781 297.523438 62.613281 299.992188 62.613281 C 302.464844 62.613281 304.933594 62.675781 307.398438 62.796875 C 309.867188 62.917969 312.328125 63.097656 314.785156 63.339844 C 317.246094 63.582031 319.695312 63.886719 322.140625 64.25 C 324.582031 64.609375 327.015625 65.03125 329.4375 65.515625 C 331.859375 65.996094 334.269531 66.539062 336.664062 67.136719 C 339.0625 67.738281 341.441406 68.394531 343.804688 69.113281 C 346.167969 69.832031 348.511719 70.605469 350.839844 71.4375 C 353.164062 72.269531 355.46875 73.15625 357.75 74.101562 C 360.03125 75.046875 362.289062 76.050781 364.523438 77.105469 C 366.753906 78.160156 368.960938 79.269531 371.140625 80.433594 C 373.316406 81.601562 375.464844 82.816406 377.585938 84.085938 C 379.703125 85.355469 381.789062 86.675781 383.84375 88.050781 C 385.898438 89.421875 387.914062 90.84375 389.898438 92.316406 C 391.882812 93.785156 393.828125 95.304688 395.738281 96.871094 C 397.648438 98.441406 399.519531 100.050781 401.347656 101.710938 C 403.179688 103.371094 404.96875 105.074219 406.714844 106.820312 Z M 406.714844 106.820312 " fill-opacity="1" fill-rule="nonzero"/><path fill="#e37123" d="M 299.996094 364.664062 C 216.667969 364.664062 148.871094 296.871094 148.871094 213.539062 C 148.871094 130.207031 216.664062 62.410156 299.996094 62.410156 C 383.328125 62.410156 451.125 130.207031 451.125 213.539062 C 451.125 296.871094 383.328125 364.664062 299.996094 364.664062 Z M 299.996094 62.8125 C 216.886719 62.8125 149.269531 130.429688 149.269531 213.539062 C 149.269531 296.648438 216.886719 364.265625 299.996094 364.265625 C 383.109375 364.265625 450.722656 296.648438 450.722656 213.539062 C 450.722656 130.429688 383.109375 62.8125 299.996094 62.8125 Z M 299.996094 62.8125 " fill-opacity="1" fill-rule="nonzero"/><path fill="#fac48f" d="M 391.078125 122.453125 C 392.570312 123.945312 394.023438 125.472656 395.4375 127.03125 C 396.855469 128.59375 398.230469 130.191406 399.566406 131.820312 C 400.90625 133.449219 402.203125 135.113281 403.457031 136.804688 C 404.714844 138.5 405.925781 140.222656 407.097656 141.972656 C 408.269531 143.726562 409.398438 145.507812 410.480469 147.316406 C 411.566406 149.125 412.605469 150.957031 413.597656 152.816406 C 414.589844 154.675781 415.539062 156.558594 416.441406 158.464844 C 417.339844 160.371094 418.195312 162.296875 419.003906 164.246094 C 419.808594 166.191406 420.566406 168.160156 421.277344 170.144531 C 421.988281 172.128906 422.648438 174.128906 423.261719 176.148438 C 423.871094 178.164062 424.433594 180.195312 424.945312 182.238281 C 425.460938 184.285156 425.921875 186.339844 426.332031 188.410156 C 426.742188 190.476562 427.105469 192.554688 427.414062 194.636719 C 427.722656 196.722656 427.980469 198.816406 428.1875 200.914062 C 428.394531 203.011719 428.550781 205.113281 428.652344 207.21875 C 428.753906 209.324219 428.808594 211.429688 428.808594 213.539062 C 428.808594 215.648438 428.753906 217.753906 428.652344 219.859375 C 428.550781 221.964844 428.394531 224.066406 428.1875 226.164062 C 427.980469 228.261719 427.722656 230.355469 427.414062 232.441406 C 427.105469 234.523438 426.742188 236.601562 426.332031 238.667969 C 425.921875 240.738281 425.460938 242.792969 424.945312 244.839844 C 424.433594 246.882812 423.871094 248.914062 423.261719 250.933594 C 422.648438 252.949219 421.988281 254.949219 421.277344 256.933594 C 420.566406 258.921875 419.808594 260.886719 419.003906 262.832031 C 418.195312 264.78125 417.339844 266.707031 416.441406 268.613281 C 415.539062 270.519531 414.589844 272.402344 413.597656 274.261719 C 412.605469 276.121094 411.566406 277.953125 410.480469 279.761719 C 409.398438 281.570312 408.269531 283.351562 407.097656 285.105469 C 405.925781 286.855469 404.714844 288.582031 403.457031 290.273438 C 402.203125 291.964844 400.90625 293.628906 399.566406 295.257812 C 398.230469 296.886719 396.855469 298.484375 395.4375 300.046875 C 394.023438 301.605469 392.570312 303.132812 391.078125 304.625 C 389.589844 306.113281 388.0625 307.566406 386.5 308.984375 C 384.9375 310.398438 383.34375 311.777344 381.710938 313.113281 C 380.082031 314.449219 378.421875 315.746094 376.726562 317.003906 C 375.035156 318.257812 373.3125 319.472656 371.558594 320.644531 C 369.804688 321.816406 368.027344 322.941406 366.21875 324.027344 C 364.410156 325.109375 362.574219 326.148438 360.714844 327.144531 C 358.855469 328.136719 356.972656 329.082031 355.070312 329.984375 C 353.164062 330.886719 351.234375 331.742188 349.289062 332.546875 C 347.339844 333.355469 345.375 334.113281 343.390625 334.824219 C 341.40625 335.53125 339.402344 336.195312 337.386719 336.804688 C 335.367188 337.417969 333.339844 337.980469 331.292969 338.492188 C 329.246094 339.003906 327.191406 339.464844 325.125 339.878906 C 323.054688 340.289062 320.980469 340.648438 318.894531 340.957031 C 316.808594 341.269531 314.71875 341.527344 312.621094 341.734375 C 310.523438 341.9375 308.421875 342.09375 306.3125 342.199219 C 304.207031 342.300781 302.101562 342.351562 299.992188 342.351562 C 297.886719 342.351562 295.777344 342.300781 293.671875 342.199219 C 291.566406 342.09375 289.464844 341.9375 287.367188 341.734375 C 285.269531 341.527344 283.179688 341.269531 281.09375 340.957031 C 279.007812 340.648438 276.929688 340.289062 274.863281 339.878906 C 272.796875 339.464844 270.738281 339.003906 268.695312 338.492188 C 266.648438 337.980469 264.617188 337.417969 262.601562 336.804688 C 260.582031 336.195312 258.582031 335.53125 256.597656 334.824219 C 254.613281 334.113281 252.648438 333.355469 250.699219 332.546875 C 248.75 331.742188 246.824219 330.886719 244.917969 329.984375 C 243.011719 329.082031 241.128906 328.136719 239.269531 327.144531 C 237.414062 326.148438 235.578125 325.109375 233.769531 324.027344 C 231.960938 322.941406 230.179688 321.816406 228.429688 320.644531 C 226.675781 319.472656 224.953125 318.257812 223.257812 317.003906 C 221.566406 315.746094 219.90625 314.449219 218.273438 313.113281 C 216.644531 311.777344 215.050781 310.398438 213.488281 308.984375 C 211.925781 307.566406 210.398438 306.113281 208.910156 304.625 C 207.417969 303.132812 205.964844 301.605469 204.550781 300.046875 C 203.132812 298.484375 201.757812 296.886719 200.417969 295.257812 C 199.082031 293.628906 197.785156 291.964844 196.53125 290.273438 C 195.273438 288.582031 194.058594 286.855469 192.890625 285.105469 C 191.71875 283.351562 190.589844 281.570312 189.507812 279.761719 C 188.421875 277.953125 187.382812 276.121094 186.390625 274.261719 C 185.398438 272.402344 184.449219 270.519531 183.546875 268.613281 C 182.644531 266.707031 181.792969 264.78125 180.984375 262.835938 C 180.179688 260.886719 179.421875 258.921875 178.710938 256.933594 C 178 254.949219 177.339844 252.949219 176.726562 250.933594 C 176.113281 248.914062 175.554688 246.882812 175.039062 244.839844 C 174.527344 242.792969 174.066406 240.738281 173.65625 238.667969 C 173.242188 236.601562 172.882812 234.523438 172.574219 232.441406 C 172.265625 230.355469 172.007812 228.261719 171.800781 226.164062 C 171.59375 224.066406 171.4375 221.964844 171.335938 219.859375 C 171.230469 217.753906 171.179688 215.648438 171.179688 213.539062 C 171.179688 211.429688 171.230469 209.324219 171.335938 207.21875 C 171.4375 205.113281 171.59375 203.011719 171.800781 200.914062 C 172.007812 198.816406 172.265625 196.722656 172.574219 194.636719 C 172.882812 192.554688 173.242188 190.476562 173.65625 188.410156 C 174.066406 186.339844 174.527344 184.285156 175.039062 182.238281 C 175.554688 180.195312 176.113281 178.164062 176.726562 176.148438 C 177.339844 174.128906 178 172.128906 178.710938 170.144531 C 179.421875 168.160156 180.179688 166.191406 180.984375 164.246094 C 181.792969 162.296875 182.644531 160.371094 183.546875 158.464844 C 184.449219 156.558594 185.398438 154.675781 186.390625 152.816406 C 187.382812 150.957031 188.421875 149.125 189.507812 147.316406 C 190.589844 145.507812 191.71875 143.726562 192.890625 141.972656 C 194.058594 140.222656 195.273438 138.5 196.53125 136.804688 C 197.785156 135.113281 199.082031 133.449219 200.417969 131.820312 C 201.757812 130.191406 203.132812 128.59375 204.550781 127.03125 C 205.964844 125.472656 207.417969 123.945312 208.910156 122.453125 C 210.398438 120.964844 211.925781 119.511719 213.488281 118.09375 C 215.050781 116.679688 216.644531 115.300781 218.273438 113.964844 C 219.90625 112.628906 221.566406 111.332031 223.257812 110.074219 C 224.953125 108.820312 226.675781 107.605469 228.429688 106.433594 C 230.179688 105.261719 231.960938 104.136719 233.769531 103.050781 C 235.578125 101.96875 237.414062 100.929688 239.269531 99.9375 C 241.128906 98.941406 243.011719 97.996094 244.917969 97.09375 C 246.824219 96.191406 248.75 95.335938 250.699219 94.53125 C 252.648438 93.722656 254.613281 92.964844 256.597656 92.253906 C 258.582031 91.546875 260.582031 90.882812 262.601562 90.273438 C 264.617188 89.660156 266.648438 89.097656 268.695312 88.585938 C 270.738281 88.074219 272.796875 87.613281 274.863281 87.199219 C 276.929688 86.789062 279.007812 86.429688 281.09375 86.121094 C 283.179688 85.808594 285.269531 85.550781 287.367188 85.347656 C 289.464844 85.140625 291.566406 84.984375 293.671875 84.878906 C 295.777344 84.777344 297.886719 84.726562 299.992188 84.726562 C 302.101562 84.726562 304.207031 84.777344 306.3125 84.878906 C 308.421875 84.984375 310.523438 85.140625 312.621094 85.347656 C 314.71875 85.550781 316.808594 85.808594 318.894531 86.121094 C 320.980469 86.429688 323.054688 86.789062 325.125 87.199219 C 327.191406 87.613281 329.246094 88.074219 331.292969 88.585938 C 333.339844 89.097656 335.367188 89.660156 337.386719 90.273438 C 339.402344 90.882812 341.40625 91.546875 343.390625 92.253906 C 345.375 92.964844 347.339844 93.722656 349.289062 94.53125 C 351.238281 95.335938 353.164062 96.191406 355.070312 97.09375 C 356.972656 97.996094 358.855469 98.941406 360.714844 99.9375 C 362.574219 100.929688 364.410156 101.96875 366.21875 103.050781 C 368.027344 104.136719 369.804688 105.261719 371.558594 106.433594 C 373.3125 107.605469 375.035156 108.820312 376.726562 110.074219 C 378.421875 111.332031 380.082031 112.628906 381.710938 113.964844 C 383.34375 115.300781 384.9375 116.679688 386.5 118.09375 C 388.0625 119.511719 389.589844 120.964844 391.078125 122.453125 Z M 391.078125 122.453125 " fill-opacity="1" fill-rule="nonzero"/><path fill="#fac48f" d="M 299.996094 342.554688 C 265.535156 342.554688 233.136719 329.132812 208.769531 304.765625 C 184.402344 280.398438 170.980469 248 170.980469 213.539062 C 170.980469 179.078125 184.402344 146.679688 208.769531 122.3125 C 233.136719 97.941406 265.535156 84.523438 299.996094 84.523438 C 334.457031 84.523438 366.855469 97.941406 391.222656 122.3125 C 415.59375 146.675781 429.011719 179.078125 429.011719 213.539062 C 429.011719 248 415.59375 280.398438 391.222656 304.765625 C 366.859375 329.132812 334.460938 342.554688 299.996094 342.554688 Z M 299.996094 84.921875 C 229.078125 84.921875 171.382812 142.621094 171.382812 213.535156 C 171.382812 284.457031 229.078125 342.152344 299.996094 342.152344 C 370.914062 342.152344 428.613281 284.457031 428.613281 213.535156 C 428.613281 142.621094 370.914062 84.921875 299.996094 84.921875 Z M 299.996094 84.921875 " fill-opacity="1" fill-rule="nonzero"/><path fill="#e37123" d="M 302.542969 255.785156 C 302.179688 255.941406 301.800781 256.0625 301.40625 256.132812 C 298.261719 256.699219 295.867188 254.226562 294.839844 251.519531 C 293.53125 248.078125 293.316406 244.027344 293.339844 242.5 L 264.535156 242.5 C 264.515625 247.660156 265.351562 263.203125 275.417969 274.152344 C 281.582031 280.855469 289.96875 284.570312 299.679688 284.894531 C 300.101562 284.910156 300.515625 284.917969 300.933594 284.917969 C 312.890625 284.917969 323.1875 279.113281 329.3125 268.859375 C 337.804688 254.640625 337.460938 232.335938 328.515625 216.972656 C 327.796875 215.742188 327.011719 214.617188 326.199219 213.535156 C 327.011719 212.460938 327.796875 211.332031 328.515625 210.101562 C 337.460938 194.738281 337.804688 172.433594 329.308594 158.214844 C 322.972656 147.605469 312.203125 141.746094 299.679688 142.179688 C 289.96875 142.503906 281.578125 146.21875 275.417969 152.921875 C 265.382812 163.835938 264.519531 179.304688 264.535156 184.515625 L 293.335938 184.515625 C 293.320312 182.949219 293.542969 178.957031 294.835938 175.554688 C 295.902344 172.75 298.054688 170.261719 301.390625 171.050781 C 304.511719 171.789062 305.851562 175.308594 306.339844 178.136719 C 307.132812 182.738281 306.699219 187.714844 305.1875 192.125 C 304.773438 193.328125 304.265625 194.503906 303.625 195.605469 C 301.945312 198.488281 298.03125 199.027344 296.105469 199.117188 C 295.769531 199.113281 287.726562 199.289062 287.902344 199.269531 L 287.898438 227.804688 L 296.011719 227.949219 C 297.898438 228.023438 301.917969 228.535156 303.625 231.464844 C 305.867188 235.320312 306.703125 240.039062 306.699219 244.453125 C 306.703125 248.003906 306.335938 254.113281 302.542969 255.785156 Z M 302.542969 255.785156 " fill-opacity="1" fill-rule="nonzero"/><path fill="#e37123" d="M 300.933594 285.117188 C 300.515625 285.117188 300.097656 285.113281 299.675781 285.097656 C 289.910156 284.769531 281.46875 281.03125 275.273438 274.289062 C 265.050781 263.175781 264.316406 247.148438 264.335938 242.5 C 264.335938 242.390625 264.425781 242.300781 264.535156 242.300781 L 293.339844 242.300781 C 293.390625 242.300781 293.441406 242.324219 293.480469 242.363281 C 293.519531 242.398438 293.539062 242.453125 293.539062 242.503906 C 293.511719 244.300781 293.792969 248.203125 295.027344 251.449219 C 295.949219 253.878906 298.167969 256.511719 301.371094 255.9375 C 301.742188 255.867188 302.109375 255.753906 302.464844 255.601562 C 305.140625 254.421875 306.503906 250.671875 306.503906 244.453125 C 306.507812 240.96875 305.980469 235.898438 303.457031 231.570312 C 301.777344 228.683594 297.683594 228.21875 296.003906 228.152344 L 287.898438 228.007812 C 287.789062 228.003906 287.703125 227.917969 287.703125 227.804688 L 287.703125 199.308594 C 287.703125 199.300781 287.703125 199.292969 287.699219 199.285156 C 287.691406 199.179688 287.773438 199.082031 287.878906 199.070312 C 287.898438 199.066406 287.914062 199.070312 287.929688 199.070312 C 288.15625 199.089844 290.644531 199.023438 292.636719 198.984375 C 294.421875 198.949219 295.980469 198.917969 296.109375 198.917969 C 298.160156 198.824219 301.855469 198.253906 303.457031 195.507812 C 304.050781 194.484375 304.558594 193.355469 305 192.0625 C 306.519531 187.636719 306.925781 182.707031 306.144531 178.171875 C 305.753906 175.917969 304.613281 172.019531 301.347656 171.246094 C 297.484375 170.332031 295.640625 174.003906 295.027344 175.625 C 293.808594 178.832031 293.519531 182.722656 293.539062 184.515625 C 293.542969 184.570312 293.519531 184.621094 293.484375 184.660156 C 293.445312 184.695312 293.394531 184.71875 293.339844 184.71875 L 264.535156 184.71875 C 264.425781 184.71875 264.335938 184.628906 264.335938 184.519531 C 264.320312 178.570312 265.351562 163.574219 275.273438 152.785156 C 281.472656 146.042969 289.910156 142.308594 299.675781 141.980469 C 312.257812 141.554688 323.101562 147.429688 329.484375 158.113281 C 338.011719 172.386719 337.671875 194.78125 328.691406 210.203125 C 328.070312 211.269531 327.359375 212.332031 326.453125 213.539062 C 327.355469 214.746094 328.070312 215.808594 328.691406 216.875 C 337.671875 232.296875 338.011719 254.6875 329.484375 268.964844 C 323.351562 279.230469 312.945312 285.117188 300.933594 285.117188 Z M 264.734375 242.703125 C 264.738281 247.554688 265.585938 263.164062 275.566406 274.019531 C 281.691406 280.679688 290.03125 284.371094 299.6875 284.695312 C 300.105469 284.710938 300.519531 284.71875 300.933594 284.71875 C 312.800781 284.71875 323.078125 278.902344 329.140625 268.757812 C 337.597656 254.597656 337.253906 232.378906 328.34375 217.078125 C 327.710938 215.988281 326.976562 214.902344 326.042969 213.660156 C 325.988281 213.589844 325.988281 213.492188 326.042969 213.417969 C 326.980469 212.171875 327.714844 211.089844 328.34375 210.003906 C 337.257812 194.699219 337.597656 172.476562 329.140625 158.320312 C 322.832031 147.761719 312.105469 141.957031 299.6875 142.382812 C 290.03125 142.707031 281.691406 146.398438 275.566406 153.058594 C 265.851562 163.621094 264.742188 178.289062 264.734375 184.320312 L 293.136719 184.320312 C 293.140625 182.421875 293.457031 178.632812 294.652344 175.488281 C 295.304688 173.765625 297.277344 169.871094 301.4375 170.859375 C 304.929688 171.683594 306.132812 175.757812 306.539062 178.109375 C 307.332031 182.703125 306.917969 187.707031 305.378906 192.195312 C 304.929688 193.515625 304.410156 194.664062 303.800781 195.710938 C 302.105469 198.625 298.257812 199.222656 296.117188 199.320312 C 295.953125 199.304688 294.34375 199.351562 292.644531 199.386719 C 289.835938 199.441406 288.628906 199.464844 288.105469 199.441406 L 288.105469 227.613281 L 296.019531 227.753906 C 298.191406 227.839844 302.085938 228.421875 303.800781 231.371094 C 306.371094 235.777344 306.90625 240.921875 306.90625 244.457031 C 306.902344 250.9375 305.503906 254.703125 302.625 255.96875 C 302.242188 256.136719 301.847656 256.257812 301.445312 256.332031 C 298.207031 256.914062 295.707031 254.367188 294.652344 251.59375 C 293.445312 248.40625 293.132812 244.605469 293.136719 242.703125 Z M 302.542969 255.785156 L 302.546875 255.785156 Z M 302.542969 255.785156 " fill-opacity="1" fill-rule="nonzero"/><g clip-path="url(#8751ca79a6)"><path fill="#e37123" d="M 56.820312 418.835938 C 56.820312 418.835938 72.179688 432.886719 92.847656 435.253906 C 108.894531 437.09375 123.417969 431.347656 129.109375 428.6875 C 134.9375 434.449219 141.015625 439.960938 147.316406 445.199219 C 141.058594 442.785156 133.292969 440.75 124.871094 440.707031 C 104.070312 440.613281 87.148438 452.742188 87.148438 452.742188 C 87.148438 452.742188 103.953125 465.03125 124.757812 465.128906 C 140.511719 465.203125 154.03125 458.265625 159.667969 454.894531 C 166.964844 460.300781 174.519531 465.355469 182.304688 470.023438 C 175.726562 468.128906 167.5625 466.726562 158.898438 467.515625 C 138.183594 469.40625 122.5 483.101562 122.5 483.101562 C 122.5 483.101562 140.402344 493.730469 161.117188 491.839844 C 177.8125 490.316406 191.230469 481.132812 195.816406 477.621094 C 204.5 482.183594 213.425781 486.285156 222.566406 489.867188 L 223.277344 487.855469 C 213.257812 483.714844 203.523438 478.859375 194.101562 473.425781 C 197.542969 468.339844 205.625 454.753906 206.28125 438.441406 C 207.121094 417.652344 195.601562 400.3125 195.601562 400.3125 C 195.601562 400.3125 182.71875 416.671875 181.878906 437.453125 C 181.300781 451.785156 186.59375 464.472656 189.941406 470.976562 C 181.105469 465.667969 172.558594 459.859375 164.324219 453.667969 C 168.203125 448.582031 176.769531 435.757812 178.410156 419.847656 C 180.542969 399.152344 170.125 381.128906 170.125 381.128906 C 170.125 381.128906 156.25 396.648438 154.113281 417.339844 C 152.734375 430.726562 156.605469 442.992188 159.515625 449.988281 C 156.355469 447.519531 153.238281 445.003906 150.175781 442.433594 C 145.640625 438.636719 141.25 434.683594 136.96875 430.613281 C 140.640625 425.890625 149.726562 412.746094 151.421875 396.308594 C 153.554688 375.617188 143.136719 357.589844 143.136719 357.589844 C 143.136719 357.589844 129.261719 373.113281 127.125 393.804688 C 125.765625 406.988281 129.503906 419.085938 132.394531 426.128906 C 124.925781 418.691406 117.871094 410.847656 111.285156 402.625 C 114.941406 397.15625 122.539062 384.007812 123.257812 368.28125 C 124.207031 347.5 112.777344 330.101562 112.777344 330.101562 C 112.777344 330.101562 99.808594 346.390625 98.859375 367.167969 C 98.441406 376.296875 100.414062 384.773438 102.761719 391.410156 C 96.941406 383.355469 91.554688 374.996094 86.617188 366.371094 C 90.824219 360.539062 98.121094 348.566406 99.625 334.007812 C 101.757812 313.316406 91.339844 295.289062 91.339844 295.289062 C 91.339844 295.289062 77.460938 310.8125 75.328125 331.503906 C 74.84375 336.207031 75.011719 340.769531 75.554688 345.019531 C 71.421875 336.101562 67.753906 326.964844 64.59375 317.648438 C 69.609375 312.988281 79.683594 302.230469 84.019531 287.539062 C 89.90625 267.589844 82.96875 247.960938 82.96875 247.960938 C 82.96875 247.960938 66.484375 260.675781 60.59375 280.628906 C 59.042969 285.882812 58.386719 291.113281 58.253906 295.972656 C 57.367188 292.386719 56.070312 287.144531 55.777344 286.03125 C 54.675781 279.992188 53.25 273.488281 52.320312 267.445312 L 52.28125 267.160156 C 56.457031 264.242188 69.953125 253.898438 76.539062 237.742188 C 84.394531 218.480469 79.453125 198.253906 79.453125 198.253906 C 79.453125 198.253906 61.777344 209.257812 53.925781 228.519531 C 51.636719 234.136719 50.4375 239.828125 49.886719 245.082031 C 49.738281 244.089844 49.546875 242.945312 49.300781 241.6875 C 48.800781 235.78125 48.347656 229.636719 48.316406 224.386719 L 48.207031 220.789062 C 50.992188 216.621094 59.847656 202.007812 60.074219 184.484375 C 60.347656 163.683594 48.355469 146.664062 48.355469 146.664062 C 48.355469 146.664062 35.925781 163.371094 35.65625 184.167969 C 35.445312 200.371094 42.675781 214.28125 45.882812 219.636719 L 45.90625 224.433594 C 45.867188 225.96875 45.875 227.714844 45.914062 229.566406 C 43.835938 223.96875 40.796875 217.894531 36.359375 212.347656 C 23.359375 196.109375 3.289062 190.574219 3.289062 190.574219 C 3.289062 190.574219 4.292969 211.367188 17.289062 227.609375 C 26.941406 239.667969 40.484375 245.820312 46.824219 248.191406 L 47.027344 251.679688 L 47.636719 257.105469 C 48.183594 262.429688 48.894531 267.746094 49.730469 273.042969 C 46.703125 267.261719 42.410156 260.882812 36.4375 255.464844 C 21.035156 241.488281 0.339844 239.195312 0.339844 239.195312 C 0.339844 239.195312 4.625 259.574219 20.03125 273.554688 C 31.648438 284.09375 46.265625 287.988281 52.757812 289.265625 C 54.585938 297.75 56.792969 306.15625 59.371094 314.445312 C 55.972656 309.164062 51.382812 303.511719 45.367188 298.828125 C 28.953125 286.054688 8.144531 285.332031 8.144531 285.332031 C 8.144531 285.332031 13.949219 305.324219 30.367188 318.101562 C 43.464844 328.300781 59.351562 330.816406 65.238281 331.417969 C 68.242188 339.277344 71.597656 347 75.308594 354.546875 C 70.660156 348.828125 63.871094 342.113281 54.949219 337.5 C 36.472656 327.945312 15.882812 331.046875 15.882812 331.046875 C 15.882812 331.046875 25.253906 349.640625 43.730469 359.195312 C 59.171875 367.175781 76.078125 366.324219 81.21875 365.828125 C 81.648438 366.601562 82.085938 367.367188 82.527344 368.136719 C 83.1875 369.476562 83.613281 370.222656 83.613281 370.222656 L 83.6875 370.144531 C 87.699219 377.042969 92.015625 383.765625 96.609375 390.296875 C 91.039062 385.679688 83.371094 380.632812 74.132812 377.855469 C 54.210938 371.867188 34.546875 378.707031 34.546875 378.707031 C 34.546875 378.707031 47.179688 395.257812 67.101562 401.242188 C 83.113281 406.058594 98.953125 402.582031 104.550781 401.035156 C 109.464844 407.355469 114.648438 413.464844 120.082031 419.347656 C 113.765625 415.761719 105.292969 412.101562 95.628906 410.992188 C 74.960938 408.625 56.820312 418.835938 56.820312 418.835938 Z M 56.820312 418.835938 " fill-opacity="1" fill-rule="nonzero"/><path fill="#e37123" d="M 156.160156 492.261719 C 137.769531 492.261719 122.5625 483.375 122.398438 483.273438 C 122.34375 483.242188 122.308594 483.183594 122.300781 483.121094 C 122.292969 483.058594 122.320312 482.996094 122.367188 482.953125 C 122.527344 482.816406 138.339844 469.195312 158.878906 467.316406 C 165.882812 466.679688 173.300781 467.390625 180.945312 469.4375 C 173.671875 465.023438 166.515625 460.214844 159.65625 455.136719 C 154.394531 458.265625 140.773438 465.332031 125.003906 465.332031 C 124.921875 465.332031 124.835938 465.332031 124.753906 465.332031 C 104.125 465.234375 87.199219 453.027344 87.03125 452.90625 C 86.980469 452.867188 86.949219 452.808594 86.949219 452.742188 C 86.949219 452.679688 86.980469 452.621094 87.03125 452.582031 C 87.203125 452.460938 104.109375 440.507812 124.625 440.507812 C 124.707031 440.507812 124.789062 440.511719 124.871094 440.511719 C 131.792969 440.542969 138.988281 441.917969 146.28125 444.597656 C 140.351562 439.628906 134.566406 434.363281 129.066406 428.929688 C 123.414062 431.554688 108.847656 437.292969 92.824219 435.453125 C 72.332031 433.105469 56.835938 419.125 56.683594 418.984375 C 56.636719 418.941406 56.613281 418.878906 56.621094 418.8125 C 56.625 418.75 56.664062 418.695312 56.71875 418.660156 C 56.902344 418.558594 75.152344 408.441406 95.648438 410.792969 C 103.410156 411.679688 111.292969 414.292969 119.09375 418.5625 C 113.992188 412.992188 109.082031 407.175781 104.476562 401.261719 C 98.390625 402.929688 82.84375 406.183594 67.042969 401.433594 C 47.289062 395.496094 34.511719 378.992188 34.386719 378.828125 C 34.347656 378.777344 34.335938 378.710938 34.355469 378.648438 C 34.375 378.585938 34.417969 378.539062 34.480469 378.515625 C 34.675781 378.449219 54.4375 371.726562 74.191406 377.660156 C 81.582031 379.882812 88.785156 383.773438 95.625 389.234375 C 91.367188 383.113281 87.328125 376.792969 83.617188 370.421875 C 83.613281 370.417969 83.601562 370.421875 83.59375 370.421875 C 83.53125 370.414062 83.472656 370.375 83.441406 370.320312 C 83.4375 370.3125 83 369.554688 82.347656 368.21875 C 81.9375 367.5 81.519531 366.769531 81.109375 366.035156 C 76.050781 366.511719 59.058594 367.339844 43.640625 359.367188 C 25.316406 349.894531 15.800781 331.324219 15.703125 331.136719 C 15.675781 331.078125 15.675781 331.011719 15.707031 330.953125 C 15.734375 330.898438 15.789062 330.859375 15.855469 330.847656 C 16.058594 330.816406 36.71875 327.84375 55.042969 337.320312 C 62.078125 340.957031 68.582031 346.269531 74.394531 353.128906 C 71.03125 346.183594 67.90625 338.949219 65.09375 331.601562 C 58.84375 330.949219 43.210938 328.355469 30.242188 318.257812 C 13.964844 305.589844 8.007812 285.585938 7.953125 285.386719 C 7.933594 285.324219 7.949219 285.257812 7.984375 285.207031 C 8.023438 285.15625 8.09375 285.132812 8.152344 285.128906 C 8.359375 285.136719 29.210938 286 45.488281 298.667969 C 50.425781 302.511719 54.886719 307.382812 58.765625 313.160156 C 56.382812 305.363281 54.304688 297.390625 52.585938 289.4375 C 46.566406 288.238281 31.621094 284.34375 19.898438 273.703125 C 4.621094 259.839844 0.191406 239.445312 0.148438 239.242188 C 0.136719 239.179688 0.152344 239.113281 0.195312 239.066406 C 0.242188 239.019531 0.308594 238.992188 0.367188 239 C 0.574219 239.023438 21.304688 241.457031 36.578125 255.316406 C 41.503906 259.789062 45.800781 265.367188 49.355469 271.90625 C 48.574219 266.824219 47.929688 261.855469 47.441406 257.125 L 46.832031 251.703125 L 46.632812 248.335938 C 39.621094 245.699219 26.585938 239.542969 17.136719 227.734375 C 4.246094 211.628906 3.101562 190.792969 3.089844 190.582031 C 3.089844 190.519531 3.117188 190.457031 3.167969 190.417969 C 3.21875 190.375 3.28125 190.363281 3.34375 190.378906 C 3.546875 190.4375 23.628906 196.121094 36.519531 212.222656 C 40.230469 216.863281 43.3125 222.308594 45.695312 228.425781 C 45.675781 226.925781 45.679688 225.585938 45.707031 224.429688 L 45.6875 219.691406 C 42.515625 214.382812 35.246094 200.40625 35.457031 184.164062 C 35.726562 163.539062 48.074219 146.710938 48.195312 146.542969 C 48.234375 146.492188 48.316406 146.453125 48.359375 146.464844 C 48.421875 146.464844 48.484375 146.496094 48.519531 146.546875 C 48.640625 146.71875 60.546875 163.859375 60.277344 184.484375 C 60.050781 202.003906 51.1875 216.679688 48.414062 220.847656 L 48.519531 224.378906 C 48.550781 229.734375 49.035156 236.125 49.503906 241.667969 C 49.632812 242.316406 49.75 242.964844 49.855469 243.601562 C 50.546875 238.175781 51.847656 233.082031 53.742188 228.441406 C 61.527344 209.34375 79.171875 198.191406 79.351562 198.082031 C 79.40625 198.046875 79.472656 198.042969 79.53125 198.066406 C 79.589844 198.089844 79.636719 198.140625 79.648438 198.203125 C 79.699219 198.40625 84.515625 218.714844 76.726562 237.816406 C 70.15625 253.933594 56.652344 264.335938 52.496094 267.25 L 52.519531 267.417969 C 53.109375 271.246094 53.90625 275.308594 54.679688 279.238281 C 55.117188 281.472656 55.574219 283.789062 55.976562 285.992188 C 56.195312 286.824219 56.984375 290.019531 57.753906 293.109375 L 58.109375 294.542969 C 58.34375 289.621094 59.113281 284.925781 60.398438 280.570312 C 66.238281 260.785156 82.675781 247.925781 82.84375 247.800781 C 82.894531 247.761719 82.960938 247.75 83.023438 247.765625 C 83.085938 247.785156 83.132812 247.828125 83.15625 247.890625 C 83.222656 248.085938 90.046875 267.808594 84.207031 287.59375 C 79.953125 302.019531 70.28125 312.617188 64.824219 317.703125 C 67.792969 326.453125 71.28125 335.21875 75.203125 343.785156 C 74.746094 339.550781 74.722656 335.417969 75.128906 331.480469 C 77.246094 310.960938 91.050781 295.308594 91.1875 295.152344 C 91.230469 295.105469 91.292969 295.082031 91.355469 295.085938 C 91.421875 295.09375 91.476562 295.128906 91.511719 295.183594 C 91.613281 295.367188 101.9375 313.503906 99.820312 334.023438 C 98.324219 348.519531 91.089844 360.476562 86.851562 366.378906 C 91.539062 374.550781 96.671875 382.550781 102.125 390.179688 C 99.488281 382.269531 98.320312 374.527344 98.65625 367.148438 C 99.597656 346.546875 112.484375 330.128906 112.617188 329.964844 C 112.65625 329.914062 112.71875 329.886719 112.785156 329.890625 C 112.847656 329.890625 112.90625 329.925781 112.941406 329.980469 C 113.054688 330.15625 124.398438 347.675781 123.457031 368.28125 C 122.734375 384.121094 114.945312 397.476562 111.53125 402.605469 C 117.816406 410.441406 124.648438 418.070312 131.839844 425.285156 C 128.800781 417.613281 125.648438 406.1875 126.925781 393.773438 C 129.042969 373.257812 142.847656 357.605469 142.988281 357.449219 C 143.03125 357.398438 143.09375 357.371094 143.15625 357.382812 C 143.222656 357.386719 143.277344 357.425781 143.308594 357.480469 C 143.414062 357.660156 153.734375 375.796875 151.617188 396.320312 C 149.945312 412.5625 141.09375 425.589844 137.234375 430.582031 C 141.613281 434.742188 146.007812 438.675781 150.300781 442.269531 C 153.078125 444.601562 156.015625 446.980469 159.039062 449.351562 C 155.90625 441.609375 152.605469 429.976562 153.910156 417.3125 C 156.03125 396.792969 169.832031 381.140625 169.972656 380.984375 C 170.015625 380.9375 170.082031 380.910156 170.144531 380.917969 C 170.207031 380.925781 170.265625 380.960938 170.296875 381.015625 C 170.402344 381.199219 180.722656 399.335938 178.605469 419.855469 C 176.96875 435.746094 168.367188 448.648438 164.601562 453.621094 C 172.804688 459.773438 181.15625 465.429688 189.441406 470.433594 C 186.152344 463.890625 181.109375 451.425781 181.671875 437.4375 C 182.507812 416.828125 195.308594 400.34375 195.4375 400.179688 C 195.476562 400.128906 195.542969 400.117188 195.605469 400.105469 C 195.667969 400.105469 195.726562 400.140625 195.761719 400.191406 C 195.878906 400.367188 207.308594 417.828125 206.476562 438.4375 C 205.824219 454.609375 197.898438 468.117188 194.382812 473.351562 C 203.957031 478.863281 213.703125 483.675781 223.347656 487.660156 C 223.445312 487.703125 223.496094 487.8125 223.460938 487.914062 L 222.75 489.925781 C 222.730469 489.976562 222.691406 490.015625 222.644531 490.039062 C 222.59375 490.0625 222.539062 490.066406 222.488281 490.042969 C 213.539062 486.539062 204.570312 482.433594 195.828125 477.847656 C 190.808594 481.675781 177.597656 490.527344 161.132812 492.03125 C 159.457031 492.191406 157.792969 492.261719 156.160156 492.261719 Z M 122.847656 483.070312 C 125.074219 484.320312 141.980469 493.382812 161.097656 491.640625 C 177.574219 490.136719 190.777344 481.222656 195.691406 477.460938 C 195.753906 477.414062 195.835938 477.40625 195.90625 477.441406 C 204.609375 482.015625 213.535156 486.105469 222.445312 489.605469 L 223.023438 487.96875 C 213.359375 483.96875 203.59375 479.132812 194 473.601562 C 193.953125 473.574219 193.917969 473.527344 193.90625 473.472656 C 193.894531 473.417969 193.902344 473.359375 193.9375 473.3125 C 197.371094 468.242188 205.425781 454.6875 206.082031 438.433594 C 206.855469 419.257812 196.949219 402.820312 195.585938 400.664062 C 194.054688 402.707031 182.855469 418.289062 182.078125 437.460938 C 181.5 451.820312 186.867188 464.566406 190.121094 470.886719 C 190.164062 470.964844 190.144531 471.0625 190.082031 471.125 C 190.015625 471.183594 189.914062 471.195312 189.839844 471.148438 C 181.292969 466.015625 172.667969 460.1875 164.207031 453.828125 C 164.164062 453.796875 164.136719 453.75 164.128906 453.699219 C 164.125 453.644531 164.136719 453.589844 164.167969 453.550781 C 167.84375 448.726562 176.570312 435.792969 178.214844 419.828125 C 180.183594 400.738281 171.320312 383.714844 170.097656 381.476562 C 168.441406 383.417969 156.289062 398.277344 154.320312 417.363281 C 152.984375 430.332031 156.511719 442.222656 159.707031 449.910156 C 159.742188 449.992188 159.714844 450.089844 159.640625 450.148438 C 159.570312 450.203125 159.46875 450.199219 159.398438 450.144531 C 156.160156 447.617188 153.015625 445.074219 150.054688 442.585938 C 145.710938 438.953125 141.265625 434.972656 136.835938 430.757812 C 136.761719 430.6875 136.753906 430.570312 136.816406 430.488281 C 140.589844 425.636719 149.546875 412.589844 151.230469 396.289062 C 153.199219 377.199219 144.332031 360.179688 143.109375 357.941406 C 141.453125 359.882812 129.300781 374.738281 127.332031 393.824219 C 126.011719 406.65625 129.460938 418.433594 132.585938 426.054688 C 132.625 426.144531 132.589844 426.246094 132.511719 426.296875 C 132.433594 426.351562 132.328125 426.34375 132.261719 426.273438 C 124.765625 418.804688 117.660156 410.890625 111.136719 402.75 C 111.082031 402.683594 111.078125 402.585938 111.128906 402.511719 C 114.476562 397.503906 122.34375 384.140625 123.066406 368.273438 C 123.941406 349.101562 114.117188 332.613281 112.769531 330.449219 C 111.226562 332.484375 99.945312 348.011719 99.070312 367.179688 C 98.714844 374.902344 100.023438 383.035156 102.957031 391.34375 C 102.992188 391.4375 102.949219 391.542969 102.863281 391.589844 C 102.773438 391.632812 102.664062 391.609375 102.605469 391.527344 C 96.820312 383.519531 91.386719 375.089844 86.453125 366.472656 C 86.414062 366.40625 86.417969 366.320312 86.464844 366.253906 C 90.667969 360.425781 97.9375 348.480469 99.433594 333.988281 C 101.402344 314.902344 92.535156 297.878906 91.3125 295.640625 C 89.660156 297.582031 77.507812 312.441406 75.539062 331.527344 C 75.09375 335.824219 75.167969 340.355469 75.761719 344.996094 C 75.777344 345.09375 75.714844 345.1875 75.621094 345.214844 C 75.523438 345.246094 75.421875 345.195312 75.382812 345.105469 C 71.21875 336.125 67.527344 326.90625 64.414062 317.710938 C 64.390625 317.636719 64.410156 317.554688 64.46875 317.5 C 69.875 312.480469 79.582031 301.902344 83.835938 287.484375 C 89.265625 269.082031 83.671875 250.722656 82.878906 248.296875 C 80.894531 249.902344 66.226562 262.28125 60.796875 280.683594 C 59.394531 285.425781 58.613281 290.570312 58.464844 295.976562 C 58.464844 296.078125 58.386719 296.160156 58.285156 296.171875 C 58.175781 296.203125 58.09375 296.117188 58.070312 296.019531 L 57.371094 293.207031 C 56.605469 290.117188 55.8125 286.921875 55.59375 286.082031 C 55.1875 283.863281 54.734375 281.550781 54.292969 279.316406 C 53.519531 275.382812 52.722656 271.316406 52.128906 267.476562 L 52.089844 267.183594 C 52.082031 267.109375 52.113281 267.035156 52.175781 266.992188 C 56.183594 264.195312 69.78125 253.8125 76.367188 237.667969 C 83.609375 219.898438 79.878906 201.070312 79.332031 198.578125 C 77.199219 199.980469 61.367188 210.832031 54.121094 228.597656 C 52.074219 233.613281 50.722656 239.167969 50.09375 245.105469 C 50.082031 245.203125 50 245.28125 49.898438 245.285156 C 49.898438 245.285156 49.894531 245.285156 49.894531 245.285156 C 49.796875 245.285156 49.710938 245.210938 49.699219 245.113281 C 49.539062 244.03125 49.34375 242.890625 49.117188 241.722656 C 48.640625 236.152344 48.160156 229.753906 48.128906 224.386719 L 48.015625 220.796875 C 48.015625 220.757812 48.027344 220.714844 48.050781 220.679688 C 50.769531 216.609375 59.660156 201.964844 59.882812 184.484375 C 60.132812 165.292969 49.777344 149.136719 48.359375 147.015625 C 46.886719 149.097656 36.113281 164.984375 35.863281 184.171875 C 35.65625 200.359375 42.925781 214.292969 46.0625 219.535156 C 46.082031 219.566406 46.09375 219.601562 46.09375 219.636719 L 46.113281 224.4375 C 46.078125 225.882812 46.082031 227.605469 46.121094 229.566406 C 46.125 229.664062 46.054688 229.75 45.960938 229.765625 C 45.863281 229.792969 45.769531 229.734375 45.734375 229.640625 C 43.316406 223.125 40.109375 217.347656 36.210938 212.476562 C 24.21875 197.492188 5.960938 191.585938 3.515625 190.847656 C 3.703125 193.394531 5.464844 212.503906 17.457031 227.488281 C 26.902344 239.289062 39.960938 245.410156 46.90625 248.007812 C 46.980469 248.035156 47.03125 248.105469 47.035156 248.183594 L 47.238281 251.671875 L 47.84375 257.085938 C 48.371094 262.171875 49.074219 267.53125 49.941406 273.015625 C 49.957031 273.113281 49.898438 273.207031 49.804688 273.238281 C 49.714844 273.269531 49.609375 273.226562 49.566406 273.140625 C 45.925781 266.1875 41.46875 260.289062 36.316406 255.617188 C 22.105469 242.722656 3.140625 239.777344 0.613281 239.433594 C 1.195312 241.917969 5.964844 260.507812 20.171875 273.402344 C 31.910156 284.054688 46.902344 287.90625 52.800781 289.066406 C 52.878906 289.082031 52.941406 289.144531 52.960938 289.222656 C 54.777344 297.664062 57.003906 306.132812 59.570312 314.386719 C 59.601562 314.480469 59.554688 314.585938 59.464844 314.628906 C 59.375 314.667969 59.265625 314.636719 59.210938 314.554688 C 55.183594 308.296875 50.484375 303.058594 45.253906 298.984375 C 30.105469 287.199219 10.976562 285.695312 8.429688 285.542969 C 9.199219 287.976562 15.355469 306.15625 30.496094 317.941406 C 43.472656 328.042969 59.136719 330.589844 65.265625 331.214844 C 65.339844 331.222656 65.40625 331.273438 65.433594 331.34375 C 68.453125 339.25 71.839844 347.027344 75.496094 354.453125 C 75.542969 354.546875 75.511719 354.65625 75.425781 354.710938 C 75.339844 354.765625 75.226562 354.75 75.160156 354.667969 C 69.113281 347.226562 62.285156 341.511719 54.863281 337.671875 C 37.820312 328.859375 18.734375 330.886719 16.203125 331.203125 C 17.40625 333.453125 26.785156 350.199219 43.832031 359.011719 C 59.289062 367 76.347656 366.085938 81.207031 365.621094 C 81.292969 365.605469 81.363281 365.652344 81.402344 365.722656 C 81.832031 366.496094 82.269531 367.261719 82.707031 368.027344 C 83.179688 368.984375 83.53125 369.640625 83.695312 369.9375 C 83.699219 369.9375 83.707031 369.9375 83.710938 369.9375 C 83.777344 369.945312 83.835938 369.980469 83.867188 370.035156 C 87.839844 376.871094 92.1875 383.644531 96.78125 390.175781 C 96.839844 390.257812 96.828125 390.371094 96.757812 390.4375 C 96.679688 390.507812 96.566406 390.507812 96.492188 390.445312 C 89.367188 384.542969 81.828125 380.367188 74.082031 378.039062 C 55.710938 372.519531 37.320312 378.019531 34.890625 378.804688 C 36.488281 380.792969 48.792969 395.523438 67.167969 401.046875 C 82.984375 405.800781 98.550781 402.480469 104.507812 400.835938 C 104.585938 400.816406 104.671875 400.84375 104.71875 400.90625 C 109.59375 407.175781 114.816406 413.335938 120.238281 419.207031 C 120.308594 419.28125 120.308594 419.390625 120.25 419.46875 C 120.1875 419.546875 120.078125 419.566406 119.992188 419.519531 C 111.886719 414.914062 103.683594 412.113281 95.613281 411.1875 C 76.546875 409.007812 59.429688 417.675781 57.175781 418.875 C 59.097656 420.550781 73.816406 432.871094 92.878906 435.054688 C 108.921875 436.890625 123.507812 431.085938 129.035156 428.503906 C 129.109375 428.46875 129.199219 428.484375 129.257812 428.542969 C 135.0625 434.28125 141.183594 439.832031 147.457031 445.042969 C 147.53125 445.105469 147.550781 445.214844 147.5 445.296875 C 147.449219 445.382812 147.347656 445.417969 147.257812 445.382812 C 139.632812 442.445312 132.105469 440.941406 124.882812 440.90625 C 124.800781 440.90625 124.71875 440.90625 124.636719 440.90625 C 105.558594 440.90625 89.609375 451.3125 87.511719 452.742188 C 89.605469 454.199219 105.578125 464.839844 124.769531 464.929688 C 124.851562 464.929688 124.9375 464.929688 125.015625 464.929688 C 140.800781 464.929688 154.429688 457.800781 159.574219 454.722656 C 159.644531 454.679688 159.734375 454.683594 159.796875 454.734375 C 167.074219 460.125 174.683594 465.214844 182.417969 469.851562 C 182.503906 469.902344 182.539062 470.011719 182.496094 470.101562 C 182.457031 470.195312 182.359375 470.246094 182.257812 470.214844 C 174.164062 467.882812 166.316406 467.042969 158.925781 467.71875 C 139.808594 469.460938 124.808594 481.441406 122.847656 483.070312 Z M 122.847656 483.070312 " fill-opacity="1" fill-rule="nonzero"/></g><g clip-path="url(#1a623144e4)"><path fill="#e37123" d="M 579.964844 273.554688 C 595.367188 259.574219 599.648438 239.199219 599.648438 239.199219 C 599.648438 239.199219 578.957031 241.488281 563.550781 255.46875 C 557.582031 260.886719 553.285156 267.265625 550.261719 273.046875 C 551.097656 267.75 551.808594 262.433594 552.355469 257.105469 L 552.964844 251.683594 L 553.167969 248.195312 C 559.507812 245.824219 573.050781 239.667969 582.703125 227.613281 C 595.699219 211.371094 596.703125 190.574219 596.703125 190.574219 C 596.703125 190.574219 576.632812 196.109375 563.632812 212.351562 C 559.195312 217.898438 556.15625 223.972656 554.078125 229.570312 C 554.117188 227.714844 554.125 225.96875 554.085938 224.4375 L 554.109375 219.636719 C 557.3125 214.28125 564.546875 200.375 564.335938 184.167969 C 564.066406 163.371094 551.636719 146.667969 551.636719 146.667969 C 551.636719 146.667969 539.644531 163.6875 539.917969 184.488281 C 540.144531 202.007812 549 216.621094 551.785156 220.792969 L 551.671875 224.386719 C 551.644531 229.636719 551.191406 235.785156 550.6875 241.6875 C 550.445312 242.945312 550.253906 244.089844 550.105469 245.082031 C 549.550781 239.828125 548.355469 234.136719 546.066406 228.519531 C 538.210938 209.261719 520.539062 198.253906 520.539062 198.253906 C 520.539062 198.253906 515.597656 218.480469 523.453125 237.742188 C 530.039062 253.898438 543.53125 264.246094 547.710938 267.160156 L 547.671875 267.449219 C 546.742188 273.492188 545.316406 279.992188 544.214844 286.03125 C 543.921875 287.144531 542.628906 292.390625 541.738281 295.972656 C 541.605469 291.113281 540.949219 285.882812 539.398438 280.628906 C 533.511719 260.679688 517.027344 247.960938 517.027344 247.960938 C 517.027344 247.960938 510.085938 267.589844 515.976562 287.542969 C 520.308594 302.230469 530.386719 312.992188 535.398438 317.648438 C 532.242188 326.96875 528.574219 336.101562 524.441406 345.019531 C 524.984375 340.773438 525.152344 336.210938 524.664062 331.503906 C 522.53125 310.8125 508.65625 295.292969 508.65625 295.292969 C 508.65625 295.292969 498.238281 313.320312 500.371094 334.011719 C 501.871094 348.570312 509.171875 360.539062 513.375 366.375 C 508.4375 374.996094 503.050781 383.355469 497.234375 391.410156 C 499.578125 384.773438 501.550781 376.300781 501.136719 367.167969 C 500.1875 346.390625 487.21875 330.101562 487.21875 330.101562 C 487.21875 330.101562 475.789062 347.503906 476.738281 368.28125 C 477.453125 384.011719 485.054688 397.160156 488.707031 402.625 C 482.121094 410.847656 475.066406 418.691406 467.601562 426.132812 C 470.488281 419.085938 474.226562 406.992188 472.867188 393.804688 C 470.734375 373.113281 456.855469 357.589844 456.855469 357.589844 C 456.855469 357.589844 446.441406 375.617188 448.574219 396.308594 C 450.265625 412.746094 459.355469 425.890625 463.027344 430.613281 C 458.746094 434.6875 454.351562 438.640625 449.820312 442.433594 C 446.757812 445.003906 443.640625 447.519531 440.480469 449.988281 C 443.386719 442.992188 447.257812 430.730469 445.878906 417.34375 C 443.746094 396.652344 429.867188 381.128906 429.867188 381.128906 C 429.867188 381.128906 419.453125 399.15625 421.585938 419.847656 C 423.226562 435.757812 431.789062 448.582031 435.667969 453.671875 C 427.433594 459.859375 418.890625 465.671875 410.054688 470.976562 C 413.398438 464.476562 418.695312 451.785156 418.117188 437.453125 C 417.277344 416.671875 404.394531 400.3125 404.394531 400.3125 C 404.394531 400.3125 392.875 417.65625 393.714844 438.441406 C 394.371094 454.757812 402.449219 468.339844 405.894531 473.425781 C 396.472656 478.859375 386.738281 483.71875 376.71875 487.859375 L 377.429688 489.867188 C 386.570312 486.285156 395.496094 482.183594 404.179688 477.621094 C 408.765625 481.132812 422.183594 490.316406 438.875 491.839844 C 459.59375 493.730469 477.496094 483.105469 477.496094 483.105469 C 477.496094 483.105469 461.8125 469.410156 441.097656 467.519531 C 432.433594 466.726562 424.269531 468.128906 417.691406 470.023438 C 425.476562 465.355469 433.03125 460.304688 440.328125 454.894531 C 445.964844 458.269531 459.484375 465.207031 475.238281 465.132812 C 496.042969 465.035156 512.847656 452.742188 512.847656 452.742188 C 512.847656 452.742188 495.925781 440.613281 475.125 440.707031 C 466.703125 440.75 458.9375 442.789062 452.679688 445.199219 C 458.980469 439.960938 465.058594 434.449219 470.886719 428.6875 C 476.578125 431.347656 491.101562 437.09375 507.148438 435.253906 C 527.816406 432.886719 543.175781 418.835938 543.175781 418.835938 C 543.175781 418.835938 525.03125 408.625 504.367188 410.992188 C 494.703125 412.097656 486.226562 415.761719 479.910156 419.347656 C 485.34375 413.460938 490.53125 407.351562 495.441406 401.03125 C 501.042969 402.582031 516.882812 406.054688 532.894531 401.242188 C 552.816406 395.253906 565.449219 378.707031 565.449219 378.707031 C 565.449219 378.707031 545.78125 371.867188 525.863281 377.851562 C 516.621094 380.628906 508.953125 385.679688 503.382812 390.292969 C 507.980469 383.761719 512.296875 377.039062 516.308594 370.140625 L 516.378906 370.222656 C 516.378906 370.222656 516.808594 369.476562 517.46875 368.132812 C 517.90625 367.367188 518.34375 366.597656 518.777344 365.824219 C 523.917969 366.320312 540.824219 367.175781 556.261719 359.191406 C 574.742188 349.640625 584.113281 331.046875 584.113281 331.046875 C 584.113281 331.046875 563.523438 327.945312 545.046875 337.496094 C 536.125 342.109375 529.332031 348.828125 524.6875 354.546875 C 528.398438 347.003906 531.75 339.277344 534.757812 331.417969 C 540.640625 330.816406 556.53125 328.300781 569.628906 318.101562 C 586.042969 305.324219 591.851562 285.332031 591.851562 285.332031 C 591.851562 285.332031 571.042969 286.054688 554.628906 298.828125 C 548.609375 303.511719 544.023438 309.164062 540.621094 314.445312 C 543.203125 306.15625 545.410156 297.75 547.238281 289.265625 C 553.730469 287.988281 568.347656 284.09375 579.964844 273.554688 Z M 579.964844 273.554688 " fill-opacity="1" fill-rule="nonzero"/><path fill="#e37123" d="M 443.835938 492.261719 C 442.199219 492.261719 440.539062 492.191406 438.859375 492.039062 C 422.390625 490.535156 409.179688 481.683594 404.160156 477.855469 C 395.421875 482.441406 386.453125 486.542969 377.503906 490.050781 C 377.453125 490.074219 377.398438 490.070312 377.347656 490.046875 C 377.296875 490.027344 377.261719 489.984375 377.242188 489.933594 L 376.53125 487.921875 C 376.492188 487.824219 376.542969 487.710938 376.640625 487.671875 C 386.285156 483.6875 396.03125 478.871094 405.609375 473.359375 C 402.089844 468.125 394.167969 454.621094 393.511719 438.445312 C 392.679688 417.835938 404.113281 400.375 404.226562 400.203125 C 404.261719 400.148438 404.320312 400.117188 404.386719 400.113281 C 404.449219 400.105469 404.511719 400.136719 404.550781 400.1875 C 404.679688 400.351562 417.484375 416.835938 418.316406 437.445312 C 418.882812 451.4375 413.835938 463.898438 410.546875 470.441406 C 418.835938 465.4375 427.1875 459.78125 435.386719 453.628906 C 431.625 448.65625 423.023438 435.757812 421.386719 419.867188 C 419.269531 399.34375 429.589844 381.207031 429.695312 381.027344 C 429.726562 380.96875 429.78125 380.933594 429.847656 380.925781 C 429.914062 380.917969 429.972656 380.945312 430.015625 380.992188 C 430.15625 381.148438 443.960938 396.800781 446.078125 417.320312 C 447.382812 429.988281 444.085938 441.617188 440.953125 449.359375 C 443.976562 446.988281 446.910156 444.609375 449.6875 442.277344 C 453.976562 438.6875 458.371094 434.757812 462.753906 430.589844 C 458.898438 425.597656 450.046875 412.574219 448.371094 396.328125 C 446.253906 375.808594 456.574219 357.667969 456.679688 357.488281 C 456.710938 357.433594 456.769531 357.398438 456.832031 357.390625 C 456.894531 357.378906 456.957031 357.410156 457.003906 357.457031 C 457.140625 357.613281 470.945312 373.265625 473.0625 393.78125 C 474.339844 406.191406 471.1875 417.617188 468.148438 425.292969 C 475.339844 418.078125 482.167969 410.453125 488.453125 402.613281 C 485.042969 397.484375 477.253906 384.128906 476.53125 368.289062 C 475.589844 347.683594 486.929688 330.160156 487.046875 329.988281 C 487.082031 329.933594 487.140625 329.898438 487.203125 329.898438 C 487.265625 329.898438 487.328125 329.921875 487.371094 329.972656 C 487.5 330.136719 500.390625 346.550781 501.332031 367.15625 C 501.664062 374.535156 500.5 382.277344 497.859375 390.1875 C 503.3125 382.558594 508.449219 374.554688 513.132812 366.382812 C 508.898438 360.480469 501.660156 348.523438 500.167969 334.027344 C 498.050781 313.507812 508.371094 295.371094 508.476562 295.191406 C 508.507812 295.136719 508.566406 295.097656 508.628906 295.09375 C 508.691406 295.085938 508.757812 295.109375 508.800781 295.15625 C 508.9375 295.3125 522.742188 310.964844 524.859375 331.484375 C 525.265625 335.421875 525.238281 339.554688 524.78125 343.789062 C 528.703125 335.226562 532.195312 326.457031 535.160156 317.707031 C 529.707031 312.625 520.035156 302.027344 515.777344 287.601562 C 509.9375 267.8125 516.761719 248.09375 516.832031 247.894531 C 516.851562 247.835938 516.902344 247.789062 516.964844 247.769531 C 517.023438 247.753906 517.089844 247.765625 517.140625 247.804688 C 517.308594 247.933594 533.746094 260.789062 539.585938 280.574219 C 540.871094 284.933594 541.644531 289.628906 541.878906 294.550781 L 542.246094 293.074219 C 543.007812 290.003906 543.796875 286.824219 544.015625 285.984375 C 544.414062 283.792969 544.867188 281.480469 545.308594 279.242188 C 546.078125 275.316406 546.878906 271.253906 547.46875 267.417969 L 547.492188 267.253906 C 543.339844 264.34375 529.832031 253.941406 523.261719 237.820312 C 515.472656 218.71875 520.289062 198.414062 520.339844 198.210938 C 520.355469 198.148438 520.398438 198.097656 520.457031 198.070312 C 520.515625 198.046875 520.582031 198.054688 520.640625 198.085938 C 520.816406 198.199219 538.457031 209.347656 546.246094 228.449219 C 548.140625 233.085938 549.445312 238.179688 550.132812 243.609375 C 550.242188 242.96875 550.359375 242.3125 550.488281 241.652344 C 550.953125 236.128906 551.4375 229.742188 551.46875 224.390625 L 551.578125 220.851562 C 548.800781 216.6875 539.9375 202.011719 539.710938 184.492188 C 539.441406 163.863281 551.347656 146.722656 551.46875 146.554688 C 551.507812 146.5 551.566406 146.46875 551.628906 146.46875 C 551.695312 146.453125 551.753906 146.5 551.792969 146.550781 C 551.917969 146.71875 564.261719 163.546875 564.53125 184.171875 C 564.742188 200.410156 557.472656 214.390625 554.304688 219.695312 L 554.28125 224.441406 C 554.308594 225.59375 554.3125 226.933594 554.292969 228.433594 C 556.675781 222.3125 559.761719 216.867188 563.472656 212.230469 C 576.359375 196.128906 596.445312 190.441406 596.644531 190.386719 C 596.707031 190.371094 596.773438 190.382812 596.824219 190.421875 C 596.875 190.460938 596.902344 190.523438 596.898438 190.589844 C 596.886719 190.796875 595.742188 211.636719 582.851562 227.742188 C 573.402344 239.550781 560.367188 245.703125 553.355469 248.339844 L 553.160156 251.699219 L 552.546875 257.132812 C 552.058594 261.867188 551.417969 266.832031 550.632812 271.914062 C 554.191406 265.371094 558.484375 259.792969 563.410156 255.324219 C 578.683594 241.464844 599.414062 239.027344 599.621094 239.007812 C 599.6875 238.996094 599.746094 239.023438 599.792969 239.070312 C 599.835938 239.121094 599.851562 239.183594 599.839844 239.246094 C 599.796875 239.453125 595.367188 259.847656 580.09375 273.707031 C 568.367188 284.347656 553.421875 288.242188 547.402344 289.441406 C 545.683594 297.398438 543.605469 305.371094 541.222656 313.164062 C 545.101562 307.386719 549.5625 302.519531 554.5 298.675781 C 570.777344 286.007812 591.628906 285.144531 591.839844 285.136719 C 591.914062 285.140625 591.964844 285.164062 592.003906 285.214844 C 592.042969 285.265625 592.058594 285.332031 592.039062 285.390625 C 591.980469 285.59375 586.027344 305.59375 569.746094 318.265625 C 556.777344 328.363281 541.144531 330.957031 534.894531 331.609375 C 532.082031 338.957031 528.957031 346.191406 525.59375 353.136719 C 531.410156 346.277344 537.914062 340.960938 544.949219 337.324219 C 563.273438 327.851562 583.929688 330.820312 584.136719 330.855469 C 584.199219 330.863281 584.253906 330.902344 584.285156 330.960938 C 584.3125 331.015625 584.316406 331.085938 584.285156 331.140625 C 584.191406 331.328125 574.671875 349.902344 556.347656 359.375 C 540.929688 367.347656 523.9375 366.515625 518.882812 366.042969 C 518.472656 366.773438 518.054688 367.507812 517.636719 368.238281 C 516.988281 369.558594 516.554688 370.320312 516.546875 370.328125 C 516.515625 370.382812 516.460938 370.421875 516.394531 370.425781 C 516.386719 370.429688 516.382812 370.421875 516.371094 370.429688 C 512.65625 376.808594 508.621094 383.128906 504.367188 389.238281 C 511.203125 383.777344 518.40625 379.890625 525.800781 377.667969 C 545.554688 371.730469 565.3125 378.453125 565.511719 378.523438 C 565.570312 378.542969 565.617188 378.59375 565.636719 378.652344 C 565.652344 378.714844 565.640625 378.78125 565.601562 378.832031 C 565.476562 379 552.703125 395.5 532.945312 401.4375 C 517.140625 406.1875 501.597656 402.933594 495.511719 401.265625 C 490.910156 407.179688 485.996094 412.996094 480.898438 418.570312 C 488.699219 414.300781 496.578125 411.683594 504.339844 410.796875 C 524.835938 408.449219 543.089844 418.566406 543.269531 418.667969 C 543.324219 418.699219 543.363281 418.753906 543.371094 418.820312 C 543.378906 418.882812 543.355469 418.945312 543.308594 418.988281 C 543.152344 419.132812 527.660156 433.113281 507.164062 435.460938 C 491.136719 437.300781 476.574219 431.5625 470.925781 428.933594 C 465.421875 434.371094 459.636719 439.632812 453.710938 444.601562 C 461.003906 441.921875 468.199219 440.546875 475.121094 440.515625 C 475.203125 440.515625 475.285156 440.515625 475.367188 440.515625 C 495.882812 440.515625 512.789062 452.464844 512.960938 452.585938 C 513.011719 452.625 513.042969 452.683594 513.042969 452.75 C 513.042969 452.816406 513.011719 452.875 512.960938 452.910156 C 512.792969 453.035156 495.863281 465.242188 475.234375 465.335938 C 475.152344 465.339844 475.070312 465.339844 474.988281 465.339844 C 459.21875 465.339844 445.597656 458.273438 440.335938 455.140625 C 433.476562 460.222656 426.320312 465.027344 419.046875 469.445312 C 426.6875 467.398438 434.109375 466.6875 441.113281 467.324219 C 461.652344 469.199219 477.46875 482.820312 477.625 482.957031 C 477.671875 483 477.695312 483.0625 477.691406 483.128906 C 477.6875 483.191406 477.648438 483.25 477.59375 483.28125 C 477.433594 483.371094 462.226562 492.261719 443.835938 492.261719 Z M 404.183594 477.417969 C 404.226562 477.417969 404.269531 477.433594 404.304688 477.460938 C 409.214844 481.222656 422.421875 490.132812 438.898438 491.636719 C 458.011719 493.390625 474.925781 484.320312 477.148438 483.070312 C 475.1875 481.4375 460.1875 469.460938 441.078125 467.714844 C 433.695312 467.042969 425.839844 467.882812 417.75 470.214844 C 417.648438 470.246094 417.550781 470.195312 417.507812 470.101562 C 417.46875 470.011719 417.503906 469.902344 417.589844 469.847656 C 425.324219 465.210938 432.933594 460.125 440.210938 454.730469 C 440.273438 454.683594 440.363281 454.679688 440.429688 454.71875 C 445.578125 457.796875 459.207031 464.929688 474.992188 464.929688 C 475.074219 464.929688 475.15625 464.929688 475.238281 464.925781 C 494.433594 464.839844 510.402344 454.199219 512.496094 452.742188 C 510.398438 451.3125 494.449219 440.902344 475.371094 440.902344 C 475.289062 440.902344 475.210938 440.90625 475.125 440.90625 C 467.90625 440.9375 460.378906 442.445312 452.75 445.382812 C 452.660156 445.417969 452.554688 445.378906 452.503906 445.296875 C 452.453125 445.210938 452.472656 445.105469 452.550781 445.042969 C 458.820312 439.832031 464.945312 434.28125 470.746094 428.542969 C 470.808594 428.484375 470.898438 428.46875 470.972656 428.503906 C 476.496094 431.085938 491.070312 436.886719 507.125 435.050781 C 526.195312 432.867188 540.90625 420.546875 542.832031 418.871094 C 540.578125 417.675781 523.457031 409.003906 504.390625 411.1875 C 496.320312 412.109375 488.117188 414.914062 480.011719 419.515625 C 479.925781 419.5625 479.816406 419.542969 479.757812 419.464844 C 479.695312 419.390625 479.699219 419.277344 479.765625 419.207031 C 485.191406 413.328125 490.410156 407.171875 495.285156 400.902344 C 495.335938 400.839844 495.417969 400.8125 495.496094 400.832031 C 501.453125 402.480469 517.019531 405.800781 532.835938 401.046875 C 551.214844 395.523438 563.519531 380.792969 565.113281 378.800781 C 562.683594 378.019531 544.296875 372.515625 525.921875 378.039062 C 518.175781 380.367188 510.636719 384.542969 503.511719 390.445312 C 503.4375 390.507812 503.324219 390.507812 503.25 390.4375 C 503.175781 390.371094 503.164062 390.257812 503.222656 390.175781 C 507.8125 383.652344 512.160156 376.878906 516.140625 370.035156 C 516.171875 369.980469 516.226562 369.941406 516.292969 369.933594 C 516.296875 369.933594 516.304688 369.933594 516.308594 369.933594 C 516.476562 369.636719 516.828125 368.984375 517.289062 368.039062 C 517.734375 367.261719 518.171875 366.492188 518.601562 365.71875 C 518.644531 365.652344 518.710938 365.605469 518.796875 365.617188 C 523.660156 366.085938 540.714844 367 556.171875 359.007812 C 573.21875 350.195312 582.601562 333.449219 583.804688 331.199219 C 581.269531 330.882812 562.183594 328.855469 545.140625 337.667969 C 537.71875 341.507812 530.890625 347.226562 524.84375 354.667969 C 524.777344 354.746094 524.664062 354.761719 524.582031 354.710938 C 524.496094 354.65625 524.464844 354.542969 524.507812 354.453125 C 528.164062 347.023438 531.550781 339.246094 534.570312 331.339844 C 534.597656 331.269531 534.664062 331.21875 534.738281 331.210938 C 540.871094 330.585938 556.535156 328.039062 569.507812 317.9375 C 584.652344 306.152344 590.808594 287.972656 591.578125 285.539062 C 589.03125 285.691406 569.894531 287.199219 554.753906 298.980469 C 549.519531 303.054688 544.824219 308.292969 540.792969 314.550781 C 540.738281 314.632812 540.628906 314.664062 540.539062 314.621094 C 540.449219 314.582031 540.402344 314.476562 540.433594 314.382812 C 543.003906 306.128906 545.226562 297.664062 547.046875 289.21875 C 547.0625 289.140625 547.125 289.078125 547.203125 289.0625 C 553.105469 287.902344 568.097656 284.050781 579.832031 273.398438 C 594.046875 260.5 598.808594 241.914062 599.394531 239.429688 C 596.863281 239.769531 577.898438 242.71875 563.6875 255.609375 C 558.539062 260.285156 554.082031 266.179688 550.4375 273.136719 C 550.394531 273.222656 550.289062 273.265625 550.199219 273.234375 C 550.105469 273.203125 550.046875 273.109375 550.0625 273.011719 C 550.929688 267.53125 551.636719 262.171875 552.160156 257.082031 L 552.769531 251.65625 L 552.972656 248.179688 C 552.976562 248.097656 553.027344 248.03125 553.101562 248 C 560.042969 245.402344 573.101562 239.285156 582.546875 227.480469 C 594.542969 212.496094 596.304688 193.386719 596.488281 190.84375 C 594.046875 191.582031 575.78125 197.492188 563.792969 212.46875 C 559.894531 217.34375 556.691406 223.117188 554.269531 229.632812 C 554.238281 229.726562 554.140625 229.785156 554.046875 229.761719 C 553.949219 229.742188 553.878906 229.65625 553.882812 229.5625 C 553.921875 227.597656 553.925781 225.875 553.890625 224.4375 L 553.914062 219.632812 C 553.914062 219.59375 553.921875 219.5625 553.941406 219.527344 C 557.078125 214.289062 564.351562 200.355469 564.140625 184.167969 C 563.890625 164.976562 553.117188 149.09375 551.648438 147.011719 C 550.226562 149.132812 539.871094 165.289062 540.121094 184.476562 C 540.347656 201.964844 549.234375 216.605469 551.953125 220.675781 C 551.976562 220.707031 551.988281 220.75 551.988281 220.792969 L 551.878906 224.386719 C 551.847656 229.75 551.363281 236.148438 550.890625 241.699219 C 550.664062 242.886719 550.46875 244.023438 550.308594 245.105469 C 550.292969 245.207031 550.222656 245.261719 550.105469 245.277344 C 550.003906 245.277344 549.921875 245.199219 549.910156 245.097656 C 549.285156 239.164062 547.929688 233.609375 545.886719 228.589844 C 538.636719 210.820312 522.804688 199.972656 520.671875 198.574219 C 520.128906 201.066406 516.394531 219.894531 523.640625 237.660156 C 530.222656 253.808594 543.820312 264.191406 547.828125 266.988281 C 547.890625 267.03125 547.925781 267.105469 547.914062 267.179688 L 547.875 267.464844 C 547.28125 271.308594 546.484375 275.375 545.710938 279.308594 C 545.269531 281.542969 544.816406 283.859375 544.414062 286.0625 C 544.191406 286.914062 543.402344 290.089844 542.640625 293.160156 L 541.933594 296.015625 C 541.910156 296.113281 541.828125 296.175781 541.71875 296.167969 C 541.621094 296.15625 541.542969 296.070312 541.539062 295.972656 C 541.394531 290.566406 540.609375 285.421875 539.210938 280.675781 C 533.777344 262.269531 519.109375 249.894531 517.125 248.289062 C 516.332031 250.714844 510.738281 269.074219 516.171875 287.476562 C 520.425781 301.894531 530.128906 312.472656 535.535156 317.492188 C 535.59375 317.546875 535.617188 317.628906 535.589844 317.703125 C 532.476562 326.902344 528.785156 336.117188 524.621094 345.097656 C 524.582031 345.1875 524.484375 345.234375 524.386719 345.207031 C 524.292969 345.179688 524.230469 345.085938 524.242188 344.988281 C 524.835938 340.347656 524.910156 335.8125 524.46875 331.519531 C 522.5 312.433594 510.347656 297.574219 508.691406 295.632812 C 507.46875 297.871094 498.601562 314.894531 500.574219 333.980469 C 502.066406 348.46875 509.339844 360.417969 513.542969 366.25 C 513.585938 366.3125 513.59375 366.398438 513.550781 366.464844 C 508.617188 375.085938 503.183594 383.515625 497.398438 391.519531 C 497.339844 391.601562 497.230469 391.628906 497.144531 391.582031 C 497.054688 391.535156 497.015625 391.429688 497.046875 391.335938 C 499.980469 383.03125 501.289062 374.898438 500.9375 367.171875 C 500.0625 348 488.777344 332.476562 487.238281 330.441406 C 485.890625 332.605469 476.066406 349.09375 476.941406 368.265625 C 477.664062 384.132812 485.53125 397.496094 488.878906 402.507812 C 488.925781 402.578125 488.921875 402.675781 488.867188 402.742188 C 482.347656 410.886719 475.238281 418.800781 467.746094 426.265625 C 467.679688 426.335938 467.574219 426.34375 467.492188 426.292969 C 467.414062 426.238281 467.382812 426.136719 467.417969 426.050781 C 470.546875 418.425781 473.996094 406.644531 472.671875 393.816406 C 470.703125 374.726562 458.550781 359.875 456.898438 357.933594 C 455.675781 360.171875 446.808594 377.195312 448.777344 396.285156 C 450.457031 412.582031 459.417969 425.628906 463.1875 430.484375 C 463.253906 430.566406 463.246094 430.679688 463.167969 430.75 C 458.738281 434.972656 454.289062 438.953125 449.953125 442.582031 C 446.992188 445.070312 443.847656 447.613281 440.609375 450.140625 C 440.539062 450.195312 440.4375 450.195312 440.367188 450.140625 C 440.292969 450.085938 440.265625 449.988281 440.300781 449.90625 C 443.496094 442.214844 447.023438 430.328125 445.6875 417.355469 C 443.71875 398.269531 431.566406 383.414062 429.910156 381.472656 C 428.6875 383.710938 419.824219 400.734375 421.792969 419.820312 C 423.4375 435.785156 432.164062 448.722656 435.839844 453.542969 C 435.871094 453.585938 435.886719 453.640625 435.878906 453.691406 C 435.871094 453.746094 435.839844 453.792969 435.800781 453.824219 C 427.339844 460.183594 418.714844 466.011719 410.167969 471.144531 C 410.09375 471.191406 409.992188 471.179688 409.925781 471.117188 C 409.863281 471.058594 409.847656 470.960938 409.886719 470.878906 C 413.140625 464.558594 418.507812 451.816406 417.929688 437.457031 C 417.152344 418.285156 405.949219 402.699219 404.421875 400.65625 C 403.058594 402.816406 393.152344 419.253906 393.925781 438.425781 C 394.582031 454.683594 402.636719 468.238281 406.070312 473.308594 C 406.101562 473.355469 406.113281 473.410156 406.101562 473.464844 C 406.089844 473.519531 406.054688 473.566406 406.007812 473.59375 C 396.414062 479.128906 386.648438 483.960938 376.984375 487.964844 L 377.5625 489.597656 C 386.472656 486.097656 395.398438 482.007812 404.101562 477.4375 C 404.117188 477.425781 404.148438 477.417969 404.183594 477.417969 Z M 404.183594 477.417969 " fill-opacity="1" fill-rule="nonzero"/></g><g clip-path="url(#23dc38d2a9)"><path fill="#e37123" d="M 310.683594 459.015625 L 296.816406 430.921875 L 282.949219 459.015625 L 251.945312 463.523438 L 274.382812 485.390625 L 269.082031 516.273438 L 296.816406 501.691406 L 324.550781 516.273438 L 319.253906 485.390625 L 341.6875 463.523438 Z M 310.683594 459.015625 " fill-opacity="1" fill-rule="nonzero"/><path fill="#e37123" d="M 324.550781 516.472656 C 324.515625 516.472656 324.484375 516.464844 324.457031 516.449219 L 296.816406 501.917969 L 269.179688 516.449219 C 269.113281 516.484375 269.03125 516.480469 268.96875 516.4375 C 268.90625 516.390625 268.875 516.316406 268.886719 516.238281 L 274.167969 485.460938 L 251.804688 463.664062 C 251.753906 463.609375 251.730469 463.53125 251.753906 463.460938 C 251.777344 463.386719 251.839844 463.335938 251.914062 463.324219 L 282.816406 458.832031 L 296.636719 430.832031 C 296.707031 430.695312 296.929688 430.695312 296.996094 430.832031 L 310.816406 458.832031 L 341.71875 463.324219 C 341.792969 463.335938 341.855469 463.386719 341.878906 463.460938 C 341.902344 463.535156 341.882812 463.613281 341.828125 463.664062 L 319.46875 485.460938 L 324.746094 516.238281 C 324.761719 516.3125 324.730469 516.390625 324.667969 516.4375 C 324.632812 516.460938 324.589844 516.472656 324.550781 516.472656 Z M 252.375 463.660156 L 274.519531 485.25 C 274.566406 485.292969 274.589844 485.359375 274.578125 485.425781 L 269.347656 515.90625 L 296.722656 501.515625 C 296.78125 501.484375 296.851562 501.484375 296.910156 501.515625 L 324.28125 515.90625 L 319.054688 485.425781 C 319.042969 485.359375 319.0625 485.292969 319.109375 485.25 L 341.257812 463.660156 L 310.652344 459.214844 C 310.589844 459.203125 310.53125 459.164062 310.5 459.105469 L 296.816406 431.375 L 283.128906 459.105469 C 283.101562 459.164062 283.042969 459.203125 282.980469 459.214844 Z M 252.375 463.660156 " fill-opacity="1" fill-rule="nonzero"/></g></svg>